<svg width="12" height="12" viewBox="0 0 12 12" fill="none" xmlns="http://www.w3.org/2000/svg">
<path d="M6.0013 10.6665C7.23898 10.6665 8.42596 10.1748 9.30113 9.29967C10.1763 8.4245 10.668 7.23751 10.668 5.99984C10.668 4.76216 10.1763 3.57518 9.30113 2.70001C8.42596 1.82484 7.23898 1.33317 6.0013 1.33317C4.76363 1.33317 3.57664 1.82484 2.70147 2.70001C1.8263 3.57518 1.33464 4.76216 1.33464 5.99984C1.33464 7.23751 1.8263 8.4245 2.70147 9.29967C3.57664 10.1748 4.76363 10.6665 6.0013 10.6665ZM6.0013 0.166504C6.76735 0.166504 7.52589 0.317388 8.23362 0.61054C8.94135 0.903692 9.58442 1.33337 10.1261 1.87505C10.6678 2.41672 11.0974 3.05978 11.3906 3.76752C11.6838 4.47525 11.8346 5.23379 11.8346 5.99984C11.8346 7.54693 11.2201 9.03066 10.1261 10.1246C9.03213 11.2186 7.5484 11.8332 6.0013 11.8332C2.77547 11.8332 0.167969 9.20817 0.167969 5.99984C0.167969 4.45274 0.78255 2.96901 1.87651 1.87505C2.97047 0.781085 4.45421 0.166504 6.0013 0.166504ZM6.29297 3.08317V6.14567L8.91797 7.70317L8.48047 8.42067L5.41797 6.58317V3.08317H6.29297Z" fill="#A7A7A7"/>
</svg>
