<svg width="29" height="29" viewBox="0 0 29 29" fill="none" xmlns="http://www.w3.org/2000/svg">
<path d="M24.8281 12.9724V5.83244C24.8281 4.25744 24.1561 3.62744 22.4866 3.62744H18.2446C16.5751 3.62744 15.9031 4.25744 15.9031 5.83244V12.9724C15.9031 14.5474 16.5751 15.1774 18.2446 15.1774H22.4866C24.1561 15.1774 24.8281 14.5474 24.8281 12.9724ZM24.8281 22.4224V20.5324C24.8281 18.9574 24.1561 18.3274 22.4866 18.3274H18.2446C16.5751 18.3274 15.9031 18.9574 15.9031 20.5324V22.4224C15.9031 23.9974 16.5751 24.6274 18.2446 24.6274H22.4866C24.1561 24.6274 24.8281 23.9974 24.8281 22.4224ZM12.7531 15.2824V22.4224C12.7531 23.9974 12.0811 24.6274 10.4116 24.6274H6.16962C4.50012 24.6274 3.82812 23.9974 3.82812 22.4224V15.2824C3.82812 13.7074 4.50012 13.0774 6.16962 13.0774H10.4116C12.0811 13.0774 12.7531 13.7074 12.7531 15.2824ZM12.7531 5.83244V7.72244C12.7531 9.29744 12.0811 9.92744 10.4116 9.92744H6.16962C4.50012 9.92744 3.82812 9.29744 3.82812 7.72244V5.83244C3.82812 4.25744 4.50012 3.62744 6.16962 3.62744H10.4116C12.0811 3.62744 12.7531 4.25744 12.7531 5.83244Z" stroke="url(#paint0_linear_3680_4805)" stroke-width="1.30909" stroke-linecap="round" stroke-linejoin="round"/>
<defs>
<linearGradient id="paint0_linear_3680_4805" x1="2.84773" y1="15.4159" x2="19.9488" y2="15.6094" gradientUnits="userSpaceOnUse">
<stop offset="0.570915" stop-color="#00B3FF"/>
<stop offset="1" stop-color="#4CC9FF"/>
</linearGradient>
</defs>
</svg>
