<svg width="882" height="34" viewBox="0 0 882 34" fill="none" xmlns="http://www.w3.org/2000/svg">
<path d="M4.56424 22.056H12.0842V25H0.916235V2.76H4.56424V22.056ZM23.103 25.288C21.439 25.288 19.935 24.9147 18.591 24.168C17.247 23.4 16.191 22.3333 15.423 20.968C14.655 19.5813 14.271 17.9813 14.271 16.168C14.271 14.376 14.6657 12.7867 15.455 11.4C16.2443 10.0133 17.3217 8.94667 18.687 8.2C20.0523 7.45333 21.5777 7.08 23.263 7.08C24.9483 7.08 26.4737 7.45333 27.839 8.2C29.2043 8.94667 30.2817 10.0133 31.071 11.4C31.8603 12.7867 32.255 14.376 32.255 16.168C32.255 17.96 31.8497 19.5493 31.039 20.936C30.2283 22.3227 29.119 23.4 27.711 24.168C26.3243 24.9147 24.7883 25.288 23.103 25.288ZM23.103 22.12C24.0417 22.12 24.9163 21.896 25.727 21.448C26.559 21 27.231 20.328 27.743 19.432C28.255 18.536 28.511 17.448 28.511 16.168C28.511 14.888 28.2657 13.8107 27.775 12.936C27.2843 12.04 26.6337 11.368 25.823 10.92C25.0123 10.472 24.1377 10.248 23.199 10.248C22.2603 10.248 21.3857 10.472 20.575 10.92C19.7857 11.368 19.1563 12.04 18.687 12.936C18.2177 13.8107 17.983 14.888 17.983 16.168C17.983 18.0667 18.463 19.5387 19.423 20.584C20.4043 21.608 21.631 22.12 23.103 22.12ZM43.8293 25.288C42.1653 25.288 40.6613 24.9147 39.3173 24.168C37.9733 23.4 36.9173 22.3333 36.1493 20.968C35.3813 19.5813 34.9973 17.9813 34.9973 16.168C34.9973 14.376 35.3919 12.7867 36.1813 11.4C36.9706 10.0133 38.0479 8.94667 39.4133 8.2C40.7786 7.45333 42.3039 7.08 43.9893 7.08C45.6746 7.08 47.1999 7.45333 48.5653 8.2C49.9306 8.94667 51.0079 10.0133 51.7973 11.4C52.5866 12.7867 52.9813 14.376 52.9813 16.168C52.9813 17.96 52.5759 19.5493 51.7653 20.936C50.9546 22.3227 49.8453 23.4 48.4373 24.168C47.0506 24.9147 45.5146 25.288 43.8293 25.288ZM43.8293 22.12C44.7679 22.12 45.6426 21.896 46.4533 21.448C47.2853 21 47.9573 20.328 48.4693 19.432C48.9813 18.536 49.2373 17.448 49.2373 16.168C49.2373 14.888 48.9919 13.8107 48.5013 12.936C48.0106 12.04 47.3599 11.368 46.5493 10.92C45.7386 10.472 44.8639 10.248 43.9253 10.248C42.9866 10.248 42.1119 10.472 41.3013 10.92C40.5119 11.368 39.8826 12.04 39.4133 12.936C38.9439 13.8107 38.7093 14.888 38.7093 16.168C38.7093 18.0667 39.1893 19.5387 40.1493 20.584C41.1306 21.608 42.3573 22.12 43.8293 22.12ZM63.8835 16.2L72.0115 25H67.0835L60.5555 17.416V25H56.9075V1.32H60.5555V15.08L66.9555 7.368H72.0115L63.8835 16.2ZM81.3462 25.288C79.9596 25.288 78.7116 25.0427 77.6022 24.552C76.5142 24.04 75.6502 23.3573 75.0102 22.504C74.3702 21.6293 74.0289 20.6587 73.9862 19.592H77.7622C77.8262 20.3387 78.1782 20.968 78.8182 21.48C79.4796 21.9707 80.3009 22.216 81.2822 22.216C82.3062 22.216 83.0956 22.024 83.6502 21.64C84.2262 21.2347 84.5142 20.7227 84.5142 20.104C84.5142 19.4427 84.1942 18.952 83.5542 18.632C82.9356 18.312 81.9436 17.96 80.5782 17.576C79.2556 17.2133 78.1782 16.8613 77.3462 16.52C76.5142 16.1787 75.7889 15.656 75.1702 14.952C74.5729 14.248 74.2742 13.32 74.2742 12.168C74.2742 11.2293 74.5516 10.376 75.1062 9.608C75.6609 8.81867 76.4502 8.2 77.4742 7.752C78.5196 7.304 79.7142 7.08 81.0582 7.08C83.0636 7.08 84.6742 7.592 85.8902 8.616C87.1276 9.61867 87.7889 10.9947 87.8742 12.744H84.2262C84.1622 11.9547 83.8422 11.3253 83.2662 10.856C82.6902 10.3867 81.9116 10.152 80.9302 10.152C79.9702 10.152 79.2342 10.3333 78.7222 10.696C78.2102 11.0587 77.9542 11.5387 77.9542 12.136C77.9542 12.6053 78.1249 13 78.4662 13.32C78.8076 13.64 79.2236 13.896 79.7142 14.088C80.2049 14.2587 80.9302 14.4827 81.8902 14.76C83.1702 15.1013 84.2156 15.4533 85.0262 15.816C85.8582 16.1573 86.5729 16.6693 87.1702 17.352C87.7676 18.0347 88.0769 18.9413 88.0982 20.072C88.0982 21.0747 87.8209 21.9707 87.2662 22.76C86.7116 23.5493 85.9222 24.168 84.8982 24.616C83.8956 25.064 82.7116 25.288 81.3462 25.288ZM104.64 1.32V25H100.992V1.32H104.64ZM111.606 5.032C110.945 5.032 110.39 4.808 109.942 4.36C109.494 3.912 109.27 3.35733 109.27 2.696C109.27 2.03467 109.494 1.48 109.942 1.032C110.39 0.583999 110.945 0.359999 111.606 0.359999C112.246 0.359999 112.79 0.583999 113.238 1.032C113.686 1.48 113.91 2.03467 113.91 2.696C113.91 3.35733 113.686 3.912 113.238 4.36C112.79 4.808 112.246 5.032 111.606 5.032ZM113.398 7.368V25H109.75V7.368H113.398ZM125.483 16.2L133.611 25H128.683L122.155 17.416V25H118.507V1.32H122.155V15.08L128.555 7.368H133.611L125.483 16.2ZM152.706 15.752C152.706 16.4133 152.664 17.0107 152.578 17.544H139.106C139.213 18.952 139.736 20.0827 140.674 20.936C141.613 21.7893 142.765 22.216 144.13 22.216C146.093 22.216 147.48 21.3947 148.29 19.752H152.226C151.693 21.3733 150.722 22.7067 149.314 23.752C147.928 24.776 146.2 25.288 144.13 25.288C142.445 25.288 140.93 24.9147 139.586 24.168C138.264 23.4 137.218 22.3333 136.45 20.968C135.704 19.5813 135.33 17.9813 135.33 16.168C135.33 14.3547 135.693 12.7653 136.418 11.4C137.165 10.0133 138.2 8.94667 139.522 8.2C140.866 7.45333 142.402 7.08 144.13 7.08C145.794 7.08 147.277 7.44267 148.578 8.168C149.88 8.89333 150.893 9.91733 151.618 11.24C152.344 12.5413 152.706 14.0453 152.706 15.752ZM148.898 14.6C148.877 13.256 148.397 12.1787 147.458 11.368C146.52 10.5573 145.357 10.152 143.97 10.152C142.712 10.152 141.634 10.5573 140.738 11.368C139.842 12.1573 139.309 13.2347 139.138 14.6H148.898ZM188.929 7.368L183.457 25H179.617L176.065 11.976L172.513 25H168.673L163.169 7.368H166.881L170.561 21.544L174.305 7.368H178.113L181.697 21.48L185.345 7.368H188.929ZM208.135 15.752C208.135 16.4133 208.092 17.0107 208.007 17.544H194.535C194.642 18.952 195.164 20.0827 196.103 20.936C197.042 21.7893 198.194 22.216 199.559 22.216C201.522 22.216 202.908 21.3947 203.719 19.752H207.655C207.122 21.3733 206.151 22.7067 204.743 23.752C203.356 24.776 201.628 25.288 199.559 25.288C197.874 25.288 196.359 24.9147 195.015 24.168C193.692 23.4 192.647 22.3333 191.879 20.968C191.132 19.5813 190.759 17.9813 190.759 16.168C190.759 14.3547 191.122 12.7653 191.847 11.4C192.594 10.0133 193.628 8.94667 194.951 8.2C196.295 7.45333 197.831 7.08 199.559 7.08C201.223 7.08 202.706 7.44267 204.007 8.168C205.308 8.89333 206.322 9.91733 207.047 11.24C207.772 12.5413 208.135 14.0453 208.135 15.752ZM204.327 14.6C204.306 13.256 203.826 12.1787 202.887 11.368C201.948 10.5573 200.786 10.152 199.399 10.152C198.14 10.152 197.063 10.5573 196.167 11.368C195.271 12.1573 194.738 13.2347 194.567 14.6H204.327ZM219.461 16.104C219.461 14.3333 219.824 12.7653 220.549 11.4C221.296 10.0347 222.299 8.97867 223.557 8.232C224.837 7.464 226.256 7.08 227.813 7.08C228.965 7.08 230.096 7.336 231.205 7.848C232.336 8.33867 233.232 9 233.893 9.832V1.32H237.573V25H233.893V22.344C233.296 23.1973 232.464 23.9013 231.397 24.456C230.352 25.0107 229.147 25.288 227.781 25.288C226.245 25.288 224.837 24.904 223.557 24.136C222.299 23.3467 221.296 22.2587 220.549 20.872C219.824 19.464 219.461 17.8747 219.461 16.104ZM233.893 16.168C233.893 14.952 233.637 13.896 233.125 13C232.635 12.104 231.984 11.4213 231.173 10.952C230.363 10.4827 229.488 10.248 228.549 10.248C227.611 10.248 226.736 10.4827 225.925 10.952C225.115 11.4 224.453 12.072 223.941 12.968C223.451 13.8427 223.205 14.888 223.205 16.104C223.205 17.32 223.451 18.3867 223.941 19.304C224.453 20.2213 225.115 20.9253 225.925 21.416C226.757 21.8853 227.632 22.12 228.549 22.12C229.488 22.12 230.363 21.8853 231.173 21.416C231.984 20.9467 232.635 20.264 233.125 19.368C233.637 18.4507 233.893 17.384 233.893 16.168ZM250.333 25.288C248.669 25.288 247.165 24.9147 245.821 24.168C244.477 23.4 243.421 22.3333 242.653 20.968C241.885 19.5813 241.501 17.9813 241.501 16.168C241.501 14.376 241.896 12.7867 242.685 11.4C243.474 10.0133 244.552 8.94667 245.917 8.2C247.282 7.45333 248.808 7.08 250.493 7.08C252.178 7.08 253.704 7.45333 255.069 8.2C256.434 8.94667 257.512 10.0133 258.301 11.4C259.09 12.7867 259.485 14.376 259.485 16.168C259.485 17.96 259.08 19.5493 258.269 20.936C257.458 22.3227 256.349 23.4 254.941 24.168C253.554 24.9147 252.018 25.288 250.333 25.288ZM250.333 22.12C251.272 22.12 252.146 21.896 252.957 21.448C253.789 21 254.461 20.328 254.973 19.432C255.485 18.536 255.741 17.448 255.741 16.168C255.741 14.888 255.496 13.8107 255.005 12.936C254.514 12.04 253.864 11.368 253.053 10.92C252.242 10.472 251.368 10.248 250.429 10.248C249.49 10.248 248.616 10.472 247.805 10.92C247.016 11.368 246.386 12.04 245.917 12.936C245.448 13.8107 245.213 14.888 245.213 16.168C245.213 18.0667 245.693 19.5387 246.653 20.584C247.634 21.608 248.861 22.12 250.333 22.12ZM272.307 7.08C273.694 7.08 274.931 7.368 276.019 7.944C277.129 8.52 277.993 9.37333 278.611 10.504C279.23 11.6347 279.539 13 279.539 14.6V25H275.923V15.144C275.923 13.5653 275.529 12.36 274.739 11.528C273.95 10.6747 272.873 10.248 271.507 10.248C270.142 10.248 269.054 10.6747 268.243 11.528C267.454 12.36 267.059 13.5653 267.059 15.144V25H263.411V7.368H267.059V9.384C267.657 8.65867 268.414 8.09333 269.331 7.688C270.27 7.28267 271.262 7.08 272.307 7.08ZM285.088 2.76H289.056L285.696 10.376H283.136L285.088 2.76ZM296.838 10.344V20.104C296.838 20.7653 296.988 21.2453 297.286 21.544C297.606 21.8213 298.14 21.96 298.886 21.96H301.126V25H298.246C296.604 25 295.345 24.616 294.47 23.848C293.596 23.08 293.158 21.832 293.158 20.104V10.344H291.078V7.368H293.158V2.984H296.838V7.368H301.126V10.344H296.838ZM322.561 7.08C323.905 7.08 325.1 7.368 326.145 7.944C327.212 8.52 328.044 9.37333 328.641 10.504C329.26 11.6347 329.569 13 329.569 14.6V25H325.953V15.144C325.953 13.5653 325.559 12.36 324.769 11.528C323.98 10.6747 322.903 10.248 321.537 10.248C320.172 10.248 319.084 10.6747 318.273 11.528C317.484 12.36 317.089 13.5653 317.089 15.144V25H313.441V1.32H317.089V9.416C317.708 8.66933 318.487 8.09333 319.425 7.688C320.385 7.28267 321.431 7.08 322.561 7.08ZM333.326 16.104C333.326 14.3333 333.689 12.7653 334.414 11.4C335.161 10.0347 336.164 8.97867 337.422 8.232C338.702 7.464 340.11 7.08 341.646 7.08C343.033 7.08 344.238 7.35733 345.262 7.912C346.308 8.44533 347.14 9.11733 347.758 9.928V7.368H351.438V25H347.758V22.376C347.14 23.208 346.297 23.9013 345.23 24.456C344.164 25.0107 342.948 25.288 341.582 25.288C340.068 25.288 338.681 24.904 337.422 24.136C336.164 23.3467 335.161 22.2587 334.414 20.872C333.689 19.464 333.326 17.8747 333.326 16.104ZM347.758 16.168C347.758 14.952 347.502 13.896 346.99 13C346.5 12.104 345.849 11.4213 345.038 10.952C344.228 10.4827 343.353 10.248 342.414 10.248C341.476 10.248 340.601 10.4827 339.79 10.952C338.98 11.4 338.318 12.072 337.806 12.968C337.316 13.8427 337.07 14.888 337.07 16.104C337.07 17.32 337.316 18.3867 337.806 19.304C338.318 20.2213 338.98 20.9253 339.79 21.416C340.622 21.8853 341.497 22.12 342.414 22.12C343.353 22.12 344.228 21.8853 345.038 21.416C345.849 20.9467 346.5 20.264 346.99 19.368C347.502 18.4507 347.758 17.384 347.758 16.168ZM363.366 21.736L368.358 7.368H372.23L365.51 25H361.158L354.47 7.368H358.374L363.366 21.736ZM391.467 15.752C391.467 16.4133 391.425 17.0107 391.339 17.544H377.867C377.974 18.952 378.497 20.0827 379.435 20.936C380.374 21.7893 381.526 22.216 382.891 22.216C384.854 22.216 386.241 21.3947 387.051 19.752H390.987C390.454 21.3733 389.483 22.7067 388.075 23.752C386.689 24.776 384.961 25.288 382.891 25.288C381.206 25.288 379.691 24.9147 378.347 24.168C377.025 23.4 375.979 22.3333 375.211 20.968C374.465 19.5813 374.091 17.9813 374.091 16.168C374.091 14.3547 374.454 12.7653 375.179 11.4C375.926 10.0133 376.961 8.94667 378.283 8.2C379.627 7.45333 381.163 7.08 382.891 7.08C384.555 7.08 386.038 7.44267 387.339 8.168C388.641 8.89333 389.654 9.91733 390.379 11.24C391.105 12.5413 391.467 14.0453 391.467 15.752ZM387.659 14.6C387.638 13.256 387.158 12.1787 386.219 11.368C385.281 10.5573 384.118 10.152 382.731 10.152C381.473 10.152 380.395 10.5573 379.499 11.368C378.603 12.1573 378.07 13.2347 377.899 14.6H387.659ZM402.794 16.104C402.794 14.3333 403.157 12.7653 403.882 11.4C404.629 10.0347 405.631 8.97867 406.89 8.232C408.17 7.464 409.578 7.08 411.114 7.08C412.501 7.08 413.706 7.35733 414.73 7.912C415.775 8.44533 416.607 9.11733 417.226 9.928V7.368H420.906V25H417.226V22.376C416.607 23.208 415.765 23.9013 414.698 24.456C413.631 25.0107 412.415 25.288 411.05 25.288C409.535 25.288 408.149 24.904 406.89 24.136C405.631 23.3467 404.629 22.2587 403.882 20.872C403.157 19.464 402.794 17.8747 402.794 16.104ZM417.226 16.168C417.226 14.952 416.97 13.896 416.458 13C415.967 12.104 415.317 11.4213 414.506 10.952C413.695 10.4827 412.821 10.248 411.882 10.248C410.943 10.248 410.069 10.4827 409.258 10.952C408.447 11.4 407.786 12.072 407.274 12.968C406.783 13.8427 406.538 14.888 406.538 16.104C406.538 17.32 406.783 18.3867 407.274 19.304C407.786 20.2213 408.447 20.9253 409.258 21.416C410.09 21.8853 410.965 22.12 411.882 22.12C412.821 22.12 413.695 21.8853 414.506 21.416C415.317 20.9467 415.967 20.264 416.458 19.368C416.97 18.4507 417.226 17.384 417.226 16.168ZM455.994 7.08C457.381 7.08 458.618 7.368 459.706 7.944C460.815 8.52 461.679 9.37333 462.298 10.504C462.938 11.6347 463.258 13 463.258 14.6V25H459.642V15.144C459.642 13.5653 459.247 12.36 458.458 11.528C457.669 10.6747 456.591 10.248 455.226 10.248C453.861 10.248 452.773 10.6747 451.962 11.528C451.173 12.36 450.778 13.5653 450.778 15.144V25H447.162V15.144C447.162 13.5653 446.767 12.36 445.978 11.528C445.189 10.6747 444.111 10.248 442.746 10.248C441.381 10.248 440.293 10.6747 439.482 11.528C438.693 12.36 438.298 13.5653 438.298 15.144V25H434.65V7.368H438.298V9.384C438.895 8.65867 439.653 8.09333 440.57 7.688C441.487 7.28267 442.469 7.08 443.514 7.08C444.922 7.08 446.181 7.37867 447.29 7.976C448.399 8.57333 449.253 9.43733 449.85 10.568C450.383 9.50133 451.215 8.65867 452.346 8.04C453.477 7.4 454.693 7.08 455.994 7.08ZM484.38 15.752C484.38 16.4133 484.337 17.0107 484.252 17.544H470.78C470.887 18.952 471.409 20.0827 472.348 20.936C473.287 21.7893 474.439 22.216 475.804 22.216C477.767 22.216 479.153 21.3947 479.964 19.752H483.9C483.367 21.3733 482.396 22.7067 480.988 23.752C479.601 24.776 477.873 25.288 475.804 25.288C474.119 25.288 472.604 24.9147 471.26 24.168C469.937 23.4 468.892 22.3333 468.124 20.968C467.377 19.5813 467.004 17.9813 467.004 16.168C467.004 14.3547 467.367 12.7653 468.092 11.4C468.839 10.0133 469.873 8.94667 471.196 8.2C472.54 7.45333 474.076 7.08 475.804 7.08C477.468 7.08 478.951 7.44267 480.252 8.168C481.553 8.89333 482.567 9.91733 483.292 11.24C484.017 12.5413 484.38 14.0453 484.38 15.752ZM480.572 14.6C480.551 13.256 480.071 12.1787 479.132 11.368C478.193 10.5573 477.031 10.152 475.644 10.152C474.385 10.152 473.308 10.5573 472.412 11.368C471.516 12.1573 470.983 13.2347 470.812 14.6H480.572ZM497.186 7.08C498.573 7.08 499.81 7.368 500.898 7.944C502.007 8.52 502.871 9.37333 503.49 10.504C504.109 11.6347 504.418 13 504.418 14.6V25H500.802V15.144C500.802 13.5653 500.407 12.36 499.618 11.528C498.829 10.6747 497.751 10.248 496.386 10.248C495.021 10.248 493.933 10.6747 493.122 11.528C492.333 12.36 491.938 13.5653 491.938 15.144V25H488.29V7.368H491.938V9.384C492.535 8.65867 493.293 8.09333 494.21 7.688C495.149 7.28267 496.141 7.08 497.186 7.08ZM513.647 10.344V20.104C513.647 20.7653 513.797 21.2453 514.095 21.544C514.415 21.8213 514.949 21.96 515.695 21.96H517.935V25H515.055C513.413 25 512.154 24.616 511.279 23.848C510.405 23.08 509.967 21.832 509.967 20.104V10.344H507.887V7.368H509.967V2.984H513.647V7.368H517.935V10.344H513.647ZM529.265 25.288C527.601 25.288 526.097 24.9147 524.753 24.168C523.409 23.4 522.353 22.3333 521.585 20.968C520.817 19.5813 520.433 17.9813 520.433 16.168C520.433 14.376 520.828 12.7867 521.617 11.4C522.407 10.0133 523.484 8.94667 524.849 8.2C526.215 7.45333 527.74 7.08 529.425 7.08C531.111 7.08 532.636 7.45333 534.001 8.2C535.367 8.94667 536.444 10.0133 537.233 11.4C538.023 12.7867 538.417 14.376 538.417 16.168C538.417 17.96 538.012 19.5493 537.201 20.936C536.391 22.3227 535.281 23.4 533.873 24.168C532.487 24.9147 530.951 25.288 529.265 25.288ZM529.265 22.12C530.204 22.12 531.079 21.896 531.889 21.448C532.721 21 533.393 20.328 533.905 19.432C534.417 18.536 534.673 17.448 534.673 16.168C534.673 14.888 534.428 13.8107 533.937 12.936C533.447 12.04 532.796 11.368 531.985 10.92C531.175 10.472 530.3 10.248 529.361 10.248C528.423 10.248 527.548 10.472 526.737 10.92C525.948 11.368 525.319 12.04 524.849 12.936C524.38 13.8107 524.145 14.888 524.145 16.168C524.145 18.0667 524.625 19.5387 525.585 20.584C526.567 21.608 527.793 22.12 529.265 22.12ZM545.992 9.928C546.525 9.032 547.229 8.33867 548.104 7.848C549 7.336 550.056 7.08 551.272 7.08V10.856H550.344C548.914 10.856 547.826 11.2187 547.08 11.944C546.354 12.6693 545.992 13.928 545.992 15.72V25H542.344V7.368H545.992V9.928ZM565.433 5.032C564.772 5.032 564.217 4.808 563.769 4.36C563.321 3.912 563.097 3.35733 563.097 2.696C563.097 2.03467 563.321 1.48 563.769 1.032C564.217 0.583999 564.772 0.359999 565.433 0.359999C566.073 0.359999 566.617 0.583999 567.065 1.032C567.513 1.48 567.737 2.03467 567.737 2.696C567.737 3.35733 567.513 3.912 567.065 4.36C566.617 4.808 566.073 5.032 565.433 5.032ZM567.225 7.368V25H563.577V7.368H567.225ZM581.231 7.08C582.618 7.08 583.855 7.368 584.943 7.944C586.052 8.52 586.916 9.37333 587.535 10.504C588.154 11.6347 588.463 13 588.463 14.6V25H584.847V15.144C584.847 13.5653 584.452 12.36 583.663 11.528C582.874 10.6747 581.796 10.248 580.431 10.248C579.066 10.248 577.978 10.6747 577.167 11.528C576.378 12.36 575.983 13.5653 575.983 15.144V25H572.335V7.368H575.983V9.384C576.58 8.65867 577.338 8.09333 578.255 7.688C579.194 7.28267 580.186 7.08 581.231 7.08ZM606.325 10.344V20.104C606.325 20.7653 606.474 21.2453 606.773 21.544C607.093 21.8213 607.626 21.96 608.373 21.96H610.613V25H607.733C606.09 25 604.831 24.616 603.957 23.848C603.082 23.08 602.645 21.832 602.645 20.104V10.344H600.565V7.368H602.645V2.984H606.325V7.368H610.613V10.344H606.325ZM623.415 7.08C624.759 7.08 625.954 7.368 626.999 7.944C628.066 8.52 628.898 9.37333 629.495 10.504C630.114 11.6347 630.423 13 630.423 14.6V25H626.807V15.144C626.807 13.5653 626.412 12.36 625.623 11.528C624.834 10.6747 623.756 10.248 622.391 10.248C621.026 10.248 619.938 10.6747 619.127 11.528C618.338 12.36 617.943 13.5653 617.943 15.144V25H614.295V1.32H617.943V9.416C618.562 8.66933 619.34 8.09333 620.279 7.688C621.239 7.28267 622.284 7.08 623.415 7.08ZM637.252 5.032C636.591 5.032 636.036 4.808 635.588 4.36C635.14 3.912 634.916 3.35733 634.916 2.696C634.916 2.03467 635.14 1.48 635.588 1.032C636.036 0.583999 636.591 0.359999 637.252 0.359999C637.892 0.359999 638.436 0.583999 638.884 1.032C639.332 1.48 639.556 2.03467 639.556 2.696C639.556 3.35733 639.332 3.912 638.884 4.36C638.436 4.808 637.892 5.032 637.252 5.032ZM639.044 7.368V25H635.396V7.368H639.044ZM650.554 25.288C649.167 25.288 647.919 25.0427 646.81 24.552C645.722 24.04 644.858 23.3573 644.218 22.504C643.578 21.6293 643.236 20.6587 643.194 19.592H646.97C647.034 20.3387 647.386 20.968 648.026 21.48C648.687 21.9707 649.508 22.216 650.49 22.216C651.514 22.216 652.303 22.024 652.858 21.64C653.434 21.2347 653.722 20.7227 653.722 20.104C653.722 19.4427 653.402 18.952 652.762 18.632C652.143 18.312 651.151 17.96 649.786 17.576C648.463 17.2133 647.386 16.8613 646.554 16.52C645.722 16.1787 644.996 15.656 644.378 14.952C643.78 14.248 643.482 13.32 643.482 12.168C643.482 11.2293 643.759 10.376 644.314 9.608C644.868 8.81867 645.658 8.2 646.682 7.752C647.727 7.304 648.922 7.08 650.266 7.08C652.271 7.08 653.882 7.592 655.098 8.616C656.335 9.61867 656.996 10.9947 657.082 12.744H653.434C653.37 11.9547 653.05 11.3253 652.474 10.856C651.898 10.3867 651.119 10.152 650.138 10.152C649.178 10.152 648.442 10.3333 647.93 10.696C647.418 11.0587 647.162 11.5387 647.162 12.136C647.162 12.6053 647.332 13 647.674 13.32C648.015 13.64 648.431 13.896 648.922 14.088C649.412 14.2587 650.138 14.4827 651.098 14.76C652.378 15.1013 653.423 15.4533 654.234 15.816C655.066 16.1573 655.78 16.6693 656.378 17.352C656.975 18.0347 657.284 18.9413 657.306 20.072C657.306 21.0747 657.028 21.9707 656.474 22.76C655.919 23.5493 655.13 24.168 654.106 24.616C653.103 25.064 651.919 25.288 650.554 25.288ZM668.984 16.168C668.984 14.3547 669.347 12.7653 670.072 11.4C670.819 10.0133 671.843 8.94667 673.144 8.2C674.445 7.45333 675.939 7.08 677.624 7.08C679.757 7.08 681.517 7.592 682.904 8.616C684.312 9.61867 685.261 11.0587 685.752 12.936H681.816C681.496 12.0613 680.984 11.3787 680.28 10.888C679.576 10.3973 678.691 10.152 677.624 10.152C676.131 10.152 674.936 10.6853 674.04 11.752C673.165 12.7973 672.728 14.2693 672.728 16.168C672.728 18.0667 673.165 19.5493 674.04 20.616C674.936 21.6827 676.131 22.216 677.624 22.216C679.736 22.216 681.133 21.288 681.816 19.432H685.752C685.24 21.224 684.28 22.6533 682.872 23.72C681.464 24.7653 679.715 25.288 677.624 25.288C675.939 25.288 674.445 24.9147 673.144 24.168C671.843 23.4 670.819 22.3333 670.072 20.968C669.347 19.5813 668.984 17.9813 668.984 16.168ZM688.491 16.104C688.491 14.3333 688.854 12.7653 689.579 11.4C690.326 10.0347 691.329 8.97867 692.587 8.232C693.867 7.464 695.275 7.08 696.811 7.08C698.198 7.08 699.403 7.35733 700.427 7.912C701.473 8.44533 702.305 9.11733 702.923 9.928V7.368H706.603V25H702.923V22.376C702.305 23.208 701.462 23.9013 700.395 24.456C699.329 25.0107 698.113 25.288 696.747 25.288C695.233 25.288 693.846 24.904 692.587 24.136C691.329 23.3467 690.326 22.2587 689.579 20.872C688.854 19.464 688.491 17.8747 688.491 16.104ZM702.923 16.168C702.923 14.952 702.667 13.896 702.155 13C701.665 12.104 701.014 11.4213 700.203 10.952C699.393 10.4827 698.518 10.248 697.579 10.248C696.641 10.248 695.766 10.4827 694.955 10.952C694.145 11.4 693.483 12.072 692.971 12.968C692.481 13.8427 692.235 14.888 692.235 16.104C692.235 17.32 692.481 18.3867 692.971 19.304C693.483 20.2213 694.145 20.9253 694.955 21.416C695.787 21.8853 696.662 22.12 697.579 22.12C698.518 22.12 699.393 21.8853 700.203 21.416C701.014 20.9467 701.665 20.264 702.155 19.368C702.667 18.4507 702.923 17.384 702.923 16.168ZM715.971 10.344V20.104C715.971 20.7653 716.12 21.2453 716.419 21.544C716.739 21.8213 717.272 21.96 718.019 21.96H720.259V25H717.379C715.736 25 714.478 24.616 713.603 23.848C712.728 23.08 712.291 21.832 712.291 20.104V10.344H710.211V7.368H712.291V2.984H715.971V7.368H720.259V10.344H715.971ZM740.101 15.752C740.101 16.4133 740.059 17.0107 739.973 17.544H726.501C726.608 18.952 727.131 20.0827 728.069 20.936C729.008 21.7893 730.16 22.216 731.525 22.216C733.488 22.216 734.875 21.3947 735.685 19.752H739.621C739.088 21.3733 738.117 22.7067 736.709 23.752C735.323 24.776 733.595 25.288 731.525 25.288C729.84 25.288 728.325 24.9147 726.981 24.168C725.659 23.4 724.613 22.3333 723.845 20.968C723.099 19.5813 722.725 17.9813 722.725 16.168C722.725 14.3547 723.088 12.7653 723.813 11.4C724.56 10.0133 725.595 8.94667 726.917 8.2C728.261 7.45333 729.797 7.08 731.525 7.08C733.189 7.08 734.672 7.44267 735.973 8.168C737.275 8.89333 738.288 9.91733 739.013 11.24C739.739 12.5413 740.101 14.0453 740.101 15.752ZM736.293 14.6C736.272 13.256 735.792 12.1787 734.853 11.368C733.915 10.5573 732.752 10.152 731.365 10.152C730.107 10.152 729.029 10.5573 728.133 11.368C727.237 12.1573 726.704 13.2347 726.533 14.6H736.293ZM751.115 7.08C752.481 7.08 753.686 7.35733 754.731 7.912C755.798 8.44533 756.63 9.11733 757.227 9.928V7.368H760.907V25.288C760.907 26.9093 760.566 28.3493 759.883 29.608C759.201 30.888 758.209 31.8907 756.907 32.616C755.627 33.3413 754.091 33.704 752.299 33.704C749.91 33.704 747.926 33.1387 746.347 32.008C744.769 30.8987 743.873 29.384 743.659 27.464H747.275C747.553 28.3813 748.139 29.1173 749.035 29.672C749.953 30.248 751.041 30.536 752.299 30.536C753.771 30.536 754.955 30.088 755.851 29.192C756.769 28.296 757.227 26.9947 757.227 25.288V22.344C756.609 23.176 755.766 23.88 754.699 24.456C753.654 25.0107 752.459 25.288 751.115 25.288C749.579 25.288 748.171 24.904 746.891 24.136C745.633 23.3467 744.63 22.2587 743.883 20.872C743.158 19.464 742.795 17.8747 742.795 16.104C742.795 14.3333 743.158 12.7653 743.883 11.4C744.63 10.0347 745.633 8.97867 746.891 8.232C748.171 7.464 749.579 7.08 751.115 7.08ZM757.227 16.168C757.227 14.952 756.971 13.896 756.459 13C755.969 12.104 755.318 11.4213 754.507 10.952C753.697 10.4827 752.822 10.248 751.883 10.248C750.945 10.248 750.07 10.4827 749.259 10.952C748.449 11.4 747.787 12.072 747.275 12.968C746.785 13.8427 746.539 14.888 746.539 16.104C746.539 17.32 746.785 18.3867 747.275 19.304C747.787 20.2213 748.449 20.9253 749.259 21.416C750.091 21.8853 750.966 22.12 751.883 22.12C752.822 22.12 753.697 21.8853 754.507 21.416C755.318 20.9467 755.969 20.264 756.459 19.368C756.971 18.4507 757.227 17.384 757.227 16.168ZM773.667 25.288C772.003 25.288 770.499 24.9147 769.155 24.168C767.811 23.4 766.755 22.3333 765.987 20.968C765.219 19.5813 764.835 17.9813 764.835 16.168C764.835 14.376 765.229 12.7867 766.019 11.4C766.808 10.0133 767.885 8.94667 769.251 8.2C770.616 7.45333 772.141 7.08 773.827 7.08C775.512 7.08 777.037 7.45333 778.403 8.2C779.768 8.94667 780.845 10.0133 781.635 11.4C782.424 12.7867 782.819 14.376 782.819 16.168C782.819 17.96 782.413 19.5493 781.603 20.936C780.792 22.3227 779.683 23.4 778.275 24.168C776.888 24.9147 775.352 25.288 773.667 25.288ZM773.667 22.12C774.605 22.12 775.48 21.896 776.291 21.448C777.123 21 777.795 20.328 778.307 19.432C778.819 18.536 779.075 17.448 779.075 16.168C779.075 14.888 778.829 13.8107 778.339 12.936C777.848 12.04 777.197 11.368 776.387 10.92C775.576 10.472 774.701 10.248 773.763 10.248C772.824 10.248 771.949 10.472 771.139 10.92C770.349 11.368 769.72 12.04 769.251 12.936C768.781 13.8107 768.547 14.888 768.547 16.168C768.547 18.0667 769.027 19.5387 769.987 20.584C770.968 21.608 772.195 22.12 773.667 22.12ZM790.393 9.928C790.926 9.032 791.63 8.33867 792.505 7.848C793.401 7.336 794.457 7.08 795.673 7.08V10.856H794.745C793.316 10.856 792.228 11.2187 791.481 11.944C790.756 12.6693 790.393 13.928 790.393 15.72V25H786.745V7.368H790.393V9.928ZM815.218 7.368L804.402 33.288H800.626L804.21 24.712L797.266 7.368H801.33L806.29 20.808L811.442 7.368H815.218ZM842.796 7.368L831.98 33.288H828.204L831.788 24.712L824.844 7.368H828.908L833.868 20.808L839.02 7.368H842.796ZM862.029 15.752C862.029 16.4133 861.986 17.0107 861.901 17.544H848.429C848.535 18.952 849.058 20.0827 849.997 20.936C850.935 21.7893 852.087 22.216 853.453 22.216C855.415 22.216 856.802 21.3947 857.613 19.752H861.549C861.015 21.3733 860.045 22.7067 858.637 23.752C857.25 24.776 855.522 25.288 853.453 25.288C851.767 25.288 850.253 24.9147 848.909 24.168C847.586 23.4 846.541 22.3333 845.773 20.968C845.026 19.5813 844.653 17.9813 844.653 16.168C844.653 14.3547 845.015 12.7653 845.741 11.4C846.487 10.0133 847.522 8.94667 848.845 8.2C850.189 7.45333 851.725 7.08 853.453 7.08C855.117 7.08 856.599 7.44267 857.901 8.168C859.202 8.89333 860.215 9.91733 860.941 11.24C861.666 12.5413 862.029 14.0453 862.029 15.752ZM858.221 14.6C858.199 13.256 857.719 12.1787 856.781 11.368C855.842 10.5573 854.679 10.152 853.293 10.152C852.034 10.152 850.957 10.5573 850.061 11.368C849.165 12.1573 848.631 13.2347 848.461 14.6H858.221ZM870.195 10.344V20.104C870.195 20.7653 870.344 21.2453 870.643 21.544C870.963 21.8213 871.496 21.96 872.243 21.96H874.483V25H871.603C869.96 25 868.701 24.616 867.827 23.848C866.952 23.08 866.515 21.832 866.515 20.104V10.344H864.435V7.368H866.515V2.984H870.195V7.368H874.483V10.344H870.195ZM879.637 25.224C878.976 25.224 878.421 25 877.973 24.552C877.525 24.104 877.301 23.5493 877.301 22.888C877.301 22.2267 877.525 21.672 877.973 21.224C878.421 20.776 878.976 20.552 879.637 20.552C880.277 20.552 880.821 20.776 881.269 21.224C881.717 21.672 881.941 22.2267 881.941 22.888C881.941 23.5493 881.717 24.104 881.269 24.552C880.821 25 880.277 25.224 879.637 25.224Z" fill="white"/>
</svg>
