<svg width="24" height="25" viewBox="0 0 24 25" fill="none" xmlns="http://www.w3.org/2000/svg">
<path d="M12.207 2.79303C12.3945 2.98056 12.4998 3.23487 12.4998 3.50003C12.4998 3.76519 12.3945 4.0195 12.207 4.20703L10.914 5.50003H12.5C17.152 5.50003 21 9.34803 21 14C21 18.652 17.152 22.5 12.5 22.5C7.848 22.5 4 18.652 4 14C4 13.7348 4.10536 13.4805 4.29289 13.2929C4.48043 13.1054 4.73478 13 5 13C5.26522 13 5.51957 13.1054 5.70711 13.2929C5.89464 13.4805 6 13.7348 6 14C6 17.548 8.952 20.5 12.5 20.5C16.048 20.5 19 17.548 19 14C19 10.452 16.048 7.50003 12.5 7.50003H10.914L12.207 8.79303C12.3892 8.98163 12.49 9.23423 12.4877 9.49643C12.4854 9.75863 12.3802 10.0094 12.1948 10.1948C12.0094 10.3803 11.7586 10.4854 11.4964 10.4877C11.2342 10.49 10.9816 10.3892 10.793 10.207L7.793 7.20703C7.60553 7.0195 7.50021 6.76519 7.50021 6.50003C7.50021 6.23487 7.60553 5.98056 7.793 5.79303L10.793 2.79303C10.9805 2.60556 11.2348 2.50024 11.5 2.50024C11.7652 2.50024 12.0195 2.60556 12.207 2.79303Z" fill="url(#paint0_linear_4835_24998)"/>
<defs>
<linearGradient id="paint0_linear_4835_24998" x1="4.89837" y1="6.02962" x2="21.8949" y2="7.01165" gradientUnits="userSpaceOnUse">
<stop offset="0.315531" stop-color="#FFF278"/>
<stop offset="1" stop-color="#F8B533"/>
</linearGradient>
</defs>
</svg>
