<svg width="77" height="77" viewBox="0 0 77 77" fill="none" xmlns="http://www.w3.org/2000/svg">
<g clip-path="url(#clip0_2043_12591)">
<g filter="url(#filter0_di_2043_12591)">
<circle cx="37.3238" cy="38.1432" r="31.1432" fill="#5B40FF"/>
</g>
<g filter="url(#filter1_d_2043_12591)">
<path d="M42.328 29C40.156 29 38.212 30.056 37 31.676C36.381 30.8466 35.5771 30.1729 34.6522 29.7084C33.7274 29.2438 32.707 29.0013 31.672 29C27.988 29 25 32 25 35.708C25 37.136 25.228 38.456 25.624 39.68C27.52 45.68 33.364 49.268 36.256 50.252C36.664 50.396 37.336 50.396 37.744 50.252C40.636 49.268 46.48 45.68 48.376 39.68C48.772 38.456 49 37.136 49 35.708C49 32 46.012 29 42.328 29Z" fill="white"/>
</g>
</g>
<defs>
<filter id="filter0_di_2043_12591" x="-1.81934" y="3" width="78.2861" height="78.2852" filterUnits="userSpaceOnUse" color-interpolation-filters="sRGB">
<feFlood flood-opacity="0" result="BackgroundImageFix"/>
<feColorMatrix in="SourceAlpha" type="matrix" values="0 0 0 0 0 0 0 0 0 0 0 0 0 0 0 0 0 0 127 0" result="hardAlpha"/>
<feOffset dy="4"/>
<feGaussianBlur stdDeviation="4"/>
<feComposite in2="hardAlpha" operator="out"/>
<feColorMatrix type="matrix" values="0 0 0 0 0 0 0 0 0 0 0 0 0 0 0 0 0 0 0.25 0"/>
<feBlend mode="normal" in2="BackgroundImageFix" result="effect1_dropShadow_2043_12591"/>
<feBlend mode="normal" in="SourceGraphic" in2="effect1_dropShadow_2043_12591" result="shape"/>
<feColorMatrix in="SourceAlpha" type="matrix" values="0 0 0 0 0 0 0 0 0 0 0 0 0 0 0 0 0 0 127 0" result="hardAlpha"/>
<feOffset/>
<feGaussianBlur stdDeviation="8"/>
<feComposite in2="hardAlpha" operator="arithmetic" k2="-1" k3="1"/>
<feColorMatrix type="matrix" values="0 0 0 0 0.181746 0 0 0 0 0.123177 0 0 0 0 0.5375 0 0 0 1 0"/>
<feBlend mode="normal" in2="shape" result="effect2_innerShadow_2043_12591"/>
</filter>
<filter id="filter1_d_2043_12591" x="19" y="23" width="36" height="33.3594" filterUnits="userSpaceOnUse" color-interpolation-filters="sRGB">
<feFlood flood-opacity="0" result="BackgroundImageFix"/>
<feColorMatrix in="SourceAlpha" type="matrix" values="0 0 0 0 0 0 0 0 0 0 0 0 0 0 0 0 0 0 127 0" result="hardAlpha"/>
<feOffset/>
<feGaussianBlur stdDeviation="3"/>
<feComposite in2="hardAlpha" operator="out"/>
<feColorMatrix type="matrix" values="0 0 0 0 0.180392 0 0 0 0 0.121569 0 0 0 0 0.537255 0 0 0 0.25 0"/>
<feBlend mode="normal" in2="BackgroundImageFix" result="effect1_dropShadow_2043_12591"/>
<feBlend mode="normal" in="SourceGraphic" in2="effect1_dropShadow_2043_12591" result="shape"/>
</filter>
<clipPath id="clip0_2043_12591">
<rect width="76.8198" height="76.8198" fill="white"/>
</clipPath>
</defs>
</svg>
