<svg width="20" height="20" viewBox="0 0 20 20" fill="none" xmlns="http://www.w3.org/2000/svg">
<path d="M6.6666 5.00033V4.33366C6.6666 2.85866 6.6666 1.66699 9.33327 1.66699H10.6666C13.3333 1.66699 13.3333 2.85866 13.3333 4.33366V5.00033M6.6666 18.3337H13.3333C16.6833 18.3337 17.2833 16.992 17.4583 15.3587L18.0833 8.69199C18.3083 6.65866 17.7249 5.00033 14.1666 5.00033H5.83327C2.27494 5.00033 1.6916 6.65866 1.9166 8.69199L2.5416 15.3587C2.7166 16.992 3.3166 18.3337 6.6666 18.3337Z" stroke="#D5D5D5" stroke-miterlimit="10" stroke-linecap="round" stroke-linejoin="round"/>
<path d="M11.6667 11.6837V10.8337C11.6667 10.0003 11.6667 10.0003 10.8334 10.0003H9.16668C8.33335 10.0003 8.33335 10.0003 8.33335 10.8337V11.692M11.6667 11.6837C11.6667 12.592 11.6584 13.3337 10 13.3337C8.35002 13.3337 8.33335 12.6003 8.33335 11.692M11.6667 11.6837C13.9702 11.3969 16.1635 10.531 18.0417 9.16699M8.33335 11.692C6.17502 11.4503 4.05835 10.6753 2.18335 9.39199" stroke="#D5D5D5" stroke-miterlimit="10" stroke-linecap="round" stroke-linejoin="round"/>
</svg>
