<svg width="19" height="19" viewBox="0 0 19 19" fill="none" xmlns="http://www.w3.org/2000/svg">
<path d="M4.79513 2.08689C4.85388 1.55815 5.30136 1.15699 5.82979 1.15699H16.2256C17.4708 1.15699 18.4802 2.16637 18.4802 3.41151V13.4895C18.4802 14.1492 17.9453 14.6841 17.2855 14.6841H16.7869C16.64 14.6841 16.5057 14.6011 16.44 14.4697C16.4131 14.4159 16.3991 14.3565 16.3991 14.2963V6.53314C16.3991 4.71333 14.9238 3.23808 13.104 3.23808H5.82018C5.20755 3.23808 4.72694 2.70059 4.79513 2.08689Z" stroke="white" stroke-width="1.04055"/>
<rect x="2.87184" y="3.23902" width="13.5271" height="13.5271" rx="2.25452" stroke="white" stroke-width="1.04055"/>
<path d="M7.20771 8.96229C7.57567 8.96229 7.92856 8.81612 8.18874 8.55593C8.44893 8.29574 8.5951 7.94285 8.5951 7.57489C8.5951 7.20693 8.44893 6.85405 8.18874 6.59386C7.92856 6.33367 7.57567 6.1875 7.20771 6.1875C6.83975 6.1875 6.48686 6.33367 6.22667 6.59386C5.96648 6.85405 5.82031 7.20693 5.82031 7.57489C5.82031 7.94285 5.96648 8.29574 6.22667 8.55593C6.48686 8.81612 6.83975 8.96229 7.20771 8.96229Z" stroke="white" stroke-width="1.04055" stroke-linecap="round" stroke-linejoin="round"/>
<path d="M2.81641 15.1706L6.23633 12.8744C6.78436 12.5068 7.57517 12.5484 8.0677 12.9716L8.29662 13.1727C8.8377 13.6375 9.71176 13.6375 10.2528 13.1727L13.1386 10.6962C13.6797 10.2315 14.5538 10.2315 15.0949 10.6962L16.2256 11.6674" stroke="white" stroke-width="1.04055" stroke-linecap="round" stroke-linejoin="round"/>
</svg>
