<svg width="90" height="90" viewBox="0 0 90 90" fill="none" xmlns="http://www.w3.org/2000/svg">
<circle cx="45.934" cy="45.934" r="43.434" fill="#1A1E28" stroke="url(#paint0_linear_5213_3019)"/>
<g clip-path="url(#clip0_5213_3019)">
<path d="M57.4078 45.746L61.1164 43.8917C61.259 43.8204 61.386 43.7215 61.4899 43.6006C61.5938 43.4797 61.6726 43.3393 61.7216 43.1877C61.7707 43.036 61.7891 42.8761 61.7757 42.7173C61.7623 42.5584 61.7174 42.4038 61.6436 42.2625L57.9537 35.1962C57.8081 34.9172 57.5587 34.7066 57.2593 34.6097C56.9599 34.5129 56.6344 34.5374 56.353 34.6782L52.6066 36.5513L57.4078 45.746ZM57.4078 45.746L55.0072 48.5544L49.4862 54.0754C49.3397 54.222 49.1576 54.3281 48.9579 54.3834C48.7581 54.4388 48.5474 54.4414 48.3464 54.3912L39.6506 52.2172C39.4875 52.1764 39.3348 52.1019 39.2023 51.9983L31.001 45.5852M31.001 45.5852L27.2924 43.7309C27.1498 43.6596 27.0229 43.5606 26.919 43.4398C26.8151 43.3189 26.7363 43.1785 26.6872 43.0269C26.6381 42.8752 26.6198 42.7153 26.6332 42.5564C26.6465 42.3976 26.6914 42.243 26.7652 42.1017L30.4551 35.0354C30.6008 34.7564 30.8502 34.5458 31.1496 34.4489C31.449 34.352 31.7744 34.3766 32.0559 34.5173L35.8023 36.3905L31.001 45.5852Z" stroke="url(#paint1_linear_5213_3019)" stroke-width="3.11432" stroke-linecap="round" stroke-linejoin="round"/>
<path d="M55.0068 48.5573L48.4051 43.7561L46.4846 45.1964C45.6535 45.8197 44.6427 46.1567 43.6039 46.1567C42.565 46.1567 41.5542 45.8197 40.7231 45.1964L39.9098 44.5864C39.7722 44.4833 39.6584 44.3517 39.5761 44.2007C39.4938 44.0497 39.4449 43.8828 39.4327 43.7113C39.4205 43.5397 39.4453 43.3676 39.5055 43.2065C39.5656 43.0454 39.6596 42.899 39.7813 42.7774L45.6529 36.9058C45.7644 36.7943 45.8967 36.7059 46.0423 36.6456C46.188 36.5852 46.3441 36.5542 46.5017 36.5542H52.6062" stroke="url(#paint2_linear_5213_3019)" stroke-width="3.11432" stroke-linecap="round" stroke-linejoin="round"/>
<path d="M35.8891 36.3941L43.5891 34.1493C43.8642 34.0691 44.1589 34.0899 44.4199 34.2081L49.6065 36.5549M41.8045 57.5603L37.2824 56.4298C37.0989 56.3839 36.9289 56.2953 36.7861 56.1712L33.4023 53.23" stroke="url(#paint3_linear_5213_3019)" stroke-width="3.11432" stroke-linecap="round" stroke-linejoin="round"/>
</g>
<defs>
<linearGradient id="paint0_linear_5213_3019" x1="12.1048" y1="80.2025" x2="67.2419" y2="45.934" gradientUnits="userSpaceOnUse">
<stop stop-color="#11AEF0"/>
<stop offset="1" stop-color="#79D7FF"/>
</linearGradient>
<linearGradient id="paint1_linear_5213_3019" x1="30.6713" y1="52.223" x2="44.6407" y2="36.9912" gradientUnits="userSpaceOnUse">
<stop stop-color="#11AEF0"/>
<stop offset="1" stop-color="#79D7FF"/>
</linearGradient>
<linearGradient id="paint2_linear_5213_3019" x1="41.2211" y1="47.237" x2="49.4306" y2="40.6153" gradientUnits="userSpaceOnUse">
<stop stop-color="#11AEF0"/>
<stop offset="1" stop-color="#79D7FF"/>
</linearGradient>
<linearGradient id="paint3_linear_5213_3019" x1="35.2658" y1="54.9798" x2="47.168" y2="49.8701" gradientUnits="userSpaceOnUse">
<stop stop-color="#11AEF0"/>
<stop offset="1" stop-color="#79D7FF"/>
</linearGradient>
<clipPath id="clip0_5213_3019">
<rect width="38.4099" height="38.4099" fill="white" transform="translate(25 25.6218)"/>
</clipPath>
</defs>
</svg>
