<svg width="15" height="15" viewBox="0 0 15 15" fill="none" xmlns="http://www.w3.org/2000/svg">
<g clip-path="url(#clip0_2043_12528)">
<path d="M7.14031 8.33531C7.37932 8.33531 7.61598 8.28824 7.8368 8.19677C8.05761 8.10531 8.25824 7.97125 8.42725 7.80225C8.59625 7.63324 8.73031 7.43261 8.82177 7.2118C8.91324 6.99098 8.96031 6.75432 8.96031 6.51531C8.96031 6.27631 8.91324 6.03964 8.82177 5.81883C8.73031 5.59802 8.59625 5.39738 8.42725 5.22838C8.25824 5.05938 8.05761 4.92532 7.8368 4.83385C7.61598 4.74239 7.37932 4.69531 7.14031 4.69531C6.65762 4.69531 6.19469 4.88706 5.85338 5.22838C5.51206 5.56969 5.32031 6.03262 5.32031 6.51531C5.32031 6.99801 5.51206 7.46093 5.85338 7.80225C6.19469 8.14356 6.65762 8.33531 7.14031 8.33531Z" stroke="#A7A7A7" stroke-width="1.5"/>
<path d="M2.25098 5.4538C3.40015 0.402137 10.8843 0.40797 12.0276 5.45964C12.6985 8.42297 10.8551 10.9313 9.23932 12.483C8.67469 13.0275 7.92084 13.3318 7.1364 13.3318C6.35196 13.3318 5.59811 13.0275 5.03348 12.483C3.42348 10.9313 1.58015 8.41714 2.25098 5.4538Z" stroke="#A7A7A7" stroke-width="1.5"/>
</g>
<defs>
<clipPath id="clip0_2043_12528">
<rect width="14" height="14" fill="white" transform="translate(0.139648 0.5)"/>
</clipPath>
</defs>
</svg>
