<svg width="94" height="75" viewBox="0 0 94 75" fill="none" xmlns="http://www.w3.org/2000/svg">
<path d="M46.3665 50.8829C46.3665 50.8829 47.0508 46.8292 46.3665 45.6074C45.6837 44.3869 45.8291 41.6031 45.8291 41.6031C45.8291 41.6031 46.2199 40.6748 45.8291 35.8693C45.4525 31.2301 43.5959 28.9605 43.4687 28.8086C43.4674 28.8086 43.4648 28.806 43.4635 28.8047C43.4628 28.8032 43.462 28.8019 43.4609 28.8008C43.4607 28.8008 43.4606 28.8008 43.4604 28.8009C43.4603 28.8009 43.4601 28.801 43.46 28.8012C43.4599 28.8013 43.4598 28.8014 43.4597 28.8016C43.4597 28.8017 43.4596 28.8019 43.4596 28.8021C43.3908 28.8462 43.3181 28.8865 43.2415 28.9254C42.4677 29.3085 41.3083 29.4227 40.1099 29.4045L33.1444 39.4361C33.1081 42.0043 33.2742 44.0156 33.3768 44.2415C33.6209 44.779 33.3768 47.8537 33.3768 47.8537C33.3768 47.8537 32.5952 50.8829 33.1327 53.2758C33.6689 55.6688 32.5459 59.0836 32.5459 59.0836C36.063 62.1115 38.8467 60.3041 39.7256 59.864C40.1333 59.6601 40.3631 59.7095 40.4904 59.8198C40.8527 60.1487 41.2914 60.3821 41.7666 60.4989C45.1124 61.2325 47.9297 59.3277 47.9297 59.3277L46.3665 50.8829ZM33.3651 59.1148C33.3147 59.113 33.2669 59.0917 33.2319 59.0553C33.1968 59.019 33.1772 58.9705 33.1772 58.92C33.1772 58.8695 33.1968 58.821 33.2319 58.7847C33.2669 58.7484 33.3147 58.7271 33.3651 58.7253C33.4156 58.7271 33.4634 58.7484 33.4984 58.7847C33.5335 58.821 33.5531 58.8695 33.5531 58.92C33.5531 58.9705 33.5335 59.019 33.4984 59.0553C33.4634 59.0917 33.4156 59.113 33.3651 59.1148ZM34.2065 59.5822C34.156 59.5804 34.1082 59.5591 34.0732 59.5228C34.0381 59.4865 34.0185 59.4379 34.0185 59.3874C34.0185 59.337 34.0381 59.2884 34.0732 59.2521C34.1082 59.2158 34.156 59.1945 34.2065 59.1927C34.2569 59.1945 34.3047 59.2158 34.3398 59.2521C34.3748 59.2884 34.3944 59.337 34.3944 59.3874C34.3944 59.4379 34.3748 59.4865 34.3398 59.5228C34.3047 59.5591 34.2569 59.5804 34.2065 59.5822ZM35.0478 60.0496C34.9973 60.0478 34.9495 60.0265 34.9145 59.9902C34.8794 59.9539 34.8598 59.9054 34.8598 59.8549C34.8598 59.8044 34.8794 59.7559 34.9145 59.7195C34.9495 59.6832 34.9973 59.6619 35.0478 59.6601C35.0982 59.6619 35.146 59.6832 35.181 59.7196C35.2161 59.7559 35.2357 59.8044 35.2357 59.8549C35.2357 59.9054 35.2161 59.9539 35.181 59.9902C35.146 60.0265 35.0982 60.0478 35.0478 60.0496ZM36.1228 60.3768C36.0723 60.375 36.0245 60.3537 35.9895 60.3174C35.9544 60.2811 35.9348 60.2326 35.9348 60.1821C35.9348 60.1316 35.9544 60.0831 35.9895 60.0467C36.0245 60.0104 36.0723 59.9891 36.1228 59.9873C36.1732 59.9891 36.221 60.0104 36.256 60.0468C36.2911 60.0831 36.3107 60.1316 36.3107 60.1821C36.3107 60.2326 36.2911 60.2811 36.256 60.3174C36.221 60.3537 36.1732 60.375 36.1228 60.3768ZM37.338 60.3301C37.2875 60.3283 37.2398 60.307 37.2047 60.2707C37.1697 60.2343 37.1501 60.1858 37.1501 60.1353C37.1501 60.0849 37.1697 60.0363 37.2047 60C37.2398 59.9637 37.2875 59.9424 37.338 59.9406C37.3884 59.9424 37.4362 59.9637 37.4712 60C37.5062 60.0364 37.5258 60.0849 37.5258 60.1353C37.5258 60.1858 37.5062 60.2343 37.4712 60.2706C37.4362 60.307 37.3884 60.3283 37.338 60.3301ZM38.5533 59.9562C38.5028 59.9544 38.455 59.9331 38.42 59.8967C38.3849 59.8604 38.3653 59.8119 38.3653 59.7614C38.3653 59.7109 38.3849 59.6624 38.42 59.6261C38.455 59.5897 38.5028 59.5684 38.5533 59.5666C38.6037 59.5684 38.6515 59.5898 38.6865 59.6261C38.7216 59.6624 38.7411 59.7109 38.7411 59.7614C38.7411 59.8119 38.7216 59.8604 38.6865 59.8967C38.6515 59.933 38.6037 59.9543 38.5533 59.9562ZM39.6282 59.442C39.5778 59.4402 39.53 59.4189 39.4949 59.3826C39.4599 59.3462 39.4403 59.2977 39.4403 59.2472C39.4403 59.1967 39.4599 59.1482 39.4949 59.1119C39.53 59.0756 39.5778 59.0543 39.6282 59.0525C39.6787 59.0543 39.7265 59.0756 39.7615 59.1119C39.7966 59.1482 39.8161 59.1967 39.8161 59.2472C39.8161 59.2977 39.7966 59.3462 39.7615 59.3825C39.7265 59.4189 39.6787 59.4402 39.6282 59.442ZM40.7967 59.4887C40.7463 59.4869 40.6985 59.4656 40.6634 59.4293C40.6284 59.393 40.6088 59.3444 40.6088 59.294C40.6088 59.2435 40.6284 59.195 40.6634 59.1586C40.6985 59.1223 40.7463 59.101 40.7967 59.0992C40.8472 59.101 40.8949 59.1223 40.93 59.1587C40.965 59.195 40.9846 59.2435 40.9846 59.294C40.9846 59.3444 40.965 59.3929 40.93 59.4293C40.8949 59.4656 40.8472 59.4869 40.7967 59.4887ZM41.825 60.0496C41.7746 60.0478 41.7268 60.0265 41.6917 59.9902C41.6567 59.9539 41.6371 59.9054 41.6371 59.8549C41.6371 59.8044 41.6567 59.7559 41.6917 59.7196C41.7268 59.6832 41.7746 59.6619 41.825 59.6601C41.8754 59.6619 41.9232 59.6833 41.9582 59.7196C41.9933 59.7559 42.0128 59.8044 42.0128 59.8549C42.0128 59.9053 41.9933 59.9538 41.9582 59.9902C41.9232 60.0265 41.8754 60.0478 41.825 60.0496ZM42.9935 60.2834C42.9431 60.2816 42.8953 60.2602 42.8602 60.2239C42.8252 60.1876 42.8056 60.1391 42.8056 60.0886C42.8056 60.0381 42.8252 59.9896 42.8602 59.9533C42.8953 59.9169 42.9431 59.8956 42.9935 59.8938C43.0439 59.8957 43.0917 59.917 43.1267 59.9533C43.1617 59.9896 43.1813 60.0381 43.1813 60.0886C43.1813 60.1391 43.1617 60.1876 43.1267 60.2239C43.0917 60.2602 43.0439 60.2815 42.9935 60.2834ZM44.162 60.2834C44.1115 60.2816 44.0638 60.2602 44.0287 60.2239C43.9937 60.1876 43.9741 60.1391 43.9741 60.0886C43.9741 60.0381 43.9937 59.9896 44.0287 59.9533C44.0638 59.9169 44.1115 59.8956 44.162 59.8938C44.2124 59.8957 44.2602 59.917 44.2952 59.9533C44.3302 59.9896 44.3498 60.0381 44.3498 60.0886C44.3498 60.1391 44.3302 60.1876 44.2952 60.2239C44.2602 60.2602 44.2124 60.2815 44.162 60.2834ZM45.4707 60.0964C45.4203 60.0946 45.3725 60.0733 45.3374 60.037C45.3023 60.0006 45.2828 59.9521 45.2828 59.9016C45.2828 59.8511 45.3023 59.8026 45.3374 59.7663C45.3725 59.73 45.4203 59.7087 45.4707 59.7069C45.5211 59.7087 45.5689 59.73 45.6039 59.7663C45.639 59.8026 45.6586 59.8511 45.6586 59.9016C45.6586 59.9521 45.639 60.0006 45.6039 60.0369C45.5689 60.0732 45.5211 60.0946 45.4707 60.0964ZM46.5458 59.629C46.4953 59.6272 46.4475 59.6059 46.4125 59.5695C46.3774 59.5332 46.3578 59.4847 46.3578 59.4342C46.3578 59.3837 46.3774 59.3352 46.4125 59.2989C46.4475 59.2625 46.4953 59.2412 46.5458 59.2394C46.5962 59.2413 46.6439 59.2626 46.679 59.2989C46.714 59.3352 46.7336 59.3837 46.7336 59.4342C46.7336 59.4847 46.714 59.5332 46.679 59.5695C46.6439 59.6058 46.5962 59.6271 46.5458 59.629ZM47.4338 59.068C47.3833 59.0662 47.3356 59.0449 47.3005 59.0086C47.2654 58.9723 47.2459 58.9238 47.2459 58.8733C47.2459 58.8228 47.2654 58.7743 47.3005 58.738C47.3356 58.7016 47.3833 58.6803 47.4338 58.6785C47.4842 58.6803 47.532 58.7017 47.567 58.738C47.602 58.7743 47.6216 58.8228 47.6216 58.8733C47.6216 58.9237 47.602 58.9722 47.567 59.0086C47.532 59.0449 47.4842 59.0662 47.4338 59.068Z" fill="white"/>
<path d="M34.5362 25.0716C34.4904 24.8387 34.4756 24.6008 34.4921 24.364C34.4985 24.2405 34.5116 24.1174 34.531 23.9953C34.532 23.9852 34.5338 23.9752 34.5362 23.9654C34.3769 23.958 34.2187 23.9354 34.0636 23.8979C33.8762 23.8558 33.6947 23.7903 33.5235 23.7031L32.8887 24.7535L33.1301 25.0846C33.4443 24.9911 33.6637 24.9366 33.6637 24.9366C33.6637 24.9366 33.8234 25.4729 34.5375 25.6404C34.4716 25.4566 34.4712 25.2557 34.5362 25.0716ZM33.3184 24.8522C33.2679 24.8504 33.2201 24.8291 33.1851 24.7928C33.1501 24.7565 33.1305 24.7079 33.1305 24.6575C33.1305 24.607 33.1501 24.5585 33.1851 24.5221C33.2201 24.4858 33.2679 24.4645 33.3184 24.4627C33.3688 24.4645 33.4166 24.4858 33.4516 24.5221C33.4867 24.5585 33.5063 24.607 33.5063 24.6575C33.5063 24.7079 33.4867 24.7565 33.4516 24.7928C33.4166 24.8291 33.3688 24.8504 33.3184 24.8522ZM34.113 25.0626C34.0625 25.0608 34.0147 25.0395 33.9797 25.0031C33.9446 24.9668 33.925 24.9183 33.925 24.8678C33.925 24.8173 33.9446 24.7688 33.9797 24.7325C34.0147 24.6962 34.0625 24.6748 34.113 24.673C34.1634 24.6748 34.2112 24.6962 34.2462 24.7325C34.2813 24.7688 34.3009 24.8173 34.3009 24.8678C34.3009 24.9183 34.2813 24.9668 34.2462 25.0031C34.2112 25.0395 34.1634 25.0608 34.113 25.0626Z" fill="#020202"/>
<path d="M36.5017 21.9211C36.8016 21.9741 37.0958 22.055 37.3807 22.1626C36.4434 22.9014 34.8607 24.6646 34.8607 24.6646C34.7249 24.7575 34.6178 24.8866 34.5517 25.0373C34.5802 24.8152 34.6101 24.5984 34.649 24.3828C34.6724 24.266 34.6919 24.1478 34.7191 24.031C34.7463 23.916 34.7792 23.8025 34.8178 23.6908C34.888 23.4597 34.9607 23.2286 35.023 22.9923C35.0885 22.7566 35.1423 22.5178 35.1839 22.2768C35.0665 22.4918 34.9624 22.7138 34.8724 22.9416C34.7789 23.1675 34.6984 23.3974 34.6231 23.6311C34.5971 23.7259 34.566 23.8206 34.5452 23.9219C34.3997 23.8578 34.2484 23.8078 34.0934 23.7726C33.9072 23.7248 33.7156 23.7017 33.5234 23.7038C33.5234 23.7038 33.4014 21.3602 35.11 19.9683C35.11 19.9683 35.7435 19.1879 37.7624 18.8711C37.6716 18.8984 36.938 19.197 36.5017 21.9211Z" fill="#020202"/>
<path d="M41.4596 22.0411C41.4399 22.0401 41.4191 22.0391 41.3994 22.0391" stroke="#020202" stroke-width="0.1093" stroke-linecap="round" stroke-linejoin="round"/>
<path d="M28.4812 18.966C28.3486 18.8661 28.2049 18.7817 28.0531 18.7145C27.9029 18.644 27.7499 18.5794 27.5958 18.5177C27.2865 18.3972 26.9765 18.2763 26.6626 18.1707L26.6864 18.1748C26.6376 18.1764 26.589 18.182 26.5412 18.1915C26.4991 18.2021 26.459 18.2222 26.4576 18.2355C26.4541 18.2631 26.4615 18.2911 26.4783 18.3133C26.5013 18.3517 26.5292 18.3868 26.5615 18.4178L27.0488 18.8419C27.3747 19.1234 27.6944 19.4116 28.0175 19.6961C28.0348 19.7114 28.0464 19.7322 28.0503 19.7549C28.0542 19.7777 28.0501 19.8011 28.0389 19.8213C28.0276 19.8415 28.0097 19.8571 27.9883 19.8657C27.9668 19.8743 27.9431 19.8753 27.921 19.8685L27.9137 19.8663C27.7795 19.829 27.6386 19.822 27.5014 19.8459C27.3614 19.8671 27.2095 19.9215 27.1823 20.0015C27.147 20.0786 27.2198 20.2238 27.3068 20.335C27.3995 20.4523 27.5045 20.5593 27.6201 20.6541L27.6208 20.6546C27.6391 20.6699 27.6506 20.6919 27.6528 20.7156C27.655 20.7394 27.6476 20.7631 27.6323 20.7814C27.6234 20.792 27.6122 20.8004 27.5996 20.8061C27.5233 20.8374 27.4493 20.8744 27.3785 20.9168C27.3155 20.9577 27.253 21.0133 27.2557 21.0514C27.2496 21.0876 27.299 21.1495 27.3653 21.1925C27.4339 21.2377 27.5078 21.2744 27.5852 21.3018C27.5972 21.3062 27.6077 21.3138 27.6155 21.3239C27.6233 21.334 27.6281 21.346 27.6294 21.3587C27.6306 21.3714 27.6283 21.3841 27.6227 21.3955C27.617 21.4069 27.6082 21.4165 27.5974 21.4232L27.5069 21.4786C27.4811 21.4942 27.4593 21.5158 27.4434 21.5415C27.4276 21.5671 27.4176 21.5958 27.414 21.6256C27.4104 21.6554 27.4133 21.6857 27.4225 21.7143C27.4319 21.7438 27.4474 21.771 27.4681 21.794C27.4887 21.8171 27.514 21.8355 27.5423 21.8481C27.6114 21.8744 27.6821 21.8963 27.754 21.9137C27.8977 21.9551 28.0485 21.9651 28.1964 21.943C28.2692 21.9305 28.3362 21.8952 28.3878 21.8422C28.4372 21.7848 28.4696 21.7147 28.4812 21.6398C28.4772 21.7181 28.4512 21.7937 28.4062 21.8579C28.3559 21.9214 28.286 21.9663 28.2074 21.9857C28.0532 22.0217 27.893 22.0239 27.7379 21.9922C27.6594 21.9797 27.5818 21.9619 27.5057 21.9391C27.4626 21.9232 27.4234 21.8981 27.391 21.8655C27.3586 21.8329 27.3337 21.7937 27.318 21.7505C27.3017 21.7065 27.2951 21.6596 27.2987 21.6129C27.3022 21.5662 27.3159 21.5208 27.3386 21.4798C27.3613 21.439 27.3929 21.4038 27.431 21.3767L27.5335 21.307L27.5457 21.4283C27.4549 21.4012 27.3678 21.363 27.2865 21.3144C27.2422 21.288 27.202 21.2553 27.1672 21.2173C27.1468 21.1957 27.1304 21.1706 27.1188 21.1432C27.1039 21.1132 27.0968 21.08 27.0979 21.0465C27.0989 21.0134 27.1063 20.9808 27.1198 20.9505C27.1335 20.9248 27.1496 20.9005 27.1678 20.8778C27.2019 20.8392 27.2406 20.8049 27.2829 20.7755C27.3619 20.7242 27.4449 20.6796 27.5313 20.6421L27.5108 20.7941C27.3811 20.6932 27.2628 20.5785 27.158 20.4519C27.1024 20.385 27.0559 20.3111 27.0195 20.2321C26.9941 20.1863 26.9792 20.1354 26.9757 20.0831C26.9722 20.0309 26.9802 19.9785 26.9992 19.9296C27.0181 19.8808 27.0476 19.8368 27.0855 19.8006C27.1234 19.7644 27.1687 19.737 27.2184 19.7203C27.2983 19.6857 27.3823 19.6615 27.4684 19.648C27.6408 19.6154 27.8187 19.6254 27.9864 19.6772L27.8826 19.8473C27.5627 19.5577 27.2395 19.2718 26.9224 18.9793L26.4454 18.5423C26.4013 18.497 26.364 18.4456 26.3347 18.3895C26.3179 18.3581 26.3064 18.324 26.3009 18.2887C26.293 18.2446 26.3006 18.1991 26.3224 18.1599C26.344 18.129 26.3719 18.103 26.4043 18.0836C26.4366 18.0643 26.4727 18.052 26.5102 18.0476C26.5685 18.0384 26.6274 18.0343 26.6864 18.0353L26.6878 18.0353C26.6954 18.0352 26.7031 18.0367 26.7102 18.0395C27.0215 18.1641 27.3299 18.2917 27.6306 18.4392C27.7806 18.5133 27.9293 18.5902 28.0749 18.6729C28.2228 18.7521 28.3594 18.8506 28.4812 18.966Z" fill="#020202"/>
<path d="M27.5654 21.367C27.8013 21.3714 28.0313 21.3914 28.2592 21.3895C28.3707 21.392 28.4821 21.3805 28.5908 21.3553C28.6417 21.3436 28.6885 21.3181 28.726 21.2817C28.7442 21.2609 28.7578 21.2366 28.7661 21.2103C28.7744 21.184 28.7771 21.1563 28.7741 21.1289C28.787 21.1577 28.7931 21.189 28.7918 21.2205C28.7905 21.252 28.7819 21.2828 28.7667 21.3104C28.7311 21.3652 28.6788 21.4071 28.6177 21.43C28.5034 21.4728 28.382 21.4935 28.26 21.4912C28.0229 21.4912 27.7878 21.4491 27.5654 21.367Z" fill="#020202"/>
<path d="M27.5654 20.722C27.7119 20.7443 27.8574 20.7618 28.0018 20.7763C28.1447 20.7913 28.2886 20.7947 28.432 20.7865C28.5702 20.7833 28.705 20.7425 28.8216 20.6682C28.8756 20.6234 28.9189 20.5672 28.9487 20.5037C28.9785 20.4402 28.9939 20.3709 28.9939 20.3008C29.0086 20.3753 29.0084 20.4521 28.9931 20.5266C28.9742 20.6046 28.9322 20.6752 28.8726 20.7291C28.7493 20.8277 28.5973 20.8834 28.4395 20.8879C28.1393 20.9009 27.8401 20.8441 27.5654 20.722Z" fill="#020202"/>
<path d="M30.6815 19.0252C30.6841 18.9555 30.6076 18.9488 30.617 18.8958C30.6447 18.8878 30.7564 18.8291 30.7833 18.8188L30.9426 18.7538L31.102 18.6888L31.1817 18.6562C31.2297 18.6896 31.2756 18.726 31.319 18.765C31.3153 18.8234 31.308 18.8814 31.297 18.9389L31.2173 18.9714L31.058 19.0364L30.8986 19.1015C30.8723 19.1129 30.7706 19.1665 30.7452 19.1802C30.7014 19.1489 30.7321 19.0732 30.6815 19.0252Z" fill="#020202"/>
<path d="M29.2172 19.5562C29.4798 19.5197 29.7314 19.4273 29.9551 19.2852C29.818 19.377 29.7 19.4945 29.6077 19.6313L28.8939 19.9171L28.2432 20.1827L27.5939 20.447C27.4866 20.4926 27.3766 20.5342 27.2706 20.5812C27.1445 20.5839 26.8789 20.6764 26.7461 20.6617C26.8306 20.5584 27.0627 20.3826 27.1539 20.2968C27.2625 20.2552 27.3699 20.2082 27.4786 20.1653L28.1292 19.8996L28.9208 19.5763H28.9221C29.0208 19.5753 29.1193 19.5686 29.2172 19.5562Z" fill="#020202"/>
<path d="M30.7833 18.8203L30.7457 19.1812L30.692 19.2027C30.6703 19.1057 30.6277 19.0146 30.5673 18.9357C30.5619 18.9286 30.556 18.9219 30.5498 18.9156L30.7833 18.8203Z" fill="#020202"/>
<path d="M27.8584 21.9844C28.3033 22.1048 28.6937 22.3738 28.9647 22.7467C29.0315 22.8411 29.0909 22.9405 29.1423 23.0441C29.192 23.1502 29.2334 23.2534 29.2774 23.3574L29.5388 23.9805C29.8875 24.8114 30.2213 25.6481 30.5551 26.4849L30.8015 27.114L30.9247 27.4285C30.9633 27.5308 31.0073 27.631 31.0567 27.7286C31.2493 28.1238 31.5178 28.4773 31.8469 28.7688C32.1758 29.0615 32.5968 29.23 33.0369 29.245C33.2586 29.2514 33.4799 29.2238 33.6932 29.1632C33.8005 29.1369 33.9014 29.0896 33.9902 29.0241C34.0791 28.9576 34.1582 28.8758 34.2417 28.8004C34.1652 28.8832 34.0949 28.9711 34.0096 29.0479C33.9216 29.1229 33.8195 29.1796 33.7094 29.2147C33.4931 29.2921 33.2662 29.336 33.0366 29.3448C32.5671 29.3485 32.1112 29.1876 31.7479 28.8901C31.3885 28.5963 31.0946 28.2306 30.8852 27.8164C30.8309 27.7139 30.7829 27.6083 30.7417 27.5L30.6163 27.1863L30.3657 26.559C30.0368 25.7205 29.7079 24.8821 29.3939 24.0377L29.1584 23.4044C29.1189 23.2992 29.0806 23.1917 29.0387 23.0921C28.9937 22.9921 28.9416 22.8954 28.8829 22.8027C28.6402 22.4251 28.2803 22.1376 27.8584 21.9844Z" fill="#020202"/>
<path d="M43.1318 28.4723C42.3331 28.7603 41.3645 28.8742 40.3848 28.8885C40.3848 28.8885 41.8705 25.8815 41.801 25.5664C41.801 25.5664 42.0904 27.2274 43.1318 28.4723Z" fill="#020202"/>
<path d="M34.5361 25.0748C34.5414 25.0629 34.5454 25.051 34.552 25.0391C34.548 25.0616 34.5454 25.0841 34.5427 25.1066C34.5399 25.0961 34.5377 25.0855 34.5361 25.0748Z" fill="white"/>
<path d="M35.1738 26.9688C35.387 27.0003 35.5696 27.0401 35.7562 27.0608C35.8489 27.0734 35.9408 27.0781 36.0358 27.0822C36.1318 27.0877 36.2267 27.0785 36.3376 27.0812C36.2597 27.1581 36.1627 27.2128 36.0566 27.2397C35.951 27.2694 35.8405 27.2772 35.7319 27.2628C35.6244 27.25 35.5201 27.2182 35.4237 27.169C35.326 27.1225 35.2405 27.0539 35.1738 26.9688Z" fill="#020202"/>
<path d="M39.1475 26.9688C39.3606 27.0003 39.5433 27.0401 39.7298 27.0608C39.8225 27.0734 39.9145 27.0781 40.0094 27.0822C40.1054 27.0877 40.2004 27.0785 40.3112 27.0812C40.2333 27.1581 40.1363 27.2128 40.0302 27.2397C39.9247 27.2694 39.8142 27.2772 39.7055 27.2628C39.598 27.25 39.4937 27.2182 39.3973 27.169C39.2997 27.1225 39.2142 27.0539 39.1475 26.9688Z" fill="#020202"/>
<path d="M40.6973 19.7616C40.5263 20.0666 40.274 20.3183 39.9686 20.4886C39.8062 20.573 39.6187 20.5957 39.4409 20.5524C39.2633 20.5041 39.108 20.3954 39.0017 20.245C38.8954 20.0968 38.8364 19.9198 38.8325 19.7374C38.8281 19.5596 38.8556 19.3824 38.9137 19.2143C38.9729 19.0413 39.0966 18.8978 39.2591 18.8139C39.4198 18.7354 39.6021 18.7129 39.7771 18.7499L39.7615 18.7556C39.8344 18.6699 39.9076 18.5843 39.9825 18.5C39.9183 18.5927 39.8525 18.6841 39.7865 18.7753C39.785 18.7774 39.783 18.779 39.7806 18.7801C39.7783 18.7812 39.7757 18.7816 39.7731 18.7813L39.7708 18.7811C39.6051 18.7613 39.4372 18.7927 39.2898 18.8713C39.1488 18.9548 39.044 19.0879 38.9958 19.2446C38.9447 19.4024 38.9219 19.568 38.9285 19.7337C38.9364 19.8964 38.9896 20.0536 39.0822 20.1876C39.1734 20.3216 39.3084 20.4197 39.464 20.4651C39.6226 20.5041 39.7897 20.4886 39.9385 20.4213C40.2462 20.2898 40.4834 20.0258 40.6973 19.7616Z" fill="#020202"/>
<path d="M47.2742 24.9207C47.2944 25.2025 47.2782 25.4854 47.2709 25.7674C47.2596 26.0498 47.247 26.331 47.2278 26.6139C47.1871 27.1848 47.0184 27.7392 46.7344 28.2361C46.5907 28.4867 46.4042 28.7101 46.1832 28.8962C45.959 29.0833 45.6954 29.2172 45.4121 29.288C45.1293 29.3572 44.8359 29.3721 44.5476 29.3321C44.259 29.2953 43.9777 29.2147 43.7134 29.0931C43.7105 29.0917 43.7078 29.0901 43.7052 29.0882L43.5573 28.975L43.4833 28.9182L43.4464 28.8898L43.4279 28.8756L43.4187 28.8685C43.4187 28.8685 43.4134 28.8641 43.4163 28.8669C43.4197 28.87 43.4237 28.8725 43.428 28.8742L43.4078 28.8596C43.0296 28.521 42.7141 28.1184 42.4757 27.6702C42.2364 27.2257 42.0428 26.7581 41.898 26.2745C41.6137 25.311 41.4343 24.3196 41.3629 23.3175C41.3426 23.0678 41.3275 22.8177 41.3176 22.5672C41.3067 22.3147 41.3074 22.0705 41.2783 21.8294C41.2559 21.5913 41.1974 21.358 41.1049 21.1374C41.0647 21.0343 40.9989 20.9431 40.9138 20.8724C40.8099 20.7834 40.7224 20.6768 40.6555 20.5575C40.587 20.4363 40.5467 20.3012 40.5375 20.1622C40.5302 20.0243 40.5507 19.8863 40.5978 19.7564C40.6218 19.695 40.6525 19.6294 40.6786 19.5754C40.7055 19.5229 40.7294 19.469 40.7502 19.4138C40.7923 19.3068 40.8174 19.1939 40.8246 19.0792C40.8276 19.0249 40.8242 18.9705 40.8145 18.9171C40.8038 18.8692 40.783 18.8242 40.7535 18.7851C40.7228 18.7454 40.6845 18.7123 40.6409 18.6877C40.5972 18.6631 40.5491 18.6475 40.4993 18.6417L39.7569 18.5658L39.7522 18.5653C39.738 18.5639 39.7245 18.5583 39.7134 18.5493C39.6902 18.5322 39.6709 18.5103 39.6567 18.4852C39.6425 18.4601 39.6338 18.4323 39.631 18.4036C39.6276 18.3498 39.644 18.2967 39.6772 18.2544C39.7017 18.2224 39.7301 18.1937 39.7619 18.169C39.7909 18.1468 39.8216 18.1267 39.8536 18.1091L39.8961 18.0978C39.8732 18.0978 39.8512 18.1069 39.835 18.1231C39.8188 18.1393 39.8097 18.1613 39.8097 18.1842L39.8389 18.1194L39.9018 18.0577L39.964 17.981L40.0889 17.827C40.1614 17.7383 40.256 17.6703 40.3631 17.63C40.4703 17.5898 40.5862 17.5786 40.6991 17.5976L40.8993 17.6248L41.0998 17.6524C41.179 17.6622 41.255 17.6896 41.3222 17.7326C41.3473 17.7509 41.3669 17.7757 41.379 17.8043C41.3921 17.8375 41.3929 17.8742 41.3814 17.9079C41.364 17.9546 41.3331 17.9951 41.2926 18.0241C41.2559 18.0506 41.2138 18.0686 41.1692 18.0767C41.1289 18.0833 41.0877 18.0833 41.0473 18.0769C40.9189 18.0582 40.7895 18.0472 40.6598 18.0439C40.5334 18.0454 40.4077 18.0644 40.2865 18.1003C40.2249 18.1184 40.1647 18.1407 40.1061 18.1669L39.9317 18.2439L39.9658 18.1856C39.9655 18.2036 39.9582 18.2208 39.9454 18.2335C39.9327 18.2463 39.9155 18.2536 39.8975 18.2539L39.9424 18.2364C39.8911 18.2858 39.8296 18.3233 39.7621 18.3462C39.738 18.3538 39.7124 18.3556 39.6874 18.3515C39.6625 18.3474 39.6388 18.3375 39.6183 18.3226C39.5842 18.2938 39.5603 18.2548 39.5503 18.2113C39.5416 18.1748 39.5379 18.1373 39.5394 18.0998C39.5433 18.066 39.5491 18.0324 39.5566 17.9991C39.5736 17.9376 39.5947 17.8772 39.6199 17.8185C39.7229 17.594 39.8505 17.3817 40.0003 17.1854C40.0742 17.0862 40.1547 16.9921 40.2412 16.9036C40.2867 16.8575 40.337 16.8165 40.3915 16.7814L40.4374 16.7564L40.4777 16.7383L40.5594 16.7004C40.6684 16.6497 40.7765 16.5968 40.8829 16.541C40.989 16.4775 41.101 16.4243 41.2173 16.3824C41.4607 16.3083 41.7235 16.3316 41.9501 16.4474C42.0572 16.5078 42.1589 16.5775 42.254 16.6556C42.3503 16.7311 42.4404 16.8143 42.5233 16.9043C42.6074 16.994 42.6787 17.095 42.7352 17.2042C42.7947 17.3134 42.8237 17.4364 42.8193 17.5606L42.7589 18.2847L42.7943 17.5602C42.7941 17.441 42.7627 17.324 42.7031 17.2208C42.6456 17.1163 42.5739 17.0202 42.4901 16.9353C42.3227 16.7647 42.1311 16.6196 41.9214 16.5048C41.7093 16.4029 41.4659 16.3873 41.2425 16.4614C41.1323 16.5047 41.0266 16.5585 40.9267 16.6221C40.8203 16.6815 40.7124 16.7378 40.6034 16.792L40.5211 16.8317L40.4789 16.8515L40.4456 16.8707C40.399 16.9023 40.356 16.9387 40.3172 16.9795C40.2359 17.0654 40.1603 17.1567 40.0911 17.2527C39.9501 17.4437 39.8305 17.6497 39.7346 17.8669C39.6848 17.9617 39.6643 18.0692 39.6755 18.1756C39.6788 18.1916 39.6866 18.2063 39.698 18.2179C39.7017 18.2211 39.7078 18.2226 39.7271 18.2179C39.7736 18.1991 39.8159 18.1711 39.8513 18.1356L39.8962 18.118C39.8875 18.118 39.8789 18.1197 39.8709 18.1231C39.8628 18.1264 39.8555 18.1313 39.8493 18.1374C39.8432 18.1436 39.8383 18.1509 39.835 18.159C39.8316 18.167 39.8299 18.1756 39.8299 18.1844L39.8641 18.126L40.0528 18.0385C40.1152 18.0095 40.1794 17.9847 40.2451 17.9643C40.3785 17.9225 40.517 17.8994 40.6567 17.8955C40.7263 17.8935 40.796 17.8962 40.8652 17.9036L41.0635 17.923C41.0889 17.9274 41.1147 17.9275 41.1401 17.9232C41.1611 17.919 41.181 17.9102 41.1982 17.8975C41.2119 17.8873 41.2228 17.8739 41.2299 17.8584C41.2302 17.8552 41.2291 17.8613 41.2305 17.8646C41.2311 17.8677 41.2321 17.8652 41.2246 17.8606C41.1138 17.8175 40.9965 17.7939 40.8777 17.7906L40.6825 17.7672C40.6247 17.7573 40.5656 17.7577 40.5079 17.7682C40.3961 17.7888 40.2954 17.8488 40.224 17.9373L40.0985 18.0935L40.0356 18.1719L39.9569 18.2506L39.9861 18.1858C39.9857 18.2091 39.9763 18.2314 39.9598 18.2479C39.9433 18.2644 39.921 18.2738 39.8977 18.2742L39.9401 18.2629C39.9161 18.2762 39.893 18.2914 39.8713 18.3081C39.8525 18.323 39.8356 18.3399 39.8208 18.3587C39.8097 18.3744 39.8069 18.385 39.8083 18.3878C39.8057 18.3891 39.8163 18.4032 39.8179 18.4046L39.7744 18.3882L40.5197 18.4605C40.5941 18.4687 40.6661 18.4917 40.7314 18.5282C40.7967 18.5648 40.854 18.6141 40.8999 18.6732C40.946 18.7336 40.9786 18.8032 40.9955 18.8773C41.0091 18.9464 41.0142 19.0169 41.0107 19.0872C41.0033 19.2217 40.9749 19.3542 40.9264 19.4799C40.9036 19.5414 40.8773 19.6017 40.8476 19.6603C40.8199 19.7184 40.7983 19.7663 40.7767 19.8206C40.7372 19.9247 40.7211 20.0362 40.7294 20.1473C40.7378 20.2583 40.7704 20.3662 40.8251 20.4632C40.881 20.5614 40.9536 20.649 41.0396 20.7222C41.0682 20.7433 41.0947 20.7669 41.1189 20.7929C41.1429 20.8193 41.165 20.8475 41.185 20.8771C41.2232 20.9332 41.2565 20.9925 41.2845 21.0543C41.3871 21.2933 41.4526 21.5465 41.4786 21.8053C41.5115 22.0592 41.5097 22.3146 41.5187 22.5598C41.5273 22.8075 41.541 23.0549 41.5597 23.3021C41.625 24.2907 41.7967 25.2694 42.0719 26.2212C42.3594 27.1609 42.7862 28.0813 43.5181 28.7492L43.4979 28.7347C43.5052 28.7388 43.512 28.7436 43.5184 28.749L43.5249 28.7544L43.5335 28.7612L43.5506 28.7746L43.5849 28.8016L43.6534 28.8557L43.7904 28.9643L43.7823 28.9594C44.2779 29.2041 44.8408 29.2773 45.3826 29.1676C45.6501 29.1053 45.9 28.9831 46.1135 28.8103C46.3272 28.6344 46.5097 28.4237 46.6533 28.1871C46.9438 27.707 47.1227 27.1677 47.1766 26.609C47.2032 26.3294 47.222 26.047 47.2419 25.7659C47.2589 25.4845 47.2847 25.2027 47.2742 24.9207Z" fill="#020202"/>
<path d="M42.9221 21.6711C42.834 21.3996 42.7644 21.1224 42.7139 20.8414C42.6633 20.5596 42.6309 20.2749 42.6169 19.9889C42.6015 19.7028 42.6031 19.416 42.6216 19.1301L42.6711 18.2793C42.6724 18.2577 42.6817 18.2373 42.6971 18.2221C42.7126 18.207 42.7332 18.1981 42.7548 18.1973L42.7563 18.1972C43.0255 18.1862 43.2951 18.1909 43.5638 18.2113C43.8339 18.2323 44.1018 18.2761 44.3645 18.3423C44.6289 18.4081 44.8842 18.5062 45.1245 18.6346C45.3726 18.7587 45.5884 18.9387 45.755 19.1605L45.7497 19.1534C45.9813 19.4348 46.181 19.7411 46.3452 20.0665C46.5066 20.3918 46.6375 20.7314 46.7362 21.0809C46.8335 21.4308 46.9066 21.787 46.955 22.147C47.0039 22.5088 47.0244 22.8739 47.0162 23.2389L47.0011 23.1876L47.9693 24.4394L47.9723 24.4433C47.9814 24.4551 47.9868 24.4693 47.9877 24.4842C47.992 24.5781 47.9609 24.6702 47.9005 24.7423C47.8529 24.8057 47.7949 24.8607 47.729 24.905C47.5965 24.9955 47.4368 25.0375 47.2769 25.024C47.1981 25.0171 47.121 24.9974 47.0486 24.9656C46.9736 24.9329 46.9222 24.9008 46.8626 24.875C46.7476 24.8217 46.6264 24.7826 46.5019 24.7587C46.3848 24.7354 46.264 24.7391 46.1486 24.7697C46.0968 24.7849 46.049 24.8114 46.0086 24.8473C45.9524 24.8924 45.8937 24.9344 45.833 24.9732C45.5991 25.1237 45.3628 25.2581 45.1231 25.392L45.1219 25.3927C45.0995 25.4051 45.0734 25.4087 45.0485 25.4027C45.0237 25.3968 45.002 25.3818 44.9876 25.3607L44.3947 24.4808L43.8046 23.599C43.7097 23.4516 43.5985 23.3186 43.5021 23.1615C43.4087 23.0083 43.3259 22.8489 43.2544 22.6843C43.1143 22.3573 43.0032 22.0186 42.9221 21.6722L42.9219 21.6713L42.9217 21.6694L42.9218 21.6684C42.9219 21.6658 42.923 21.6633 42.9249 21.6615C42.9268 21.6596 42.9293 21.6586 42.9319 21.6586C42.9346 21.6586 42.9371 21.6596 42.939 21.6615C42.9409 21.6633 42.942 21.6658 42.9421 21.6684L42.9422 21.6694L42.9418 21.6667C43.0489 22.0023 43.1818 22.3292 43.3393 22.6444C43.4164 22.8009 43.5042 22.9519 43.6021 23.0963C43.6972 23.2368 43.8198 23.3712 43.9237 23.5164L44.542 24.3787L45.1575 25.2429L45.0221 25.2116C45.2557 25.077 45.491 24.9387 45.713 24.7915C45.7679 24.755 45.824 24.7172 45.8693 24.68C45.9319 24.6262 46.0051 24.5861 46.0842 24.5622C46.2326 24.5214 46.3884 24.5157 46.5394 24.5455C46.6825 24.573 46.8213 24.6193 46.9522 24.6832C47.017 24.7129 47.0819 24.7527 47.1316 24.7746C47.1836 24.7987 47.2392 24.8141 47.2963 24.82C47.41 24.8314 47.5241 24.8032 47.6193 24.74C47.6672 24.709 47.7095 24.6703 47.7447 24.6255C47.7734 24.593 47.7919 24.5527 47.798 24.5098L47.8164 24.5546L46.88 23.2789L46.8795 23.2783C46.8688 23.2637 46.8636 23.2457 46.8649 23.2277C46.8886 22.8715 46.8837 22.5139 46.8504 22.1585C46.8191 21.8011 46.7577 21.447 46.6671 21.0999C46.5772 20.7525 46.4501 20.4157 46.2879 20.0956L46.1589 19.8599C46.1139 19.7827 46.0597 19.711 46.0107 19.6364L45.9354 19.5255C45.9091 19.4895 45.8788 19.4564 45.8503 19.4221L45.6774 19.2181L45.6721 19.2109C45.506 19.0148 45.2978 18.8586 45.063 18.7542C44.8276 18.6428 44.5798 18.5598 44.3247 18.507C44.0693 18.4512 43.8103 18.413 43.5497 18.3929C43.2881 18.3743 43.025 18.3663 42.7616 18.3733L42.8468 18.2913L42.7803 19.1408C42.7567 19.423 42.7407 19.7027 42.7435 19.985C42.7468 20.2671 42.7649 20.5488 42.7978 20.829C42.8306 21.1103 42.8787 21.3896 42.9417 21.6657C42.942 21.667 42.9421 21.6683 42.9419 21.6696C42.9416 21.671 42.9411 21.6722 42.9404 21.6734C42.9397 21.6745 42.9388 21.6755 42.9377 21.6762C42.9366 21.677 42.9354 21.6776 42.9341 21.6779C42.9316 21.6784 42.929 21.678 42.9268 21.6768C42.9246 21.6755 42.923 21.6735 42.9221 21.6711Z" fill="#020202"/>
<path d="M47.8935 24.4969L46.9405 23.2335C46.7273 23.2242 46.5137 23.232 46.3017 23.2569C46.0944 23.2879 45.8893 23.3321 45.6876 23.3893C45.2792 23.5148 44.8782 23.6635 44.4867 23.8347C44.6463 23.6826 44.8259 23.5529 45.0203 23.449C45.2144 23.3421 45.4194 23.2563 45.6318 23.1933C45.8469 23.1324 46.0692 23.1006 46.2927 23.0985C46.5155 23.099 46.736 23.1449 46.9405 23.2335C46.9405 23.2335 47.1236 20.76 45.7136 19.1864C45.7136 19.1864 45.2943 18.4956 43.7479 18.3203L42.9326 21.6689V21.6702C42.9989 21.9085 43.0782 22.143 43.1702 22.3727C43.2967 22.7069 43.4684 23.0224 43.6804 23.3101C43.7271 23.3698 43.7752 23.4296 43.8194 23.4932L45.0722 25.3019C45.3755 25.1356 45.6694 24.9527 45.9525 24.7539C46.1356 24.5955 46.5381 24.5709 47.0262 24.8396C47.103 24.8823 47.1871 24.9101 47.2742 24.9214C47.6442 24.9643 47.913 24.6475 47.8935 24.4969ZM45.2839 24.8526C45.2334 24.8508 45.1856 24.8295 45.1506 24.7932C45.1155 24.7569 45.0959 24.7083 45.0959 24.6579C45.0959 24.6074 45.1155 24.5589 45.1506 24.5225C45.1856 24.4862 45.2334 24.4649 45.2839 24.4631C45.3343 24.4649 45.3821 24.4862 45.4172 24.5225C45.4522 24.5589 45.4718 24.6074 45.4718 24.6579C45.4718 24.7083 45.4522 24.7569 45.4172 24.7932C45.3821 24.8295 45.3343 24.8508 45.2839 24.8526ZM46.1719 24.4787C46.1215 24.4769 46.0737 24.4556 46.0386 24.4192C46.0036 24.3829 45.984 24.3344 45.984 24.2839C45.984 24.2334 46.0036 24.1849 46.0386 24.1486C46.0737 24.1123 46.1215 24.091 46.1719 24.0892C46.2223 24.091 46.2701 24.1123 46.3052 24.1486C46.3402 24.1849 46.3598 24.2334 46.3598 24.2839C46.3598 24.3344 46.3402 24.3829 46.3052 24.4192C46.2701 24.4556 46.2223 24.4769 46.1719 24.4787ZM47.1067 24.6189C47.0563 24.6171 47.0085 24.5958 46.9734 24.5595C46.9384 24.5232 46.9188 24.4746 46.9188 24.4241C46.9188 24.3737 46.9384 24.3251 46.9734 24.2888C47.0085 24.2525 47.0563 24.2312 47.1067 24.2294C47.1572 24.2312 47.205 24.2525 47.24 24.2888C47.2751 24.3251 47.2947 24.3737 47.2947 24.4241C47.2947 24.4746 47.2751 24.5232 47.24 24.5595C47.205 24.5958 47.1572 24.6171 47.1067 24.6189Z" fill="black"/>
<path d="M45.0723 25.3008C45.1561 25.365 45.2308 25.4405 45.2942 25.5249C45.3579 25.6057 45.4142 25.692 45.4623 25.7828C45.5119 25.8739 45.5519 25.9698 45.5816 26.0691C45.6196 26.1712 45.6292 26.2817 45.6095 26.3888C45.5554 26.2962 45.4914 26.2219 45.4377 26.1361C45.3815 26.053 45.3298 25.9671 45.2828 25.8785C45.2349 25.7895 45.1928 25.6975 45.1567 25.6031C45.1172 25.5058 45.0888 25.4044 45.0723 25.3008Z" fill="#020202"/>
<path d="M40.8566 16.5144C40.7746 16.3899 40.723 16.2479 40.706 16.0998C40.6904 15.9474 40.7222 15.7939 40.797 15.6602C40.8744 15.5263 40.9876 15.4168 41.1239 15.3439C41.2603 15.271 41.4142 15.2378 41.5685 15.2479C41.7228 15.2558 41.8723 15.3039 42.0023 15.3875C42.1322 15.4711 42.2381 15.5872 42.3093 15.7243C42.3501 15.8734 42.3376 16.0321 42.2739 16.173C42.2234 16.3118 42.1675 16.447 42.1089 16.5817C42.1487 16.4404 42.1967 16.3015 42.2326 16.1604C42.284 16.0293 42.289 15.8846 42.2467 15.7503C42.1786 15.6287 42.0797 15.5271 41.9599 15.4558C41.8397 15.3838 41.7036 15.3426 41.5637 15.3357C41.4241 15.325 41.2842 15.3527 41.1593 15.416C41.0344 15.4792 40.9292 15.5755 40.8552 15.6943C40.7851 15.8197 40.7484 15.9609 40.7486 16.1046C40.7489 16.2482 40.786 16.3893 40.8566 16.5144Z" fill="#020202"/>
<path d="M39.3329 20.4536C39.3602 20.69 39.3864 20.9251 39.4082 21.1597L39.4086 21.163C39.4093 21.1706 39.4085 21.1783 39.4062 21.1857C39.4039 21.193 39.4003 21.1998 39.3954 21.2057C39.3905 21.2116 39.3845 21.2165 39.3777 21.22C39.3709 21.2236 39.3635 21.2258 39.3559 21.2265C39.3482 21.2273 39.3405 21.2265 39.3332 21.2242C39.3259 21.2219 39.3191 21.2182 39.3132 21.2134C39.3073 21.2085 39.3024 21.2024 39.2988 21.1957C39.2952 21.1889 39.293 21.1815 39.2923 21.1738L39.2921 21.1692C39.2888 20.9299 39.2899 20.6912 39.2922 20.4537C39.2922 20.4485 39.2942 20.4436 39.2978 20.4399C39.3014 20.4361 39.3062 20.4339 39.3114 20.4336C39.3165 20.4333 39.3216 20.435 39.3256 20.4384C39.3295 20.4417 39.332 20.4464 39.3326 20.4516L39.3329 20.4536Z" fill="#020202"/>
<path d="M39.5122 21.8621C39.5566 22.0945 39.5954 22.3273 39.6372 22.5595L39.638 22.5635C39.6407 22.5785 39.6405 22.594 39.6372 22.6089C39.634 22.6239 39.6279 22.638 39.6192 22.6506C39.6104 22.6631 39.5993 22.6739 39.5865 22.6821C39.5736 22.6904 39.5593 22.6961 39.5442 22.6988C39.5292 22.7015 39.5137 22.7012 39.4988 22.6979C39.4839 22.6947 39.4697 22.6885 39.4572 22.6797C39.4446 22.671 39.4339 22.6599 39.4257 22.647C39.4175 22.6341 39.4119 22.6198 39.4092 22.6047C39.4087 22.602 39.4083 22.599 39.408 22.5963C39.3829 22.3587 39.3549 22.1217 39.3324 21.8843C39.3302 21.8612 39.337 21.8381 39.3514 21.8198C39.3657 21.8015 39.3866 21.7894 39.4096 21.7861C39.4326 21.7828 39.456 21.7884 39.475 21.8019C39.494 21.8153 39.507 21.8356 39.5115 21.8584L39.5122 21.8621Z" fill="#020202"/>
<path d="M39.7809 23.2499L39.9446 23.9381L39.9458 23.9429C39.9505 23.9626 39.9513 23.9829 39.9481 24.0029C39.9449 24.0229 39.9379 24.042 39.9273 24.0592C39.9167 24.0764 39.9028 24.0914 39.8865 24.1032C39.8701 24.1151 39.8516 24.1236 39.8319 24.1283C39.8123 24.133 39.7919 24.1337 39.7719 24.1305C39.752 24.1273 39.7328 24.1202 39.7157 24.1096C39.6985 24.0989 39.6835 24.085 39.6717 24.0687C39.6599 24.0523 39.6514 24.0337 39.6468 24.014C39.6462 24.0118 39.6457 24.009 39.6452 24.0068L39.5131 23.3022C39.5065 23.2672 39.5139 23.2311 39.5336 23.2015C39.5533 23.1718 39.5838 23.1511 39.6186 23.1436C39.6534 23.1362 39.6897 23.1426 39.7199 23.1616C39.75 23.1806 39.7715 23.2105 39.7798 23.2451L39.7809 23.2499Z" fill="#020202"/>
<path d="M40.1261 24.6235L40.3259 25.301L40.3275 25.3063C40.3405 25.3507 40.3354 25.3984 40.3132 25.439C40.2911 25.4796 40.2537 25.5098 40.2093 25.5229C40.165 25.5359 40.1172 25.5309 40.0766 25.5088C40.036 25.4867 40.0057 25.4495 39.9926 25.4051L39.9913 25.4008L39.8063 24.7079C39.7952 24.6659 39.801 24.6212 39.8225 24.5835C39.844 24.5457 39.8795 24.518 39.9213 24.5062C39.9631 24.4944 40.0078 24.4996 40.0459 24.5205C40.0839 24.5415 40.1122 24.5766 40.1246 24.6182L40.1261 24.6235Z" fill="#020202"/>
<path d="M40.5436 25.9718C40.6239 26.1931 40.7033 26.4146 40.7796 26.6373L40.7816 26.6429C40.7971 26.6883 40.7941 26.7381 40.7731 26.7813C40.7522 26.8245 40.715 26.8577 40.6697 26.8736C40.6244 26.8895 40.5746 26.8869 40.5312 26.8663C40.4879 26.8457 40.4544 26.8088 40.4381 26.7636C40.3571 26.5385 40.2791 26.3122 40.202 26.0857C40.1867 26.0408 40.1898 25.9917 40.2105 25.949C40.2312 25.9064 40.2679 25.8736 40.3126 25.8579C40.3573 25.8421 40.4065 25.8447 40.4493 25.8649C40.4922 25.8852 40.5253 25.9215 40.5416 25.9661L40.5436 25.9718Z" fill="#020202"/>
<path d="M41.0309 27.2961C41.1191 27.5142 41.2097 27.7315 41.296 27.9508L41.298 27.9559C41.3137 27.9957 41.3132 28.0401 41.2967 28.0796C41.2802 28.1191 41.2489 28.1506 41.2095 28.1674C41.1701 28.1841 41.1258 28.1849 41.0858 28.1695C41.0459 28.1541 41.0135 28.1237 40.9956 28.0848C40.8957 27.8676 40.8001 27.6484 40.7021 27.43C40.6828 27.387 40.6814 27.3382 40.6981 27.2942C40.7149 27.2501 40.7484 27.2146 40.7914 27.1953C40.8343 27.176 40.8832 27.1745 40.9272 27.1913C40.9713 27.208 41.0068 27.2416 41.0261 27.2846L41.0285 27.29L41.0309 27.2961Z" fill="#020202"/>
<path d="M41.5746 28.6022L41.8759 29.2427L41.8777 29.2465C41.8911 29.2751 41.8929 29.3078 41.8826 29.3377C41.8724 29.3675 41.8509 29.3922 41.8227 29.4066C41.7946 29.4209 41.7619 29.4236 41.7318 29.4143C41.7016 29.4049 41.6762 29.3842 41.6611 29.3565L41.3173 28.7275C41.2991 28.6942 41.2949 28.655 41.3056 28.6185C41.3163 28.5821 41.341 28.5514 41.3743 28.5332C41.4076 28.515 41.4468 28.5107 41.4833 28.5214C41.5197 28.5321 41.5504 28.5568 41.5686 28.5901C41.57 28.5926 41.5712 28.595 41.5724 28.5975L41.5746 28.6022Z" fill="#020202"/>
<path d="M42.1996 29.8702C42.3149 30.0762 42.4278 30.2839 42.5454 30.489L42.5468 30.4914C42.5571 30.5093 42.5599 30.5305 42.5547 30.5505C42.5494 30.5705 42.5366 30.5876 42.5189 30.5982C42.5011 30.6088 42.48 30.612 42.4599 30.6071C42.4398 30.6023 42.4225 30.5897 42.4116 30.5722C42.2858 30.37 42.1553 30.1706 42.0273 29.9693C42.0131 29.947 42.0084 29.92 42.0141 29.8943C42.0198 29.8685 42.0355 29.8461 42.0578 29.832C42.08 29.8178 42.107 29.8131 42.1328 29.8188C42.1585 29.8245 42.1809 29.8402 42.1951 29.8625L42.1978 29.867L42.1996 29.8702Z" fill="#020202"/>
<path d="M42.9189 31.0931L43.3209 31.6778L43.3221 31.6796C43.3313 31.693 43.3349 31.7095 43.332 31.7255C43.3291 31.7415 43.3199 31.7557 43.3066 31.765C43.2933 31.7743 43.2768 31.778 43.2608 31.7752C43.2448 31.7724 43.2305 31.7633 43.2211 31.7501L42.809 31.1669C42.7989 31.1526 42.7949 31.1348 42.7978 31.1175C42.8008 31.1002 42.8105 31.0848 42.8249 31.0746C42.8392 31.0645 42.857 31.0605 42.8743 31.0635C42.8916 31.0664 42.907 31.0762 42.9171 31.0905L42.9174 31.0909L42.9189 31.0931Z" fill="#020202"/>
<path d="M43.7486 32.2438L44.2008 32.7905L44.2024 32.7925C44.2084 32.7998 44.213 32.8082 44.2157 32.8172C44.2185 32.8262 44.2195 32.8357 44.2186 32.8451C44.2177 32.8545 44.215 32.8637 44.2105 32.872C44.2061 32.8804 44.2001 32.8878 44.1928 32.8938C44.1856 32.8998 44.1772 32.9043 44.1681 32.9071C44.1591 32.9099 44.1496 32.9108 44.1402 32.91C44.1308 32.9091 44.1217 32.9063 44.1133 32.9019C44.105 32.8975 44.0976 32.8915 44.0916 32.8842L44.0906 32.883L43.6476 32.3225C43.6371 32.3093 43.6323 32.2925 43.6342 32.2757C43.636 32.259 43.6444 32.2436 43.6575 32.233C43.6706 32.2224 43.6874 32.2174 43.7041 32.2191C43.7209 32.2207 43.7363 32.229 43.7471 32.2419L43.7486 32.2438Z" fill="#020202"/>
<path d="M44.6777 33.3172L45.1745 33.8227L45.1771 33.8254C45.1965 33.8451 45.2072 33.8718 45.2069 33.8994C45.2066 33.9271 45.1954 33.9535 45.1757 33.9729C45.156 33.9923 45.1293 34.0031 45.1017 34.0028C45.074 34.0026 45.0476 33.9914 45.0282 33.9717L45.0246 33.9679L44.5492 33.433C44.5342 33.4162 44.5264 33.3941 44.5274 33.3716C44.5285 33.3491 44.5382 33.3279 44.5547 33.3124C44.5711 33.297 44.593 33.2886 44.6155 33.2891C44.638 33.2895 44.6595 33.2987 44.6754 33.3148L44.6777 33.3172Z" fill="#020202"/>
<path d="M45.6891 34.307L46.2216 34.773L46.2254 34.7764C46.2397 34.7888 46.2514 34.804 46.2599 34.821C46.2683 34.838 46.2733 34.8566 46.2746 34.8755C46.2759 34.8945 46.2734 34.9135 46.2673 34.9315C46.2612 34.9495 46.2517 34.9661 46.2392 34.9804C46.2267 34.9947 46.2115 35.0064 46.1944 35.0148C46.1774 35.0232 46.1589 35.0282 46.1399 35.0294C46.121 35.0306 46.102 35.0281 46.084 35.022C46.066 35.0159 46.0494 35.0063 46.0351 34.9938C46.0331 34.992 46.0309 34.9899 46.029 34.9881L45.5175 34.4855C45.4945 34.463 45.4813 34.4324 45.4805 34.4002C45.4797 34.368 45.4915 34.3368 45.5134 34.3132C45.5352 34.2896 45.5654 34.2754 45.5975 34.2736C45.6296 34.2719 45.6612 34.2827 45.6855 34.3038L45.6891 34.307Z" fill="#020202"/>
<path d="M46.7679 35.2245L47.3263 35.6565L47.331 35.6602C47.3674 35.6884 47.3911 35.73 47.3969 35.7758C47.4027 35.8215 47.3901 35.8677 47.3619 35.9042C47.3337 35.9406 47.2922 35.9644 47.2464 35.9703C47.2007 35.9762 47.1545 35.9637 47.118 35.9355L47.1128 35.9314L46.5624 35.471C46.5302 35.4441 46.5098 35.4056 46.5057 35.3638C46.5015 35.322 46.5139 35.2803 46.5402 35.2475C46.5665 35.2148 46.6046 35.1936 46.6463 35.1886C46.688 35.1836 46.73 35.1952 46.7632 35.2208L46.7679 35.2245Z" fill="#020202"/>
<path d="M47.8978 36.0709L48.4808 36.4682L48.4861 36.4719C48.5285 36.5007 48.5577 36.5453 48.5672 36.5957C48.5768 36.6461 48.5659 36.6982 48.537 36.7406C48.5081 36.783 48.4636 36.8121 48.4132 36.8217C48.3628 36.8312 48.3107 36.8204 48.2683 36.7915L48.2649 36.7891L47.6803 36.3718C47.6405 36.3434 47.6136 36.3005 47.6052 36.2524C47.5969 36.2042 47.6079 36.1548 47.6358 36.1147C47.6638 36.0746 47.7064 36.0471 47.7544 36.0383C47.8024 36.0294 47.852 36.0398 47.8924 36.0672L47.8978 36.0709Z" fill="#020202"/>
<path d="M49.0763 36.8436L49.6841 37.2015L49.6899 37.2049C49.7136 37.2188 49.7343 37.2372 49.7509 37.2591C49.7675 37.281 49.7796 37.306 49.7865 37.3326C49.7934 37.3592 49.795 37.3869 49.7912 37.4141C49.7874 37.4413 49.7783 37.4675 49.7644 37.4911C49.7504 37.5148 49.7319 37.5355 49.71 37.552C49.6881 37.5686 49.6631 37.5806 49.6365 37.5874C49.6099 37.5943 49.5822 37.5958 49.555 37.592C49.5278 37.5881 49.5016 37.5789 49.478 37.5649L49.4741 37.5625L48.8629 37.1846C48.8179 37.1567 48.7857 37.1123 48.7732 37.0608C48.7608 37.0094 48.7691 36.9551 48.7964 36.9098C48.8237 36.8644 48.8678 36.8317 48.9191 36.8187C48.9704 36.8057 49.0248 36.8134 49.0704 36.8402L49.0763 36.8436Z" fill="#020202"/>
<path d="M50.3038 37.5428L50.9299 37.8677L50.9358 37.8708C50.9612 37.8839 50.9837 37.9018 51.0022 37.9237C51.0206 37.9455 51.0345 37.9707 51.0432 37.998C51.0518 38.0252 51.0551 38.0538 51.0526 38.0823C51.0502 38.1107 51.0422 38.1384 51.029 38.1638C51.0159 38.1891 50.9978 38.2117 50.976 38.23C50.9541 38.2484 50.9288 38.2623 50.9016 38.2709C50.8743 38.2795 50.8457 38.2826 50.8172 38.2801C50.7888 38.2776 50.7611 38.2695 50.7358 38.2563L50.7353 38.256L50.0982 37.9233C50.0475 37.8967 50.0094 37.8511 49.9923 37.7964C49.9752 37.7418 49.9805 37.6825 50.007 37.6318C50.0335 37.581 50.0791 37.5428 50.1337 37.5256C50.1883 37.5084 50.2475 37.5136 50.2984 37.54L50.3038 37.5428Z" fill="#020202"/>
<path d="M51.5643 38.171L52.2063 38.4647L52.2119 38.4673C52.2625 38.4904 52.3019 38.5327 52.3216 38.5848C52.3412 38.6369 52.3395 38.6947 52.3168 38.7455C52.2941 38.7964 52.2522 38.8362 52.2002 38.8563C52.1483 38.8765 52.0905 38.8753 52.0395 38.853L51.381 38.5658C51.3548 38.5544 51.331 38.5379 51.3111 38.5173C51.2912 38.4968 51.2756 38.4725 51.2651 38.4458C51.2546 38.4192 51.2495 38.3908 51.25 38.3622C51.2506 38.3335 51.2567 38.3053 51.2682 38.2791C51.2796 38.2528 51.2961 38.2291 51.3167 38.2093C51.3373 38.1894 51.3617 38.1738 51.3883 38.1634C51.415 38.153 51.4434 38.1479 51.472 38.1485C51.5006 38.1491 51.5289 38.1553 51.5551 38.1668L51.5576 38.1679L51.5643 38.171Z" fill="#020202"/>
<path d="M52.8567 38.7433L53.5131 39.0045L53.518 39.0065C53.5655 39.0253 53.6036 39.0621 53.6241 39.1089C53.6447 39.1557 53.646 39.2086 53.6278 39.2564C53.6097 39.3041 53.5734 39.3428 53.527 39.364C53.4805 39.3853 53.4276 39.3874 53.3796 39.3699L52.7055 39.1244C52.6802 39.1152 52.6569 39.1011 52.637 39.0829C52.6171 39.0647 52.601 39.0428 52.5896 39.0184C52.5782 38.994 52.5717 38.9675 52.5705 38.9406C52.5693 38.9137 52.5735 38.8868 52.5827 38.8614C52.5919 38.8361 52.606 38.8128 52.6243 38.793C52.6425 38.7731 52.6645 38.757 52.6889 38.7457C52.7133 38.7343 52.7398 38.7279 52.7667 38.7267C52.7937 38.7256 52.8206 38.7298 52.8459 38.7391L52.8506 38.7409L52.8567 38.7433Z" fill="#020202"/>
<path d="M54.1766 39.2498L54.8455 39.4811L54.8496 39.4825C54.891 39.4968 54.9251 39.5267 54.9446 39.5659C54.9642 39.6051 54.9676 39.6503 54.9542 39.692C54.9408 39.7337 54.9116 39.7684 54.8729 39.7889C54.8342 39.8093 54.789 39.8137 54.747 39.8012L54.0603 39.5964C54.0138 39.5825 53.9747 39.5507 53.9517 39.5081C53.9286 39.4654 53.9235 39.4153 53.9373 39.3689C53.9512 39.3224 53.9829 39.2833 54.0256 39.2603C54.0682 39.2372 54.1183 39.232 54.1648 39.2459L54.1716 39.2481L54.1766 39.2498Z" fill="#020202"/>
<path d="M55.5202 39.695L56.199 39.9004L56.2019 39.9013C56.2338 39.911 56.2606 39.9326 56.2768 39.9617C56.2929 39.9908 56.2972 40.0251 56.2885 40.0572C56.2799 40.0894 56.2591 40.1169 56.2305 40.134C56.202 40.1511 56.1679 40.1564 56.1355 40.1488L55.4386 39.9852C55.4193 39.9807 55.4011 39.9724 55.3851 39.9608C55.369 39.9492 55.3553 39.9346 55.3449 39.9178C55.3345 39.901 55.3274 39.8822 55.3242 39.8627C55.321 39.8431 55.3217 39.8231 55.3263 39.8039C55.3308 39.7846 55.3391 39.7664 55.3506 39.7503C55.3622 39.7342 55.3768 39.7206 55.3936 39.7101C55.4105 39.6997 55.4292 39.6927 55.4487 39.6895C55.4683 39.6863 55.4883 39.687 55.5076 39.6915C55.5105 39.6922 55.5135 39.693 55.5164 39.6938L55.5202 39.695Z" fill="#020202"/>
<path d="M56.8818 40.0897C57.1112 40.1476 57.3408 40.2054 57.5696 40.2674L57.5713 40.2679C57.5911 40.2732 57.6081 40.286 57.6187 40.3035C57.6294 40.3211 57.6328 40.342 57.6284 40.362C57.624 40.3821 57.6121 40.3996 57.5951 40.4111C57.5781 40.4225 57.5573 40.427 57.5371 40.4235C57.3024 40.3836 57.0684 40.3395 56.8342 40.2955C56.8206 40.2929 56.8076 40.2877 56.796 40.2801C56.7843 40.2725 56.7743 40.2627 56.7665 40.2513C56.7587 40.2398 56.7532 40.2269 56.7503 40.2133C56.7475 40.1998 56.7473 40.1857 56.7499 40.1721C56.7524 40.1585 56.7576 40.1455 56.7652 40.1338C56.7728 40.1222 56.7826 40.1122 56.7941 40.1044C56.8055 40.0965 56.8184 40.091 56.832 40.0882C56.8456 40.0853 56.8596 40.0852 56.8732 40.0878C56.8753 40.0881 56.8773 40.0886 56.8793 40.0891L56.8818 40.0897Z" fill="#020202"/>
<path d="M58.2606 40.435L58.8268 40.5646C58.8294 40.5651 58.8319 40.5662 58.8341 40.5677C58.8363 40.5692 58.8382 40.5711 58.8396 40.5734C58.8411 40.5756 58.8421 40.5781 58.8426 40.5808C58.8431 40.5834 58.843 40.5861 58.8425 40.5887C58.8413 40.5937 58.8384 40.598 58.8343 40.601C58.8301 40.6039 58.825 40.6053 58.82 40.6047L58.2427 40.531C58.2299 40.5294 58.2183 40.5227 58.2104 40.5124C58.2025 40.5021 58.199 40.4892 58.2006 40.4763C58.2022 40.4635 58.2089 40.4518 58.2191 40.4439C58.2293 40.4359 58.2423 40.4324 58.2551 40.434L58.2598 40.4348L58.2606 40.435Z" fill="#020202"/>
<path d="M38.0554 60.6042C38.0451 60.7072 38.0539 60.8114 38.0816 60.9112C38.1027 61.0154 38.1329 61.1182 38.163 61.2206C38.2253 61.4253 38.3025 61.6256 38.3771 61.8264C38.4614 62.0341 38.5167 62.2525 38.5413 62.4753C38.5637 62.7076 38.5306 62.9418 38.4445 63.1587C38.4396 63.1708 38.4325 63.1817 38.4235 63.1911L38.4203 63.1943L38.419 63.1957L38.4439 63.1586L38.4231 63.2092C38.415 63.229 38.4012 63.246 38.3836 63.258C38.366 63.2701 38.3452 63.2767 38.3238 63.2771L38.3175 63.2772L38.3162 63.2772L38.4203 63.2123C38.3823 63.2926 38.3364 63.3688 38.2831 63.4399C38.256 63.4757 38.2269 63.51 38.196 63.5426C38.1631 63.5778 38.1272 63.6102 38.0887 63.6392L38.1424 63.5428C38.1355 63.7969 38.1251 64.0508 38.1149 64.3046C38.104 64.5585 38.0968 64.8125 38.0824 65.0662C38.0804 65.1011 38.0651 65.134 38.0398 65.1581C38.0145 65.1823 37.9809 65.196 37.9459 65.1964C37.4956 65.2001 37.0412 65.1986 36.5888 65.1864L35.2312 65.1556L35.2267 65.1554C35.2089 65.155 35.192 65.1477 35.1794 65.1352C35.1668 65.1226 35.1595 65.1056 35.159 65.0878C35.1549 64.9138 35.1517 64.7397 35.1445 64.5658C35.1376 64.3919 35.1335 64.2179 35.124 64.0441L35.1884 64.0879L34.8214 64.2076L34.827 64.2052C34.4753 64.3695 34.1152 64.515 33.748 64.6409C33.3822 64.7719 33.0098 64.8839 32.6324 64.9764C32.2536 65.073 31.868 65.141 31.479 65.1798C31.0865 65.2181 30.6912 65.218 30.2987 65.1796L30.3151 65.1805L30.3138 65.1805L30.3107 65.1806C30.3058 65.1806 30.3009 65.1802 30.2961 65.1794C30.0861 65.1524 29.8782 65.1114 29.6738 65.0566C29.5673 65.033 29.4633 64.9995 29.3631 64.9566C29.2469 64.9111 29.142 64.8409 29.0556 64.751C29.0295 64.7225 29.0079 64.6903 28.9914 64.6554C28.9826 64.6366 28.9743 64.6174 28.9668 64.5982C28.9614 64.5772 28.9574 64.556 28.9548 64.5345C28.9458 64.4541 28.9598 64.3728 28.9951 64.2999C29.0535 64.1902 29.1338 64.0935 29.2309 64.0159C29.3983 63.8786 29.5808 63.7607 29.7749 63.6647C30.1494 63.47 30.547 63.3234 30.9583 63.2285C31.1667 63.1799 31.3616 63.1476 31.5568 63.0987C31.7505 63.0528 31.9502 63.0014 32.1345 62.9433L32.1825 62.9349C32.1633 62.934 32.1443 62.9383 32.1273 62.9473L32.1906 62.9323L32.1933 62.9324L32.1483 62.9397C32.451 62.8442 32.7457 62.7247 33.0296 62.5825C33.3102 62.4385 33.5719 62.2603 33.8087 62.052C34.044 61.8418 34.2349 61.5866 34.3698 61.3013C34.507 61.0124 34.5669 60.6928 34.5436 60.3738L34.5434 60.3721C34.543 60.3682 34.5442 60.3644 34.5466 60.3613C34.5489 60.3583 34.5524 60.3562 34.5562 60.3556C34.5601 60.3551 34.564 60.356 34.5672 60.3582C34.5704 60.3603 34.5726 60.3637 34.5734 60.3675C34.6337 60.6964 34.6028 61.0356 34.484 61.3483C34.3641 61.6632 34.1794 61.9494 33.942 62.1885C33.7071 62.4282 33.4393 62.6331 33.1465 62.7972C32.8552 62.9582 32.5515 63.0957 32.2384 63.2084C32.2265 63.2129 32.214 63.2153 32.2013 63.2156L32.1933 63.2157L32.1906 63.2158L32.2539 63.2009C32.2316 63.2116 32.2074 63.2176 32.1827 63.2186L32.2306 63.2103C32.0276 63.2826 31.8337 63.3427 31.6311 63.3962C31.4307 63.4502 31.2227 63.4893 31.034 63.5372C30.6499 63.6345 30.2778 63.7741 29.9244 63.9534C29.7521 64.0393 29.5885 64.1415 29.4357 64.2586C29.371 64.3069 29.3163 64.3672 29.2744 64.4361C29.252 64.4942 29.2523 64.5045 29.2869 64.554C29.3433 64.6107 29.4106 64.6555 29.4848 64.6856C29.5717 64.7248 29.6621 64.7558 29.7549 64.7779C29.944 64.833 30.1366 64.8755 30.3314 64.9051L30.3138 64.904L30.3151 64.904L30.3195 64.9041C30.3235 64.9041 30.3275 64.9044 30.3315 64.905C30.7062 64.9549 31.0848 64.9693 31.4622 64.9478C31.8432 64.9297 32.2225 64.8849 32.5972 64.8136C32.9743 64.7435 33.3468 64.6505 33.7127 64.5351C34.0784 64.4188 34.437 64.2808 34.7863 64.1217L34.7869 64.1214L34.792 64.1194L35.1574 63.9949C35.1696 63.9907 35.183 63.9916 35.1947 63.9973C35.2063 64.003 35.2151 64.0131 35.2193 64.0253C35.2207 64.0297 35.2216 64.0341 35.2219 64.0387C35.2316 64.2124 35.2466 64.3859 35.259 64.5595C35.271 64.7331 35.2871 64.9064 35.3022 65.0799L35.23 65.0122L36.5877 64.9576C37.0404 64.9376 37.4911 64.9281 37.9459 64.9231L37.8094 65.0532C37.8192 64.7993 37.8362 64.5457 37.8494 64.292C37.8633 64.0383 37.8771 63.7846 37.8944 63.5311L37.8946 63.5283C37.8959 63.5096 37.9014 63.4916 37.9107 63.4754C37.9199 63.4592 37.9327 63.4452 37.948 63.4346C37.9742 63.4155 37.9989 63.3944 38.0218 63.3715C38.0472 63.3464 38.0713 63.32 38.0938 63.2922C38.1392 63.2357 38.1788 63.1747 38.2121 63.1103L38.2142 63.1063C38.2238 63.0876 38.2385 63.072 38.2565 63.0613C38.2745 63.0505 38.2952 63.045 38.3162 63.0453L38.3175 63.0454L38.212 63.1133L38.2315 63.0701L38.2336 63.0652C38.2391 63.0532 38.2468 63.0422 38.2563 63.033L38.2577 63.0317L38.2335 63.0672C38.3166 62.8851 38.356 62.6861 38.3487 62.4861C38.3377 62.2785 38.2981 62.0734 38.2311 61.8766C38.1647 61.6697 38.1128 61.4581 38.0668 61.2452C38.0459 61.1381 38.0251 61.0311 38.0132 60.9221C38.0071 60.8674 38.004 60.8124 38.0039 60.7574C38.0008 60.6997 38.0096 60.6421 38.0296 60.5879C38.031 60.5846 38.0336 60.582 38.0369 60.5805C38.0401 60.579 38.0438 60.5788 38.0472 60.5799C38.0507 60.5809 38.0535 60.5832 38.0553 60.5863C38.0572 60.5894 38.0578 60.5931 38.057 60.5966L38.0554 60.6042Z" fill="#020202"/>
<path d="M34.5576 60.8008C34.8304 60.9336 35.1153 61.0399 35.4084 61.1179C35.6961 61.1961 35.9919 61.2404 36.2898 61.2499C36.587 61.2635 36.8847 61.2397 37.176 61.1789C37.3237 61.1507 37.4698 61.1142 37.6134 61.0695C37.7598 61.0296 37.8979 60.9659 38.0476 60.9217C37.9205 61.0105 37.7879 61.0908 37.6504 61.1623C37.5104 61.2319 37.3645 61.289 37.2145 61.333C37.0642 61.3798 36.9101 61.4136 36.754 61.434C36.6763 61.4477 36.5969 61.4451 36.5183 61.4514L36.4001 61.4576L36.2818 61.4531C35.9667 61.4421 35.6554 61.3798 35.3603 61.2686C35.0662 61.1634 34.7941 61.0048 34.5576 60.8008Z" fill="#020202"/>
<path d="M36.5826 65.0197L36.7624 65.0667L35.2303 65.0801L35.1727 64.0376L34.8064 64.1597C34.8064 64.1597 32.6425 65.2156 30.5845 65.0653C30.4946 65.0586 30.4048 65.0492 30.3148 65.0385H30.3135C30.1794 65.0224 30.0452 64.9996 29.9124 64.9701C29.7849 64.9431 29.6595 64.9077 29.5367 64.8641C29.5099 64.8547 29.4858 64.8453 29.463 64.8359C29.4202 64.8189 29.3785 64.7992 29.3382 64.7769C28.8083 64.4898 29.2684 64.1141 29.8024 63.8297C30.2436 63.5978 30.7157 63.4302 31.2043 63.3319C31.5001 63.2722 31.7925 63.1969 32.0804 63.1065C32.1153 63.0958 32.1488 63.0851 32.1823 63.073C32.1852 63.0727 32.1879 63.0718 32.1904 63.0703H32.193C32.5316 63.0856 32.8601 63.1903 33.1452 63.3736C33.4303 63.5569 33.6619 63.8124 33.8163 64.1141C35.6677 63.3105 36.3278 63.662 36.474 63.7733C36.2804 63.8785 36.1088 64.0197 35.9682 64.1892C35.9061 64.2815 35.8787 64.3929 35.891 64.5034C35.9033 64.614 35.9544 64.7166 36.0353 64.793C36.0888 64.8378 36.1485 64.8749 36.2124 64.903C36.3318 64.9536 36.4558 64.9927 36.5826 65.0197Z" fill="#020202"/>
<path d="M38.0269 63.2433C38.1235 63.2152 38.2201 63.1883 38.3166 63.1602C38.2484 63.3071 38.1463 63.4358 38.0188 63.5358L37.945 65.0586L37.3789 65.064C37.2448 65.0479 37.1092 65.0264 36.9764 65.0009C36.9147 64.9888 36.8543 64.9767 36.7939 64.962L36.6142 64.911C36.4944 64.8835 36.3776 64.8444 36.2654 64.7943C36.2132 64.7718 36.1648 64.7415 36.1219 64.7044C36.0838 64.6672 36.0549 64.6218 36.0373 64.5716C36.0198 64.5213 36.0144 64.4677 36.0217 64.415C36.0289 64.3623 36.0485 64.312 36.0789 64.2684C36.2385 64.084 36.4303 63.9303 36.645 63.8149C36.8602 63.6881 37.0839 63.5765 37.3145 63.4808C37.5456 63.3837 37.7837 63.3043 38.0269 63.2433Z" fill="#020202"/>
<path d="M38.4479 62.5701C38.4495 62.7564 38.4125 62.9409 38.3392 63.1121L38.3379 63.1135C37.9772 63.174 37.6222 63.2647 37.2767 63.3845C37.036 63.4718 36.8038 63.5809 36.5831 63.7105C36.571 63.7172 36.5589 63.7253 36.5469 63.732C37.0003 62.9391 38.3687 62.0469 38.3687 62.0469C38.3727 62.063 38.3781 62.0791 38.3822 62.0952C38.3969 62.1515 38.4089 62.2052 38.4184 62.2575L38.4412 62.4292C38.4425 62.4467 38.4439 62.4628 38.4452 62.4789L38.4479 62.5701Z" fill="#020202"/>
<path d="M41.4641 60.3673C41.5188 60.65 41.5026 60.9417 41.417 61.2166C41.3775 61.3559 41.3236 61.4906 41.2561 61.6186C41.1861 61.7455 41.105 61.8659 41.0138 61.9785C40.9701 62.0364 40.9236 62.0921 40.8744 62.1453L40.719 62.2968C40.6142 62.3964 40.5023 62.4882 40.3841 62.5714L40.297 62.6362C40.2668 62.6556 40.2353 62.6729 40.2044 62.6913L40.0181 62.8003C39.8948 62.8738 39.7663 62.9383 39.6338 62.9935C39.3726 63.1097 39.1045 63.2098 38.831 63.2931C38.5587 63.3676 38.2748 63.4331 38.0067 63.4933C37.4696 63.6029 36.9532 63.7966 36.4764 64.0671C36.3614 64.1322 36.2558 64.2128 36.1625 64.3065C36.0755 64.4 36.0291 64.5057 36.0987 64.5958C36.1841 64.6926 36.2938 64.7647 36.4164 64.8049C36.5446 64.8548 36.6765 64.8948 36.8109 64.9245C37.3556 65.0388 37.9151 65.064 38.4678 64.9992C39.0199 64.9331 39.5644 64.8138 40.0936 64.6431C40.6216 64.4781 41.1373 64.2762 41.6371 64.039C41.6418 64.0367 41.6467 64.0346 41.6517 64.0329L41.654 64.0321L42.0179 63.9062C42.0384 63.8991 42.0603 63.8968 42.0818 63.8995C42.1033 63.9023 42.1239 63.9099 42.1421 63.9218C42.1602 63.9338 42.1753 63.9497 42.1863 63.9684C42.1973 63.9872 42.2038 64.0081 42.2054 64.0298L42.2056 64.0337L42.2757 65.0752L42.1201 64.9295C42.5725 64.919 43.0249 64.9122 43.4773 64.9088C43.9297 64.9019 44.3822 64.9067 44.8346 64.9054L44.6818 65.0524C44.695 64.7987 44.7151 64.5454 44.7316 64.2919L44.7835 63.5315C44.7848 63.5125 44.7902 63.494 44.7993 63.4773C44.8085 63.4606 44.8211 63.4461 44.8364 63.4348L44.8379 63.4337C44.9268 63.3644 45.0025 63.2796 45.0614 63.1834C45.1226 63.082 45.1687 62.9723 45.1981 62.8576C45.2553 62.6178 45.2542 62.3679 45.195 62.1286L45.1465 61.946L45.0896 61.7581C45.0532 61.632 45.0203 61.5049 44.9898 61.3772C44.9605 61.249 44.9336 61.1203 44.9148 60.9897C44.9049 60.9242 44.8989 60.8582 44.8966 60.792C44.8904 60.7232 44.8986 60.6538 44.9206 60.5883C44.922 60.5849 44.9247 60.5821 44.9281 60.5806C44.9315 60.579 44.9354 60.5789 44.9389 60.5801C44.9424 60.5813 44.9454 60.5838 44.9471 60.5871C44.9489 60.5904 44.9493 60.5942 44.9483 60.5978L44.9464 60.6046C44.9362 60.6653 44.9369 60.7273 44.9485 60.7877C44.9572 60.8509 44.971 60.9139 44.985 60.9766C45.0145 61.1019 45.0522 61.2256 45.092 61.3485C45.1328 61.4712 45.1772 61.5927 45.2226 61.7139L45.2909 61.8959L45.3553 62.0872C45.4384 62.3515 45.4569 62.6317 45.4094 62.9046C45.3839 63.0448 45.3352 63.1798 45.2652 63.304C45.1932 63.4337 45.0968 63.5483 44.9813 63.6414L45.0356 63.5437L45.014 64.3056C45.006 64.5595 45.0016 64.8136 44.9903 65.0673C44.9885 65.1064 44.972 65.1434 44.9439 65.1707C44.9159 65.198 44.8785 65.2136 44.8394 65.2143L44.8374 65.2143C44.385 65.2211 43.9326 65.2339 43.4802 65.235C43.0278 65.2399 42.5753 65.241 42.1229 65.2384L42.1189 65.2383C42.0798 65.238 42.0423 65.2228 42.0141 65.1956C41.9859 65.1685 41.9691 65.1316 41.9673 65.0925L41.9205 64.0497L42.1082 64.1771L41.7416 64.2949L41.7585 64.288C40.7198 64.7474 39.6103 65.0263 38.4779 65.1129C37.9136 65.162 37.3452 65.1309 36.7897 65.0203C36.6501 64.9914 36.5123 64.9541 36.3771 64.9086C36.231 64.865 36.0989 64.784 35.9937 64.6736C35.9659 64.6391 35.9454 64.5993 35.9335 64.5567C35.9228 64.5122 35.922 64.4659 35.9311 64.4211C35.9503 64.3408 35.9886 64.2664 36.0428 64.2041C36.14 64.0919 36.2522 63.9937 36.3763 63.9122C36.8548 63.5928 37.3867 63.3616 37.9467 63.2294C38.225 63.1664 38.4856 63.0987 38.7554 63.0331C39.0189 62.9567 39.2778 62.8651 39.5308 62.7588C39.6588 62.7108 39.783 62.6536 39.9026 62.5875L40.0826 62.4905C40.1124 62.474 40.1431 62.4587 40.1723 62.4414L40.2558 62.3835C40.3713 62.3122 40.4813 62.2326 40.585 62.1451L40.739 62.0122C40.7877 61.9654 40.834 61.9161 40.8777 61.8646C41.0618 61.6648 41.207 61.4324 41.3058 61.1792C41.409 60.9239 41.4529 60.6484 41.4342 60.3737L41.4341 60.372C41.4338 60.3682 41.4349 60.3643 41.4373 60.3613C41.4397 60.3583 41.4431 60.3562 41.4469 60.3557C41.4507 60.3551 41.4546 60.3559 41.4578 60.3581C41.461 60.3603 41.4633 60.3636 41.4641 60.3673Z" fill="#020202"/>
<path d="M41.4502 60.8008C41.7229 60.9336 42.0079 61.0399 42.301 61.1179C42.5886 61.1961 42.8844 61.2404 43.1823 61.2499C43.4796 61.2635 43.7773 61.2397 44.0686 61.1789C44.2163 61.1507 44.3623 61.1142 44.5059 61.0695C44.6524 61.0296 44.7905 60.9659 44.9401 60.9217C44.8131 61.0105 44.6805 61.0908 44.543 61.1623C44.403 61.2319 44.2571 61.289 44.107 61.333C43.9568 61.3798 43.8027 61.4136 43.6466 61.434C43.5688 61.4477 43.4895 61.4451 43.4109 61.4514L43.2926 61.4576L43.1744 61.4531C42.8592 61.4421 42.548 61.3798 42.2528 61.2686C41.9588 61.1634 41.6867 61.0048 41.4502 60.8008Z" fill="#020202"/>
<path d="M38.9848 63.0682C39.3408 63.067 39.6901 63.1644 39.9942 63.3494C40.2983 63.5345 40.5452 63.8 40.7078 64.1167C42.8533 63.1857 43.3987 63.8046 43.3987 63.8046C43.8071 62.9948 45.2592 62.0469 45.2592 62.0469L45.2592 62.0474C45.5591 63.0887 44.9099 63.5367 44.9099 63.5367L44.8359 65.0597L42.1224 65.0831L42.064 64.0405L41.6978 64.1625C41.6978 64.1625 39.0324 65.4635 36.8045 64.9727C35.4815 64.6806 36.0294 64.1872 36.6941 63.8327C37.1353 63.6007 37.6075 63.4332 38.0963 63.3354C38.4303 63.2684 38.7598 63.1808 39.083 63.0732H39.0843" fill="#020202"/>
<path d="M39.7666 17.6591C39.8755 17.5697 39.9879 17.4859 40.1035 17.4076L40.1904 17.349C40.222 17.3283 40.2554 17.3106 40.2903 17.2962C40.361 17.2681 40.4363 17.2539 40.5122 17.2541C40.7921 17.2517 41.0718 17.2687 41.3493 17.305C41.0718 17.3412 40.7921 17.3582 40.5122 17.3558C40.4483 17.3544 40.3846 17.3646 40.3243 17.386C40.2622 17.4109 40.2021 17.4407 40.1447 17.4752C40.022 17.542 39.896 17.6033 39.7666 17.6591Z" fill="#020202"/>
<path d="M40.835 16.6197C40.9219 16.6087 41.0096 16.604 41.0973 16.6058C41.1408 16.6054 41.184 16.6087 41.2273 16.6102C41.2743 16.6133 41.3207 16.6222 41.3655 16.6367C41.4097 16.6523 41.4519 16.6731 41.4911 16.6987C41.5268 16.7232 41.5636 16.7461 41.5984 16.7723C41.67 16.8228 41.7378 16.8786 41.8013 16.9392C41.7178 16.9123 41.6364 16.8794 41.5578 16.8406C41.5182 16.8225 41.4805 16.8012 41.4419 16.7815C41.4074 16.7615 41.3709 16.7453 41.333 16.733C41.2957 16.7198 41.2571 16.7107 41.2178 16.7058C41.175 16.6988 41.1321 16.6935 41.0895 16.6846C41.0032 16.6692 40.9181 16.6475 40.835 16.6197Z" fill="#020202"/>
<path d="M40.1357 17.105C40.2224 17.0611 40.3118 17.023 40.4034 16.9909C40.4953 16.9559 40.5897 16.9278 40.6858 16.9071C40.7378 16.9004 40.7905 16.9008 40.8424 16.9082C40.893 16.9181 40.9377 16.9267 40.9853 16.9387C41.0799 16.9604 41.173 16.9885 41.2639 17.0226C41.1669 17.0273 41.0697 17.0255 40.973 17.0172C40.8827 17.003 40.791 16.9999 40.7 17.0078C40.6547 17.0152 40.6098 17.025 40.5655 17.0374C40.5185 17.0474 40.4718 17.0591 40.4243 17.0672C40.329 17.0862 40.2326 17.0988 40.1357 17.105Z" fill="#020202"/>
<path d="M59.5847 44.3864C59.5431 44.1363 59.5309 43.8823 59.5483 43.6294C59.5537 43.5331 59.5654 43.4372 59.5834 43.3425C58.7979 43.2386 58.0124 43.1347 57.2269 43.0153L56.0467 42.8361C55.6534 42.7699 55.2599 42.7101 54.8678 42.6374L54.8652 43.9475L59.6782 44.7616C59.6352 44.6398 59.6039 44.5141 59.5847 44.3864ZM58.8239 40.5859L54.8678 42.6374C55.2651 42.6673 55.6612 42.7088 56.0585 42.7439L57.2464 42.8698C58.028 42.9516 58.8083 43.0503 59.5873 43.1477L60.661 42.592C61.0298 42.405 61.3971 42.2141 61.7685 42.0324L62.8799 41.4831C63.2538 41.3066 63.6237 41.1235 64.0003 40.9521L58.8239 40.5859ZM57.6762 42.1557C57.7116 42.211 57.7559 42.2602 57.8073 42.3011C57.9182 42.39 58.0427 42.4606 58.176 42.5102C58.4533 42.6168 58.7464 42.6765 59.0433 42.6868C59.3447 42.7015 59.6465 42.6641 59.9352 42.5764C60.08 42.5313 60.2161 42.4619 60.3377 42.3713C60.3972 42.3243 60.4489 42.2682 60.4909 42.2051C60.5208 42.1565 60.5415 42.1028 60.5519 42.0467C60.5437 42.1037 60.5238 42.1585 60.4935 42.2076C60.4528 42.2721 60.4015 42.3292 60.3416 42.3764C60.2221 42.4725 60.088 42.5488 59.9443 42.6024C59.6563 42.713 59.3517 42.7744 59.0433 42.7841C58.7308 42.7993 58.418 42.7602 58.1188 42.6686C57.9638 42.6191 57.8182 42.544 57.6878 42.4466C57.6198 42.3929 57.561 42.3284 57.5139 42.2557C57.4605 42.1774 57.432 42.0849 57.432 41.9902C57.432 41.8954 57.4605 41.8029 57.5139 41.7246C57.5611 41.6516 57.6204 41.5871 57.6891 41.5338C57.8186 41.436 57.964 41.3613 58.1188 41.313C58.4179 41.2208 58.7307 41.1817 59.0433 41.1975C59.3516 41.2068 59.6562 41.2678 59.9443 41.378C60.088 41.4315 60.2221 41.5078 60.3416 41.6039C60.4015 41.6516 60.4528 41.7091 60.4935 41.774C60.524 41.8225 60.5439 41.8769 60.5519 41.9337C60.5413 41.8776 60.5206 41.824 60.4909 41.7753C60.4486 41.7124 60.3969 41.6564 60.3377 41.6091C60.2161 41.5184 60.08 41.4491 59.9352 41.4039C59.6466 41.3156 59.3448 41.2782 59.0433 41.2936C58.7463 41.3032 58.4531 41.3629 58.176 41.4702C58.0425 41.5192 57.9179 41.5898 57.8073 41.6792C57.7559 41.7202 57.7116 41.7693 57.6762 41.8246C57.6439 41.8738 57.6268 41.9313 57.6268 41.9902C57.6268 42.049 57.6439 42.1065 57.6762 42.1557ZM62.924 41.5688L61.8385 42.1674C61.4764 42.3687 61.1102 42.5595 60.7467 42.7569L59.6496 43.3334C59.6457 43.336 59.6405 43.3373 59.6366 43.3399C59.6643 43.4326 59.6851 43.5272 59.699 43.6229C59.7404 43.873 59.7526 44.127 59.7353 44.3799C59.7296 44.5088 59.7105 44.6367 59.6782 44.7616L64.0003 42.8569V40.9521C63.6445 41.1637 63.2823 41.3637 62.924 41.5688Z" fill="#020202"/>
<path d="M59.2156 40.5833C59.1731 40.4489 59.1405 40.3116 59.1182 40.1725C59.1167 40.1641 59.1169 40.1555 59.1187 40.1472C59.1206 40.1389 59.124 40.131 59.1289 40.124C59.1338 40.1171 59.14 40.1111 59.1472 40.1065C59.1544 40.102 59.1624 40.0989 59.1708 40.0974L59.1749 40.0968L59.1912 40.095C59.5157 40.0604 59.8428 40.0572 60.1679 40.0853L60.1821 40.0865C60.202 40.0882 60.2204 40.0977 60.2333 40.113C60.2461 40.1282 60.2524 40.148 60.2508 40.1679L60.2507 40.1682C60.2379 40.3403 60.2102 40.511 60.1679 40.6783C60.1256 40.511 60.0979 40.3403 60.085 40.1682L60.1679 40.251C59.8428 40.2791 59.5157 40.2759 59.1912 40.2413L59.2642 40.1639C59.2583 40.3047 59.2421 40.4449 59.2156 40.5833Z" fill="#020202"/>
<path d="M61.949 40.7435C61.9065 40.6091 61.8739 40.4718 61.8516 40.3326C61.8501 40.3242 61.8503 40.3156 61.8521 40.3073C61.854 40.299 61.8574 40.2912 61.8623 40.2842C61.8672 40.2772 61.8734 40.2713 61.8806 40.2667C61.8878 40.2621 61.8958 40.259 61.9042 40.2575L61.9083 40.2569L61.9246 40.2552C62.2491 40.2206 62.5762 40.2174 62.9013 40.2455L62.9155 40.2467C62.9253 40.2475 62.9349 40.2503 62.9437 40.2548C62.9525 40.2594 62.9603 40.2656 62.9667 40.2731C62.973 40.2807 62.9779 40.2894 62.9809 40.2989C62.9839 40.3083 62.985 40.3182 62.9842 40.3281L62.9841 40.3283C62.9713 40.5005 62.9436 40.6711 62.9013 40.8385C62.859 40.6711 62.8313 40.5005 62.8184 40.3283L62.9013 40.4112C62.5762 40.4393 62.2491 40.436 61.9246 40.4015L61.9976 40.324C61.9917 40.4648 61.9755 40.605 61.949 40.7435Z" fill="#020202"/>
<path d="M54.8666 42.9435C54.3279 43.0332 53.7927 43.1411 53.2643 43.2682C52.7381 43.3856 52.2247 43.5549 51.7319 43.7738C51.4984 43.8697 51.2913 44.0201 51.1277 44.2123C51.0962 44.2525 51.0735 44.2988 51.0609 44.3483C51.0483 44.3977 51.0462 44.4493 51.0547 44.4996C51.0825 44.6095 51.1383 44.7103 51.2167 44.7922C51.388 44.9811 51.5957 45.1333 51.8273 45.2397C52.0688 45.3499 52.3188 45.4405 52.5748 45.5107C53.0966 45.6568 53.6269 45.7705 54.1627 45.8511C54.7001 45.9373 55.2422 46.0013 55.7862 46.0432C56.8751 46.119 57.9674 46.1362 59.0582 46.0945C60.1487 46.0537 61.2367 45.9872 62.3223 45.8951C62.8648 45.8481 63.406 45.7902 63.9447 45.7182C64.483 45.6453 65.0203 45.5663 65.5495 45.4579C65.8141 45.4051 66.077 45.3454 66.334 45.2724C66.5871 45.2051 66.8328 45.1125 67.0674 44.996C67.1706 44.9467 67.2621 44.8759 67.3357 44.7883C67.3488 44.7717 67.3591 44.7531 67.3662 44.7332C67.3742 44.707 67.3803 44.6802 67.3845 44.6531C67.3921 44.6254 67.3957 44.5968 67.3952 44.5681C67.3971 44.5399 67.3974 44.5116 67.3963 44.4834C67.3787 44.365 67.3372 44.2515 67.2745 44.1496C67.2117 44.0478 67.1289 43.9597 67.0311 43.8908C66.626 43.5716 66.1066 43.3769 65.5915 43.2225C65.0688 43.0704 64.5368 42.9528 63.9987 42.8702C63.9967 42.87 63.9948 42.8693 63.9931 42.8683C63.9913 42.8673 63.9898 42.866 63.9886 42.8644C63.9874 42.8628 63.9865 42.861 63.986 42.859C63.9855 42.8571 63.9853 42.8551 63.9856 42.8531C63.9862 42.8493 63.9881 42.8459 63.9911 42.8435C63.994 42.841 63.9977 42.8397 64.0016 42.8399C64.2755 42.8548 64.548 42.8847 64.8198 42.9235C65.0916 42.962 65.3629 43.0085 65.631 43.0732C65.9011 43.1355 66.167 43.2145 66.4273 43.3098C66.6953 43.4043 66.9483 43.5368 67.1787 43.7032C67.299 43.7921 67.4047 43.8993 67.4918 44.0209C67.584 44.1504 67.6424 44.3009 67.6616 44.4587C67.6693 44.538 67.6669 44.6179 67.6544 44.6966C67.6493 44.7371 67.6412 44.7771 67.6301 44.8164C67.6164 44.8615 67.5959 44.9044 67.5692 44.9433C67.4749 45.072 67.3527 45.1777 67.2117 45.2524C66.9617 45.3891 66.6968 45.4965 66.4223 45.5725C66.1549 45.653 65.8854 45.7184 65.6152 45.7767C64.5352 45.9841 63.4426 46.1193 62.3446 46.1814C61.2508 46.2576 60.1545 46.2794 59.0598 46.2616C57.965 46.2452 56.8716 46.2053 55.7795 46.1419C54.6881 46.0741 53.5906 46.0121 52.5089 45.756C52.2352 45.6914 51.9682 45.6008 51.7116 45.4856C51.5786 45.425 51.4521 45.3512 51.3338 45.2655C51.2162 45.1783 51.1083 45.0788 51.012 44.9686C50.9032 44.8495 50.828 44.7038 50.794 44.5461C50.7805 44.4613 50.7844 44.3745 50.8055 44.2912C50.8266 44.2079 50.8645 44.1297 50.9168 44.0615C51.1101 43.837 51.3564 43.6642 51.6333 43.5587C52.148 43.3522 52.6838 43.2023 53.231 43.1116C53.5008 43.0595 53.7729 43.022 54.045 42.9888C54.3172 42.9557 54.5896 42.9278 54.8635 42.9131C54.8675 42.9129 54.8715 42.9143 54.8745 42.917C54.8775 42.9197 54.8793 42.9235 54.8795 42.9276C54.8797 42.9313 54.8785 42.935 54.8761 42.938C54.8737 42.9409 54.8703 42.9429 54.8666 42.9435Z" fill="#020202"/>
<path d="M37.6133 19.0569C37.6225 18.7931 37.6571 18.5449 37.6845 18.2952C37.6999 18.1708 37.7108 18.0467 37.7247 17.9217L37.7549 17.5391C37.8568 17.7839 37.8903 18.052 37.8516 18.3144C37.8358 18.4441 37.8087 18.5723 37.7706 18.6973C37.734 18.8235 37.6811 18.9444 37.6133 19.0569Z" fill="#020202"/>
<path d="M39.8491 17.3258C39.6088 17.5879 39.2956 17.7721 38.9497 17.8546C38.6039 17.9372 38.2413 17.9143 37.9085 17.7889C37.5734 17.6533 37.2919 17.4116 37.1071 17.1008C37.0607 17.0239 37.0211 16.9431 36.9888 16.8594L36.9469 16.7378C36.9316 16.6989 36.9145 16.6552 36.9019 16.6118C36.8572 16.4395 36.8395 16.2613 36.8493 16.0836C36.886 15.3897 37.0265 14.7051 37.266 14.0529C37.4086 13.7355 37.5742 13.429 37.7613 13.1357C37.9431 12.8376 38.1544 12.5585 38.3919 12.3026C38.4002 12.2939 38.4105 12.2875 38.422 12.2841C38.4335 12.2807 38.4457 12.2803 38.4574 12.2831C38.469 12.2859 38.4797 12.2917 38.4884 12.3C38.4971 12.3082 38.5035 12.3186 38.5069 12.3301L38.5075 12.3323C38.5916 12.6181 38.6953 12.8977 38.8177 13.1692C38.9358 13.4419 39.077 13.7039 39.2398 13.9524C39.3991 14.199 39.5985 14.4174 39.8296 14.5984C40.0591 14.7772 40.3438 14.87 40.6345 14.8607L40.5979 14.8797C40.6753 14.7904 40.7664 14.7141 40.8679 14.6536C40.9212 14.6222 40.9803 14.6019 41.0417 14.594C41.0741 14.59 41.107 14.5925 41.1384 14.6013C41.1698 14.6101 41.1992 14.625 41.2249 14.6452C41.3111 14.7283 41.3673 14.8378 41.3846 14.9563C41.4074 15.0673 41.4209 15.1801 41.425 15.2933C41.4251 15.2943 41.4249 15.2952 41.4246 15.2961C41.4243 15.297 41.4238 15.2979 41.4232 15.2986C41.4225 15.2993 41.4217 15.2999 41.4209 15.3003C41.42 15.3007 41.4191 15.3009 41.4181 15.301C41.4163 15.301 41.4145 15.3004 41.4131 15.2992C41.4116 15.298 41.4107 15.2963 41.4105 15.2945C41.3978 15.1837 41.376 15.0741 41.3452 14.9668C41.322 14.8627 41.266 14.7688 41.1854 14.699C41.1423 14.6751 41.093 14.665 41.044 14.6699C40.9951 14.6748 40.9488 14.6946 40.9113 14.7265C40.8226 14.7864 40.7439 14.8599 40.6781 14.9443C40.6739 14.9496 40.6686 14.954 40.6627 14.9572C40.6567 14.9605 40.6502 14.9625 40.6434 14.9632L40.6414 14.9634C40.3239 14.9864 40.0086 14.8957 39.7517 14.7077C39.5 14.5251 39.2845 14.2974 39.116 14.0361C38.9452 13.7818 38.7986 13.5122 38.6779 13.2307C38.5573 12.9501 38.4562 12.6616 38.3754 12.3671L38.491 12.3968C38.254 12.6428 38.0401 12.9099 37.8519 13.1949C37.6536 13.4744 37.4771 13.7686 37.3239 14.075C37.0615 14.7121 36.928 15.3948 36.9312 16.0838C36.9302 16.2516 36.9548 16.4185 37.0043 16.5788C37.0178 16.6176 37.034 16.6537 37.0523 16.6943L37.1005 16.8152C37.1315 16.892 37.1692 16.9659 37.2131 17.0362C37.3017 17.1769 37.4107 17.3036 37.5366 17.4122C37.6597 17.5237 37.8008 17.6136 37.9539 17.6781C38.2665 17.803 38.6087 17.8344 38.9389 17.7684C39.2744 17.702 39.5855 17.5454 39.8388 17.3155C39.8402 17.3143 39.842 17.3136 39.8439 17.3136C39.8457 17.3137 39.8475 17.3145 39.8488 17.3158C39.8501 17.3171 39.8509 17.3189 39.851 17.3208C39.851 17.3226 39.8503 17.3244 39.8491 17.3258Z" fill="#020202"/>
<path d="M37.124 14.5635C37.0905 14.3165 37.0848 14.0664 37.107 13.8181C37.1255 13.5663 37.1782 13.3183 37.2637 13.0808C37.3452 12.8315 37.5056 12.6154 37.7207 12.4653C37.8328 12.3957 37.961 12.3564 38.0929 12.3516C38.2195 12.3525 38.3449 12.3763 38.463 12.4219C38.3426 12.4047 38.2204 12.4049 38.1001 12.4227C37.9857 12.4433 37.8776 12.4901 37.7844 12.5596C37.6049 12.7106 37.4717 12.9091 37.4 13.1324C37.3178 13.3596 37.2573 13.594 37.2194 13.8326C37.1792 14.0729 37.1466 14.3165 37.124 14.5635Z" fill="#020202"/>
<path d="M37.7688 14.8396C37.8255 14.8377 37.8792 14.8138 37.9186 14.773C37.958 14.7322 37.98 14.6777 37.98 14.621C37.98 14.5643 37.958 14.5098 37.9186 14.469C37.8792 14.4282 37.8255 14.4043 37.7688 14.4023C37.7121 14.4043 37.6584 14.4282 37.619 14.469C37.5796 14.5098 37.5576 14.5643 37.5576 14.621C37.5576 14.6777 37.5796 14.7322 37.619 14.773C37.6584 14.8138 37.7121 14.8377 37.7688 14.8396Z" fill="#020202"/>
<path d="M39.0725 15.0896C39.1292 15.0877 39.1829 15.0638 39.2223 15.023C39.2617 14.9822 39.2837 14.9277 39.2837 14.871C39.2837 14.8143 39.2617 14.7598 39.2223 14.719C39.1829 14.6782 39.1292 14.6543 39.0725 14.6523C39.0158 14.6543 38.9621 14.6782 38.9227 14.719C38.8834 14.7598 38.8613 14.8143 38.8613 14.871C38.8613 14.9277 38.8834 14.9822 38.9227 15.023C38.9621 15.0638 39.0158 15.0877 39.0725 15.0896Z" fill="#020202"/>
<path d="M37.3262 14.0139C37.3884 13.9666 37.4615 13.9358 37.5388 13.9244C37.6153 13.9108 37.6937 13.9106 37.7702 13.924C37.9252 13.9477 38.0649 14.0308 38.1598 14.1557C38.0815 14.143 38.014 14.1228 37.9456 14.1083C37.8781 14.0923 37.8119 14.0785 37.7453 14.0675C37.6791 14.0538 37.6119 14.0469 37.543 14.0376L37.3262 14.0139Z" fill="#020202"/>
<path d="M38.9785 14.2925C39.0307 14.251 39.0927 14.2236 39.1586 14.213C39.2233 14.2006 39.2896 14.1999 39.3545 14.2107C39.4202 14.2198 39.4833 14.2424 39.5398 14.2771C39.5963 14.3118 39.645 14.3578 39.6828 14.4123C39.6141 14.4066 39.5567 14.3931 39.4988 14.3836C39.4416 14.3734 39.3864 14.3625 39.3306 14.3544C39.2188 14.3337 39.1089 14.3211 38.9785 14.2925Z" fill="#020202"/>
<path d="M37.7915 15.1875C37.868 15.2861 37.9702 15.3617 38.0868 15.406C38.144 15.4288 38.2025 15.4484 38.2619 15.4647C38.3286 15.4805 38.3945 15.5 38.4591 15.5229C38.3942 15.556 38.3229 15.5748 38.2501 15.5779C38.1754 15.5809 38.1009 15.5682 38.0315 15.5407C37.9594 15.5118 37.8967 15.4635 37.8501 15.4013C37.8266 15.3714 37.8093 15.337 37.7992 15.3003C37.7892 15.2636 37.7865 15.2252 37.7915 15.1875Z" fill="#020202"/>
<path d="M38.2334 16.8499C38.2951 16.8611 38.3584 16.8589 38.4192 16.8435C38.4799 16.8281 38.5367 16.7998 38.5855 16.7605C38.6763 16.6787 38.7322 16.5651 38.7419 16.4433C38.7543 16.3289 38.7235 16.2139 38.6554 16.121C38.587 16.0375 38.4907 15.9815 38.3842 15.9635C38.2778 15.9454 38.1684 15.9666 38.0763 16.0229C37.9816 16.0882 37.9145 16.1864 37.8882 16.2983C37.857 16.4164 37.8721 16.542 37.9306 16.6493C37.9638 16.7024 38.008 16.7479 38.0602 16.7825C38.1124 16.8171 38.1715 16.8401 38.2334 16.8499ZM38.2334 16.8499C38.1062 16.8308 37.9914 16.7629 37.9135 16.6605C37.8355 16.5522 37.8008 16.4186 37.816 16.286C37.8285 16.1459 37.8943 16.016 37.9999 15.9231C38.0571 15.8784 38.1229 15.8461 38.1933 15.8284C38.2637 15.8106 38.3369 15.8077 38.4085 15.8199C38.48 15.832 38.5482 15.859 38.6087 15.899C38.6693 15.9391 38.7208 15.9913 38.76 16.0523C38.8287 16.1749 38.8478 16.3192 38.8134 16.4555C38.7839 16.5856 38.707 16.7 38.5978 16.7766C38.4905 16.8476 38.3598 16.8739 38.2334 16.8499Z" fill="#020202"/>
<path d="M35.5032 19.7544C35.4632 19.2472 35.487 18.737 35.5738 18.2357C35.6181 17.9856 35.6821 17.7393 35.734 17.4917C35.7617 17.3682 35.7825 17.2433 35.8062 17.119C35.834 16.9955 35.8529 16.8701 35.8765 16.7455C35.9231 16.4963 35.9744 16.2472 36.0415 16.0025L36.1419 15.6352C36.1764 15.513 36.2193 15.3934 36.2586 15.2727C36.4237 14.7925 36.6274 14.3263 36.8677 13.8789C36.8682 13.878 36.8688 13.8773 36.8695 13.8767C36.8702 13.8761 36.8711 13.8756 36.872 13.8753C36.8729 13.875 36.8739 13.8749 36.8749 13.875C36.8758 13.8751 36.8767 13.8754 36.8776 13.8759C36.8791 13.8767 36.8803 13.8781 36.8809 13.8797C36.8815 13.8813 36.8816 13.8831 36.8811 13.8847C36.7269 14.3685 36.555 14.841 36.406 15.322C36.2418 15.7978 36.1011 16.2807 35.9541 16.7639C35.8824 17.006 35.8245 17.2519 35.7804 17.5005C35.7568 17.6245 35.7455 17.7506 35.7312 17.876C35.7157 18.0012 35.7056 18.127 35.6939 18.2525C35.6368 18.7529 35.5705 19.2504 35.5178 19.7542C35.5177 19.7561 35.5168 19.7579 35.5153 19.7592C35.5139 19.7605 35.512 19.7612 35.5101 19.7611C35.5083 19.7609 35.5067 19.7601 35.5055 19.7589C35.5042 19.7577 35.5034 19.7561 35.5032 19.7544Z" fill="#020202"/>
<path d="M38.4544 12.1734C38.4048 12.0408 38.3307 11.9188 38.236 11.8136C38.1936 11.7642 38.1403 11.7252 38.0802 11.6999C38.0202 11.6745 37.9551 11.6634 37.8901 11.6675C37.7579 11.6877 37.6335 11.7426 37.5295 11.8266C37.4184 11.9121 37.3142 12.0063 37.218 12.1082C37.0173 12.3133 36.8354 12.5361 36.6746 12.7738C36.591 12.8916 36.5269 13.0213 36.4545 13.1457C36.3834 13.2709 36.3201 13.4005 36.2653 13.5336C36.0333 14.0568 35.866 14.6062 35.7671 15.1699C35.6621 15.733 35.6614 16.3106 35.7649 16.874L35.7651 16.8749C35.7654 16.8767 35.7651 16.8785 35.7642 16.8801C35.7632 16.8817 35.7617 16.8828 35.76 16.8833C35.7582 16.8839 35.7564 16.8837 35.7547 16.8829C35.7531 16.8821 35.7518 16.8807 35.7512 16.879C35.5609 16.3217 35.5136 15.7255 35.6136 15.1452C35.7125 14.5675 35.9086 14.0107 36.1936 13.4985C36.262 13.37 36.3333 13.2437 36.41 13.1204C36.4868 12.9974 36.5558 12.8697 36.6349 12.7482C36.7817 12.496 36.9467 12.2547 37.1284 12.0263C37.224 11.9118 37.3334 11.8096 37.454 11.7219C37.5782 11.6256 37.7277 11.5675 37.8843 11.5547C37.9643 11.5545 38.0432 11.5733 38.1144 11.6097C38.1857 11.6461 38.2472 11.6989 38.294 11.7638C38.3829 11.8837 38.4427 12.0227 38.4685 12.1698C38.4687 12.1707 38.4687 12.1717 38.4685 12.1726C38.4683 12.1736 38.4679 12.1745 38.4674 12.1753C38.4669 12.1761 38.4662 12.1767 38.4654 12.1773C38.4646 12.1778 38.4637 12.1782 38.4627 12.1783C38.461 12.1786 38.4592 12.1782 38.4577 12.1773C38.4562 12.1764 38.455 12.175 38.4544 12.1734Z" fill="#020202"/>
<path d="M38.2753 11.8095C38.2675 11.6843 38.2756 11.5587 38.2996 11.4355C38.321 11.3101 38.3627 11.1889 38.4228 11.0767C38.4841 10.9614 38.5709 10.8616 38.6766 10.7849C38.7846 10.7093 38.9081 10.6588 39.038 10.637C39.2937 10.6066 39.5529 10.634 39.7965 10.7172C40.0369 10.7926 40.2686 10.893 40.4878 11.017C40.9254 11.263 41.3165 11.5836 41.6434 11.9645C42.2997 12.7198 42.7766 13.6138 43.0384 14.5795C43.1745 15.0649 43.2331 15.5687 43.2119 16.0724C43.1329 16.5542 43.1431 17.0464 43.2421 17.5245C43.2979 17.7592 43.3992 17.9806 43.5403 18.1763C43.6838 18.3742 43.8812 18.5266 44.1089 18.6154L44.1098 18.6157C44.1116 18.6163 44.113 18.6176 44.1139 18.6192C44.1147 18.6209 44.1149 18.6228 44.1144 18.6246C44.1138 18.6264 44.1127 18.6279 44.111 18.6288C44.1094 18.6298 44.1075 18.63 44.1057 18.6296C43.8593 18.5642 43.6392 18.4242 43.4756 18.2287C43.3098 18.0337 43.1887 17.8047 43.1209 17.5578C42.9711 17.0689 43.0003 16.5454 43.0583 16.0593C43.0855 15.5716 43.0385 15.0827 42.9188 14.6092C42.8086 14.1294 42.646 13.6631 42.434 13.2188C42.219 12.7741 41.9382 12.3644 41.601 12.0035C41.2595 11.6505 40.8638 11.3545 40.4289 11.1265C40.2134 11.0127 39.9895 10.9156 39.7592 10.8361C39.5341 10.7537 39.2935 10.7227 39.0549 10.7453C38.939 10.7597 38.8276 10.7992 38.7284 10.8609C38.6296 10.9256 38.5468 11.0121 38.4865 11.1137C38.3641 11.3255 38.2965 11.5644 38.2899 11.8089C38.2899 11.8099 38.2897 11.8108 38.2894 11.8117C38.289 11.8126 38.2885 11.8134 38.2879 11.8141C38.2872 11.8148 38.2864 11.8154 38.2855 11.8157C38.2846 11.8161 38.2837 11.8163 38.2827 11.8163C38.2809 11.8163 38.2791 11.8155 38.2778 11.8143C38.2764 11.813 38.2756 11.8113 38.2753 11.8095Z" fill="#020202"/>
<path d="M38.751 11.4531C38.9557 11.4687 39.154 11.5322 39.3296 11.6386C39.508 11.7436 39.6671 11.8784 39.8 12.0371C39.9288 12.1978 40.0331 12.3765 40.1098 12.5676C40.1468 12.6624 40.1782 12.7592 40.204 12.8577C40.2229 12.9576 40.2417 13.057 40.2536 13.1568C40.2096 13.0649 40.1775 12.9709 40.1363 12.8807C40.0908 12.7923 40.0553 12.7004 40.0066 12.6155C39.9615 12.5292 39.9117 12.4455 39.8575 12.3646C39.8055 12.2832 39.7488 12.2048 39.6877 12.1299C39.5641 11.9815 39.4232 11.8485 39.268 11.7336C39.1099 11.6159 38.9358 11.5215 38.751 11.4531Z" fill="#020202"/>
<path d="M36.1055 19.056C36.1979 18.7655 36.3162 18.4928 36.429 18.2184C36.4875 18.0821 36.5417 17.945 36.5961 17.8079C36.6531 17.671 36.6958 17.5286 36.7233 17.3828C36.7528 17.5348 36.7465 17.6916 36.705 17.8407C36.6699 17.989 36.6225 18.1341 36.5634 18.2745C36.4482 18.5552 36.2941 18.8183 36.1055 19.056Z" fill="#020202"/>
<path d="M37.751 18.4336C37.8754 18.6449 38.0297 18.8372 38.2091 19.0044C38.2973 19.078 38.3987 19.1341 38.5078 19.1698C38.6264 19.2036 38.7491 19.2209 38.8724 19.2212C38.7532 19.287 38.6165 19.314 38.4813 19.2985C38.3417 19.2809 38.21 19.2238 38.1017 19.1339C37.9987 19.0447 37.9148 18.9356 37.855 18.8132C37.7943 18.6953 37.7589 18.566 37.751 18.4336Z" fill="#020202"/>
<path d="M40.4758 20.0469L40.4749 20.047L40.4742 20.0475L40.4738 20.0482L40.4736 20.049" stroke="#020202" stroke-width="0.1093" stroke-linecap="round" stroke-linejoin="round"/>
<path d="M39.6415 20.5382C38.153 21.5115 36.7905 22.6651 35.585 23.9727C35.2834 24.2979 34.9927 24.6326 34.7127 24.9766C34.582 25.1211 34.5859 25.33 34.6175 25.5439C34.6493 25.7579 34.6936 25.9804 34.7169 26.206C34.7421 26.4327 34.7471 26.6612 34.732 26.8887C34.7126 27.1158 34.6748 27.341 34.6188 27.5619C34.5181 27.9943 34.3952 28.4216 34.3038 28.8566C33.9119 30.5926 33.6324 32.3521 33.467 34.1242C33.3771 35.0095 33.3191 35.8979 33.2768 36.7866C33.2351 37.6749 33.2061 38.5653 33.2078 39.4527L33.0681 39.4021C33.9272 38.3367 34.7632 37.2521 35.5761 36.1484C36.3848 35.0433 37.1835 33.9306 37.9372 32.7876C38.693 31.6465 39.4242 30.4881 40.0858 29.2901C40.4186 28.6926 40.7356 28.0852 41.0234 27.4647C41.3181 26.8466 41.5742 26.2109 41.7905 25.5611C41.7913 25.5586 41.7931 25.5565 41.7955 25.5553C41.7979 25.554 41.8006 25.5538 41.8032 25.5545C41.8057 25.5553 41.8079 25.5571 41.8091 25.5594C41.8104 25.5617 41.8107 25.5645 41.81 25.567C41.4322 26.8887 40.8524 28.1445 40.2156 29.3603C39.5704 30.5736 38.8622 31.7526 38.1089 32.9009C37.3522 34.047 36.5692 35.1757 35.7427 36.2721C34.9179 37.3696 34.0769 38.4544 33.1895 39.5033L33.1882 39.5049C33.1777 39.5173 33.1637 39.5261 33.148 39.5302C33.1323 39.5342 33.1157 39.5334 33.1006 39.5276C33.0854 39.5219 33.0724 39.5116 33.0633 39.4982C33.0542 39.4848 33.0495 39.4689 33.0498 39.4527C33.0842 37.6674 33.2191 35.8902 33.3997 34.1174C33.4412 33.6739 33.5018 33.2324 33.5475 32.7893C33.6046 32.3476 33.6558 31.9049 33.7225 31.4643C33.7885 31.0237 33.8471 30.5818 33.9252 30.1428C33.9935 29.7022 34.0799 29.2647 34.1658 28.827C34.2057 28.6075 34.2554 28.39 34.3052 28.1724L34.4547 27.5198C34.5065 27.3086 34.5409 27.0935 34.5578 26.8767C34.5706 26.6597 34.564 26.4419 34.5383 26.2261C34.5148 26.0088 34.468 25.7947 34.438 25.5678C34.419 25.4502 34.4156 25.3306 34.4281 25.2121C34.4368 25.149 34.4527 25.0871 34.4755 25.0277C34.5009 24.9686 34.5354 24.914 34.5778 24.8657C34.863 24.5216 35.1593 24.187 35.4667 23.862C36.0801 23.2119 36.7369 22.6043 37.4327 22.0433C38.1256 21.4806 38.8605 20.9717 39.6309 20.5209C39.6332 20.5196 39.6359 20.5192 39.6385 20.5198C39.6411 20.5205 39.6433 20.5221 39.6447 20.5244C39.6461 20.5266 39.6465 20.5294 39.6459 20.532C39.6454 20.5346 39.6438 20.5368 39.6415 20.5382Z" fill="#020202"/>
<path d="M42.9319 21.6693L42.9318 21.6683C42.9761 21.3826 43.0328 21.1005 43.0909 20.8189C43.1495 20.5375 43.2133 20.2576 43.2768 19.9779L43.4761 19.1415C43.5418 18.8634 43.6116 18.5834 43.6725 18.3082L43.7037 18.3819C43.5676 18.2792 43.423 18.1886 43.2713 18.1109C43.1956 18.0714 43.1165 18.0387 43.035 18.013C42.9529 17.9857 42.8667 17.9732 42.7803 17.976L42.7793 17.9759L42.7803 17.9758C42.957 17.9395 43.1404 17.9562 43.3076 18.0238C43.4776 18.0829 43.6401 18.1614 43.7921 18.2577C43.8033 18.2647 43.8122 18.2748 43.8179 18.2868C43.8235 18.2988 43.8257 18.3121 43.824 18.3252L43.8232 18.3314C43.7862 18.6225 43.7304 18.9034 43.669 19.1856C43.6086 19.4674 43.5382 19.7467 43.4651 20.025C43.3895 20.3028 43.3089 20.5791 43.2214 20.8534C43.1325 21.1273 43.0391 21.3998 42.932 21.6683L42.9319 21.6693Z" fill="#020202"/>
<path d="M46.6741 28.3438C46.7859 29.8997 46.906 31.4542 47.0343 33.0073C47.1688 34.5601 47.3096 36.1118 47.4737 37.6605C47.5528 38.4351 47.6451 39.2081 47.7415 39.9804C47.8351 40.753 47.9431 41.5233 48.0654 42.2913C48.184 43.0597 48.3176 43.8257 48.4842 44.5835C48.6356 45.3426 48.8439 46.0893 49.1074 46.8172L49.1092 46.8219C49.1155 46.8382 49.1166 46.8561 49.1124 46.8731C49.027 47.22 48.9203 47.5613 48.7929 47.8951C48.6676 48.2297 48.5118 48.5522 48.3276 48.8583C48.1495 49.1719 47.9054 49.4429 47.6121 49.6527C47.4618 49.7539 47.2886 49.8159 47.1083 49.833C46.93 49.845 46.7514 49.8137 46.5879 49.7416C46.7511 49.8044 46.9276 49.8244 47.1006 49.7998C47.2737 49.7751 47.4376 49.7066 47.5768 49.6007C47.8496 49.3846 48.0723 49.1118 48.2293 48.8011C48.393 48.4926 48.5313 48.1713 48.6428 47.8403C48.7576 47.5107 48.8521 47.1744 48.9258 46.8332L48.9307 46.8892C48.3404 45.4235 48.0415 43.8768 47.7766 42.3382C47.5215 40.7954 47.3332 39.2441 47.1807 37.6903C47.0281 36.1365 46.9119 34.5801 46.8319 33.0213C46.7445 31.4635 46.6879 29.9039 46.6741 28.3438Z" fill="#020202"/>
<path d="M58.14 46.1776C58.14 46.1776 57.713 60.3245 51.1201 63.9386C51.1201 64.5691 54.7478 65.0802 59.2227 65.0802C63.6976 65.0802 67.3252 64.5691 67.3252 63.9386C67.3252 63.9386 60.0202 61.9542 60.5574 46.1406" fill="#020202"/>
<path d="M46.9196 49.5145C46.9701 49.5128 47.0179 49.4915 47.053 49.4552C47.0881 49.4188 47.1077 49.3703 47.1077 49.3198C47.1077 49.2692 47.0881 49.2207 47.053 49.1844C47.0179 49.148 46.9701 49.1267 46.9196 49.125C46.8691 49.1267 46.8213 49.148 46.7862 49.1844C46.7511 49.2207 46.7314 49.2692 46.7314 49.3198C46.7314 49.3703 46.7511 49.4188 46.7862 49.4552C46.8213 49.4915 46.8691 49.5128 46.9196 49.5145Z" fill="black"/>
<path d="M47.6364 48.9559C47.6869 48.9542 47.7347 48.9329 47.7698 48.8966C47.8049 48.8602 47.8245 48.8117 47.8245 48.7612C47.8245 48.7106 47.8049 48.6621 47.7698 48.6258C47.7347 48.5894 47.6869 48.5681 47.6364 48.5664C47.5859 48.5681 47.5381 48.5894 47.503 48.6258C47.4679 48.6621 47.4482 48.7106 47.4482 48.7612C47.4482 48.8117 47.4679 48.8602 47.503 48.8966C47.5381 48.9329 47.5859 48.9542 47.6364 48.9559Z" fill="black"/>
<path d="M48.1354 48.2723C48.1859 48.2706 48.2337 48.2493 48.2688 48.213C48.3039 48.1766 48.3235 48.1281 48.3235 48.0776C48.3235 48.0271 48.3039 47.9785 48.2688 47.9422C48.2337 47.9058 48.1859 47.8846 48.1354 47.8828C48.0849 47.8846 48.0371 47.9058 48.002 47.9422C47.9669 47.9785 47.9473 48.0271 47.9473 48.0776C47.9473 48.1281 47.9669 48.1766 48.002 48.213C48.0371 48.2493 48.0849 48.2706 48.1354 48.2723Z" fill="black"/>
<path d="M48.4469 47.3661C48.4974 47.3643 48.5452 47.3431 48.5803 47.3067C48.6154 47.2704 48.635 47.2218 48.635 47.1713C48.635 47.1208 48.6154 47.0723 48.5803 47.0359C48.5452 46.9996 48.4974 46.9783 48.4469 46.9766C48.3964 46.9783 48.3486 46.9996 48.3135 47.0359C48.2784 47.0723 48.2588 47.1208 48.2588 47.1713C48.2588 47.2218 48.2784 47.2704 48.3135 47.3067C48.3486 47.3431 48.3964 47.3643 48.4469 47.3661Z" fill="black"/>
<path d="M54.2575 43.5653C54.308 43.5636 54.3558 43.5423 54.3909 43.5059C54.426 43.4696 54.4456 43.4211 54.4456 43.3705C54.4456 43.32 54.426 43.2715 54.3909 43.2351C54.3558 43.1988 54.308 43.1775 54.2575 43.1758C54.207 43.1775 54.1592 43.1988 54.1241 43.2351C54.089 43.2715 54.0693 43.32 54.0693 43.3705C54.0693 43.4211 54.089 43.4696 54.1241 43.5059C54.1592 43.5423 54.207 43.5636 54.2575 43.5653Z" fill="black"/>
<path d="M53.0582 43.8895C53.1087 43.8878 53.1566 43.8665 53.1916 43.8302C53.2267 43.7938 53.2464 43.7453 53.2464 43.6948C53.2464 43.6442 53.2267 43.5957 53.1916 43.5594C53.1566 43.523 53.1087 43.5017 53.0582 43.5C53.0078 43.5017 52.9599 43.523 52.9248 43.5594C52.8897 43.5957 52.8701 43.6442 52.8701 43.6948C52.8701 43.7453 52.8897 43.7938 52.9248 43.8302C52.9599 43.8665 53.0078 43.8878 53.0582 43.8895Z" fill="black"/>
<path d="M51.859 44.4051C51.9095 44.4034 51.9574 44.3821 51.9925 44.3458C52.0276 44.3095 52.0472 44.2609 52.0472 44.2104C52.0472 44.1599 52.0276 44.1113 51.9925 44.075C51.9574 44.0387 51.9095 44.0174 51.859 44.0156C51.8086 44.0174 51.7607 44.0387 51.7256 44.075C51.6905 44.1113 51.6709 44.1599 51.6709 44.2104C51.6709 44.2609 51.6905 44.3095 51.7256 44.3458C51.7607 44.3821 51.8086 44.4034 51.859 44.4051Z" fill="black"/>
<path d="M52.3258 45.1239C52.3763 45.1222 52.4242 45.1009 52.4593 45.0645C52.4944 45.0282 52.514 44.9797 52.514 44.9291C52.514 44.8786 52.4944 44.8301 52.4593 44.7937C52.4242 44.7574 52.3763 44.7361 52.3258 44.7344C52.2753 44.7361 52.2275 44.7574 52.1924 44.7937C52.1573 44.8301 52.1377 44.8786 52.1377 44.9291C52.1377 44.9797 52.1573 45.0282 52.1924 45.0645C52.2275 45.1009 52.2753 45.1222 52.3258 45.1239Z" fill="black"/>
<path d="M53.6969 45.5926C53.7474 45.5909 53.7953 45.5696 53.8304 45.5333C53.8655 45.497 53.8851 45.4484 53.8851 45.3979C53.8851 45.3474 53.8655 45.2988 53.8304 45.2625C53.7953 45.2262 53.7474 45.2049 53.6969 45.2031C53.6464 45.2049 53.5986 45.2262 53.5635 45.2625C53.5284 45.2988 53.5088 45.3474 53.5088 45.3979C53.5088 45.4484 53.5284 45.497 53.5635 45.5333C53.5986 45.5696 53.6464 45.5909 53.6969 45.5926Z" fill="black"/>
<path d="M55.2868 45.8426C55.3373 45.8409 55.3851 45.8196 55.4202 45.7833C55.4553 45.747 55.4749 45.6984 55.4749 45.6479C55.4749 45.5974 55.4553 45.5488 55.4202 45.5125C55.3851 45.4762 55.3373 45.4549 55.2868 45.4531C55.2363 45.4549 55.1885 45.4762 55.1534 45.5125C55.1183 45.5488 55.0986 45.5974 55.0986 45.6479C55.0986 45.6984 55.1183 45.747 55.1534 45.7833C55.1885 45.8196 55.2363 45.8409 55.2868 45.8426Z" fill="black"/>
<path d="M56.9069 45.9169C56.9574 45.9151 57.0052 45.8938 57.0403 45.8575C57.0754 45.8212 57.095 45.7726 57.095 45.7221C57.095 45.6716 57.0754 45.623 57.0403 45.5867C57.0052 45.5504 56.9574 45.5291 56.9069 45.5273C56.8564 45.5291 56.8086 45.5504 56.7735 45.5867C56.7384 45.623 56.7188 45.6716 56.7188 45.7221C56.7188 45.7726 56.7384 45.8212 56.7735 45.8575C56.8086 45.8938 56.8564 45.9151 56.9069 45.9169Z" fill="black"/>
<path d="M58.527 45.9481C58.5775 45.9464 58.6253 45.9251 58.6604 45.8888C58.6955 45.8524 58.7152 45.8039 58.7152 45.7534C58.7152 45.7028 58.6955 45.6543 58.6604 45.618C58.6253 45.5816 58.5775 45.5603 58.527 45.5586C58.4765 45.5603 58.4287 45.5816 58.3936 45.618C58.3585 45.6543 58.3389 45.7028 58.3389 45.7534C58.3389 45.8039 58.3585 45.8524 58.3936 45.8888C58.4287 45.9251 58.4765 45.9464 58.527 45.9481Z" fill="black"/>
<path d="M60.2409 45.8387C60.2914 45.837 60.3392 45.8157 60.3743 45.7794C60.4094 45.743 60.429 45.6945 60.429 45.644C60.429 45.5935 60.4094 45.5449 60.3743 45.5086C60.3392 45.4722 60.2914 45.451 60.2409 45.4492C60.1904 45.451 60.1426 45.4722 60.1075 45.5086C60.0724 45.5449 60.0527 45.5935 60.0527 45.644C60.0527 45.6945 60.0724 45.743 60.1075 45.7794C60.1426 45.8157 60.1904 45.837 60.2409 45.8387Z" fill="black"/>
<path d="M61.8766 45.7176C61.9271 45.7159 61.9749 45.6946 62.01 45.6583C62.0451 45.622 62.0648 45.5734 62.0648 45.5229C62.0648 45.4724 62.0451 45.4238 62.01 45.3875C61.9749 45.3512 61.9271 45.3299 61.8766 45.3281C61.8261 45.3299 61.7783 45.3512 61.7432 45.3875C61.7081 45.4238 61.6885 45.4724 61.6885 45.5229C61.6885 45.5734 61.7081 45.622 61.7432 45.6583C61.7783 45.6946 61.8261 45.7159 61.8766 45.7176Z" fill="black"/>
<path d="M63.6061 45.6044C63.6566 45.6026 63.7044 45.5813 63.7395 45.545C63.7746 45.5087 63.7943 45.4601 63.7943 45.4096C63.7943 45.3591 63.7746 45.3105 63.7395 45.2742C63.7044 45.2379 63.6566 45.2166 63.6061 45.2148C63.5556 45.2166 63.5078 45.2379 63.4727 45.2742C63.4376 45.3105 63.418 45.3591 63.418 45.4096C63.418 45.4601 63.4376 45.5087 63.4727 45.545C63.5078 45.5813 63.5556 45.6026 63.6061 45.6044Z" fill="black"/>
<path d="M65.2731 45.2958C65.3236 45.294 65.3714 45.2727 65.4065 45.2364C65.4416 45.2001 65.4612 45.1515 65.4612 45.101C65.4612 45.0505 65.4416 45.0019 65.4065 44.9656C65.3714 44.9293 65.3236 44.908 65.2731 44.9062C65.2226 44.908 65.1748 44.9293 65.1397 44.9656C65.1046 45.0019 65.085 45.0505 65.085 45.101C65.085 45.1515 65.1046 45.2001 65.1397 45.2364C65.1748 45.2727 65.2226 45.294 65.2731 45.2958Z" fill="black"/>
<path d="M66.6286 44.9208C66.679 44.919 66.7269 44.8977 66.762 44.8614C66.7971 44.8251 66.8167 44.7765 66.8167 44.726C66.8167 44.6755 66.7971 44.627 66.762 44.5906C66.7269 44.5543 66.679 44.533 66.6286 44.5312C66.5781 44.533 66.5302 44.5543 66.4951 44.5906C66.46 44.627 66.4404 44.6755 66.4404 44.726C66.4404 44.7765 66.46 44.8251 66.4951 44.8614C66.5302 44.8977 66.5781 44.919 66.6286 44.9208Z" fill="black"/>
<path d="M66.5817 44.1747C66.6322 44.1729 66.68 44.1516 66.7151 44.1153C66.7502 44.079 66.7698 44.0304 66.7698 43.9799C66.7698 43.9294 66.7502 43.8809 66.7151 43.8445C66.68 43.8082 66.6322 43.7869 66.5817 43.7852C66.5312 43.7869 66.4834 43.8082 66.4483 43.8445C66.4132 43.8809 66.3936 43.9294 66.3936 43.9799C66.3936 44.0304 66.4132 44.079 66.4483 44.1153C66.4834 44.1516 66.5312 44.1729 66.5817 44.1747Z" fill="black"/>
<path d="M65.569 43.7372C65.6195 43.7354 65.6673 43.7142 65.7024 43.6778C65.7375 43.6415 65.7571 43.5929 65.7571 43.5424C65.7571 43.4919 65.7375 43.4434 65.7024 43.407C65.6673 43.3707 65.6195 43.3494 65.569 43.3477C65.5185 43.3494 65.4707 43.3707 65.4356 43.407C65.4005 43.4434 65.3809 43.4919 65.3809 43.5424C65.3809 43.5929 65.4005 43.6415 65.4356 43.6778C65.4707 43.7142 65.5185 43.7354 65.569 43.7372Z" fill="black"/>
<path d="M64.0885 43.3309C64.139 43.3292 64.1868 43.3079 64.2219 43.2716C64.257 43.2352 64.2766 43.1867 64.2766 43.1362C64.2766 43.0857 64.257 43.0371 64.2219 43.0008C64.1868 42.9644 64.139 42.9432 64.0885 42.9414C64.038 42.9432 63.9902 42.9644 63.9551 43.0008C63.92 43.0371 63.9004 43.0857 63.9004 43.1362C63.9004 43.1867 63.92 43.2352 63.9551 43.2716C63.9902 43.3079 64.038 43.3292 64.0885 43.3309Z" fill="black"/>
<path d="M33.6635 26.0713C33.3254 25.7094 33.0017 25.3345 32.6799 24.9576C32.362 24.5776 32.0534 24.1895 31.7541 23.7934C31.4511 23.3981 31.1712 22.9856 30.9159 22.5579C30.7848 22.3416 30.6724 22.1145 30.58 21.879C30.5312 21.7556 30.4985 21.6264 30.4827 21.4946C30.478 21.4293 30.4773 21.3637 30.4806 21.2983L30.4851 21.112C30.4855 21.0938 30.491 21.0762 30.5009 21.061L30.5043 21.056C30.5598 20.9536 30.5947 20.8412 30.6069 20.7253C30.6246 20.5983 30.6355 20.4704 30.6394 20.3422C30.6464 20.0817 30.6391 19.821 30.6175 19.5614L30.6174 19.5602C30.617 19.5548 30.617 19.5494 30.6174 19.544C30.6278 19.4413 30.6228 19.3377 30.6027 19.2365C30.5925 19.1878 30.5771 19.1404 30.5567 19.0949C30.538 19.0532 30.5138 19.014 30.4847 18.9786L30.4795 18.973C30.3747 18.8567 30.2359 18.7763 30.0829 18.7434C29.9226 18.705 29.7574 18.6913 29.5931 18.7027C29.4259 18.7144 29.261 18.7479 29.1026 18.8024C28.9444 18.8525 28.7976 18.933 28.6702 19.0392C28.6435 19.0686 28.6116 19.0949 28.5883 19.1265C28.5651 19.1583 28.5439 19.1916 28.525 19.2263C28.5061 19.2548 28.4955 19.2879 28.4941 19.322C28.4928 19.3561 28.5008 19.3899 28.5173 19.4198C28.5693 19.4751 28.6391 19.5103 28.7145 19.5194C28.7973 19.536 28.8818 19.5429 28.9663 19.5397C29.313 19.5483 29.6554 19.4607 29.9554 19.2866C29.6644 19.4878 29.3212 19.6001 28.9675 19.6096C28.8783 19.6181 28.7884 19.616 28.6996 19.6034C28.6002 19.5961 28.507 19.5527 28.4374 19.4813C28.4025 19.4373 28.3849 19.3819 28.3881 19.3258C28.391 19.2755 28.4034 19.2261 28.4244 19.1803C28.4453 19.1376 28.4692 19.0965 28.496 19.0573C28.5248 19.0203 28.5557 18.9848 28.5884 18.9512C28.7242 18.8286 28.8826 18.7337 29.0547 18.6719C29.2234 18.6071 29.3997 18.5646 29.5794 18.5455C29.7617 18.5251 29.9461 18.5349 30.1253 18.5743C30.3156 18.6132 30.4887 18.7111 30.62 18.8542L30.6148 18.8485C30.6602 18.8982 30.6977 18.9545 30.7261 19.0155C30.7532 19.0727 30.774 19.1326 30.7882 19.1943C30.8153 19.3143 30.8233 19.4378 30.8121 19.5604L30.812 19.5431C30.836 19.8107 30.8452 20.0795 30.8396 20.3482C30.8362 20.4845 30.8254 20.6206 30.8073 20.7557C30.7922 20.9039 30.7445 21.0469 30.6677 21.1745L30.6868 21.1185L30.6813 21.3031C30.6778 21.3612 30.6779 21.4195 30.6815 21.4776C30.6952 21.5917 30.7233 21.7035 30.765 21.8106C30.8532 22.036 30.9584 22.2544 31.0795 22.464C31.3197 22.8903 31.5965 23.2989 31.8766 23.7046C32.1583 24.1096 32.455 24.5047 32.7544 24.898C33.0507 25.294 33.3588 25.6809 33.6635 26.0713Z" fill="#020202"/>
<path d="M29.9997 19.2578C29.8898 19.3696 29.7924 19.4932 29.7094 19.6262C29.6335 19.7529 29.5774 19.8905 29.5431 20.0342C29.509 20.1784 29.4966 20.3267 29.5063 20.4745C29.5181 20.6313 29.5441 20.7868 29.5838 20.9389C29.4694 20.8151 29.3887 20.6639 29.3495 20.4998C29.3055 20.3318 29.3041 20.1555 29.3453 19.9868C29.3849 19.8173 29.4667 19.6606 29.583 19.5311C29.6942 19.4036 29.8384 19.309 29.9997 19.2578Z" fill="#020202"/>
</svg>
