<svg width="19" height="14" viewBox="0 0 19 14" fill="none" xmlns="http://www.w3.org/2000/svg">
<path d="M18.8211 6.74688C18.7937 6.68516 18.132 5.21719 16.6609 3.74609C14.7008 1.78594 12.225 0.75 9.49999 0.75C6.77499 0.75 4.29921 1.78594 2.33905 3.74609C0.867961 5.21719 0.203118 6.6875 0.178899 6.74688C0.143362 6.82681 0.125 6.91331 0.125 7.00078C0.125 7.08826 0.143362 7.17476 0.178899 7.25469C0.206243 7.31641 0.867961 8.78359 2.33905 10.2547C4.29921 12.2141 6.77499 13.25 9.49999 13.25C12.225 13.25 14.7008 12.2141 16.6609 10.2547C18.132 8.78359 18.7937 7.31641 18.8211 7.25469C18.8566 7.17476 18.875 7.08826 18.875 7.00078C18.875 6.91331 18.8566 6.82681 18.8211 6.74688ZM9.49999 12C7.0953 12 4.99452 11.1258 3.25546 9.40234C2.5419 8.69273 1.93483 7.88356 1.45312 7C1.9347 6.11636 2.54179 5.30717 3.25546 4.59766C4.99452 2.87422 7.0953 2 9.49999 2C11.9047 2 14.0055 2.87422 15.7445 4.59766C16.4595 5.307 17.0679 6.11619 17.5508 7C16.9875 8.05156 14.5336 12 9.49999 12ZM9.49999 3.25C8.75831 3.25 8.03329 3.46993 7.4166 3.88199C6.79992 4.29404 6.31927 4.87971 6.03544 5.56494C5.75162 6.25016 5.67735 7.00416 5.82205 7.73159C5.96674 8.45902 6.32389 9.1272 6.84834 9.65165C7.37279 10.1761 8.04097 10.5333 8.7684 10.6779C9.49583 10.8226 10.2498 10.7484 10.9351 10.4645C11.6203 10.1807 12.2059 9.70007 12.618 9.08339C13.0301 8.4667 13.25 7.74168 13.25 7C13.249 6.00576 12.8535 5.05253 12.1505 4.34949C11.4475 3.64645 10.4942 3.25103 9.49999 3.25ZM9.49999 9.5C9.00554 9.5 8.52219 9.35338 8.11107 9.07867C7.69994 8.80397 7.37951 8.41352 7.19029 7.95671C7.00107 7.49989 6.95157 6.99723 7.04803 6.51227C7.14449 6.02732 7.38259 5.58186 7.73222 5.23223C8.08186 4.8826 8.52731 4.6445 9.01227 4.54804C9.49722 4.45157 9.99988 4.50108 10.4567 4.6903C10.9135 4.87952 11.304 5.19995 11.5787 5.61107C11.8534 6.0222 12 6.50555 12 7C12 7.66304 11.7366 8.29893 11.2678 8.76777C10.7989 9.23661 10.163 9.5 9.49999 9.5Z" fill="url(#paint0_linear_2516_15339)"/>
<defs>
<linearGradient id="paint0_linear_2516_15339" x1="-0.750356" y1="7.76694" x2="14.516" y2="8.02599" gradientUnits="userSpaceOnUse">
<stop offset="0.570915" stop-color="#00B3FF"/>
<stop offset="1" stop-color="#4CC9FF"/>
</linearGradient>
</defs>
</svg>
