<svg width="20" height="20" viewBox="0 0 20 20" fill="none" xmlns="http://www.w3.org/2000/svg">
<path d="M9.80818 10.6662C10.1009 10.6662 10.3908 10.6085 10.6612 10.4965C10.9317 10.3845 11.1774 10.2203 11.3844 10.0133C11.5914 9.8063 11.7556 9.56057 11.8676 9.29012C11.9796 9.01968 12.0373 8.72982 12.0373 8.43709C12.0373 8.14436 11.9796 7.8545 11.8676 7.58406C11.7556 7.31361 11.5914 7.06788 11.3844 6.86089C11.1774 6.6539 10.9317 6.48971 10.6612 6.37769C10.3908 6.26566 10.1009 6.20801 9.80818 6.20801C9.21699 6.20801 8.65002 6.44286 8.23198 6.86089C7.81395 7.27892 7.5791 7.8459 7.5791 8.43709C7.5791 9.02828 7.81395 9.59525 8.23198 10.0133C8.65002 10.4313 9.21699 10.6662 9.80818 10.6662Z" stroke="#D5D5D5"/>
<path d="M3.82114 7.13678C5.22861 0.949647 14.395 0.956791 15.7953 7.14392C16.6169 10.7733 14.3593 13.8455 12.3802 15.7459C11.6887 16.4129 10.7654 17.5 9.80465 17.5C8.8439 17.5 7.9206 16.4129 7.22907 15.7459C5.25719 13.8455 2.99953 10.7662 3.82114 7.13678Z" stroke="#D5D5D5"/>
</svg>
