<svg width="20" height="20" viewBox="0 0 20 20" fill="none" xmlns="http://www.w3.org/2000/svg">
<g clip-path="url(#clip0_5574_9805)">
<path d="M5 8.33366V6.66699C5 3.90866 5.83333 1.66699 10 1.66699C14.1667 1.66699 15 3.90866 15 6.66699V8.33366M10 15.417C10.5525 15.417 11.0824 15.1975 11.4731 14.8068C11.8638 14.4161 12.0833 13.8862 12.0833 13.3337C12.0833 12.7811 11.8638 12.2512 11.4731 11.8605C11.0824 11.4698 10.5525 11.2503 10 11.2503C9.44747 11.2503 8.91756 11.4698 8.52686 11.8605C8.13616 12.2512 7.91667 12.7811 7.91667 13.3337C7.91667 13.8862 8.13616 14.4161 8.52686 14.8068C8.91756 15.1975 9.44747 15.417 10 15.417Z" stroke="url(#paint0_linear_5574_9805)" stroke-width="1.5" stroke-linecap="round" stroke-linejoin="round"/>
<path d="M14.1667 18.333H5.83341C2.50008 18.333 1.66675 17.4997 1.66675 14.1663V12.4997C1.66675 9.16634 2.50008 8.33301 5.83341 8.33301H14.1667C17.5001 8.33301 18.3334 9.16634 18.3334 12.4997V14.1663C18.3334 17.4997 17.5001 18.333 14.1667 18.333Z" stroke="url(#paint1_linear_5574_9805)" stroke-width="1.5" stroke-linecap="round" stroke-linejoin="round"/>
</g>
<defs>
<linearGradient id="paint0_linear_5574_9805" x1="5.52846" y1="4.09346" x2="15.5353" y2="4.58816" gradientUnits="userSpaceOnUse">
<stop offset="0.315531" stop-color="#FFF278"/>
<stop offset="1" stop-color="#F8B533"/>
</linearGradient>
<linearGradient id="paint1_linear_5574_9805" x1="2.54751" y1="10.0977" x2="19.0545" y2="11.9678" gradientUnits="userSpaceOnUse">
<stop offset="0.315531" stop-color="#FFF278"/>
<stop offset="1" stop-color="#F8B533"/>
</linearGradient>
<clipPath id="clip0_5574_9805">
<rect width="20" height="20" fill="white"/>
</clipPath>
</defs>
</svg>
