<svg width="39" height="40" viewBox="0 0 39 40" fill="none" xmlns="http://www.w3.org/2000/svg">
<path d="M22.75 23.25H11.375V26.5H22.75M30.875 31.375H8.125V13.5H30.875M30.875 5.375H29.25V2.125H26V5.375H13V2.125H9.75V5.375H8.125C7.26305 5.375 6.4364 5.71741 5.8269 6.3269C5.21741 6.9364 4.875 7.76305 4.875 8.625V31.375C4.875 32.237 5.21741 33.0636 5.8269 33.6731C6.4364 34.2826 7.26305 34.625 8.125 34.625H30.875C31.737 34.625 32.5636 34.2826 33.1731 33.6731C33.7826 33.0636 34.125 32.237 34.125 31.375V8.625C34.125 7.76305 33.7826 6.9364 33.1731 6.3269C32.5636 5.71741 31.737 5.375 30.875 5.375ZM27.625 16.75H11.375V20H27.625V16.75Z" fill="black"/>
</svg>
