<svg width="99" height="78" viewBox="0 0 99 78" fill="none" xmlns="http://www.w3.org/2000/svg">
<path d="M42.087 32.1013C42.3482 32.8016 42.6893 33.4693 43.1038 34.0912C43.3119 34.4041 43.5457 34.6991 43.8027 34.9732C43.9321 35.1099 44.0675 35.2411 44.2088 35.3666C44.3507 35.4954 44.505 35.6099 44.6695 35.7083C45.1668 36.0134 45.7568 36.1311 46.3332 36.0403C46.9096 35.9495 47.4347 35.6561 47.8141 35.2129C48.06 34.9281 48.271 34.6148 48.4424 34.2799C48.6132 33.9483 48.7661 33.6078 48.9004 33.2599C48.9767 33.0887 49.0395 32.9119 49.0883 32.7309C49.1355 32.5498 49.1728 32.3671 49.2084 32.1843C49.3496 31.4528 49.4565 30.7164 49.5584 29.9796C49.7539 28.5046 49.9018 27.0252 50.0278 25.543L49.9778 25.629C50.085 25.5457 50.1781 25.4457 50.2534 25.3327C50.3266 25.2254 50.3876 25.1102 50.4354 24.9893C50.5277 24.7504 50.5784 24.4974 50.5852 24.2414C50.5933 23.9901 50.572 23.7388 50.5218 23.4925C50.4695 23.2518 50.4031 23.0144 50.323 22.7815C50.2535 22.5515 50.1869 22.3186 50.1414 22.0869C50.1303 22.0307 50.122 21.9739 50.1168 21.9168C50.1144 21.8921 50.1141 21.8673 50.1159 21.8426C50.1204 21.8068 50.1214 21.7708 50.119 21.7348C50.1058 21.597 50.0534 21.4658 49.9681 21.3568C49.9244 21.2996 49.8691 21.2524 49.8058 21.2182C49.7381 21.182 49.6606 21.1685 49.5847 21.1796C49.5136 21.1912 49.4464 21.2195 49.3885 21.2623C49.3305 21.3013 49.2811 21.3518 49.2434 21.4106C49.1757 21.5317 49.1588 21.6746 49.1963 21.8081C49.2296 21.9217 49.2555 22.0372 49.2739 22.1541L49.2751 22.143C49.2381 22.3579 49.2162 22.575 49.2096 22.793C49.2019 23.0094 49.2079 23.2262 49.2274 23.4419L49.2492 23.4405C49.2427 23.2258 49.2497 23.0108 49.2701 22.7969C49.2894 22.5843 49.3234 22.3732 49.3719 22.1653L49.3732 22.1596L49.3731 22.1541C49.3606 22.0304 49.3391 21.9077 49.3088 21.7871C49.2955 21.7358 49.2925 21.6823 49.3 21.6297C49.3074 21.5772 49.3251 21.5266 49.3521 21.4809C49.4118 21.3975 49.5019 21.3408 49.603 21.323C49.6508 21.3214 49.6981 21.3327 49.74 21.3556C49.7818 21.3786 49.8168 21.4124 49.8411 21.4536C49.9026 21.5396 49.9399 21.6407 49.9489 21.7462C49.9499 21.7709 49.9484 21.7956 49.9445 21.82C49.9404 21.8557 49.9395 21.8917 49.9419 21.9276C49.946 21.9915 49.9535 22.0552 49.9643 22.1183C50.0063 22.3645 50.0678 22.6007 50.1326 22.8371C50.2048 23.0653 50.2636 23.2976 50.3087 23.5327C50.3532 23.7631 50.3716 23.9978 50.3634 24.2323C50.3563 24.4628 50.3097 24.6904 50.2256 24.9051C50.1836 25.01 50.13 25.11 50.0659 25.2031C50.0056 25.2921 49.9323 25.3716 49.8485 25.4389L49.8026 25.4731L49.7985 25.5249C49.6816 27.0045 49.5542 28.4847 49.4059 29.9616C49.3319 30.7 49.2542 31.439 49.1302 32.1698C49.097 32.3519 49.0621 32.5339 49.0178 32.7129C48.972 32.8913 48.9122 33.0659 48.8391 33.2351C48.7018 33.5788 48.545 33.9145 48.3697 34.2406C48.1956 34.5645 47.9789 34.8637 47.7253 35.1301C47.478 35.3951 47.173 35.5994 46.8339 35.7274C46.4969 35.8515 46.1365 35.8991 45.7788 35.8669C45.4219 35.8316 45.0763 35.7221 44.7642 35.5455C44.4555 35.3535 44.1737 35.1213 43.9263 34.855C43.6722 34.5893 43.4357 34.3073 43.2184 34.0108C42.7894 33.4073 42.4174 32.7652 42.1072 32.0928L42.087 32.1013Z" fill="black"/>
<path d="M47.0833 21.3387V19.4435L49.2383 19.0898V25.2404L47.0875 24.6134L47.0833 24.612V24.6078L47.103 23.7341L47.4272 23.7961C47.4654 23.7899 47.4997 23.7692 47.523 23.7384V24.1766L48.7929 24.6965V19.614L47.523 19.9057V21.5346C47.4018 21.4231 47.2473 21.3543 47.0833 21.3387ZM47.4906 23.155C47.5019 23.1451 47.5132 23.1339 47.523 23.124V23.2846C47.5129 23.2736 47.5021 23.2632 47.4906 23.2536C47.4629 23.2297 47.4301 23.2124 47.3948 23.2029L47.4906 23.155ZM47.523 22.38V22.559C47.5059 22.536 47.487 22.5143 47.4667 22.4941C47.4894 22.4582 47.5083 22.4199 47.523 22.38ZM47.523 22.0151V22.0926C47.5129 22.0715 47.4985 22.0528 47.4807 22.0376C47.4955 22.0314 47.5097 22.0239 47.523 22.0151Z" fill="black"/>
<path d="M47.595 23.5219C47.592 23.5665 47.5835 23.6105 47.5696 23.653L48.793 24.2039C48.793 24.2039 48.7535 21.3872 48.1376 21.197C48.7718 21.197 48.7704 20.2148 48.1376 20.2148C47.5175 20.2148 47.5076 21.1561 48.1024 21.1941C47.9981 21.1984 47.6936 21.3294 47.5724 22.6356C47.6206 22.7063 47.6436 22.7912 47.6378 22.8766C47.6319 22.9619 47.5975 23.0428 47.54 23.1063C47.5358 23.1668 47.5344 23.2302 47.5316 23.2965C47.5804 23.3609 47.6031 23.4415 47.595 23.5219Z" fill="black"/>
<path d="M47.2031 24.6445C46.9284 25.5489 46.695 26.459 46.4579 27.3685L46.109 28.7342C45.9909 29.1891 45.8766 29.646 45.7663 30.105C46.1401 29.2372 46.4421 28.3402 46.6693 27.423C46.9093 26.5098 47.0877 25.5816 47.2031 24.6445Z" fill="black"/>
<path d="M46.6572 31.3875C46.6149 31.2419 46.5551 31.1019 46.4791 30.9706C46.4066 30.8389 46.3228 30.7139 46.2285 30.5968C46.1344 30.477 46.0265 30.3686 45.907 30.2739C45.8459 30.2248 45.7794 30.1829 45.7088 30.1488C45.6381 30.1111 45.5577 30.0954 45.4779 30.1037C45.599 30.1809 45.7045 30.2802 45.7887 30.3965L46.0584 30.7337C46.1501 30.8459 46.2414 30.9597 46.3406 31.0687C46.4386 31.1821 46.5444 31.2887 46.6572 31.3875Z" fill="black"/>
<path d="M39.6507 28.1483C39.9896 28.8177 40.3313 29.4848 40.6491 30.162C40.8121 30.4985 40.964 30.84 41.1105 31.1823C41.2593 31.5203 41.3826 31.8689 41.4794 32.2253L41.5019 32.3154L41.5886 32.2988C41.9934 32.2174 42.3912 32.1045 42.7784 31.9609C43.1642 31.82 43.5404 31.654 43.9047 31.4641C44.267 31.2714 44.6139 31.0509 44.9422 30.8048C45.2656 30.5488 45.5566 30.2543 45.8087 29.928L45.8262 29.9056L45.8133 29.8764C45.4082 28.9588 44.9875 28.0483 44.5242 27.1575C44.293 26.7119 44.058 26.2677 43.8007 25.8341C43.6716 25.6177 43.5382 25.403 43.3925 25.1942C43.3196 25.0899 43.242 24.9877 43.1599 24.8875C43.0749 24.7804 42.9758 24.6852 42.8653 24.6046L42.8763 24.6127C42.6014 24.3968 42.3134 24.198 42.0141 24.0174C41.7182 23.8349 41.413 23.668 41.0996 23.5175C40.7869 23.3667 40.466 23.2335 40.1385 23.1184C39.8115 23.0044 39.4775 22.9113 39.1387 22.8398L39.1334 22.861C39.4623 22.961 39.7858 23.0782 40.1024 23.2122C40.4193 23.3428 40.7287 23.4909 41.0291 23.6559C41.3301 23.8186 41.6262 23.9905 41.911 24.1796C42.1954 24.3661 42.47 24.5673 42.7335 24.7823L42.7445 24.7905C42.9227 24.9456 43.0766 25.1264 43.2012 25.3271C43.3406 25.5301 43.4737 25.7398 43.6011 25.9534C43.8568 26.3803 44.1029 26.8141 44.3396 27.2549C44.5757 27.6953 44.8086 28.1377 45.0381 28.5823C45.2667 29.0272 45.4994 29.4708 45.7191 29.9201L45.7237 29.8685C45.4915 30.1995 45.2136 30.496 44.8983 30.749C44.5784 30.9989 44.233 31.2142 43.8679 31.3914C43.5007 31.5635 43.1216 31.7091 42.7336 31.827C42.3478 31.9451 41.9552 32.0392 41.5578 32.109L41.6669 32.1824C41.5728 31.8132 41.4449 31.4534 41.2848 31.1077C41.1342 30.7615 40.9685 30.4232 40.796 30.0891C40.4456 29.4235 40.0754 28.7698 39.6696 28.1374L39.6507 28.1483Z" fill="black"/>
<path d="M41.3633 24.2035C41.1475 24.1366 40.9208 24.1121 40.6957 24.1314C40.4644 24.1468 40.2386 24.2093 40.0323 24.3152C39.8223 24.4272 39.65 24.5986 39.537 24.808C39.4293 25.0111 39.381 25.2405 39.3978 25.4698C39.4634 25.2665 39.5589 25.074 39.6812 24.8988C39.8016 24.7358 39.9571 24.602 40.1362 24.5072C40.3207 24.4121 40.5171 24.3423 40.7202 24.2994C40.9323 24.254 41.1471 24.2219 41.3633 24.2035Z" fill="black"/>
<path d="M40.3807 17.6328C40.4535 17.7844 40.5065 17.9448 40.5385 18.1099C40.5695 18.2734 40.5882 18.4391 40.5946 18.6054C40.5996 18.7711 40.5946 18.937 40.5798 19.1022C40.5642 19.2672 40.5374 19.4308 40.508 19.5939L40.5008 19.6335L40.5254 19.6684C40.6069 19.7842 40.6864 19.9035 40.7644 20.0219C40.8422 20.14 40.9204 20.26 40.9847 20.38C41.0013 20.4101 41.0152 20.4394 41.028 20.468L41.0422 20.5062C41.0438 20.5115 41.042 20.5105 41.0433 20.5127L41.0448 20.5147C41.0437 20.5114 41.0435 20.5078 41.0442 20.5044C41.0544 20.4769 41.0535 20.4955 41.0272 20.505C41.0015 20.5178 40.9746 20.528 40.9468 20.5355C40.8155 20.5693 40.6811 20.5901 40.5457 20.5976L40.4683 20.6033L40.4492 20.6767C40.3982 20.8733 40.3366 21.067 40.2645 21.2568C40.1941 21.4477 40.1103 21.6333 40.0137 21.8124C39.9203 21.9918 39.8028 22.1576 39.6645 22.3051C39.5251 22.4555 39.3387 22.554 39.1359 22.5846C39.3511 22.5872 39.5598 22.5109 39.7225 22.3701C39.8871 22.2331 40.0288 22.0707 40.1422 21.8891C40.256 21.7101 40.3551 21.5223 40.4388 21.3274C40.523 21.1326 40.5945 20.9325 40.6529 20.7285L40.5564 20.8075C40.7081 20.8011 40.8588 20.7795 41.0063 20.743C41.048 20.7321 41.0885 20.717 41.1271 20.6979C41.1515 20.6862 41.1742 20.6714 41.1946 20.6538C41.2085 20.6419 41.2207 20.6282 41.2307 20.6129C41.2442 20.595 41.2533 20.574 41.257 20.5519C41.2597 20.5399 41.2616 20.5277 41.2627 20.5154L41.2599 20.4909C41.2579 20.4753 41.2548 20.4598 41.2506 20.4447C41.243 20.4238 41.2353 20.401 41.2269 20.3821C41.21 20.3453 41.1924 20.31 41.1739 20.2774C41.1006 20.1452 41.0198 20.0254 40.9382 19.9048C40.8555 19.7851 40.7695 19.6695 40.6816 19.5534L40.6989 19.6279L40.7321 19.3709C40.7368 19.2845 40.7454 19.1986 40.7468 19.1121C40.7525 18.9392 40.7444 18.7662 40.7226 18.5947C40.7015 18.4234 40.6631 18.2546 40.6082 18.091C40.5572 17.9272 40.4804 17.7725 40.3807 17.6328Z" fill="black"/>
<path d="M40.7607 17.4512C40.7607 17.4512 39.6601 18.9184 38.638 19.0887C38.638 19.0887 38.1401 18.08 37.6946 18.7612C37.2491 19.4424 37.6946 20.1105 37.9698 20.176C37.9698 20.176 39.3063 21.3943 39.2277 23.3331C39.2277 23.3331 36.6988 23.582 35.0216 22.8484C33.3443 22.1148 32.5582 21.4336 32.5582 21.4336C32.5582 21.4336 34.3926 19.6782 34.8905 18.4206C35.3884 17.163 35.5719 15.7744 37.1967 15.9578C38.8215 16.1412 39.6077 16.377 40.7607 17.4512Z" fill="black"/>
<path d="M40.3389 21.3243C40.2139 21.2947 40.0914 21.255 39.9728 21.2057C39.9188 21.1802 39.8684 21.1476 39.823 21.1087C39.776 21.0647 39.7346 21.015 39.6996 20.9609C39.6967 21.0333 39.7174 21.1047 39.7585 21.1644C39.8017 21.2244 39.8594 21.2725 39.9262 21.3044C40.056 21.3642 40.2039 21.3714 40.3389 21.3243Z" fill="black"/>
<path d="M40.001 19.6322C39.9585 19.6307 39.9183 19.6128 39.8887 19.5823C39.8592 19.5517 39.8427 19.5109 39.8427 19.4684C39.8427 19.426 39.8592 19.3851 39.8887 19.3546C39.9183 19.3241 39.9585 19.3062 40.001 19.3047C40.0434 19.3062 40.0836 19.3241 40.1132 19.3546C40.1427 19.3851 40.1592 19.426 40.1592 19.4684C40.1592 19.5109 40.1427 19.5517 40.1132 19.5823C40.0836 19.6128 40.0434 19.6307 40.001 19.6322Z" fill="black"/>
<path d="M40.3389 19.1284C40.3055 19.0627 40.2522 19.0093 40.1864 18.976C40.1241 18.9408 40.0575 18.9139 39.9883 18.8958C39.8514 18.8589 39.7079 18.8533 39.5686 18.8795C39.6961 18.9296 39.8271 18.9703 39.9606 19.0013C40.0252 19.0173 40.0886 19.0354 40.1521 19.0536C40.2172 19.0706 40.28 19.0957 40.3389 19.1284Z" fill="black"/>
<path d="M37.9175 19.8277C37.8856 19.8266 37.8554 19.8131 37.8333 19.7902C37.8112 19.7673 37.7988 19.7367 37.7988 19.7048C37.7988 19.673 37.8112 19.6424 37.8333 19.6195C37.8554 19.5966 37.8856 19.5831 37.9175 19.582C37.9493 19.5831 37.9795 19.5966 38.0016 19.6195C38.0238 19.6424 38.0361 19.673 38.0361 19.7048C38.0361 19.7367 38.0238 19.7673 38.0016 19.7902C37.9795 19.8131 37.9493 19.8266 37.9175 19.8277Z" fill="black"/>
<path d="M33.4033 22.0156C33.0311 22.0942 32.6713 22.2228 32.3336 22.3979C31.9917 22.5708 31.672 22.7844 31.3814 23.0341C31.0908 23.2879 30.8423 23.586 30.6449 23.9174C30.4517 24.2485 30.3272 24.6152 30.2789 24.9955C30.4075 24.647 30.5787 24.3157 30.7885 24.0091C31.0017 23.7111 31.249 23.4389 31.5253 23.1981C31.8045 22.9573 32.1025 22.7392 32.4165 22.546C32.7349 22.3502 33.0644 22.1731 33.4033 22.0156Z" fill="black"/>
<path d="M48.9728 33.0287C49.7877 32.5175 50.6714 32.1253 51.5973 31.864C52.5145 31.5977 53.4701 31.4878 54.4238 31.5389C55.3728 31.5948 56.2998 31.8474 57.1459 32.2807C57.99 32.7049 58.7431 33.3091 59.468 33.935C60.9029 35.2231 62.2275 36.6289 63.4279 38.1378C64.634 39.644 65.7659 41.2124 66.8218 42.8239L66.8128 42.8078C66.8626 42.961 66.8905 43.1205 66.8955 43.2815C66.8944 43.3648 66.9007 43.4477 66.8951 43.531L66.8731 43.7809C66.8601 43.8637 66.8415 43.946 66.8262 44.0285C66.8177 44.0697 66.8111 44.1112 66.8012 44.152L66.7637 44.2731L66.6893 44.5152C66.6608 44.5947 66.624 44.6717 66.5919 44.7501L66.4919 44.9839L66.369 45.208L66.2464 45.432C66.2038 45.5057 66.1522 45.5746 66.1059 45.6464L65.9634 45.8595C65.918 45.9321 65.8679 46.0016 65.8135 46.0677L65.4916 46.4694C65.3868 46.6052 65.2592 46.723 65.1443 46.8507C65.024 46.9739 64.914 47.1064 64.7855 47.222L64.4048 47.5727C64.2779 47.6896 64.1533 47.8089 64.0156 47.9141L63.6121 48.2401C63.4766 48.3476 63.3465 48.4614 63.2026 48.5586L62.3607 49.1678L62.3053 49.2079L62.29 49.2695C62.206 49.607 62.1233 49.9436 62.045 50.2831C62.007 50.4539 61.969 50.6216 61.9367 50.8006L61.9255 50.8724L61.9213 50.9221L61.9205 50.9345C61.9195 50.9251 61.9199 50.9156 61.9216 50.9062C61.9237 50.8942 61.9277 50.8826 61.9335 50.8718C61.9396 50.8604 61.9474 50.8515 61.9445 50.8544C61.9435 50.8535 61.9455 50.852 61.9446 50.8536L61.9284 50.8667C61.9195 50.8753 61.9005 50.8866 61.8871 50.8966C61.8203 50.9401 61.751 50.9798 61.6797 51.0155C61.3775 51.1644 61.0632 51.2875 60.7402 51.3833C60.4149 51.4835 60.0841 51.5651 59.7495 51.6279C59.0772 51.7534 58.3938 51.8098 57.71 51.7961C57.024 51.7816 56.3406 51.7062 55.6679 51.571L55.7432 51.6981L56.2329 49.8803L56.7099 48.0589L56.6784 48.0498L56.1071 49.8439L55.5486 51.6417L55.5169 51.7438L55.6239 51.7688C55.9644 51.8485 56.3081 51.9159 56.6548 51.9671C57.0019 52.0156 57.3517 52.0455 57.7022 52.0606C58.4052 52.0899 59.1094 52.0472 59.8037 51.9331C60.5059 51.8257 61.1893 51.6189 61.8334 51.3191C61.9174 51.278 61.999 51.2321 62.0777 51.1816C62.0994 51.1661 62.1181 51.1557 62.142 51.1358L62.1762 51.1078C62.1919 51.0927 62.2068 51.0766 62.2208 51.0597C62.2284 51.0501 62.2349 51.0397 62.24 51.0286C62.2479 51.0128 62.254 50.9963 62.2582 50.9792C62.2616 50.9649 62.2639 50.9504 62.265 50.9358L62.2657 50.932L62.2675 50.917L62.277 50.8606C62.3077 50.6989 62.3477 50.5288 62.3867 50.3618C62.4644 50.0261 62.546 49.6894 62.6291 49.3543L62.5583 49.4561L63.4126 48.8355C63.5571 48.7351 63.6891 48.6173 63.8257 48.5061L64.233 48.1688C64.3716 48.06 64.4981 47.9361 64.6265 47.8149L65.0118 47.4511C65.1415 47.3314 65.2541 47.1932 65.376 47.0651C65.4929 46.932 65.6215 46.8099 65.7287 46.6679C66.1923 46.1243 66.5694 45.5125 66.8468 44.8542C67.1039 44.1913 67.2745 43.449 67.0164 42.716L67.014 42.7092L67.0074 42.6998C66.4504 41.9065 65.876 41.1299 65.2908 40.3601C64.7041 39.5918 64.1165 38.8244 63.5048 38.0759C62.288 36.5755 61.0553 35.0791 59.637 33.7478C59.2844 33.4131 58.9093 33.1015 58.5233 32.8021C58.1318 32.5045 57.7149 32.2419 57.2773 32.0174C56.3919 31.5788 55.4249 31.3288 54.4378 31.2835C53.4569 31.2454 52.4772 31.3846 51.5458 31.6943C51.3133 31.7677 51.0849 31.8527 50.8591 31.9433C50.6349 32.038 50.4131 32.1378 50.196 32.247C49.7602 32.4612 49.3444 32.7139 48.9537 33.0022L48.9728 33.0287Z" fill="black"/>
<path d="M22.6256 26.9376C23.0978 24.7367 26.8708 24.9988 26.8708 24.9988C35.991 24.7367 38.2446 27.3773 38.2446 27.3773C40.2361 29.0231 42.6998 35.9726 42.6998 35.9726L55.0644 36.2459C55.816 36.2574 56.544 36.5092 57.1419 36.9646C58.805 38.251 58.4766 39.9321 58.4766 39.9321C58.058 43.0123 56.6021 48.3724 56.6021 48.3724C54.3612 49.8956 36.6591 49.4165 36.6591 49.4165C30.5662 48.2639 27.9194 46.9548 27.7629 45.9586C27.6051 44.9624 25.2993 37.2605 23.9885 33.487C22.6778 29.7149 22.1549 29.1386 22.6256 26.9376ZM41.062 40.0434C41.1212 40.7803 41.1715 41.5182 41.2128 42.257L41.3425 44.4735C41.382 45.2132 41.4313 45.9516 41.482 46.6928C41.5144 45.9516 41.5243 45.21 41.5116 44.4678C41.5046 43.7253 41.4736 42.9841 41.4313 42.2443C41.4087 41.8737 41.3791 41.5032 41.3496 41.134C41.3115 40.7648 41.2819 40.3942 41.2312 40.0264C41.1487 39.2878 41.0135 38.5561 40.8267 37.8368C40.9394 38.5695 40.9986 39.3078 41.062 40.0434ZM36.924 29.209C37.4027 29.8371 37.831 30.5019 38.2052 31.1972C38.5803 31.8935 38.9176 32.6094 39.2157 33.3418C39.3679 33.7082 39.5089 34.0788 39.6414 34.4536C39.7781 34.8256 39.9021 35.2032 40.0191 35.5837C39.95 35.1905 39.8457 34.8059 39.7428 34.4198C39.6301 34.0379 39.5065 33.6589 39.3722 33.2827C39.102 32.5295 38.776 31.7976 38.3968 31.093C38.2024 30.7421 37.998 30.3983 37.7767 30.0644C37.5536 29.731 37.3122 29.4101 37.0537 29.1034C36.7927 28.7994 36.5141 28.511 36.2193 28.2396C35.9185 27.9766 35.5971 27.7382 35.2581 27.5266C35.881 28.0162 36.4406 28.5813 36.924 29.209ZM35.5724 45.9347L35.5752 45.8966L35.0523 45.8318L35.0439 45.8896L35.5724 45.9347ZM34.5182 45.8107L34.5337 45.7332L34.0192 45.6148L33.9981 45.7106L34.5182 45.8107ZM33.4809 45.5965L33.509 45.481L33.0002 45.3415L32.9664 45.4683L33.4809 45.5965ZM32.4548 45.333L32.4943 45.1935L31.9897 45.0399L31.9446 45.1893L32.4548 45.333ZM31.4372 45.0399L31.4865 44.8793L30.9862 44.7144L30.9298 44.8863L31.4372 45.0399ZM30.4253 44.7285L30.4859 44.5453L29.9884 44.3706L29.9221 44.5651L30.4253 44.7285ZM29.1173 44.2198L29.123 44.2903L29.1878 44.3128L29.4204 44.3946L29.4908 44.1959L29.3259 44.1367L29.3133 43.9592L29.099 43.9775L29.1173 44.2198ZM29.0455 43.5026L29.2625 43.4745L29.1963 42.9968L28.9764 43.032L29.0455 43.5026ZM28.8947 42.5628L29.1173 42.5233L29.0285 42.0513L28.8045 42.095L28.8947 42.5628ZM28.7044 41.63L28.9327 41.5807L28.8298 41.1114L28.5987 41.165L28.7044 41.63ZM28.4873 40.7014L28.7213 40.6436L28.6071 40.1786L28.3704 40.2378L28.4873 40.7014ZM28.2506 39.7756L28.4888 39.7136L28.3619 39.2501L28.1294 39.3135L28.2506 39.7756ZM28.0039 38.8527L28.2336 38.7879L28.1012 38.3271L27.8757 38.3919L28.0039 38.8527ZM27.7446 37.9326L27.9659 37.8678L27.8292 37.4084L27.6107 37.4732L27.7446 37.9326ZM27.474 37.0153L27.6882 36.9505L27.5459 36.4939L27.3359 36.5588L27.474 37.0153ZM27.1949 36.1022L27.4021 36.0374L27.2555 35.5809L27.0526 35.6457L27.1949 36.1022ZM26.9088 35.1905L27.1075 35.1257L26.9553 34.672L26.7636 34.7354L26.9088 35.1905ZM26.6199 34.2789L26.8003 34.2197L26.6438 33.7674L26.4733 33.8238L26.6199 34.2789ZM26.3267 33.37L26.486 33.3151L26.3267 32.8642L26.1773 32.9149L26.3267 33.37ZM26.0265 32.4626L26.1646 32.4147L26.0026 31.9638L25.8743 32.0089L26.0265 32.4626ZM25.7207 31.5566L25.8391 31.5157L25.6714 31.0676L25.5699 31.1028L25.7207 31.5566ZM25.4162 30.6505L25.5022 30.6195L25.3303 30.1743L25.2626 30.1982L25.4162 30.6505ZM25.1076 29.7459L25.1583 29.7276L24.985 29.2823L24.9497 29.295L25.1076 29.7459Z" fill="white"/>
<path d="M62.46 49.3122C62.0015 48.3437 61.4858 47.4081 60.956 46.4806C60.4204 45.5564 59.8705 44.6405 59.2628 43.7578C59.7208 44.7266 60.2366 45.6622 60.7668 46.5894C61.3027 47.5134 61.8527 48.4293 62.46 49.3122Z" fill="black"/>
<path d="M48.9011 49.394C48.9048 50.063 48.9492 50.7275 49.0033 51.3936C49.0341 51.7259 49.0692 52.0583 49.1084 52.3909C49.153 52.7223 49.203 53.0539 49.2583 53.3857C49.3139 53.7173 49.3558 54.0552 49.4108 54.3934C49.4682 54.7338 49.5754 55.064 49.7289 55.3732C49.8865 55.6977 50.0873 55.9993 50.3259 56.2697C50.3873 56.3391 50.4582 56.4065 50.526 56.4707C50.5989 56.5353 50.6755 56.5958 50.7552 56.6519C50.9207 56.7722 51.1162 56.8446 51.3202 56.8608L51.377 56.7474C51.3031 56.6053 51.2483 56.4542 51.2138 56.2978L51.1623 56.0722L51.1152 55.8449C51.0529 55.5421 50.991 55.2369 50.918 54.9315C50.8445 54.6236 50.7428 54.3232 50.614 54.0341C50.4825 53.74 50.3469 53.4427 50.2416 53.1349C50.1342 52.8278 50.0308 52.5182 49.9314 52.206C49.8259 51.8954 49.7238 51.5829 49.6251 51.2686C49.4202 50.6417 49.2275 50.0087 49.0265 49.375L48.9011 49.394Z" fill="black"/>
<path d="M41.4195 49.4688L39.346 55.7931C39.1714 56.3175 38.9733 56.8349 38.7754 57.3499C38.5811 57.8636 38.417 58.3882 38.2836 58.921C38.1493 59.4521 38.0308 59.9872 37.9171 60.5225C37.8602 60.7897 37.8061 61.0592 37.7464 61.3239C37.6992 61.5899 37.6239 61.85 37.5217 62.1001L37.605 62.1958C37.6746 62.1589 37.7412 62.1163 37.8039 62.0686C37.8603 62.0192 37.9202 61.9676 37.9754 61.9141C38.0788 61.8065 38.1765 61.6935 38.2682 61.5757C38.4454 61.3443 38.607 61.1014 38.7521 60.8487C39.0345 60.3551 39.2811 59.8418 39.49 59.3129C39.6979 58.7918 39.8617 58.2542 39.9797 57.7057C40.0977 57.1579 40.2 56.6079 40.3238 56.0643L40.6774 54.4313L40.9949 52.7918C41.1932 51.6962 41.3859 50.6007 41.543 49.4976L41.4195 49.4688Z" fill="black"/>
<path d="M29.1618 47.2695C28.8656 48.4141 28.5287 49.5446 28.1508 50.6613C27.9629 51.2189 27.7705 51.7739 27.5602 52.3217L27.4096 52.7346L27.2489 53.1434C27.1396 53.4149 27.0403 53.69 26.9213 53.9571C26.8053 54.2253 26.6884 54.4929 26.5661 54.7578L26.1753 55.5402C26.0535 55.8043 25.9173 56.0604 25.7973 56.3236C25.6731 56.5847 25.5728 56.858 25.4549 57.1216C25.0239 58.2019 24.564 59.2559 24.199 60.4342L24.3033 60.5064C24.5434 60.3119 24.7595 60.0964 24.9786 59.8801C25.0844 59.7697 25.1965 59.6619 25.2924 59.5444C25.3896 59.4276 25.4851 59.3093 25.5789 59.1894C25.6727 59.0696 25.7659 58.9489 25.8564 58.8263C25.9487 58.7048 26.0384 58.5813 26.1186 58.4531C26.2827 58.1985 26.4401 57.9392 26.5948 57.678C26.7448 57.4153 26.8806 57.1448 27.0017 56.8676C27.0639 56.73 27.1231 56.5909 27.1805 56.4512C27.2382 56.3116 27.2822 56.1668 27.3337 56.025L27.6134 55.1644C27.697 54.8748 27.7859 54.5879 27.8758 54.3016C27.9708 54.017 28.0453 53.7262 28.1298 53.4389L28.253 53.0071L28.3656 52.5726C28.5128 51.9926 28.6409 51.4087 28.7636 50.8248C29.0029 49.6567 29.1777 48.4763 29.2871 47.289L29.1618 47.2695Z" fill="black"/>
<path d="M55.0886 48.8732C55.5065 49.9274 55.955 50.967 56.4079 52.0055L57.1043 53.5557L57.8313 55.0924C58.0776 55.603 58.3065 56.1239 58.5467 56.6404C58.7879 57.1569 59.0703 57.6532 59.3909 58.1245C59.7139 58.603 60.069 59.0589 60.4538 59.4892C60.6513 59.7094 60.8622 59.9172 61.0853 60.1115C61.2022 60.2107 61.3248 60.303 61.4524 60.388C61.5208 60.432 61.5922 60.471 61.6662 60.5046L61.7261 60.5277L61.7937 60.5455C61.819 60.5505 61.8447 60.5529 61.8704 60.5528C61.8996 60.5509 61.9283 60.5439 61.9551 60.5323L61.9172 60.4113C61.8795 60.3783 61.8473 60.3396 61.8217 60.2966C61.7855 60.2425 61.7525 60.1863 61.7231 60.1283C61.6614 60.008 61.6 59.8854 61.5444 59.758L61.2019 58.9955C60.9721 58.4863 60.7352 57.9795 60.4834 57.4801C60.232 56.9795 59.9511 56.4941 59.6422 56.0267C59.3305 55.5583 59.0153 55.0901 58.7232 54.6085L56.9705 51.7127L55.202 48.8164L55.0886 48.8732Z" fill="black"/>
<path d="M73.1007 45.5278C73.1007 45.5278 72.5481 46.8525 73.204 47.424C74.1783 47.013 75.0082 46.3215 75.5882 45.4375C75.5882 45.4375 77.8125 45.419 73.7936 48.59C73.7936 48.59 68.6963 53.014 68.3076 53.0916C67.3313 53.2864 67.5825 51.8577 67.5825 51.8577C67.5825 51.8577 70.8975 49.5518 71.4626 48.9036C71.4626 48.9036 71.0645 47.1151 71.5792 46.4096L73.1007 45.5278Z" fill="black"/>
<path d="M75.5879 45.4371C75.4198 45.3213 75.2213 45.2575 75.0171 45.2538C74.8139 45.2415 74.6099 45.2541 74.4098 45.2914C74.0116 45.3701 73.6233 45.4919 73.2515 45.6547L72.7043 45.9074C72.523 45.99 72.3384 46.0648 72.1519 46.1334C71.7796 46.2709 71.3957 46.3745 71.0048 46.4431C70.6151 46.5128 70.2181 46.5327 69.8234 46.5025C69.6262 46.488 69.4303 46.4593 69.2372 46.4168C69.0433 46.3764 68.8521 46.3237 68.6648 46.2592C68.2889 46.1277 67.9289 45.9542 67.5919 45.7419C67.2514 45.5307 66.928 45.2931 66.6247 45.0312C67.1907 45.6118 67.8722 46.0673 68.6252 46.3682C69.3922 46.6574 70.2227 46.7358 71.0302 46.5953C71.8367 46.468 72.593 46.1307 73.306 45.7764C73.6638 45.6025 74.0394 45.4676 74.4261 45.374C74.6192 45.3282 74.8168 45.3037 75.0153 45.3008C75.1145 45.3008 75.2135 45.3107 75.3108 45.3303C75.4095 45.3465 75.5038 45.3829 75.5879 45.4371Z" fill="black"/>
<path d="M64.4298 47.7812C64.7492 48.0778 65.0588 48.3829 65.3586 48.6966C65.5074 48.8542 65.6515 49.0158 65.7859 49.1839C65.9231 49.3464 66.0433 49.5224 66.1447 49.7092C66.1905 49.803 66.2261 49.9013 66.251 50.0026C66.2823 50.1097 66.3195 50.2151 66.3624 50.3182C66.4522 50.5213 66.5599 50.716 66.6841 50.9C66.9313 51.2646 67.2347 51.5877 67.583 51.8575C67.2907 51.5384 67.0292 51.1924 66.8022 50.8241C66.691 50.6418 66.5923 50.4523 66.5069 50.2567C66.4695 50.1575 66.426 50.0602 66.3979 49.9581C66.3692 49.8483 66.3285 49.7419 66.2766 49.641C66.0446 49.2637 65.759 48.9222 65.4287 48.627C65.1133 48.325 64.7797 48.0426 64.4298 47.7812Z" fill="black"/>
<path d="M65.0536 56.783C65.0536 56.783 63.6903 57.233 63.6879 58.1029C64.6366 58.5698 65.7028 58.744 66.7509 58.6032C66.7509 58.6032 68.2216 60.2717 63.1927 59.312C63.1927 59.312 56.5104 58.3581 56.1971 58.1152C55.4105 57.5051 56.6549 56.7593 56.6549 56.7593C56.6549 56.7593 60.569 57.7537 61.429 57.7562C61.429 57.7562 62.5202 56.2841 63.3906 56.2109L65.0536 56.783Z" fill="black"/>
<path d="M66.751 58.6042C66.7284 58.4014 66.6466 58.2096 66.5157 58.053C66.392 57.8913 66.2489 57.7455 66.0896 57.6187C65.7694 57.3694 65.4229 57.1558 65.0564 56.9815L64.5071 56.7335C64.3259 56.6506 64.1484 56.5602 63.9744 56.4642C63.6267 56.2729 63.2969 56.0508 62.9891 55.8004C62.6812 55.5516 62.4062 55.2647 62.1705 54.9467C62.0524 54.7882 61.9457 54.6214 61.8514 54.4476C61.755 54.2746 61.6695 54.0958 61.5957 53.912C61.4489 53.5418 61.3443 53.1562 61.2841 52.7626C61.2207 52.367 61.1885 51.967 61.1878 51.5664C61.1196 52.3743 61.2217 53.1874 61.4873 53.9534C61.771 54.7223 62.2556 55.4011 62.8907 55.9193C63.5152 56.4452 64.2654 56.7957 65.0001 57.1024C65.3659 57.2589 65.7138 57.4542 66.0378 57.6851C66.1989 57.8011 66.3469 57.9342 66.4791 58.0823C66.544 58.1573 66.6014 58.2386 66.6503 58.3249C66.7027 58.4101 66.7369 58.5052 66.751 58.6042Z" fill="black"/>
<path d="M57.6711 51.707C57.6561 52.1425 57.6282 52.5763 57.5874 53.0082C57.5658 53.2238 57.538 53.4386 57.4989 53.6502C57.466 53.8602 57.4117 54.0664 57.3368 54.2653C57.2959 54.3613 57.2449 54.4526 57.1847 54.5377C57.1242 54.6316 57.0689 54.7287 57.0191 54.8286C56.9244 55.0294 56.8477 55.2383 56.79 55.4527C56.6763 55.8782 56.6307 56.3191 56.6549 56.7589C56.7046 56.3291 56.795 55.9049 56.9247 55.4921C56.9896 55.2888 57.0683 55.0901 57.1602 54.8974C57.2107 54.8042 57.2558 54.7077 57.3145 54.6196C57.3787 54.526 57.4325 54.4256 57.4748 54.3202C57.608 53.8979 57.6791 53.4584 57.686 53.0156C57.7077 52.5795 57.7027 52.1425 57.6711 51.707Z" fill="black"/>
<path d="M47.0834 24.6105L47.1224 23.7331L47.0995 23.7515L47.4223 23.8206C47.4249 23.8212 47.4276 23.8213 47.4303 23.8209L47.4318 23.8207C47.4769 23.8139 47.5176 23.7899 47.5455 23.7539L47.5442 23.7554C47.595 23.6865 47.6236 23.6037 47.6262 23.5182C47.6349 23.4309 47.6106 23.3436 47.5581 23.2733L47.5598 23.2756L47.5515 23.2642L47.5496 23.2616L47.5488 23.2606C47.5293 23.2394 47.5075 23.2203 47.4838 23.2038C47.4588 23.1866 47.4311 23.1738 47.4017 23.166L47.411 23.2336L47.5074 23.1869C47.51 23.1856 47.5124 23.184 47.5146 23.1821L47.5153 23.1815C47.5674 23.1373 47.6103 23.0832 47.6415 23.0224C47.672 22.9587 47.6849 22.888 47.6786 22.8177C47.6716 22.7492 47.6506 22.6828 47.617 22.6226C47.6007 22.5934 47.582 22.566 47.5644 22.5377C47.5445 22.5106 47.5204 22.4853 47.4983 22.4593L47.5057 22.5168C47.5526 22.4407 47.5846 22.3564 47.5999 22.2683C47.6064 22.2209 47.603 22.1726 47.5899 22.1266C47.5757 22.077 47.5479 22.0324 47.5096 21.9978L47.498 22.0808C47.5493 22.0583 47.5958 22.0262 47.635 21.9863C47.6767 21.9439 47.7033 21.889 47.7107 21.83C47.7126 21.7745 47.7025 21.7191 47.6813 21.6677C47.66 21.6163 47.628 21.5701 47.5874 21.5321C47.4449 21.3783 47.2471 21.2874 47.0376 21.2793C46.9374 21.2707 46.8366 21.2716 46.7366 21.2818C46.6868 21.2867 46.6373 21.2943 46.5881 21.3035L46.5141 21.3194C46.4849 21.3272 46.4572 21.3399 46.4322 21.3568C46.3821 21.3884 46.3424 21.4341 46.3181 21.488C46.2961 21.5426 46.2898 21.6021 46.2998 21.6601C46.3238 21.7628 46.3701 21.8591 46.4353 21.942L46.4548 21.8662C46.3914 21.8977 46.3325 21.9376 46.2798 21.9848C46.2244 22.0326 46.18 22.0919 46.1497 22.1584C46.1189 22.2292 46.1141 22.3085 46.1359 22.3825C46.1569 22.4522 46.1922 22.5168 46.2395 22.5721L46.2438 22.5072C46.1799 22.5694 46.1238 22.6392 46.0769 22.7149C46.0266 22.7915 45.9935 22.8781 45.98 22.9688C45.9678 23.0643 45.9924 23.1609 46.049 23.2388C46.1046 23.3114 46.1761 23.3703 46.2579 23.4111L46.2404 23.3635C46.1996 23.4797 46.1766 23.6014 46.1722 23.7245C46.1654 23.8489 46.1894 23.973 46.2421 24.0858C46.2968 24.1992 46.3897 24.2896 46.5045 24.3412C46.5593 24.3682 46.6168 24.3891 46.6761 24.4038C46.7352 24.4165 46.7955 24.4228 46.8549 24.4325L46.85 24.4311C46.9368 24.4756 47.0139 24.537 47.0767 24.6116L47.0773 24.6123C47.0773 24.6123 47.0776 24.612 47.0791 24.6119L47.081 24.6172C47.1631 24.7149 47.2179 24.8327 47.2398 24.9585C47.2232 24.8304 47.173 24.709 47.0942 24.6066L47.096 24.6118C47.0946 24.6076 47.0924 24.6036 47.0895 24.6002L47.0901 24.6008C47.0284 24.5205 46.9511 24.4535 46.8629 24.4037L46.8609 24.4029L46.858 24.4023C46.8005 24.3902 46.7422 24.3816 46.6859 24.3669C46.6303 24.3505 46.5767 24.3282 46.5259 24.3004C46.4239 24.2489 46.3424 24.1643 46.2946 24.0604C46.2492 23.9557 46.2302 23.8413 46.2393 23.7275C46.2464 23.6126 46.2706 23.4994 46.3111 23.3916C46.3143 23.3832 46.3145 23.3741 46.3117 23.3656C46.3088 23.3571 46.3032 23.3499 46.2956 23.3452L46.2936 23.3439C46.224 23.3072 46.1635 23.2552 46.1167 23.1919C46.0738 23.1303 46.0563 23.0545 46.0679 22.9803C46.105 22.8245 46.1886 22.6837 46.3078 22.5767C46.3162 22.5684 46.3213 22.5574 46.3222 22.5457C46.3232 22.5339 46.3198 22.5222 46.3128 22.5128L46.3121 22.5117C46.274 22.4667 46.2457 22.4143 46.2287 22.3579C46.2128 22.3046 46.2167 22.2474 46.2396 22.1967C46.2969 22.0911 46.3873 22.0071 46.497 21.9579L46.4977 21.9576C46.5037 21.9546 46.5091 21.9504 46.5135 21.9453C46.5179 21.9402 46.5213 21.9343 46.5234 21.9279C46.5255 21.9215 46.5263 21.9148 46.5258 21.908C46.5254 21.9013 46.5235 21.8948 46.5205 21.8888L46.5165 21.8821C46.4618 21.8116 46.4226 21.7302 46.4017 21.6434C46.394 21.6055 46.3983 21.5661 46.414 21.5306C46.4297 21.4952 46.456 21.4656 46.4893 21.4458C46.5046 21.4355 46.5214 21.4277 46.5391 21.4227L46.6076 21.4086C46.6539 21.4001 46.7007 21.394 46.7475 21.3889C46.8408 21.3786 46.9348 21.377 47.0283 21.3842C47.1192 21.3863 47.2087 21.4063 47.2918 21.4432C47.3748 21.4801 47.4498 21.533 47.5123 21.599C47.5435 21.6266 47.5686 21.6604 47.586 21.6983C47.6034 21.7362 47.6126 21.7773 47.6132 21.8189C47.6046 21.8579 47.5865 21.8941 47.5604 21.9242C47.5342 21.9543 47.501 21.9774 47.4637 21.9914L47.4619 21.9922C47.4561 21.9949 47.4509 21.9987 47.4466 22.0034C47.4423 22.0082 47.4389 22.0137 47.4367 22.0197C47.4345 22.0257 47.4336 22.0321 47.4338 22.0385C47.4341 22.0449 47.4357 22.0512 47.4384 22.057C47.4416 22.0637 47.4462 22.0697 47.4521 22.0744C47.4738 22.0969 47.4899 22.1242 47.4992 22.154C47.5088 22.1875 47.5114 22.2226 47.5068 22.2571C47.5021 22.2943 47.4925 22.3306 47.4782 22.3653L47.4278 22.4684C47.4233 22.4775 47.4216 22.4877 47.4228 22.4978C47.424 22.5078 47.428 22.5173 47.4345 22.5251L47.4352 22.526C47.4535 22.548 47.4734 22.5681 47.491 22.5913C47.5069 22.6161 47.5245 22.6403 47.5395 22.6655C47.5687 22.7147 47.5876 22.7693 47.5951 22.826C47.5998 22.8827 47.5904 22.9396 47.568 22.9918C47.5455 23.044 47.5105 23.0899 47.4661 23.1254L47.474 23.1201L47.3788 23.1692C47.3702 23.1736 47.3638 23.1812 47.3609 23.1903C47.358 23.1994 47.3588 23.2094 47.3632 23.2179C47.3657 23.2226 47.3693 23.2268 47.3736 23.23C47.3778 23.2333 47.3828 23.2356 47.388 23.2367C47.4084 23.2423 47.4278 23.251 47.4455 23.2626C47.4643 23.275 47.4817 23.2895 47.4974 23.3056L47.4947 23.302L47.5033 23.3132L47.505 23.3155C47.5488 23.372 47.57 23.4427 47.5643 23.5139C47.564 23.5867 47.5424 23.6577 47.502 23.7182L47.5007 23.7198C47.4819 23.7453 47.454 23.7627 47.4228 23.7685L47.4322 23.7686L47.1067 23.7137L47.1059 23.7136C47.101 23.7127 47.0959 23.7139 47.0918 23.7168C47.0877 23.7197 47.085 23.7241 47.0841 23.7291L47.0839 23.7322L47.0834 24.6105Z" fill="black"/>
<path d="M46.6458 23.9834C46.6694 23.8964 46.7213 23.8196 46.7933 23.7652C46.8278 23.744 46.8684 23.7348 46.9087 23.7391C46.9522 23.7451 46.9951 23.7553 47.0367 23.7696C47.1287 23.7984 47.2226 23.8211 47.3177 23.8375C47.3694 23.8456 47.4221 23.845 47.4736 23.8359C47.5047 23.8311 47.5338 23.8176 47.5575 23.797C47.5812 23.7763 47.5986 23.7494 47.6076 23.7193L47.6059 23.7236C47.6236 23.6738 47.6344 23.6218 47.6379 23.569C47.6418 23.517 47.6371 23.4646 47.6239 23.4141C47.6116 23.3635 47.5885 23.3161 47.5561 23.2752C47.5237 23.2353 47.4851 23.2009 47.4417 23.1733L47.4399 23.2044C47.506 23.1727 47.5639 23.1264 47.6092 23.0688C47.6558 23.0084 47.6812 22.9344 47.6816 22.8582C47.6801 22.7826 47.6612 22.7083 47.6263 22.6412C47.6078 22.6098 47.5904 22.577 47.5703 22.5466L47.5047 22.4598L47.4995 22.5312C47.5565 22.4817 47.5997 22.4182 47.6249 22.3469C47.6506 22.2711 47.646 22.1884 47.612 22.116C47.5801 22.045 47.5255 21.9865 47.4569 21.9497C47.3938 21.919 47.3271 21.8966 47.2582 21.8831C47.1286 21.8506 46.996 21.8316 46.8625 21.8263C46.7276 21.8159 46.5925 21.8445 46.4734 21.9087C46.4728 21.909 46.4723 21.9095 46.4719 21.9101C46.4714 21.9107 46.4712 21.9113 46.471 21.912C46.4708 21.9127 46.4708 21.9134 46.4709 21.9141C46.4711 21.9148 46.4713 21.9155 46.4717 21.9161C46.4724 21.9172 46.4735 21.9179 46.4747 21.9183C46.4759 21.9187 46.4772 21.9187 46.4784 21.9182C46.601 21.8812 46.7308 21.874 46.8568 21.8973C46.9835 21.9162 47.1085 21.9452 47.2305 21.9841C47.2892 21.9994 47.3461 22.0208 47.4003 22.0479C47.4471 22.0746 47.4845 22.1151 47.5074 22.1638C47.528 22.2137 47.5319 22.2689 47.5188 22.3213C47.5056 22.3736 47.476 22.4204 47.4343 22.4547L47.4323 22.4566C47.423 22.4656 47.4175 22.4778 47.4169 22.4907C47.4163 22.5036 47.4206 22.5163 47.429 22.5261C47.4729 22.5754 47.5131 22.6278 47.5492 22.683C47.5822 22.7376 47.6042 22.7981 47.6139 22.8612C47.6207 22.9246 47.6057 22.9884 47.5714 23.0422C47.5352 23.0977 47.4849 23.1426 47.4256 23.1724L47.4248 23.1728C47.4207 23.175 47.4176 23.1788 47.4163 23.1833C47.4149 23.1878 47.4154 23.1927 47.4176 23.1968C47.4191 23.1995 47.4212 23.2018 47.4238 23.2034C47.465 23.2264 47.5007 23.2579 47.5287 23.2959C47.5567 23.3332 47.5749 23.3769 47.5818 23.423C47.5922 23.5151 47.5757 23.6081 47.5344 23.691L47.5339 23.6921L47.5327 23.6955C47.5104 23.7551 47.4182 23.7527 47.3303 23.7415C47.2388 23.7283 47.1481 23.7102 47.0585 23.6874C47.0103 23.6723 46.9601 23.6643 46.9096 23.6636C46.8548 23.6644 46.8018 23.6831 46.7586 23.7169C46.7215 23.7506 46.6915 23.7914 46.6702 23.8369C46.649 23.8824 46.6371 23.9316 46.6351 23.9817C46.6349 23.9831 46.6354 23.9846 46.6363 23.9857C46.6372 23.9868 46.6385 23.9875 46.6399 23.9876C46.6412 23.9877 46.6425 23.9873 46.6435 23.9865C46.6446 23.9858 46.6454 23.9847 46.6458 23.9834Z" fill="black"/>
<path d="M47.445 23.1501C47.3409 23.1128 47.2345 23.0822 47.1264 23.0586C47.0722 23.0474 47.0165 23.0419 46.9619 23.0342C46.9063 23.0303 46.8505 23.0303 46.795 23.0342C46.6831 23.0388 46.5743 23.0719 46.4787 23.1302C46.385 23.1888 46.3134 23.2767 46.275 23.3803C46.3204 23.2829 46.3969 23.2032 46.4924 23.1538C46.5867 23.1065 46.6916 23.0841 46.797 23.0888C46.8494 23.0895 46.9017 23.0939 46.9535 23.1019C47.0049 23.1138 47.0566 23.1232 47.1071 23.1381C47.208 23.1694 47.3069 23.207 47.403 23.2509L47.4053 23.2519C47.4186 23.2575 47.4335 23.2577 47.4469 23.2524C47.4603 23.2471 47.4711 23.2367 47.4768 23.2235C47.4826 23.2104 47.483 23.1954 47.4778 23.182C47.4726 23.1685 47.4624 23.1577 47.4492 23.1517L47.445 23.1501Z" fill="black"/>
<path d="M46.2759 22.5416C46.3475 22.4637 46.4401 22.4081 46.5426 22.3817C46.6434 22.3549 46.7484 22.3472 46.852 22.3589C46.9555 22.3691 47.0575 22.3905 47.1562 22.4229C47.2051 22.4412 47.2544 22.4576 47.3026 22.4772L47.4451 22.5413L47.4483 22.5428C47.4614 22.5486 47.4762 22.549 47.4896 22.5439C47.503 22.5388 47.5138 22.5287 47.5197 22.5156C47.5255 22.5026 47.526 22.4877 47.5209 22.4744C47.5159 22.461 47.5057 22.4501 47.4927 22.4442L47.4884 22.4425L47.3348 22.3885C47.283 22.3723 47.2299 22.3595 47.1778 22.3449C47.0718 22.3198 46.9634 22.3064 46.8544 22.305C46.7454 22.302 46.6368 22.3193 46.5342 22.3561C46.432 22.3917 46.3423 22.4561 46.2759 22.5416Z" fill="black"/>
<path d="M46.7666 18.5101C46.5883 18.3867 46.4019 18.2753 46.2088 18.1767C46.0186 18.0756 45.8233 17.9862 45.627 17.899C45.4291 17.8156 45.2301 17.7347 45.026 17.6655C44.8218 17.5925 44.6129 17.5333 44.4008 17.4883C44.5789 17.6119 44.7653 17.7234 44.9584 17.8219C45.1487 17.923 45.344 18.0124 45.5404 18.0993C45.7384 18.1825 45.9374 18.2634 46.1415 18.3325C46.3457 18.4055 46.5545 18.4649 46.7666 18.5101Z" fill="black"/>
<path d="M46.0176 19.4138C45.8419 19.3713 45.6632 19.343 45.483 19.3289C45.3048 19.3115 45.1266 19.3069 44.9484 19.3047C44.7702 19.3066 44.592 19.3112 44.4138 19.3286C44.2336 19.3426 44.0548 19.3711 43.8792 19.4138C44.0548 19.4565 44.2336 19.485 44.4138 19.499C44.592 19.5163 44.7702 19.521 44.9484 19.5229C45.1266 19.5207 45.3048 19.5161 45.483 19.4987C45.6632 19.4846 45.8419 19.4562 46.0176 19.4138Z" fill="black"/>
<path d="M46.0176 20.5775C45.8756 20.5696 45.7332 20.576 45.5926 20.5967C45.4544 20.6143 45.3174 20.6404 45.1824 20.6747C45.0471 20.708 44.914 20.7497 44.7839 20.7994C44.6501 20.8476 44.5216 20.9093 44.4003 20.9836C44.5423 20.9917 44.6847 20.9854 44.8254 20.9647C44.9636 20.947 45.1006 20.9209 45.2356 20.8864C45.3708 20.8528 45.5038 20.811 45.6339 20.7613C45.7677 20.713 45.8962 20.6515 46.0176 20.5775Z" fill="black"/>
<path d="M66.3895 43.1024C66.3347 43.1005 66.2828 43.0774 66.2447 43.038C66.2066 42.9985 66.1853 42.9459 66.1853 42.891C66.1853 42.8362 66.2066 42.7835 66.2447 42.7441C66.2828 42.7047 66.3347 42.6816 66.3895 42.6797C66.4443 42.6816 66.4963 42.7047 66.5344 42.7441C66.5725 42.7835 66.5938 42.8362 66.5938 42.891C66.5938 42.9459 66.5725 42.9985 66.5344 43.038C66.4963 43.0774 66.4443 43.1005 66.3895 43.1024Z" fill="black"/>
<path d="M66.1522 44.3876C66.0974 44.3857 66.0455 44.3626 66.0074 44.3231C65.9693 44.2837 65.948 44.231 65.948 44.1762C65.948 44.1214 65.9693 44.0687 66.0074 44.0293C66.0455 43.9898 66.0974 43.9667 66.1522 43.9648C66.207 43.9667 66.259 43.9898 66.2971 44.0293C66.3352 44.0687 66.3564 44.1214 66.3564 44.1762C66.3564 44.231 66.3352 44.2837 66.2971 44.3231C66.259 44.3626 66.207 44.3857 66.1522 44.3876Z" fill="black"/>
<path d="M65.4081 45.6727C65.3533 45.6708 65.3014 45.6477 65.2633 45.6083C65.2252 45.5689 65.2039 45.5162 65.2039 45.4614C65.2039 45.4065 65.2252 45.3539 65.2633 45.3144C65.3014 45.275 65.3533 45.2519 65.4081 45.25C65.4629 45.2519 65.5148 45.275 65.5529 45.3144C65.591 45.3539 65.6123 45.4065 65.6123 45.4614C65.6123 45.5162 65.591 45.5689 65.5529 45.6083C65.5148 45.6477 65.4629 45.6708 65.4081 45.6727Z" fill="black"/>
<path d="M64.3593 46.9227C64.3045 46.9208 64.2525 46.8977 64.2144 46.8583C64.1763 46.8189 64.1551 46.7662 64.1551 46.7114C64.1551 46.6565 64.1763 46.6039 64.2144 46.5644C64.2525 46.525 64.3045 46.5019 64.3593 46.5C64.4141 46.5019 64.466 46.525 64.5041 46.5644C64.5422 46.6039 64.5635 46.6565 64.5635 46.7114C64.5635 46.7662 64.5422 46.8189 64.5041 46.8583C64.466 46.8977 64.4141 46.9208 64.3593 46.9227Z" fill="black"/>
<path d="M63.3788 47.7704C63.324 47.7685 63.2721 47.7454 63.234 47.7059C63.1959 47.6665 63.1746 47.6138 63.1746 47.559C63.1746 47.5042 63.1959 47.4515 63.234 47.4121C63.2721 47.3727 63.324 47.3496 63.3788 47.3477C63.4336 47.3496 63.4855 47.3727 63.5236 47.4121C63.5617 47.4515 63.583 47.5042 63.583 47.559C63.583 47.6138 63.5617 47.6665 63.5236 47.7059C63.4855 47.7454 63.4336 47.7685 63.3788 47.7704Z" fill="black"/>
<path d="M62.3632 48.5477C62.3084 48.5458 62.2564 48.5227 62.2183 48.4833C62.1803 48.4439 62.159 48.3912 62.159 48.3364C62.159 48.2815 62.1803 48.2289 62.2183 48.1894C62.2564 48.15 62.3084 48.1269 62.3632 48.125C62.418 48.1269 62.4699 48.15 62.508 48.1894C62.5461 48.2289 62.5674 48.2815 62.5674 48.3364C62.5674 48.3912 62.5461 48.4439 62.508 48.4833C62.4699 48.5227 62.418 48.5458 62.3632 48.5477Z" fill="black"/>
<path d="M61.6874 49.868C61.6326 49.8661 61.5807 49.843 61.5426 49.8036C61.5045 49.7642 61.4832 49.7115 61.4832 49.6567C61.4832 49.6019 61.5045 49.5492 61.5426 49.5097C61.5807 49.4703 61.6326 49.4472 61.6874 49.4453C61.7422 49.4472 61.7941 49.4703 61.8322 49.5097C61.8703 49.5492 61.8916 49.6019 61.8916 49.6567C61.8916 49.7115 61.8703 49.7642 61.8322 49.8036C61.7941 49.843 61.7422 49.8661 61.6874 49.868Z" fill="black"/>
<path d="M61.1796 50.743C61.1248 50.7411 61.0729 50.718 61.0348 50.6786C60.9967 50.6392 60.9754 50.5865 60.9754 50.5317C60.9754 50.4769 60.9967 50.4242 61.0348 50.3847C61.0729 50.3453 61.1248 50.3222 61.1796 50.3203C61.2344 50.3222 61.2863 50.3453 61.3244 50.3847C61.3625 50.4242 61.3838 50.4769 61.3838 50.5317C61.3838 50.5865 61.3625 50.6392 61.3244 50.6786C61.2863 50.718 61.2344 50.7411 61.1796 50.743Z" fill="black"/>
<path d="M60.0634 51.2196C60.0086 51.2177 59.9566 51.1946 59.9185 51.1552C59.8804 51.1157 59.8591 51.0631 59.8591 51.0082C59.8591 50.9534 59.8804 50.9007 59.9185 50.8613C59.9566 50.8219 60.0086 50.7988 60.0634 50.7969C60.1182 50.7988 60.1701 50.8219 60.2082 50.8613C60.2463 50.9007 60.2676 50.9534 60.2676 51.0082C60.2676 51.0631 60.2463 51.1157 60.2082 51.1552C60.1701 51.1946 60.1182 51.2177 60.0634 51.2196Z" fill="black"/>
<path d="M58.9139 51.3876C58.8591 51.3857 58.8072 51.3626 58.7691 51.3231C58.731 51.2837 58.7097 51.231 58.7097 51.1762C58.7097 51.1214 58.731 51.0687 58.7691 51.0293C58.8072 50.9898 58.8591 50.9667 58.9139 50.9648C58.9688 50.9667 59.0207 50.9898 59.0588 51.0293C59.0969 51.0687 59.1182 51.1214 59.1182 51.1762C59.1182 51.231 59.0969 51.2837 59.0588 51.3231C59.0207 51.3626 58.9688 51.3857 58.9139 51.3876Z" fill="black"/>
<path d="M57.662 51.454C57.6072 51.4521 57.5553 51.429 57.5172 51.3895C57.4791 51.3501 57.4578 51.2974 57.4578 51.2426C57.4578 51.1878 57.4791 51.1351 57.5172 51.0957C57.5553 51.0562 57.6072 51.0331 57.662 51.0312C57.7168 51.0331 57.7687 51.0562 57.8068 51.0957C57.8449 51.1351 57.8662 51.1878 57.8662 51.2426C57.8662 51.2974 57.8449 51.3501 57.8068 51.3895C57.7687 51.429 57.7168 51.4521 57.662 51.454Z" fill="black"/>
<path d="M56.6141 51.454C56.5593 51.4521 56.5074 51.429 56.4693 51.3895C56.4312 51.3501 56.4099 51.2974 56.4099 51.2426C56.4099 51.1878 56.4312 51.1351 56.4693 51.0957C56.5074 51.0562 56.5593 51.0331 56.6141 51.0312C56.6689 51.0331 56.7209 51.0562 56.759 51.0957C56.7971 51.1351 56.8184 51.1878 56.8184 51.2426C56.8184 51.2974 56.7971 51.3501 56.759 51.3895C56.7209 51.429 56.6689 51.4521 56.6141 51.454Z" fill="black"/>
</svg>
