<svg width="78" height="60" viewBox="0 0 78 60" fill="none" xmlns="http://www.w3.org/2000/svg">
<path fill-rule="evenodd" clip-rule="evenodd" d="M20.1147 24.1973C21.0324 23.4983 23.3356 23.1841 24.315 23.857C25.282 24.5328 25.3874 25.6256 25.8381 26.631C26.2633 26.4305 26.9656 26.7178 27.089 27.1124C27.2418 27.2987 27.2487 27.8217 27.3541 28.0719C31.9422 28.8025 32.6387 32.3808 33.191 36.4433C33.9216 40.5656 35.58 44.6789 34.86 48.9208C34.9537 49.0567 35.0278 49.1886 35.0962 49.3454C35.26 49.6244 35.0489 50.0191 34.7183 50.0038C34.2907 49.9664 33.867 49.915 33.4371 49.899C32.2455 49.8576 31.0529 49.8626 29.8609 49.8777L29.6983 49.8798C23.6908 49.9546 17.6836 50.102 11.6759 50.1411C11.458 50.1414 11.3513 49.946 11.3804 49.753C11.439 49.3647 11.4933 48.9761 11.5501 48.5875C10.1292 48.9631 8.61851 49.0575 7.2016 48.627C7.10238 48.5261 7.43259 48.5808 7.48484 48.5655C6.18088 47.6741 6.5702 45.796 6.68578 44.4434C7.40409 39.8086 7.65725 34.6805 10.4325 30.7257C11.6332 29.1116 13.3933 27.8338 15.4159 27.5462L15.4722 27.5386C16.0635 27.4596 16.7227 27.4343 17.2398 27.1124C17.8214 26.6479 18.0691 25.7897 18.6809 25.7817C18.8829 25.779 19.1579 26.0348 19.4536 26.2085C19.4756 25.8265 19.6814 25.5042 19.7268 25.2081L19.7305 25.1828C19.7778 24.8376 19.7129 24.527 20.1147 24.1973ZM29.9749 36.5657C28.6855 35.6696 25.3549 36.1199 25.2787 36.1701C25.1107 36.2806 25.0384 36.2902 24.9476 36.4338C24.8581 36.4456 24.7683 36.4579 24.679 36.4707C24.4993 36.5293 24.6323 36.7503 24.8398 36.6715C24.715 37.2096 25.0822 37.5924 25.2284 38.1244C25.2757 38.2972 25.23 38.6079 25.2284 38.7843C25.2425 39.0095 25.4912 39.2754 25.4497 39.5011C25.3024 40.3038 24.5027 41.0869 24.8398 41.8653C25.0632 42.305 25.735 42.5293 26.1817 42.6786C27.1071 43.034 28.7196 42.6653 29.2573 41.8653C29.5442 41.4387 29.8763 40.3624 30.0473 40.0285L30.0853 39.499C30.1788 38.1823 30.262 36.7652 29.9749 36.5657Z" fill="white"/>
<path fill-rule="evenodd" clip-rule="evenodd" d="M18.4566 25.7043C18.5457 25.6255 18.6774 25.7245 18.6208 25.8311C18.4938 26.0706 18.3632 26.2973 18.1927 26.509C18.0893 26.6374 17.9785 26.7588 17.8662 26.8788C18.1544 27.1281 18.4014 27.4377 18.6348 27.728C18.9332 28.099 19.2154 28.4859 19.5504 28.8254C19.8808 29.1604 20.246 29.3945 20.6877 29.5506L20.7769 29.5815C21.2206 29.7374 21.6949 29.9478 21.9451 30.3681C21.9943 30.451 21.8951 30.5534 21.8115 30.5016C21.377 30.2325 20.8663 30.1783 20.3932 30.0004C19.9362 29.8287 19.5379 29.5643 19.1858 29.2267C18.8345 28.8898 18.5395 28.5065 18.2318 28.1312C17.9275 27.7602 17.5997 27.4432 17.2398 27.1293C16.6844 27.5031 16.0503 27.6659 15.4056 27.8256L15.3352 27.843C14.6895 28.003 14.0474 28.1886 13.4419 28.467C12.9079 28.7125 12.3828 29.0056 11.9479 29.4049C11.4861 29.8289 11.1269 30.3702 10.7979 30.8996C10.0623 32.0841 9.54511 33.3817 9.08964 34.6952C8.61654 36.062 8.21946 37.454 7.9002 38.8648C7.73872 39.5819 7.60416 40.3047 7.4968 41.0318C7.44461 41.3822 7.39816 41.7333 7.35747 42.0851C7.31384 42.4609 7.30381 42.8474 7.18858 43.2086C7.13932 43.3634 7.02268 43.4278 6.90587 43.4222L6.88212 43.7189C6.8508 44.1144 6.82142 44.5101 6.81157 44.908C6.79521 45.5699 6.8026 46.2298 6.85028 46.89L6.85696 46.9801C6.89426 47.4621 6.97782 48.0036 7.34005 48.3565C7.7153 48.7219 8.29216 48.837 8.79795 48.8435C9.9756 48.8588 11.1093 48.3022 12.1515 47.8138C13.2235 47.3098 14.2703 46.7536 15.2879 46.1471C15.8069 45.8386 16.32 45.5202 16.8269 45.1921C17.0755 45.0312 17.3224 44.8676 17.5675 44.7013C17.7079 44.606 17.8409 44.5016 17.9837 44.417C17.9137 44.3517 17.8826 44.2494 17.9412 44.1598C17.5281 43.8009 17.356 43.1609 17.336 42.6428C17.3198 42.2248 17.3812 41.8079 17.4298 41.3937C17.4544 41.1847 17.4846 40.9763 17.516 40.7685C17.5283 40.6863 17.538 40.5984 17.5524 40.5116C16.4375 41.1236 15.2893 41.6726 14.113 42.1562C13.51 42.4038 12.8982 42.6297 12.279 42.8335L12.1534 42.8749C11.5663 43.0671 10.9654 43.2487 10.3584 43.3585C10.326 43.3645 10.2997 43.3164 10.3343 43.3013C10.9256 43.0402 11.5376 42.82 12.1379 42.5795L12.2364 42.5394C12.2246 42.5386 12.2128 42.5369 12.2012 42.5343C11.849 42.4493 11.4998 42.3182 11.1545 42.2079C10.8341 42.1055 10.474 42.0413 10.1746 41.8868C10.1514 41.8749 10.1644 41.8429 10.1869 41.8413C10.5234 41.8179 10.8888 41.9161 11.219 41.9739L11.3431 41.9956C11.5507 42.0322 11.763 42.0716 11.9697 42.1229C11.9773 42.0538 12.016 41.9841 12.0711 41.9433C12.6768 41.4945 12.6152 40.5883 12.6799 39.92L12.728 39.4237C12.8124 38.5553 12.902 37.687 13.0376 36.8251C13.045 36.7792 13.1162 36.7924 13.1164 36.8358C13.1234 37.9042 13.0429 38.9677 13.0024 40.0343L12.9962 40.2094C12.9739 40.8677 12.9563 41.5512 12.5418 42.0577C12.5999 42.0237 12.6782 42.0237 12.7251 42.0797C12.7829 42.1483 12.8161 42.2253 12.815 42.301C13.1895 42.1439 13.5623 41.9831 13.9334 41.8184C15.1262 41.2898 16.294 40.6981 17.4308 40.0581C17.5533 39.9891 17.6695 40.0433 17.7301 40.1341L17.7389 40.1329L17.7433 40.1325L17.7519 40.1322H17.7529C17.913 40.0442 18.131 40.1068 18.2682 40.2351C18.2723 40.239 18.2758 40.2432 18.2795 40.2472C18.4563 40.1677 18.6195 40.0607 18.7629 39.9302C19.0645 39.6568 19.3199 39.3189 19.5425 38.9798C19.9525 38.3555 20.3007 37.6613 20.8545 37.1474C21.3045 36.7299 21.8624 36.4699 22.4477 36.3068C22.4466 36.2982 22.4475 36.2895 22.4502 36.2813C22.453 36.2731 22.4575 36.2656 22.4635 36.2593C22.4936 36.2285 22.5151 36.2178 22.5539 36.2366C22.5566 36.2378 22.5588 36.2398 22.5601 36.2424L22.6173 36.1448C22.6484 36.0918 22.6804 36.0384 22.6915 36.0245C22.758 35.9407 22.8265 35.8577 22.8958 35.7764C23.0135 35.6387 23.1477 35.5028 23.303 35.4073C23.6431 35.1983 24.0006 35.3165 24.3502 35.4309C24.5614 35.4999 24.772 35.5711 24.983 35.6413L25.0046 35.6483C25.1619 35.6988 25.3459 35.7432 25.4163 35.9098C25.4441 35.9757 25.4485 36.0442 25.4354 36.1105C26.9291 35.7307 28.5879 35.9052 30.0452 36.3512C30.1012 36.3684 30.1571 36.4143 30.1689 36.4748C30.3359 37.3316 30.4103 38.2102 30.3346 39.0814C30.2695 39.8336 30.1029 40.5706 29.7889 41.2591L29.7711 41.298C29.4761 41.9361 29.0085 42.7228 28.2944 42.9229C27.8632 43.0436 27.3863 42.9725 26.9466 42.9503C26.5191 42.9287 26.0823 42.9257 25.659 42.8585C25.282 42.7985 24.9516 42.6294 24.7187 42.3228C24.5176 42.0582 24.4117 41.7384 24.325 41.4203C24.2854 41.433 24.246 41.4465 24.2071 41.4616C24.0433 41.5257 23.9045 41.6289 23.7791 41.7505C23.5142 42.0072 23.3085 42.3189 23.0314 42.5638C22.7804 42.7857 22.4945 42.9581 22.1877 43.0907C21.5521 43.3655 20.8702 43.4753 20.198 43.6208L20.151 43.631C19.6448 43.7422 19.1281 43.8785 18.6815 44.1422C18.6727 44.2198 18.6373 44.2928 18.5807 44.3407C18.6595 44.4147 18.6929 44.5319 18.6236 44.6418C18.4302 44.949 18.097 45.1237 17.798 45.32L17.7786 45.3329C16.8872 45.9263 15.9699 46.4798 15.0294 46.9917C14.0166 47.5453 12.982 48.0675 11.9286 48.5411C11.9919 48.8523 11.9688 49.173 12.0163 49.4863L12.0236 49.531C12.0438 49.6473 12.0165 49.7444 11.9365 49.8204L11.928 49.8281V49.8271L11.9206 49.8341L11.918 49.8362L11.9189 49.8355C11.9099 49.8439 11.9004 49.8516 11.8904 49.8586L11.8781 49.8665C11.801 49.9133 11.7018 49.9128 11.623 49.8714L11.6138 49.8665L11.5987 49.8579C11.4944 49.7977 11.4224 49.6491 11.4657 49.531C11.572 49.2407 11.6122 48.9307 11.7104 48.6385L11.6325 48.6734L11.5297 48.7182C10.4193 49.1985 9.18587 49.6031 7.97585 49.2756C7.44121 49.131 6.94141 48.8247 6.674 48.3257C6.41081 47.8347 6.37369 47.2646 6.35962 46.7183C6.34246 46.0408 6.37852 45.3631 6.46746 44.6913C6.5271 44.2427 6.59923 43.7856 6.71042 43.3416C6.64868 43.2867 6.6094 43.211 6.60011 43.1289C6.54751 42.7047 6.63952 42.2639 6.69564 41.8422C6.7507 41.4301 6.8114 41.019 6.88018 40.6093C7.01813 39.7808 7.18064 38.9567 7.3675 38.1379C7.70141 36.6821 8.1421 35.2523 8.67287 33.8565L8.71931 33.735C9.20979 32.4593 9.77768 31.211 10.5683 30.0903C10.9465 29.5541 11.3466 29.068 11.8811 28.6815C12.3817 28.3196 12.9465 28.0589 13.5295 27.8597C14.1128 27.6604 14.7126 27.5267 15.3229 27.4437C15.9428 27.3592 16.5971 27.3075 17.1754 27.0531C17.1022 26.9221 17.1648 26.7449 17.288 26.6635C17.7023 26.3897 18.0853 26.0335 18.4566 25.7043ZM31.7181 37.6108C31.7355 37.5844 31.7767 37.6011 31.7691 37.6323C31.5677 38.4581 31.3786 39.2856 31.2551 40.1271C31.032 41.646 31.073 43.1847 31.0913 44.7149L31.0922 44.7938C31.1015 45.6181 31.1145 46.4423 31.1418 47.2661C31.1555 47.6826 31.1828 48.103 31.168 48.5196C31.1599 48.7457 31.0997 48.9594 31.0784 49.1827C31.0596 49.378 31.0763 49.576 31.0857 49.7717C31.0918 49.9017 30.9001 49.8961 30.887 49.7717L30.8703 49.6107C30.8487 49.407 30.8219 49.2045 30.7553 49.0096C30.6749 48.7751 30.6365 48.5448 30.6085 48.2985C30.566 47.9211 30.547 47.5401 30.5306 47.1602L30.5194 46.8974C30.4506 45.3095 30.453 43.7142 30.5642 42.128L30.5723 42.0147C30.6826 40.5155 30.8737 38.8954 31.7181 37.6108ZM27.4232 28.1611C27.3706 28.1395 27.3891 28.06 27.4473 28.0739L27.5534 28.099C28.3299 28.2851 29.0924 28.4867 29.8174 28.833C30.5426 29.1795 31.1567 29.6968 31.6447 30.3327C32.5932 31.5691 32.9874 33.0717 33.2985 34.5727C33.6443 36.2409 33.9592 37.915 34.3079 39.5824L34.3728 39.8931C34.6955 41.4462 35.0002 43.0001 35.2248 44.5715L35.2408 44.6855C35.4673 46.3015 35.6036 47.9734 35.3564 49.5936C35.3075 49.9142 34.7745 49.8343 34.7952 49.5176C34.8554 48.6021 34.8985 47.6913 34.857 46.7739C34.8149 45.8566 34.7294 44.9418 34.6008 44.0326C34.493 43.267 34.332 42.5109 34.1897 41.7514L34.1673 41.6314C34.0481 40.9854 33.9251 40.3401 33.8025 39.6948L33.6192 38.7285C33.3445 37.2816 33.0645 35.8334 32.748 34.3957L32.7292 34.3111C32.4195 32.9278 31.9628 31.4789 31.0339 30.3804C30.0911 29.2657 28.7416 28.7044 27.4232 28.1611ZM23.9976 42.8332C24.0203 42.7825 24.0996 42.7881 24.1241 42.8332C24.2196 43.0094 24.2302 43.2344 24.2483 43.4336L24.2502 43.454C24.274 43.697 24.2926 43.9406 24.3058 44.1844C24.3296 44.6469 24.3408 45.1088 24.3394 45.572C24.3392 46.0464 24.327 46.5207 24.3028 46.9945L24.2958 47.1214C24.2724 47.5332 24.2333 47.9925 24.0377 48.3527C23.9666 48.4835 23.7733 48.445 23.7321 48.3127C23.5972 47.8792 23.6663 47.3654 23.701 46.9215L23.7279 46.5751C23.7545 46.2287 23.7798 45.8823 23.8 45.5354C23.8275 45.0609 23.8503 44.5861 23.8722 44.1114C23.8794 43.9571 23.8869 43.803 23.8952 43.6487L23.9077 43.4176C23.9183 43.2241 23.9174 43.0119 23.9976 42.8332ZM8.82786 43.4473L8.88767 43.3896C9.07099 43.2102 9.30268 42.9336 9.57379 42.9508C9.6818 42.9577 9.75059 43.0474 9.72825 43.1539C9.6804 43.3812 9.44853 43.4992 9.2814 43.638C9.09861 43.79 8.92638 43.9526 8.75432 44.1167C8.6022 44.262 8.45458 44.4119 8.31169 44.5662L8.25821 44.6243C8.20684 44.6802 7.84127 45.0111 7.88067 45.097L7.88296 45.1008C7.89387 45.1172 7.87557 45.1397 7.85728 45.1341C7.69947 45.0841 7.70932 44.9488 7.76896 44.8116C7.88366 44.5481 8.08457 44.3042 8.25979 44.0792C8.43441 43.8558 8.62421 43.6447 8.82786 43.4473ZM24.5699 36.8381C24.4478 36.5494 23.9979 36.5554 23.7427 36.5728C23.0997 36.6163 22.4039 36.779 21.8318 37.0797C21.2387 37.3912 20.839 37.8907 20.4815 38.4429L20.4648 38.469C20.1165 39.0108 19.7808 39.6522 19.2353 40.0247C18.9573 40.2145 18.6329 40.388 18.2957 40.4629C18.2842 40.4839 18.2686 40.5022 18.2497 40.5168C18.2308 40.5313 18.2091 40.5418 18.1859 40.5475L18.163 40.5528C18.067 40.5741 17.9178 40.5975 17.7888 40.5834C17.7897 40.6466 17.789 40.7092 17.7906 40.7688C17.7952 40.9402 17.7971 41.1121 17.7971 41.2834C17.7973 41.6423 17.7779 42.0021 17.7929 42.361C17.8061 42.6785 17.8509 43.0103 18.0033 43.2941C18.1152 43.5024 18.2626 43.6401 18.4406 43.7717C18.8787 43.5047 19.3741 43.3418 19.8769 43.2193C20.4849 43.0714 21.1073 42.9727 21.7014 42.7719C21.9875 42.6752 22.2624 42.5489 22.5116 42.377C22.7758 42.1947 22.9778 41.9479 23.1855 41.7065L23.2181 41.6691C23.4301 41.4257 23.6614 41.193 23.961 41.0611C24.2191 40.9476 24.5593 40.9273 24.7849 40.7514C24.9029 40.6594 24.9128 40.5261 24.9251 40.3894C24.7806 40.41 24.6278 40.3769 24.4837 40.36L24.4091 40.3512C24.2729 40.335 24.1397 40.3172 24.0057 40.2826C23.9809 40.2761 23.9809 40.2386 24.0057 40.2321C24.1642 40.1913 24.3211 40.1739 24.4837 40.1547L24.5219 40.1499C24.6688 40.1308 24.8232 40.1016 24.9675 40.1339C24.9937 40.0339 25.0325 39.9376 25.0831 39.8473C25.1566 39.715 25.2958 39.5652 25.3146 39.4107C25.3195 39.3619 25.3102 39.3128 25.2877 39.2692L25.2803 39.2553C25.272 39.2383 25.2597 39.2235 25.2444 39.2122C25.2426 39.2144 25.2389 39.2166 25.2308 39.2191C25.12 39.2541 25.0232 39.1998 24.9719 39.116C24.7537 39.1431 24.5157 39.134 24.3113 39.1431L24.1046 39.1531C23.8836 39.1632 23.6526 39.1676 23.445 39.1231C23.416 39.1167 23.4072 39.0685 23.4362 39.056C23.6915 38.947 24.0011 38.9121 24.2743 38.8701C24.427 38.8467 24.5806 38.8287 24.7337 38.8081C24.8357 38.7944 24.9439 38.7717 25.0495 38.7663C25.3142 38.4366 25.1716 37.9164 24.803 37.7744C24.6689 37.8335 24.5482 37.7992 24.4015 37.7865C24.2552 37.7731 24.1084 37.7663 23.9615 37.7661C23.667 37.7674 23.3549 37.845 23.0633 37.8115C23.0159 37.8061 22.9718 37.7429 23.0189 37.7044C23.2422 37.5221 23.5622 37.4628 23.8454 37.424L23.9042 37.416C23.9992 37.4036 24.1148 37.3854 24.2346 37.3747C24.2617 37.3217 24.3102 37.2818 24.3832 37.2718C24.405 37.2688 24.4269 37.2672 24.4487 37.2653L24.4483 37.2632C24.6264 37.2545 24.6186 36.9535 24.5699 36.8381ZM12.3765 42.4685C12.3733 42.4733 12.3698 42.4779 12.3661 42.4824L12.3605 42.4889L12.3897 42.4771L12.3765 42.4685ZM27.6778 36.193C26.9282 36.1124 26.1775 36.1295 25.4256 36.1511C25.3654 36.3478 25.1561 36.5155 24.9532 36.5218C25.1121 36.7637 25.1285 37.0911 25.0171 37.3476C25.2535 37.4417 25.4573 37.611 25.5811 37.852C25.7526 38.1859 25.7301 38.5576 25.5605 38.8662C25.7053 38.9973 25.7906 39.2101 25.7822 39.4107C25.7725 39.6343 25.6393 39.8253 25.5285 40.0106C25.4089 40.2108 25.405 40.3871 25.3682 40.6114C25.3144 40.9397 25.0931 41.1386 24.8084 41.263L24.8236 41.3227C24.8969 41.6085 24.9882 41.9101 25.1981 42.1191C25.468 42.3881 25.8867 42.3856 26.2433 42.4025L26.2605 42.4034C26.5871 42.4197 26.9134 42.4389 27.2399 42.4574L27.4846 42.4711C27.8606 42.4917 28.2214 42.4941 28.5282 42.2457C29.0293 41.8399 29.3725 41.1685 29.5899 40.5741C30.0461 39.3264 30.0516 37.9572 29.8422 36.6576C29.1399 36.4312 28.4112 36.2718 27.6778 36.193ZM21.4435 38.2631L21.449 38.2635C21.6032 38.2811 21.7093 38.4062 21.7472 38.5545C21.8019 38.77 21.7751 38.9649 21.9071 39.1595C22.0429 39.3597 22.1263 39.5199 22.146 39.7671C22.1541 39.8688 22.1504 39.9703 22.1731 40.0699L22.1894 40.1396C22.2068 40.214 22.2211 40.2856 22.2125 40.3654C22.2046 40.4383 22.169 40.4951 22.096 40.5185C21.8582 40.5947 21.6743 40.4191 21.6129 40.1973C21.5598 40.0057 21.6307 39.7773 21.5557 39.5973C21.5142 39.4976 21.4377 39.4142 21.3944 39.3138C21.3528 39.2148 21.3287 39.1093 21.3232 39.002C21.3102 38.7974 21.491 38.5515 21.39 38.366C21.3686 38.3265 21.3928 38.2619 21.4435 38.2631ZM18.2823 36.1511C18.4434 36.1184 18.6262 36.0433 18.7851 36.1057C18.8669 36.1379 18.9072 36.2375 18.8382 36.3068C18.7184 36.427 18.5442 36.4337 18.3827 36.462L18.3685 36.4645C18.1776 36.4998 17.9866 36.5334 17.795 36.5651C17.4349 36.6247 17.0737 36.6775 16.7115 36.7224C16.3393 36.7693 15.9663 36.8086 15.5926 36.8404L15.448 36.8522C15.1322 36.8775 14.8037 36.8965 14.4941 36.8482C14.449 36.8411 14.4563 36.7755 14.4941 36.7641C14.8334 36.6613 15.2055 36.6339 15.5563 36.5902C15.9293 36.544 16.3015 36.4951 16.6729 36.4372C17.0438 36.3796 17.4138 36.3166 17.7828 36.2482C17.9496 36.2173 18.116 36.1849 18.2823 36.1511ZM24.0972 35.8213C23.9557 35.7711 23.8002 35.6971 23.647 35.7219C23.3827 35.7646 23.1475 36.0222 22.9383 36.1918L23.0434 36.1714C23.5808 36.0681 24.2924 35.9567 24.7435 36.2986C24.7448 36.2966 24.7456 36.2947 24.747 36.2928C24.7835 36.2373 24.8255 36.1942 24.8716 36.1469L24.8844 36.1341L24.9092 36.1077L24.8524 36.088C24.7307 36.0449 24.5866 35.9893 24.5637 35.9812L24.5621 35.9807C24.407 35.9281 24.2516 35.876 24.0972 35.8213ZM19.6816 24.5523C19.6596 24.2679 20.1022 24.2702 20.1242 24.5523C20.1721 25.1684 20.0335 25.7787 19.7351 26.319C19.733 26.3229 19.7305 26.3264 19.7282 26.3301C19.9143 26.4281 20.1038 26.5194 20.2965 26.6036C20.5431 26.711 20.7947 26.8064 21.0505 26.8895C21.282 26.9641 21.5672 26.9935 21.7618 27.1485C22.172 27.4755 22.0179 28.1539 21.9389 28.5937L21.9266 28.663C21.8874 28.8893 21.8589 29.1215 21.9542 29.3388C22.0561 29.5706 22.2621 29.7427 22.4458 29.9088L22.4829 29.9424C22.6456 30.0907 22.8316 30.271 22.951 30.4721C23.0599 30.2467 23.2086 30.0625 23.3657 29.8551C23.4777 29.7071 23.3979 29.6582 23.3175 29.5138C23.2399 29.3746 23.2021 29.2263 23.2263 29.0675C23.271 28.7744 23.5052 28.5627 23.7383 28.4035C24.0136 28.2158 24.321 28.0767 24.6054 27.902C25.1902 27.5429 25.7598 27.1325 26.2728 26.6766C26.2871 26.6642 26.3116 26.6807 26.3003 26.6978C25.895 27.3146 25.4196 27.8474 24.8355 28.2999C24.5987 28.4832 24.35 28.6354 24.0995 28.7953L24.0275 28.8416C23.9269 28.9067 23.8014 28.9939 23.7561 29.1048C23.7103 29.2163 23.8078 29.3006 23.8604 29.3931C24.0272 29.6866 23.9466 29.9605 23.749 30.2094L23.7397 30.2208C23.5432 30.4631 23.3944 30.6883 23.3231 30.9977C23.1702 31.6626 23.3833 32.3548 23.6063 32.9788L23.6151 33.0035C23.7358 33.3398 23.8641 33.6737 23.9689 34.0154L23.9978 34.1099C24.0928 34.4244 24.1707 34.7344 24.0641 35.0578C24.0279 35.1677 23.878 35.1937 23.8157 35.0901C23.596 34.7253 23.5412 34.2861 23.4037 33.885C23.2694 33.494 23.1153 33.1101 22.9858 32.7174C22.8189 32.212 22.7072 31.6678 22.7679 31.1376C22.7661 31.1344 22.764 31.1316 22.7626 31.1283L22.7202 31.0354C22.6043 30.7836 22.4924 30.5639 22.2818 30.3632C22.0621 30.1538 21.8235 29.9686 21.6506 29.7152C21.275 29.1649 21.5074 28.5527 21.5526 27.9511L21.5579 27.8772C21.5661 27.7523 21.5705 27.5825 21.4891 27.4959C21.3972 27.3986 21.1821 27.3738 21.0603 27.3307C20.7456 27.2194 20.4356 27.0895 20.1402 26.9337C19.8591 26.7854 19.5868 26.6214 19.3333 26.4295L19.2047 26.3327C19.0018 26.1797 18.7916 26.0125 18.6558 25.8041C18.6401 25.7801 18.6667 25.7414 18.6952 25.7529C18.922 25.845 19.1292 25.9916 19.3415 26.119C19.3449 26.1112 19.3486 26.1033 19.353 26.0956C19.6156 25.62 19.7237 25.0931 19.6816 24.5523ZM26.9287 27.8101C27.0191 27.5621 27.4311 27.5813 27.4146 27.8759C27.4021 28.1023 27.3061 28.3066 27.2181 28.5121L27.2088 28.5341C27.1192 28.7466 27.012 28.9511 26.8881 29.1456C26.6486 29.5207 26.368 29.8688 26.0684 30.1975C25.7968 30.4953 25.4404 30.6776 25.0296 30.6473C24.8565 30.6344 24.6816 30.5905 24.53 30.5039C24.3498 30.4012 24.1542 30.0926 23.9244 30.1674C23.9021 30.1746 23.8813 30.142 23.9007 30.1266C24.166 29.9128 24.4671 30.2442 24.7212 30.3241C25.104 30.4445 25.4968 30.3115 25.7431 30.0018C26.0003 29.6786 26.2371 29.3168 26.4533 28.9647C26.5637 28.786 26.6627 28.6006 26.7498 28.4095C26.8372 28.2165 26.8569 28.0068 26.9287 27.8101ZM26.3117 26.2842C26.3005 26.2498 26.343 26.2173 26.3731 26.2368C26.5475 26.3503 26.6986 26.5004 26.8594 26.632C27.0378 26.7778 27.2176 26.9208 27.4 27.0616C27.6662 27.2667 27.3576 27.6444 27.1233 27.4203C26.8027 27.1136 26.4518 26.7127 26.3117 26.2842ZM25.3545 25.0838C25.4252 24.8106 25.8441 24.9234 25.7831 25.1934L25.7811 25.2015C25.6656 25.6477 25.8302 26.1017 26.1817 26.3909L26.1947 26.4015C26.4171 26.5795 26.102 26.8907 25.8818 26.7145C25.401 26.3295 25.2011 25.6756 25.3545 25.0838Z" fill="black"/>
<path fill-rule="evenodd" clip-rule="evenodd" d="M23.5 10.9247C29.0941 11.1018 29.4315 13.7601 29.4315 18.218C29.4315 22.6758 26.5295 25.485 25.4609 25.9755C24.3923 26.4662 21.5787 28.573 19.0394 27.6021C16.5003 26.6312 17.2356 22.5291 17.2356 20.7665C17.2356 19.0041 17.9057 10.7475 23.5 10.9247Z" fill="white"/>
<path fill-rule="evenodd" clip-rule="evenodd" d="M25.7703 24.5083C24.7431 25.082 23.5667 25.1044 22.4617 24.7434C21.799 24.5273 21.1913 24.1934 20.6227 23.7941C20.128 23.4464 19.6865 23.0608 19.2489 22.6514C18.8888 21.857 18.5681 21.0639 18.4179 20.1994C18.2833 19.4234 18.2655 18.6176 18.4216 17.843C19.5752 16.8922 20.7245 15.936 21.8694 14.9746C22.4519 14.4844 23.0387 13.9994 23.6299 13.5196C23.9305 13.2763 24.2284 13.0295 24.528 12.7852L24.6759 12.6648C25.2943 13.1177 25.9574 13.5058 26.5713 13.9661C26.8937 14.2078 27.2046 14.4642 27.5032 14.7346C27.6593 14.8765 27.8117 15.0224 27.9603 15.1723C28.0963 15.3092 28.2275 15.5055 28.4205 15.5572C28.4469 15.5643 28.4717 15.5657 28.4951 15.5625C28.753 17.8214 28.9363 20.261 27.8313 22.3128C27.3493 23.2077 26.6658 24.0078 25.7703 24.5083ZM19.0873 25.3387C18.9458 25.209 19.1568 24.9992 19.2975 25.1283C20.1824 25.9391 21.3391 26.3689 22.5074 26.5677C22.696 26.5999 22.6156 26.8865 22.4285 26.8547C21.2086 26.6469 20.0096 26.1837 19.0873 25.3387ZM18.0257 26.5827C17.8568 26.4921 18.0071 26.2354 18.1758 26.3258C18.8651 26.6956 19.6212 26.8877 20.3881 27.0176C20.5767 27.0494 20.4963 27.336 20.3091 27.3043C19.516 27.1703 18.7381 26.9648 18.0257 26.5827ZM20.8312 14.0515C21.4032 13.5378 22.0178 13.0492 22.6672 12.637C23.3243 12.2197 24.042 11.9703 24.8177 11.9643C24.7635 12.0077 24.7118 12.0561 24.6594 12.101C24.513 12.2264 24.367 12.3526 24.2208 12.4782C23.9288 12.7297 23.6358 12.9813 23.3473 13.2369C22.7794 13.7411 22.2098 14.2427 21.6429 14.7481C20.5537 15.718 19.4873 16.7131 18.4446 17.7327C18.4502 17.7077 18.4562 17.6828 18.462 17.658C18.8074 16.2154 19.7466 15.025 20.8312 14.0515ZM25.315 12.0271C25.3187 12.016 25.3214 12.0051 25.323 11.9947C26.8115 12.1888 28.0547 13.2846 28.4657 14.7272C28.43 14.777 28.4103 14.8363 28.4179 14.8991L28.4289 14.9941C28.3781 14.9436 28.3257 14.8964 28.281 14.8516C28.1327 14.7013 27.9805 14.555 27.8246 14.4126C27.5066 14.122 27.1727 13.8492 26.8245 13.5955C26.2168 13.1537 25.5589 12.7475 24.8344 12.5357C24.8821 12.4966 24.9296 12.4576 24.9776 12.4191C25.1206 12.3026 25.2535 12.2067 25.315 12.0271ZM27.9838 10.4844C27.0697 9.48532 25.8043 8.75364 24.4715 8.49925C23.1988 8.25612 21.8811 8.41639 20.6789 8.88893C18.163 9.87798 16.1778 12.0528 15.2482 14.5731C14.7064 16.0412 14.5287 17.6509 14.6916 19.205C14.8534 20.7521 15.3193 22.3499 16.1667 23.6662C16.2445 23.7867 16.3295 23.9023 16.4186 24.0142C16.3789 24.4686 16.2272 24.914 15.9887 25.3014C15.9758 25.3222 15.9623 25.3426 15.9489 25.363C15.7046 25.5459 15.4511 25.7178 15.2037 25.8952C14.9892 26.0487 14.7771 26.2064 14.5755 26.3765C14.3851 26.5373 14.1642 26.7162 14.0354 26.9329C13.9296 27.1106 13.8865 27.3522 14.0306 27.5214C14.2043 27.7255 14.4986 27.6535 14.734 27.6535C14.754 27.6535 14.7741 27.6541 14.7943 27.6542C14.8649 27.6987 14.9377 27.7389 15.0082 27.7762C15.7207 28.154 16.4357 28.5277 17.1516 28.8996C18.5774 29.6406 19.9972 30.4114 21.4522 31.0936C22.1266 31.4101 22.8484 31.6866 23.6035 31.6856C24.3119 31.6845 24.9523 31.403 25.5054 30.975C26.1357 30.4875 26.6628 29.8684 27.1742 29.2617C27.3786 29.019 27.579 28.7731 27.7755 28.524C28.1533 28.3979 28.5278 28.3611 28.8645 28.6042C29.1348 28.7995 29.4908 28.534 29.4972 28.241C29.4995 28.1382 29.4951 28.0354 29.4838 27.9333C29.4162 27.3085 29.1106 26.7433 28.7665 26.2192C28.5771 25.933 28.3819 25.6505 28.1811 25.3721C28.1342 25.3066 28.0883 25.2404 28.0435 25.1735C28.8438 23.9948 29.4787 22.6879 29.8689 21.3221C30.2788 19.8852 30.4183 18.3949 30.3268 16.9057C30.1863 14.6236 29.5605 12.2081 27.9838 10.4844Z" fill="black"/>
<path fill-rule="evenodd" clip-rule="evenodd" d="M25.1844 22.8879C24.9323 22.785 24.7126 22.616 24.5486 22.3987C24.5235 22.3668 24.5052 22.3301 24.495 22.2908C24.4847 22.2516 24.4828 22.2106 24.4891 22.1705C24.5025 22.0884 24.5511 22.0141 24.6172 21.9642C24.6835 21.9142 24.7666 21.8896 24.8468 21.902C24.9166 21.913 24.9859 21.9511 25.041 22.0305L25.0524 22.0463C25.1481 22.1772 25.274 22.2829 25.4194 22.3544C25.5602 22.4235 25.7177 22.4512 25.8737 22.4342C26.1794 22.3997 26.39 22.2344 26.614 22.0097C26.6418 21.9814 26.6696 21.9522 26.6974 21.9225C26.7137 21.8973 26.7381 21.8785 26.7667 21.8692C26.7976 21.8594 26.8309 21.8598 26.8616 21.8703C26.8923 21.8808 26.9188 21.9009 26.9373 21.9276C26.9544 21.9527 26.9642 21.9839 26.9611 22.0197C26.9405 22.2525 26.8189 22.4601 26.6462 22.6232C26.4542 22.8044 26.1998 22.9296 25.9604 22.9736C25.6967 23.022 25.4279 22.9873 25.1844 22.8879ZM26.085 19.2976C26.3656 19.4685 26.7932 19.8664 26.4913 20.2895C26.1358 20.6625 25.6242 20.2348 25.3721 20.0413C25.1383 19.8914 24.8755 20.277 25.0924 20.4521C26.9146 21.8016 27.654 19.3423 26.2269 19.0971C26.0696 19.07 26.0114 19.2449 26.085 19.2976ZM22.8198 17.7279C22.8507 17.3428 23.4369 17.2553 23.4953 17.6364C23.5474 17.9777 23.486 18.2913 23.3322 18.5987C23.1855 18.8921 22.8164 18.7553 22.7885 18.4879C22.751 18.1295 22.8004 17.9675 22.8198 17.7279ZM27.2821 17.5574C27.3639 17.4502 27.482 17.3772 27.6233 17.4184C28.065 17.5477 27.9348 18.1751 27.7796 18.4805C27.6954 18.6462 27.4229 18.6882 27.2997 18.5422C27.0992 18.3042 27.0029 17.8287 27.2582 17.594C27.2651 17.582 27.2728 17.5697 27.2821 17.5574ZM23.3261 16.043L23.3959 16.0307C23.6118 15.9934 23.8801 15.9575 24.0328 16.131C24.1139 16.2232 24.1417 16.3943 24.0328 16.4825C23.8414 16.6373 23.6296 16.5775 23.4001 16.5905C23.2129 16.6012 23.0274 16.6328 22.8472 16.6848C22.4475 16.7991 22.1219 17.0076 21.7806 17.2367C21.7359 17.2666 21.6902 17.2094 21.7114 17.1675C21.9085 16.7814 22.2902 16.4644 22.6727 16.271C22.8769 16.1677 23.1002 16.0822 23.3261 16.043ZM26.8794 15.8701L26.9329 15.881C27.5142 16.0024 28.2693 16.2452 28.5444 16.8164C28.555 16.8971 28.5439 16.9144 28.5349 16.9256L28.5319 16.9295C28.5243 16.9392 28.5185 16.9524 28.4835 16.9635C28.4737 16.9611 28.4638 16.9586 28.454 16.9561C28.3278 16.923 28.2281 16.8774 28.1315 16.8301L28.0266 16.7786C27.9051 16.7187 27.7825 16.6614 27.6525 16.619C27.3753 16.5282 27.0899 16.4651 26.8003 16.4308C26.7385 16.4246 26.6795 16.4021 26.6293 16.3657C26.5814 16.3297 26.5476 16.2783 26.5336 16.2202C26.5132 16.138 26.5191 16.0759 26.5631 16.0017C26.5962 15.9461 26.6437 15.9075 26.6981 15.8854C26.7557 15.8626 26.8188 15.8573 26.8794 15.8701Z" fill="black"/>
<path fill-rule="evenodd" clip-rule="evenodd" d="M29.4112 19.5213C28.96 19.9878 28.2067 20.1215 27.6064 19.8714C26.0648 19.2271 26.8193 17.2175 28.0082 16.6778C28.1567 16.6409 28.3552 16.5529 28.536 16.533C28.5524 16.5249 28.5879 16.5481 28.631 16.5261C29.942 16.6725 30.2405 18.7083 29.4112 19.5213ZM24.439 19.6407C23.9329 20.3123 22.992 20.5195 22.2233 20.2072C20.7045 19.6089 21.2432 17.8269 22.2824 17.1282C24.4772 16.3031 25.3838 18.4026 24.439 19.6407ZM21.1468 18.1528L21.1425 18.1512L21.1666 18.1404L21.1585 18.1607C21.1547 18.158 21.1512 18.1549 21.1468 18.1528ZM30.4561 17.4269C30.3322 17.4271 30.1531 17.4475 30.0505 17.5335C29.7976 16.6801 28.8639 15.8904 28.0519 16.4662C27.4124 16.672 26.9379 17.1282 26.6682 17.7346C26.1819 17.4454 25.4174 17.5689 24.9957 17.9515C24.7195 17.0388 24.0399 16.7191 23.231 16.6718C22.348 16.5272 21.468 17.385 21.1934 18.0732C20.965 18.0472 20.6239 17.9745 20.4091 18.1155C19.0151 17.7497 16.5778 17.5481 16.2944 17.7513C16.0924 17.8287 15.9816 18.3058 16.2638 18.3315C16.5095 18.2965 16.2349 17.9821 16.4828 17.9476C17.8031 17.8658 19.0847 18.1318 20.3912 18.2435C20.5078 18.4005 20.8846 18.4529 21.0857 18.3899C20.769 19.5572 21.4525 20.3515 22.4766 20.5893C24.0626 20.9537 25.4422 19.5345 25.0275 18.0585C25.508 17.8192 26.0605 17.8298 26.5838 17.9555C25.7092 21.1752 30.8925 21.0307 30.0831 17.6438C30.6218 17.9119 30.7388 17.4809 30.4561 17.4269Z" fill="black"/>
<path fill-rule="evenodd" clip-rule="evenodd" d="M57.116 25.0348C56.1662 24.3113 53.7822 23.9861 52.7684 24.6826C51.7674 25.382 51.6583 26.5132 51.1918 27.5539C50.7517 27.3463 50.0247 27.6437 49.8971 28.0522C49.7388 28.245 49.7317 28.7864 49.6227 29.0453C44.8735 29.8016 44.1526 33.5055 43.581 37.7105C42.8247 41.9774 41.1081 46.2351 41.8534 50.6258C41.7564 50.7664 41.6797 50.903 41.6089 51.0653C41.4393 51.3541 41.6578 51.7627 42 51.7468C42.4427 51.7081 42.8812 51.6549 43.3262 51.6383C44.5596 51.5955 45.794 51.6006 47.0279 51.6163L47.1962 51.6185C53.4145 51.6959 59.6324 51.8485 65.8509 51.8889C66.0766 51.8892 66.1869 51.6869 66.1569 51.4872C66.0962 51.0853 66.04 50.683 65.9811 50.2808C67.4519 50.6695 69.0156 50.7673 70.4823 50.3217C70.585 50.2172 70.2432 50.2738 70.1891 50.258C71.5388 49.3353 71.1358 47.3914 71.0162 45.9913C70.2727 41.1939 70.0106 35.8859 67.138 31.7923C65.8952 30.1215 64.0733 28.7989 61.9797 28.5012L61.9214 28.4934C61.3094 28.4116 60.6271 28.3854 60.0919 28.0522C59.4899 27.5714 59.2335 26.6831 58.6001 26.6748C58.3911 26.672 58.1065 26.9368 57.8004 27.1165C57.7776 26.7212 57.5645 26.3876 57.5176 26.0811L57.5137 26.0549C57.4647 25.6976 57.5319 25.376 57.116 25.0348ZM46.9099 37.8372C48.2445 36.9096 51.692 37.3758 51.7709 37.4277C51.9448 37.5421 52.0196 37.5521 52.1136 37.7007C52.2063 37.7129 52.2991 37.7256 52.3917 37.7389C52.5776 37.7995 52.4399 38.0283 52.2252 37.9467C52.3543 38.5037 51.9743 38.9 51.823 39.4506C51.774 39.6294 51.8213 39.951 51.823 40.1337C51.8084 40.3668 51.5509 40.6419 51.5939 40.8756C51.7463 41.7065 52.5741 42.517 52.2252 43.3228C51.994 43.7778 51.2985 44.01 50.8362 44.1646C49.8783 44.5325 48.2092 44.1508 47.6527 43.3228C47.3557 42.8812 47.0119 41.7671 46.8349 41.4215L46.7956 40.8734C46.6989 39.5105 46.6128 38.0437 46.9099 37.8372Z" fill="white"/>
<path fill-rule="evenodd" clip-rule="evenodd" d="M58.8328 26.5959C58.7406 26.5143 58.6042 26.6169 58.6629 26.7272C58.7944 26.9751 58.9293 27.2098 59.1059 27.4288C59.213 27.5618 59.3277 27.6874 59.4439 27.8116C59.1456 28.0697 58.8898 28.3901 58.6483 28.6906C58.3395 29.0747 58.0474 29.4751 57.7007 29.8265C57.3587 30.1733 56.9805 30.4156 56.5234 30.5772L56.4311 30.6092C55.9716 30.7705 55.4809 30.9883 55.2219 31.4234C55.171 31.5091 55.2737 31.6151 55.3602 31.5616C55.8099 31.283 56.3386 31.2269 56.8282 31.0428C57.3011 30.8651 57.7136 30.5914 58.0778 30.2419C58.4416 29.8932 58.747 29.4964 59.0655 29.108C59.3805 28.7239 59.7196 28.3958 60.0922 28.0709C60.6672 28.4579 61.3235 28.6263 61.9909 28.7917L62.0638 28.8097C62.7321 28.9752 63.3967 29.1673 64.0233 29.4556C64.576 29.7096 65.1196 30.013 65.5699 30.4264C66.0477 30.8652 66.4197 31.4256 66.7601 31.9735C67.5216 33.1996 68.057 34.5427 68.5283 35.9023C69.018 37.3171 69.4291 38.7579 69.7596 40.2182C69.9267 40.9604 70.0659 41.7086 70.177 42.4613C70.2311 42.8239 70.2792 43.1873 70.3214 43.5515C70.3664 43.9405 70.3767 44.3405 70.4962 44.7144C70.5472 44.8746 70.6679 44.9413 70.7888 44.9355L70.8132 45.2427C70.8458 45.652 70.8762 46.0616 70.8864 46.4735C70.9034 47.1585 70.8957 47.8416 70.8464 48.525L70.8395 48.6182C70.8009 49.1172 70.7144 49.6777 70.3392 50.043C69.951 50.4212 69.3537 50.5403 68.8304 50.547C67.6114 50.5629 66.438 49.9867 65.3592 49.4812C64.2495 48.9595 63.1661 48.3838 62.1127 47.756C61.5755 47.4367 61.0444 47.1071 60.5197 46.7676C60.2624 46.601 60.0068 46.4316 59.7531 46.2595C59.6078 46.1608 59.4701 46.0528 59.3221 45.9652C59.3946 45.8977 59.427 45.7917 59.3663 45.699C59.7939 45.3275 59.9718 44.665 59.9928 44.1288C60.0095 43.6961 59.9458 43.2645 59.8955 42.8359C59.8702 42.6195 59.8391 42.4037 59.8063 42.1887C59.7935 42.1036 59.7837 42.0126 59.7688 41.9228C60.9227 42.5562 62.1113 43.1245 63.3288 43.6251C63.953 43.8814 64.5862 44.1152 65.2272 44.3262L65.3572 44.3689C65.9649 44.568 66.5869 44.7559 67.2152 44.8695C67.2487 44.8757 67.276 44.826 67.2401 44.8104C66.6279 44.5401 65.9945 44.3121 65.3732 44.0632L65.2712 44.0217C65.2835 44.0209 65.2957 44.0192 65.3077 44.0164C65.672 43.9285 66.0337 43.7928 66.3912 43.6786C66.7228 43.5726 67.0955 43.5062 67.4054 43.3463C67.4293 43.3339 67.416 43.3008 67.3927 43.2991C67.0443 43.2749 66.6661 43.3765 66.3243 43.4364L66.1959 43.4588C65.9811 43.4967 65.7611 43.5375 65.5471 43.5907C65.5395 43.5191 65.4994 43.447 65.4424 43.4047C64.8155 42.9402 64.8792 42.0022 64.812 41.3104L64.7623 40.7967C64.6749 39.8979 64.5824 38.999 64.4418 38.1069C64.4343 38.0594 64.3606 38.0731 64.3602 38.118C64.3529 39.2239 64.4365 40.3247 64.4784 41.4288L64.4848 41.61C64.5079 42.2914 64.5261 42.9988 64.9549 43.5231C64.895 43.488 64.814 43.488 64.7654 43.5459C64.7056 43.6169 64.6712 43.6966 64.6723 43.7749C64.2848 43.6124 63.8989 43.4459 63.5147 43.2754C62.2801 42.7282 61.0713 42.1158 59.8946 41.4534C59.7679 41.382 59.6475 41.4381 59.5849 41.532L59.5757 41.5308C59.5742 41.5305 59.5727 41.5304 59.5712 41.5304L59.5621 41.53H59.5612C59.3955 41.439 59.1698 41.5038 59.0276 41.6366C59.0234 41.6406 59.02 41.6449 59.0162 41.6491C58.8331 41.5668 58.6642 41.456 58.5157 41.321C58.2036 41.038 57.9392 40.6882 57.7089 40.3373C57.2844 39.691 56.924 38.9725 56.3506 38.4405C55.885 38.0084 55.3075 37.7393 54.7017 37.5705C54.7027 37.5616 54.7018 37.5525 54.6989 37.544C54.6961 37.5355 54.6914 37.5278 54.6851 37.5213C54.654 37.4894 54.6318 37.4783 54.5917 37.4978C54.5884 37.4993 54.5866 37.5015 54.5851 37.5038L54.5261 37.4028C54.4939 37.3479 54.4608 37.2926 54.4493 37.2782C54.3805 37.1915 54.3096 37.1056 54.2377 37.0214C54.1159 36.8789 53.9771 36.7383 53.8163 36.6394C53.4643 36.4231 53.0943 36.5454 52.7323 36.6638C52.5136 36.7352 52.2958 36.8089 52.0775 36.8816L52.0549 36.8889C51.8921 36.9411 51.7016 36.987 51.629 37.1595C51.6002 37.2278 51.5956 37.2986 51.6091 37.3673C50.0631 36.9741 48.3461 37.1547 46.8374 37.6164C46.7795 37.6342 46.7218 37.6817 46.7096 37.7444C46.5367 38.6312 46.4597 39.5406 46.538 40.4424C46.6054 41.221 46.7778 41.9838 47.1027 42.6966L47.1213 42.7368C47.4267 43.3973 47.9107 44.2116 48.6498 44.4187C49.0961 44.5436 49.5896 44.47 50.0449 44.4471C50.4872 44.4247 50.9395 44.4216 51.3777 44.352C51.7679 44.2899 52.1099 44.1149 52.351 43.7975C52.5591 43.5236 52.6686 43.1926 52.7583 42.8634C52.7995 42.8765 52.8403 42.8905 52.8805 42.9061C53.0501 42.9724 53.1937 43.0793 53.3236 43.2052C53.5978 43.4708 53.8105 43.7935 54.0975 44.047C54.3573 44.2766 54.6533 44.4551 54.9708 44.5924C55.6288 44.8768 56.3346 44.9904 57.0304 45.141L57.079 45.1516C57.6029 45.2667 58.1375 45.4078 58.6001 45.6808C58.6092 45.7611 58.6456 45.8367 58.7042 45.8862C58.6228 45.9629 58.5882 46.0841 58.6598 46.1979C58.8601 46.5159 59.205 46.6967 59.5146 46.8999L59.5346 46.9132C60.4572 47.5274 61.4067 48.1003 62.3802 48.6302C63.4286 49.2033 64.4995 49.7438 65.5897 50.234C65.5242 50.5561 65.5482 50.8881 65.4991 51.2124L65.4916 51.2587C65.4705 51.379 65.4989 51.4795 65.5817 51.5582L65.5905 51.5662V51.5651L65.5981 51.5724L65.6007 51.5746L65.5999 51.5739C65.6092 51.5825 65.6189 51.5905 65.6293 51.5977L65.642 51.6059C65.7219 51.6544 65.8246 51.6538 65.9064 51.611L65.9155 51.6059L65.9314 51.597C66.0393 51.5347 66.1138 51.3808 66.069 51.2587C65.9589 50.9582 65.9173 50.6373 65.8157 50.3349L65.8964 50.3709L66.0026 50.4174C67.1521 50.9145 68.4288 51.3333 69.6813 50.9942C70.2347 50.8446 70.7519 50.5275 71.0288 50.0111C71.3013 49.5029 71.3397 48.9127 71.3541 48.3473C71.3719 47.646 71.3346 46.9445 71.2426 46.2491C71.1809 45.7848 71.1061 45.3117 70.991 44.8521C71.0549 44.7953 71.0957 44.7169 71.1053 44.6319C71.1598 44.1929 71.0645 43.7365 71.0063 43.3C70.9494 42.8736 70.8866 42.448 70.8154 42.0239C70.6726 41.1664 70.5044 40.3133 70.311 39.4658C69.9654 37.9589 69.509 36.479 68.9598 35.0342L68.9116 34.9084C68.4039 33.588 67.8163 32.2958 66.9977 31.1358C66.6062 30.5808 66.1923 30.0777 65.6393 29.6776C65.1208 29.303 64.5363 29.0331 63.933 28.827C63.329 28.6207 62.7082 28.4823 62.0763 28.3963C61.4348 28.3089 60.7576 28.2554 60.159 27.9921C60.2348 27.8564 60.1699 27.673 60.0425 27.5887C59.6136 27.3054 59.217 26.9366 58.8328 26.5959ZM45.1058 38.9202C45.088 38.8929 45.0452 38.9102 45.0532 38.9424C45.2617 39.7972 45.4574 40.6538 45.5853 41.5247C45.8162 43.097 45.7736 44.6896 45.7548 46.2735L45.7539 46.3553C45.7441 47.2084 45.7306 48.0615 45.7026 48.9143C45.6882 49.3453 45.6601 49.7806 45.6754 50.2118C45.6838 50.4458 45.7461 50.667 45.7681 50.8981C45.7874 51.1002 45.7703 51.3053 45.7606 51.5078C45.7541 51.6423 45.9526 51.6365 45.9662 51.5078L45.9833 51.3411C46.0059 51.1303 46.0336 50.9207 46.1026 50.7189C46.1857 50.4762 46.2255 50.2378 46.2543 49.9829C46.2986 49.5923 46.3182 49.1978 46.3352 48.8047L46.3468 48.5326C46.418 46.889 46.4155 45.2377 46.3004 43.5959L46.2918 43.4787C46.1778 41.9268 45.9801 40.2499 45.1058 38.9202ZM49.5514 29.1389C49.606 29.1165 49.5869 29.0342 49.5264 29.0486L49.4168 29.0747C48.613 29.2673 47.8236 29.476 47.0734 29.8344C46.3226 30.1931 45.6871 30.7285 45.1819 31.3868C44.2002 32.6666 43.7922 34.2219 43.47 35.7755C43.1122 37.5022 42.7862 39.235 42.4251 40.961L42.3581 41.2826C42.0242 42.8901 41.7086 44.4986 41.4762 46.1251L41.4595 46.2431C41.2251 47.9159 41.0842 49.6464 41.34 51.3235C41.3905 51.6553 41.9424 51.5726 41.9209 51.2448C41.8584 50.2972 41.8138 49.3544 41.857 48.4048C41.9005 47.4553 41.9889 46.5084 42.1219 45.5673C42.2338 44.7748 42.4004 43.9922 42.5477 43.2061L42.5708 43.0819C42.6943 42.4132 42.8214 41.7453 42.9483 41.0773L43.1381 40.0771C43.4225 38.5795 43.7124 37.0804 44.04 35.5923L44.0595 35.5047C44.38 34.0729 44.8525 32.5731 45.8142 31.4361C46.79 30.2823 48.1869 29.7013 49.5514 29.1389ZM53.0972 44.3258C53.0737 44.2733 52.9918 44.2792 52.9665 44.3258C52.8676 44.5083 52.8567 44.7412 52.8379 44.9473L52.8359 44.9684C52.8122 45.2199 52.7911 45.4723 52.7782 45.7245C52.7538 46.2032 52.7421 46.6812 52.7436 47.1607C52.7438 47.6518 52.7565 48.1427 52.7815 48.6332L52.7887 48.7645C52.8128 49.1907 52.8534 49.6662 53.0559 50.039C53.1294 50.1744 53.3296 50.1346 53.3722 49.9976C53.5119 49.5489 53.4401 49.017 53.4044 48.5576L53.3766 48.199C53.3491 47.8405 53.3227 47.4819 53.3019 47.1228C53.2733 46.6317 53.2498 46.1402 53.2272 45.6489C53.2198 45.4892 53.2118 45.3297 53.2034 45.17L53.1905 44.9307C53.1795 44.7304 53.1804 44.5108 53.0972 44.3258ZM68.7994 44.9615L68.7375 44.9018C68.5477 44.716 68.3079 44.4298 68.0273 44.4476C67.9155 44.4547 67.8443 44.5476 67.8674 44.6578C67.917 44.893 68.157 45.0152 68.3298 45.1589C68.5192 45.3162 68.6974 45.4845 68.8755 45.6544C69.033 45.8047 69.1858 45.9599 69.3337 46.1196L69.389 46.1797C69.4422 46.2376 69.8206 46.5802 69.7796 46.669L69.7775 46.673C69.7662 46.69 69.7851 46.7133 69.8039 46.7075C69.9674 46.6557 69.9572 46.5157 69.8955 46.3737C69.7767 46.1009 69.5688 45.8485 69.3872 45.6156C69.2066 45.3843 69.0101 45.1658 68.7994 44.9615ZM52.505 38.1204C52.6314 37.8216 53.097 37.8278 53.3613 37.8458C54.0268 37.8908 54.747 38.0592 55.3392 38.3704C55.9531 38.6929 56.3666 39.2099 56.7366 39.7815L56.7539 39.8085C57.1147 40.3693 57.4621 41.0333 58.0268 41.4188C58.3145 41.6153 58.6503 41.7948 58.9994 41.8724C59.0112 41.8941 59.0274 41.9131 59.047 41.9282C59.0665 41.9433 59.089 41.9541 59.113 41.96L59.1367 41.9654C59.2361 41.9875 59.3906 42.0117 59.524 41.9971C59.5231 42.0625 59.5237 42.1273 59.522 42.189C59.5175 42.3664 59.5155 42.5443 59.5155 42.7217C59.5153 43.0932 59.5353 43.4656 59.5198 43.837C59.506 44.1657 59.4596 44.5092 59.3019 44.8029C59.1862 45.0185 59.0335 45.1611 58.8492 45.2973C58.3957 45.0209 57.8831 44.8522 57.3627 44.7255C56.7334 44.5724 56.0891 44.4702 55.474 44.2624C55.1781 44.1623 54.8934 44.0315 54.6356 43.8536C54.3619 43.665 54.153 43.4095 53.938 43.1596L53.9043 43.1208C53.6848 42.869 53.4454 42.6281 53.1351 42.4915C52.8681 42.3741 52.516 42.3531 52.2825 42.171C52.1603 42.0758 52.1501 41.9377 52.1372 41.7963C52.2869 41.8176 52.4451 41.7833 52.5943 41.7658L52.6715 41.7567C52.8124 41.74 52.9503 41.7216 53.089 41.6857C53.1147 41.679 53.1147 41.6402 53.089 41.6335C52.925 41.5912 52.7623 41.5732 52.5943 41.5533L52.5547 41.5484C52.4027 41.5286 52.2428 41.4983 52.0935 41.5319C52.0664 41.4283 52.0262 41.3286 51.9739 41.2352C51.8977 41.0983 51.7537 40.9431 51.7342 40.7832C51.7291 40.7328 51.7387 40.6819 51.7619 40.6368L51.7697 40.6224C51.7782 40.6048 51.7909 40.5895 51.8067 40.5778C51.8085 40.58 51.8125 40.5824 51.8207 40.5849C51.9356 40.6212 52.0358 40.5649 52.0889 40.4782C52.3147 40.5063 52.5609 40.4968 52.7727 40.5063L52.9867 40.5166C53.2154 40.527 53.4545 40.5316 53.6694 40.4855C53.6994 40.479 53.7083 40.4291 53.6783 40.4161C53.4143 40.3032 53.0938 40.2672 52.811 40.2237C52.6529 40.1994 52.4937 40.1809 52.3353 40.1596C52.2299 40.1453 52.1179 40.1219 52.0086 40.1162C51.7346 39.775 51.8823 39.2365 52.2636 39.0895C52.4025 39.1507 52.5274 39.1152 52.6793 39.1021C52.8307 39.0882 52.9827 39.0812 53.1347 39.081C53.4396 39.0823 53.7626 39.1626 54.0643 39.128C54.1135 39.1223 54.159 39.0569 54.1102 39.0171C53.8792 38.8284 53.5481 38.767 53.2547 38.7268L53.1941 38.7186C53.0958 38.7057 52.9761 38.6869 52.8521 38.6758C52.8241 38.621 52.7736 38.5797 52.6981 38.5693C52.6757 38.5662 52.6531 38.5646 52.6305 38.5625L52.6309 38.5604C52.4466 38.5514 52.4546 38.2399 52.505 38.1204ZM65.1263 43.9483C65.1296 43.9533 65.1332 43.9581 65.137 43.9627L65.1429 43.9694L65.1126 43.9572L65.1263 43.9483ZM49.2879 37.4527C50.064 37.3693 50.841 37.3869 51.6193 37.4093C51.6816 37.6129 51.8983 37.7864 52.1082 37.793C51.9438 38.0434 51.9269 38.3823 52.0421 38.6478C51.7972 38.7452 51.5863 38.9204 51.4583 39.1698C51.2808 39.5155 51.3041 39.9002 51.4795 40.2196C51.3298 40.3553 51.2414 40.5756 51.2502 40.7832C51.2602 41.0147 51.3981 41.2124 51.5126 41.4042C51.6364 41.6114 51.6406 41.7939 51.6787 42.0261C51.7344 42.3659 51.9635 42.5718 52.2581 42.7006L52.2424 42.7623C52.1665 43.0582 52.072 43.3703 51.8548 43.5867C51.5754 43.8651 51.142 43.8625 50.7729 43.88L50.7551 43.8809C50.4171 43.8979 50.0793 43.9177 49.7413 43.9368L49.4878 43.951C49.0989 43.9723 48.7252 43.9749 48.4076 43.7178C47.8892 43.2977 47.5337 42.6028 47.3088 41.9875C46.8367 40.696 46.831 39.2787 47.0477 37.9336C47.7747 37.6992 48.5289 37.5342 49.2879 37.4527ZM55.7411 39.5954L55.7355 39.5958C55.5756 39.614 55.466 39.7435 55.4268 39.897C55.37 40.12 55.3979 40.3218 55.2613 40.5232C55.1207 40.7304 55.0344 40.8963 55.014 41.1522C55.0056 41.2574 55.0094 41.3625 54.9859 41.4656L54.969 41.5377C54.951 41.6147 54.9362 41.6888 54.9452 41.7715C54.9534 41.8469 54.99 41.9057 55.0657 41.9299C55.3119 42.0088 55.5022 41.827 55.5657 41.5974C55.6207 41.3991 55.5474 41.1627 55.6249 40.9764C55.6679 40.8732 55.7471 40.7869 55.7919 40.6829C55.835 40.5804 55.86 40.4712 55.8657 40.3602C55.8791 40.1484 55.6919 39.8939 55.7965 39.7019C55.8187 39.661 55.7934 39.5941 55.7411 39.5954ZM59.0132 37.4093C58.8464 37.3754 58.6572 37.2977 58.4928 37.3623C58.4081 37.3957 58.3664 37.4987 58.4378 37.5705C58.5618 37.6948 58.7421 37.7018 58.9093 37.7311L58.9238 37.7336C59.1214 37.7702 59.3193 37.805 59.5175 37.8378C59.8904 37.8995 60.2641 37.9542 60.6392 38.0006C61.0243 38.0483 61.4106 38.0907 61.7973 38.1228L61.947 38.135C62.2737 38.1612 62.6137 38.1809 62.9344 38.1308C62.981 38.1235 62.9733 38.0556 62.9344 38.0437C62.5831 37.9374 62.198 37.909 61.8349 37.8638C61.4488 37.8159 61.0633 37.7653 60.6791 37.7054C60.2952 37.6458 59.9122 37.5806 59.5302 37.5098C59.3576 37.4778 59.1853 37.4443 59.0132 37.4093ZM52.9941 37.0679C53.1406 37.016 53.3017 36.9393 53.4603 36.965C53.7338 37.0092 53.9773 37.2758 54.1938 37.4514L54.0851 37.4303C53.5288 37.3234 52.7922 37.2081 52.3251 37.5619C52.324 37.5599 52.3231 37.5579 52.3217 37.5559C52.284 37.4985 52.2403 37.4539 52.1927 37.4049C52.1882 37.4006 52.1836 37.3962 52.1794 37.3917L52.1536 37.3643L52.2124 37.3439C52.3384 37.2993 52.4877 37.2418 52.5112 37.2334L52.5129 37.2329C52.6737 37.1784 52.8344 37.1245 52.9941 37.0679ZM57.5646 25.4035C57.5876 25.1091 57.1294 25.1115 57.1067 25.4035C57.0571 26.0413 57.2006 26.673 57.5095 27.2322C57.5117 27.2362 57.5142 27.2398 57.5166 27.2437C57.324 27.3451 57.1278 27.4396 56.9284 27.5268C56.6732 27.638 56.4127 27.7367 56.1479 27.8227C55.9083 27.8999 55.6131 27.9303 55.4117 28.0908C54.9869 28.4293 55.1466 29.1315 55.2281 29.5867L55.2409 29.6585C55.2817 29.8926 55.311 30.133 55.2123 30.3579C55.1069 30.5979 54.8938 30.776 54.7037 30.9479L54.6653 30.9827C54.4966 31.1362 54.3042 31.3228 54.1807 31.531C54.0678 31.2977 53.9141 31.1071 53.7515 30.8924C53.6355 30.7392 53.7182 30.6886 53.8014 30.5391C53.8817 30.3951 53.9209 30.2415 53.8957 30.0771C53.8495 29.7737 53.6071 29.5547 53.3658 29.3899C53.0808 29.1956 52.7627 29.0515 52.4681 28.8707C51.8628 28.499 51.2733 28.0742 50.7423 27.6024C50.7276 27.5895 50.7023 27.6066 50.7139 27.6242C51.1335 28.2627 51.6253 28.8143 52.2299 29.2826C52.4752 29.4724 52.7327 29.6299 52.992 29.7954L53.0664 29.8433C53.1706 29.9107 53.3004 30.001 53.3474 30.1157C53.3948 30.2312 53.2937 30.3184 53.2394 30.4142C53.0668 30.7179 53.15 31.0014 53.3547 31.2591L53.3642 31.2709C53.5676 31.5217 53.7218 31.7548 53.7954 32.0751C53.9538 32.7632 53.7333 33.4798 53.5024 34.1257L53.4931 34.1512C53.3682 34.4994 53.2354 34.845 53.1269 35.1986L53.097 35.2964C52.9987 35.622 52.9182 35.9429 53.0286 36.2776C53.0661 36.3914 53.2212 36.4183 53.2857 36.3111C53.513 35.9334 53.5696 35.4789 53.7122 35.0637C53.8511 34.6589 54.0104 34.2616 54.1446 33.8551C54.3175 33.3319 54.4331 32.7687 54.3703 32.2199C54.3721 32.2166 54.3741 32.2137 54.3757 32.2102L54.4196 32.1141C54.5396 31.8535 54.6554 31.626 54.8734 31.4183C55.1009 31.2016 55.3478 31.0098 55.5268 30.7476C55.9154 30.178 55.675 29.5443 55.628 28.9215L55.6227 28.845C55.6142 28.7157 55.6095 28.54 55.6939 28.4504C55.789 28.3497 56.0117 28.324 56.1377 28.2794C56.4635 28.1642 56.7844 28.0298 57.0901 27.8684C57.3811 27.7149 57.663 27.5452 57.9254 27.3465L58.0585 27.2464C58.2683 27.088 58.4859 26.915 58.6266 26.6992C58.6429 26.6744 58.6154 26.6344 58.5859 26.6462C58.3511 26.7416 58.1364 26.8933 57.9168 27.0251C57.9134 27.0171 57.9094 27.0089 57.905 27.0009C57.6331 26.5087 57.5213 25.9633 57.5646 25.4035ZM50.0635 28.7757C49.9699 28.5189 49.5434 28.5387 49.5605 28.8438C49.5734 29.0781 49.6729 29.2895 49.7637 29.5022L49.7736 29.525C49.8662 29.745 49.9772 29.9567 50.1055 30.158C50.3534 30.5462 50.6438 30.9066 50.9539 31.2467C51.2351 31.555 51.604 31.7437 52.0292 31.7124C52.2084 31.6991 52.3892 31.6535 52.5462 31.5639C52.7327 31.4576 52.9353 31.1382 53.1732 31.2156C53.1961 31.2231 53.2176 31.1894 53.1977 31.1733C52.9231 30.9521 52.6114 31.2952 52.3484 31.3778C51.9522 31.5024 51.5456 31.3647 51.2906 31.0442C51.0244 30.7097 50.7793 30.3351 50.5555 29.9708C50.4412 29.7858 50.3388 29.5939 50.2486 29.3961C50.1581 29.1963 50.1376 28.9792 50.0635 28.7757ZM50.7021 27.1961C50.7135 27.1606 50.6697 27.1269 50.6385 27.1471C50.4581 27.2646 50.3016 27.4199 50.1352 27.5561C49.9507 27.707 49.7641 27.8552 49.5754 28.0008C49.3001 28.2131 49.6195 28.6041 49.8619 28.3721C50.1937 28.0547 50.5571 27.6397 50.7021 27.1961ZM51.6929 25.9537C51.6197 25.6709 51.1859 25.7876 51.2491 26.0671L51.2513 26.0755C51.3709 26.5373 51.2005 27.0073 50.8365 27.3067L50.8232 27.3176C50.593 27.5019 50.9191 27.824 51.1471 27.6415C51.6446 27.2431 51.8517 26.5662 51.6929 25.9537Z" fill="black"/>
<path fill-rule="evenodd" clip-rule="evenodd" d="M47.9272 16.9481C48.07 15.8081 48.5185 14.5977 48.9903 13.5348C50.0512 11.2877 52.4797 10.9783 54.6569 10.5151C56.8053 10.2022 59.0804 9.9196 61.1964 10.544C62.3858 10.8354 62.8506 12.2528 62.6628 13.3713C62.5556 14.0682 62.2385 14.7279 61.9681 15.3738C61.4306 16.7002 61.0897 18.1204 61.0889 19.5564C61.1259 20.495 61.2583 21.5663 60.1803 21.9638C59.1543 22.4742 59.0676 23.8578 57.7829 24.6426C57.2636 25.6952 55.8487 25.7879 54.8302 26.0321C54.1865 26.1553 53.5357 26.246 52.8828 26.3047C50.993 26.5469 49.4811 25.9989 48.4917 24.3147C47.8296 23.2896 47.3367 22.1062 47.4585 20.8639C47.5798 19.5557 47.7819 18.2544 47.9272 16.9481Z" fill="white"/>
<path fill-rule="evenodd" clip-rule="evenodd" d="M54.6399 7.78632C54.5319 7.66395 54.3657 7.70602 54.2648 7.80271C54.1992 7.82201 54.1355 7.85079 54.0754 7.88903C53.9397 7.87155 53.7973 7.87155 53.664 7.87628C53.6318 7.85825 53.5972 7.84205 53.5595 7.82821C53.2902 7.72987 53.0516 7.77977 52.855 7.91161C52.7603 7.82201 52.6406 7.76575 52.4879 7.7743C52.3515 7.78177 52.2542 7.84605 52.171 7.93055C52.1275 7.86759 52.0703 7.81535 52.0037 7.77774C51.9371 7.74014 51.8628 7.71817 51.7864 7.71348C51.5526 7.69673 51.3279 7.79051 51.1416 7.93564C51.0331 7.81127 50.885 7.73971 50.7202 7.73898C50.6114 7.71979 50.4995 7.7264 50.3937 7.75828C50.2437 7.80381 50.1117 7.88866 50.0068 7.99901C49.8405 7.83986 49.6371 7.72532 49.4026 7.74207C49.099 7.76393 48.8475 7.98718 48.7304 8.26197C48.525 8.34427 48.3355 8.46173 48.1769 8.62926C48.1685 8.638 48.1603 8.64729 48.1519 8.65657C48.0665 8.68808 47.986 8.73269 47.9154 8.79151C47.691 8.97834 47.6409 9.24858 47.7152 9.51317C47.7049 9.5556 47.6959 9.59875 47.6879 9.64173C47.478 9.67359 47.2871 9.79487 47.1786 9.99245C47.03 10.2634 47.0593 10.6205 47.2201 10.8793C47.2893 10.988 47.3756 11.0848 47.4756 11.1661C47.3641 11.4192 47.4175 11.7215 47.5972 11.9263C47.6416 11.9968 47.6947 12.0613 47.7553 12.1185C47.6885 12.3803 47.8072 12.6504 48.0443 12.7904L48.0645 12.841L48.0749 12.8661C48.0776 12.8771 48.0809 12.8875 48.084 12.8978C48.0901 12.9952 48.1237 13.0888 48.1809 13.1679C48.3052 13.344 48.4593 13.4587 48.5411 13.6643L48.5491 13.6858C48.5842 13.783 48.6977 13.8517 48.7944 13.8216C48.2577 14.924 47.9765 16.1507 47.7833 17.3525C47.687 17.9522 47.6127 18.554 47.5524 19.158L47.4933 19.7595C47.4414 20.2941 47.3951 20.8306 47.3947 21.3671C47.394 22.5806 47.7411 23.7478 48.4859 24.7135C49.1902 25.6264 50.187 26.2879 51.3131 26.5485C52.4757 26.8171 53.8396 26.7113 54.8821 26.0964C55.1895 25.9155 54.9202 25.4805 54.6075 25.626C54.0153 25.9017 53.4137 26.1064 52.7574 26.1521C52.1181 26.1987 51.4759 26.1155 50.8695 25.9077C49.8658 25.561 49.0118 24.8348 48.4628 23.9303C48.1923 23.4847 47.9964 23.0009 47.8922 22.4897C47.7624 21.8527 47.7821 21.1943 47.8296 20.5489L47.8331 20.505C47.9272 19.2618 48.0516 18.011 48.2522 16.7804C48.4298 15.692 48.7028 14.6256 49.0571 13.5827C49.1952 13.461 49.3502 13.3599 49.5173 13.2826C50.7342 13.2312 51.953 13.2473 53.1682 13.3307C54.2043 13.4017 55.2361 13.5258 56.2595 13.7025L56.3691 13.7218C56.5956 13.7621 56.8473 13.7852 57.0607 13.8766C57.2439 13.9549 57.3182 14.1059 57.3643 14.2913C57.4805 14.7605 57.4981 15.2739 57.5178 15.755C57.5371 16.2253 57.4936 16.6995 57.5313 17.1681C57.5631 17.5603 57.6637 17.9618 57.9541 18.2455C58.106 18.3939 58.293 18.4752 58.4683 18.5879C58.582 18.6607 58.63 18.7357 58.6153 18.8705C58.5838 19.1653 58.3465 19.5366 58.6131 19.7892C58.6601 19.8334 58.7411 19.8391 58.7874 19.7892C58.8974 19.6695 59.0494 19.5781 59.1798 19.4816C59.1913 19.4744 59.1995 19.463 59.2027 19.4498C59.2059 19.4366 59.2039 19.4227 59.197 19.411C59.1902 19.3993 59.179 19.3907 59.166 19.3871C59.1529 19.3834 59.1389 19.385 59.127 19.3915C59.0454 19.4281 58.9624 19.4712 58.8773 19.5089C59.0651 19.3543 59.332 19.2784 59.5546 19.2334C59.6684 19.2108 59.7849 19.2046 59.9006 19.215C60.0967 19.3073 60.2974 19.3895 60.5018 19.4616C60.897 19.7837 61.0857 20.3076 61.0033 20.8199C60.9584 21.1027 60.828 21.4102 60.5821 21.5754C60.2908 21.7708 59.9007 21.6868 59.5861 21.832C59.2913 21.9678 59.1121 22.2422 58.9779 22.5263L58.9218 22.6445C58.7972 22.9063 58.669 23.1613 58.4988 23.3995C58.3019 23.6755 58.0606 23.9234 57.7975 24.1362C57.6693 24.2388 57.5342 24.3324 57.3931 24.4163L57.3546 24.4391C57.2124 24.5227 57.1104 24.6022 57.1008 24.7789C57.0977 24.8404 57.1365 24.8967 57.1866 24.9286C57.402 25.0653 57.6163 24.8943 57.7955 24.775C57.9898 24.6461 58.1737 24.502 58.3452 24.344C58.6727 24.0423 58.9507 23.691 59.1691 23.303C59.334 23.0089 59.4278 22.5951 59.6888 22.3673C59.8479 22.2284 60.073 22.2273 60.272 22.2018C60.457 22.178 60.632 22.1395 60.7967 22.0483C61.4664 21.6761 61.6558 20.7752 61.4968 20.0789C61.4699 19.9616 61.4322 19.8473 61.3858 19.7371C61.635 19.7788 61.9151 19.5209 61.8139 19.2607C61.8062 19.2411 61.7975 19.2227 61.7889 19.2037C61.9623 19.0899 62.0886 18.9171 62.1444 18.7173C62.1747 18.6097 62.1814 18.4968 62.164 18.3863C62.2452 18.3323 62.3101 18.2571 62.3516 18.1689C62.484 18.1077 62.6014 18.0161 62.6714 17.8852C62.7684 17.7047 62.756 17.5384 62.6823 17.3888C62.6927 17.3698 62.7027 17.3505 62.7122 17.331C62.9835 17.1589 63.1729 16.8627 63.151 16.534C63.1449 16.4316 63.1194 16.3313 63.0758 16.2384C63.0793 16.2272 63.0827 16.2159 63.0858 16.2046C63.3127 16.0889 63.5005 15.8994 63.5675 15.6461C63.6343 15.3911 63.5555 15.1373 63.3978 14.9417C63.6287 14.7727 63.7674 14.5369 63.6833 14.18C63.649 14.0371 63.5818 13.9041 63.487 13.7918C63.4874 13.7883 63.488 13.7848 63.4888 13.7814L63.5107 13.7646C63.7955 13.5397 63.9594 13.2529 63.7844 12.9004C63.7061 12.742 63.5941 12.6314 63.4624 12.5586L63.4558 12.5378C63.5502 12.3357 63.582 12.1114 63.517 11.8755C63.464 11.6812 63.3382 11.5264 63.1774 11.4237C63.1882 11.3367 63.1865 11.244 63.1692 11.1433C63.1426 10.979 63.059 10.8293 62.933 10.7205C62.9285 10.6983 62.9227 10.6762 62.9161 10.6544C62.8712 10.513 62.8001 10.3812 62.7067 10.266C62.6326 10.1764 62.5495 10.1436 62.4479 10.1401C62.4544 10.056 62.4494 9.97129 62.433 9.88847C62.3809 9.62607 62.2139 9.37932 61.9666 9.26733C61.869 9.22362 61.7614 9.20696 61.6551 9.21908C61.5673 9.03443 61.3961 8.9004 61.1856 8.87163C61.1037 8.86016 61.0276 8.86071 60.9575 8.87127C60.9179 8.85269 60.8768 8.8363 60.8336 8.82119C60.8052 8.81117 60.7763 8.80189 60.7475 8.79278C60.6488 8.66966 60.5194 8.57465 60.3724 8.51727C60.2104 8.45402 60.0309 8.45259 59.868 8.51326L59.8184 8.50288C59.7407 8.36813 59.6168 8.26397 59.4264 8.21662C59.2102 8.16309 58.9882 8.23775 58.8182 8.37359C58.8174 8.37359 58.8165 8.37359 58.8154 8.37323C58.7266 8.17419 58.5747 8.03562 58.3196 8.04545C58.1606 8.05146 58.0171 8.13049 57.9064 8.24285C57.8448 8.23501 57.7833 8.22828 57.7214 8.22118C57.6558 8.14469 57.5832 8.07313 57.5029 8.00885C57.3712 7.90323 57.2 7.91179 57.1032 8.06038C57.0818 8.09261 57.0624 8.12539 57.0427 8.15817L56.9538 8.15198C56.8491 8.01067 56.7064 7.91525 56.511 7.9076C56.3318 7.90032 56.2039 7.98791 56.1067 8.11082C56.0275 8.10882 55.9477 8.10718 55.8682 8.10609C55.7738 7.99691 55.6637 7.90239 55.5415 7.82566C55.4461 7.76556 55.3053 7.78596 55.2279 7.86608C55.1756 7.92035 55.127 7.97716 55.0819 8.03598C54.9656 7.90695 54.8104 7.81918 54.6399 7.78632ZM60.3019 20.0077C60.1223 19.9054 59.8807 20.0163 59.7068 20.1031C59.4948 20.2091 59.2843 20.3688 59.1547 20.5689C58.9782 20.8413 59.3932 21.0615 59.5791 20.8171C59.6933 20.6667 59.7846 20.515 59.923 20.3834C60.0495 20.2625 60.2331 20.1818 60.3059 20.0224C60.3085 20.017 60.3077 20.0108 60.3019 20.0077ZM60.1757 13.3939L60.1722 13.3842C60.1213 13.2444 60.3441 13.1839 60.3948 13.3227C60.4716 13.533 60.3831 13.7615 60.1757 13.8522C60.1182 13.8773 60.0524 13.8686 60.0176 13.8107C59.9885 13.7621 60.0022 13.6778 60.0592 13.6528C60.1757 13.6018 60.215 13.5115 60.1757 13.3939ZM62.0968 13.0027C61.9852 12.9044 62.1489 12.7414 62.26 12.8396C62.3638 12.9312 62.4406 13.0554 62.4206 13.1983C62.4002 13.344 62.2904 13.447 62.1702 13.5197C62.0428 13.5967 61.9266 13.3972 62.0537 13.3203L62.0681 13.3116C62.1212 13.2784 62.1837 13.2329 62.1928 13.1677C62.2023 13.0985 62.1436 13.0442 62.0968 13.0027ZM61.4631 11.2642L61.4551 11.2584C61.3353 11.1728 61.4504 10.9725 61.5717 11.059C61.6828 11.1384 61.772 11.2416 61.7815 11.3839C61.7906 11.5223 61.7203 11.6419 61.6283 11.7391C61.526 11.8475 61.363 11.684 61.465 11.576C61.5646 11.4707 61.5841 11.356 61.4631 11.2642Z" fill="black"/>
<path fill-rule="evenodd" clip-rule="evenodd" d="M51.0862 22.9264C51.0272 22.8237 50.8912 22.7286 50.767 22.7432C50.2099 22.8086 50.2108 23.4842 50.4259 23.8786C50.6166 24.2282 51.0113 24.4336 51.4063 24.4036C51.8213 24.3721 52.175 24.1279 52.3305 23.7397C52.4335 23.4827 52.4811 23.0083 52.2072 22.8359C52.2021 22.8326 52.1937 22.8333 52.1897 22.8381C52.0584 22.9909 52.0533 23.2201 51.9384 23.3902C51.8315 23.5484 51.6654 23.679 51.471 23.6992C51.3257 23.7143 51.1787 23.6619 51.1219 23.5313C51.0911 23.4609 51.0947 23.4224 51.1062 23.374L51.1168 23.3317C51.1532 23.1839 51.1694 23.0713 51.0862 22.9264ZM50.9372 19.9635C50.6468 20.1401 50.2041 20.552 50.5166 20.99C50.8844 21.3762 51.4142 20.9333 51.6751 20.7332C51.9171 20.5779 52.189 20.977 51.9645 21.1582C50.0785 22.5551 49.3131 20.0097 50.7903 19.7557C50.9529 19.7278 51.0134 19.9088 50.9372 19.9635ZM54.0051 18.7521C53.8268 18.4845 53.4198 18.5238 53.3215 18.8414C53.2683 19.0135 53.3418 19.1681 53.338 19.34C53.3347 19.4851 53.3444 19.6468 53.3888 19.7874C53.4903 20.1079 53.7783 20.3342 54.1192 20.3249C54.459 20.3155 54.7582 20.1004 54.9006 19.7974C55.0434 19.4931 55.0132 19.1784 54.909 18.8691C54.9039 18.8543 54.8844 18.847 54.8728 18.8596C54.7495 18.9905 54.6593 19.1289 54.5659 19.2757L54.4703 19.4259C54.3971 19.5392 54.2909 19.6839 54.1544 19.6748L54.134 19.6728C54.0959 19.6696 54.1017 19.677 54.0724 19.6253C54.059 19.6015 54.0615 19.5568 54.0549 19.5286L54.0526 19.5191L54.0539 19.5139C54.0585 19.486 54.0612 19.4579 54.0619 19.4297L54.0624 19.4199C54.0722 19.2107 54.1314 18.9417 54.0051 18.7521ZM49.485 18.9302C49.517 18.5879 49.0359 18.512 48.8761 18.7653C48.7927 18.8973 48.7683 19.0632 48.7499 19.2205L48.7413 19.295C48.7224 19.4565 48.7147 19.6244 48.7848 19.775C48.8952 20.0123 49.1352 20.1376 49.3939 20.1177C49.5163 20.1083 49.6344 20.0687 49.7377 20.0024C49.841 19.9361 49.9261 19.8452 49.9856 19.7378C50.0916 19.5435 50.197 19.1644 50.0683 18.9617C50.0604 18.9495 50.045 18.9479 50.0342 18.9574C49.9126 19.0655 49.8927 19.2626 49.8204 19.4033C49.7458 19.5485 49.6327 19.69 49.4611 19.712C49.2973 19.7331 49.2344 19.6433 49.2763 19.4869C49.3304 19.285 49.4646 19.1477 49.485 18.9302ZM53.875 16.717L53.7964 16.687C53.5269 16.585 53.1568 16.4674 52.9378 16.6866C52.8025 16.8217 52.7768 17.0209 52.8733 17.1859C52.9902 17.3859 53.2 17.3908 53.4025 17.4201C53.6358 17.4538 53.8639 17.517 54.0814 17.608C54.323 17.7104 54.5472 17.8378 54.7668 17.98C54.9756 18.1153 55.1836 18.3366 55.4334 18.3783C55.4436 18.3799 55.4553 18.3756 55.4578 18.3643C55.5147 18.1199 55.357 17.8793 55.2162 17.6887C55.0459 17.458 54.8396 17.2684 54.6091 17.0987C54.3864 16.9346 54.1322 16.8161 53.875 16.717ZM48.9789 17.586L48.9549 17.5818C48.7914 17.5545 48.6433 17.5609 48.5202 17.6903C48.4261 17.789 48.3899 17.917 48.4347 18.0478C48.476 18.1683 48.5685 18.2907 48.7027 18.316C49.1559 18.4012 49.6578 18.387 50.1132 18.3226C50.3217 18.2931 50.5319 18.2568 50.7349 18.1998L50.8282 18.1727C50.9977 18.1243 51.1916 18.0736 51.3147 17.9491C51.359 17.9043 51.3335 17.8402 51.2805 17.8194C51.0658 17.7353 50.7715 17.7799 50.5424 17.7734C50.2757 17.765 50.0095 17.7466 49.7441 17.7184C49.4852 17.6914 49.2344 17.6328 48.9789 17.586Z" fill="black"/>
<path fill-rule="evenodd" clip-rule="evenodd" d="M54.3645 23.9216C54.0531 23.1915 53.3732 22.6551 52.5905 22.4588C52.0158 22.3153 51.4125 22.3198 50.8267 22.3768C50.5197 22.4065 50.1905 22.4307 49.9011 22.5449C49.654 22.6423 49.4528 22.8264 49.3013 23.0426C49.1212 23.2988 48.9986 23.592 48.9125 23.8924C48.9003 23.9352 48.8888 23.9782 48.8781 24.0215C48.9156 24.2482 48.995 24.4413 49.2049 24.5838C49.4098 24.723 49.6542 24.78 49.8978 24.8002C49.921 24.7892 49.9438 24.7774 49.9661 24.7649C50.3458 24.5472 50.6129 24.0334 51.0922 24.1029C51.52 24.165 51.8015 24.7035 52.0559 25.0191C52.8722 25.1143 53.688 24.8688 54.3523 24.4017C54.385 24.2437 54.3892 24.0811 54.3645 23.9216ZM48.3232 23.3678C48.3885 23.1845 48.4706 23.0077 48.5683 22.8395C48.8914 22.2847 49.3837 21.848 49.973 21.5934C51.3626 20.9983 53.1607 21.4179 54.2829 22.3941C54.6663 22.7279 55.054 23.2183 55.1712 23.7458C55.2071 23.7535 55.2401 23.7711 55.2665 23.7966C56.0774 23.2858 56.9123 22.7945 57.5656 22.0867C58.0402 21.5723 58.3702 20.9635 58.5723 20.2947C58.5889 20.2397 58.6775 20.2477 58.6748 20.3087L58.6726 20.3513C58.681 20.3251 58.7209 20.3386 58.724 20.3641C58.8327 21.1766 58.9687 22.0381 58.8434 22.855C58.7686 23.3423 58.5473 23.699 58.2514 24.0843C57.9344 24.4973 57.5757 24.8814 57.2087 25.2498C56.9758 25.4836 56.7327 25.7533 56.4476 25.9248C56.116 26.124 55.7399 26.2754 55.3861 26.4291C55.0265 26.5871 54.6602 26.7297 54.2884 26.8564C53.5442 27.1085 52.775 27.2826 51.9923 27.3589C51.3657 27.4197 50.6495 27.486 50.049 27.2501C49.5888 27.0695 49.2173 26.7428 48.9225 26.3498C48.6018 25.9217 48.3482 25.4341 48.208 24.92C48.0623 24.3859 48.2926 23.4537 48.3232 23.3678Z" fill="black"/>
</svg>
