<svg width="90" height="90" viewBox="0 0 90 90" fill="none" xmlns="http://www.w3.org/2000/svg">
<circle cx="45.934" cy="45.934" r="43.434" fill="#1A1E28" stroke="#ED0000"/>
<path d="M53.4403 50.6709L47.9617 45.1922L53.2514 39.9025C54.3471 38.8068 54.3471 36.9932 53.2514 35.8975C52.7181 35.3705 51.9986 35.0749 51.2489 35.0749C50.4991 35.0749 49.7796 35.3705 49.2463 35.8975L43.9566 41.1872L38.478 35.7085C37.9447 35.1815 37.2252 34.886 36.4755 34.886C35.7257 34.886 35.0062 35.1815 34.4729 35.7085C33.3772 36.8043 33.3772 38.6179 34.4729 39.7136L39.9516 45.1922L34.3218 50.822C33.2261 51.9177 33.2261 53.7313 34.3218 54.8271C34.8885 55.3938 35.6064 55.6583 36.3243 55.6583C37.0422 55.6583 37.7601 55.3938 38.3269 54.8271L43.9566 49.1973L49.4353 54.6759C50.002 55.2427 50.7199 55.5072 51.4378 55.5072C52.1557 55.5072 52.8736 55.2427 53.4403 54.6759C54.536 53.5802 54.536 51.8044 53.4403 50.6709Z" fill="#FF0000"/>
</svg>
