<svg width="16" height="16" viewBox="0 0 16 16" fill="none" xmlns="http://www.w3.org/2000/svg">
<path d="M4.11111 11.8889V6.44444M15 4.88889V11.1111C15 12.1425 14.5903 13.1317 13.861 13.861C13.1317 14.5903 12.1425 15 11.1111 15H4.88889C3.85749 15 2.86834 14.5903 2.13903 13.861C1.40972 13.1317 1 12.1425 1 11.1111V4.88889C1 3.85749 1.40972 2.86834 2.13903 2.13903C2.86834 1.40972 3.85749 1 4.88889 1H11.1111C12.1425 1 13.1317 1.40972 13.861 2.13903C14.5903 2.86834 15 3.85749 15 4.88889Z" stroke="#F8F8F8" stroke-width="1.2" stroke-linecap="round" stroke-linejoin="round"/>
<path d="M7.22244 11.8879V9.36015M7.22244 9.36015V6.44349M7.22244 9.36015C7.22244 6.44349 11.8891 6.44349 11.8891 9.36015V11.8879M4.11133 4.11793L4.11911 4.10938" stroke="#F8F8F8" stroke-width="1.2" stroke-linecap="round" stroke-linejoin="round"/>
</svg>
