<svg width="1426" height="192" viewBox="0 0 1426 192" fill="none" xmlns="http://www.w3.org/2000/svg">
<path d="M420.331 73V23.976H420.395L446.571 61.096L442.603 60.2L468.715 23.976H468.843V73H459.563V44.904L460.139 49.704L444.203 72.36H444.075L427.691 49.704L429.291 45.288V73H420.331ZM493.306 73.768C489.893 73.768 486.991 73.128 484.602 71.848C482.255 70.568 480.463 68.7973 479.226 66.536C477.989 64.2747 477.37 61.672 477.37 58.728C477.37 55.912 478.095 53.3733 479.546 51.112C480.997 48.8507 482.938 47.0587 485.37 45.736C487.802 44.3707 490.511 43.688 493.498 43.688C497.509 43.688 500.794 44.8613 503.354 47.208C505.957 49.512 507.642 52.8613 508.41 57.256L486.65 64.168L484.666 59.304L500.41 53.992L498.554 54.824C498.213 53.7147 497.594 52.7547 496.698 51.944C495.845 51.0907 494.543 50.664 492.794 50.664C490.789 50.664 489.189 51.3467 487.994 52.712C486.799 54.0773 486.202 55.912 486.202 58.216C486.202 60.8187 486.906 62.8027 488.314 64.168C489.722 65.4907 491.45 66.152 493.498 66.152C494.479 66.152 495.418 65.9813 496.314 65.64C497.253 65.2987 498.17 64.8507 499.066 64.296L503.034 70.952C501.541 71.8053 499.919 72.488 498.17 73C496.463 73.512 494.842 73.768 493.306 73.768ZM523.049 45.032L523.753 50.024L523.625 49.576C524.606 47.8267 525.993 46.4187 527.785 45.352C529.577 44.2427 531.774 43.688 534.377 43.688C537.022 43.688 539.22 44.4773 540.969 46.056C542.761 47.592 543.678 49.5973 543.721 52.072V73H534.761V55.4C534.718 54.1627 534.377 53.1813 533.737 52.456C533.14 51.688 532.116 51.304 530.665 51.304C528.574 51.304 526.91 52.2853 525.673 54.248C524.478 56.168 523.881 58.6213 523.881 61.608V73H514.921V45.032H523.049ZM555.545 32.744H564.505V44.904H571.289V51.88H564.505V73H555.545V51.88H551.193V44.904H555.545V32.744ZM575.933 58.664C575.933 55.8053 576.594 53.2453 577.917 50.984C579.282 48.7227 581.181 46.952 583.613 45.672C586.045 44.3493 588.839 43.688 591.997 43.688C595.197 43.688 597.97 44.3493 600.317 45.672C602.663 46.952 604.455 48.7227 605.693 50.984C606.973 53.2453 607.613 55.8053 607.613 58.664C607.613 61.5227 606.973 64.104 605.693 66.408C604.455 68.6693 602.663 70.4613 600.317 71.784C597.97 73.1067 595.154 73.768 591.869 73.768C588.797 73.768 586.045 73.1707 583.613 71.976C581.223 70.7813 579.346 69.0533 577.981 66.792C576.615 64.5307 575.933 61.8213 575.933 58.664ZM584.957 58.728C584.957 60.1787 585.255 61.5013 585.853 62.696C586.45 63.848 587.261 64.7653 588.285 65.448C589.309 66.1307 590.461 66.472 591.741 66.472C593.831 66.472 595.495 65.7467 596.733 64.296C597.97 62.8027 598.589 60.9467 598.589 58.728C598.589 56.5093 597.97 54.6747 596.733 53.224C595.495 51.7307 593.831 50.984 591.741 50.984C590.461 50.984 589.309 51.3253 588.285 52.008C587.261 52.6907 586.45 53.608 585.853 54.76C585.255 55.912 584.957 57.2347 584.957 58.728ZM622.735 45.032L623.567 52.712L623.375 51.56C624.186 49.896 625.295 48.488 626.703 47.336C628.111 46.1413 629.498 45.224 630.863 44.584C632.271 43.944 633.338 43.624 634.063 43.624L633.615 52.584C631.524 52.328 629.732 52.6693 628.239 53.608C626.746 54.5467 625.594 55.784 624.783 57.32C623.972 58.856 623.567 60.4347 623.567 62.056V73H614.671V45.032H622.735ZM659.026 55.592C659.026 57.0853 659.474 58.5147 660.37 59.88C661.266 61.2453 662.439 62.3547 663.89 63.208C665.383 64.0613 667.004 64.488 668.754 64.488C670.674 64.488 672.38 64.0613 673.874 63.208C675.367 62.3547 676.54 61.2453 677.394 59.88C678.29 58.5147 678.738 57.0853 678.738 55.592V25.896H687.89V55.784C687.89 59.24 687.036 62.312 685.33 65C683.623 67.6453 681.319 69.736 678.418 71.272C675.516 72.7653 672.295 73.512 668.754 73.512C665.255 73.512 662.055 72.7653 659.154 71.272C656.295 69.736 654.012 67.6453 652.306 65C650.599 62.312 649.746 59.24 649.746 55.784V25.896H659.026V55.592ZM705.737 45.032L706.441 50.024L706.313 49.576C707.294 47.8267 708.681 46.4187 710.473 45.352C712.265 44.2427 714.462 43.688 717.065 43.688C719.71 43.688 721.907 44.4773 723.657 46.056C725.449 47.592 726.366 49.5973 726.409 52.072V73H717.449V55.4C717.406 54.1627 717.065 53.1813 716.425 52.456C715.827 51.688 714.803 51.304 713.353 51.304C711.262 51.304 709.598 52.2853 708.361 54.248C707.166 56.168 706.569 58.6213 706.569 61.608V73H697.609V45.032H705.737ZM747.385 73.768C744.782 73.768 742.414 73.256 740.281 72.232C738.19 71.1653 736.526 69.544 735.289 67.368C734.051 65.192 733.433 62.4187 733.433 59.048C733.433 55.8907 734.073 53.16 735.353 50.856C736.633 48.552 738.318 46.7813 740.409 45.544C742.499 44.264 744.718 43.624 747.065 43.624C749.838 43.624 751.929 44.0933 753.337 45.032C754.787 45.928 755.982 46.9307 756.921 48.04L756.537 49.128L757.369 45.032H765.689V73H756.729V66.92L757.433 68.84C757.347 68.84 757.091 69.096 756.665 69.608C756.238 70.0773 755.598 70.6533 754.745 71.336C753.934 71.976 752.91 72.5307 751.673 73C750.478 73.512 749.049 73.768 747.385 73.768ZM749.945 66.472C751.566 66.472 752.931 66.1307 754.041 65.448C755.15 64.7227 756.046 63.656 756.729 62.248V55.4C756.217 54.0347 755.321 52.9467 754.041 52.136C752.803 51.3253 751.331 50.92 749.625 50.92C748.345 50.92 747.15 51.2613 746.041 51.944C744.974 52.584 744.121 53.48 743.481 54.632C742.841 55.784 742.521 57.1067 742.521 58.6C742.521 60.0933 742.862 61.4373 743.545 62.632C744.227 63.8267 745.123 64.7653 746.233 65.448C747.385 66.1307 748.622 66.472 749.945 66.472ZM787.721 73.576L770.953 45.032H781.577L791.113 64.36L785.609 64.168L793.865 45.032H803.849L787.977 73.576H787.721ZM819.635 73.768C817.032 73.768 814.664 73.256 812.531 72.232C810.44 71.1653 808.776 69.544 807.539 67.368C806.301 65.192 805.683 62.4187 805.683 59.048C805.683 55.8907 806.323 53.16 807.603 50.856C808.883 48.552 810.568 46.7813 812.659 45.544C814.749 44.264 816.968 43.624 819.315 43.624C822.088 43.624 824.179 44.0933 825.587 45.032C827.037 45.928 828.232 46.9307 829.171 48.04L828.787 49.128L829.619 45.032H837.939V73H828.979V66.92L829.683 68.84C829.597 68.84 829.341 69.096 828.915 69.608C828.488 70.0773 827.848 70.6533 826.995 71.336C826.184 71.976 825.16 72.5307 823.923 73C822.728 73.512 821.299 73.768 819.635 73.768ZM822.195 66.472C823.816 66.472 825.181 66.1307 826.291 65.448C827.4 64.7227 828.296 63.656 828.979 62.248V55.4C828.467 54.0347 827.571 52.9467 826.291 52.136C825.053 51.3253 823.581 50.92 821.875 50.92C820.595 50.92 819.4 51.2613 818.291 51.944C817.224 52.584 816.371 53.48 815.731 54.632C815.091 55.784 814.771 57.1067 814.771 58.6C814.771 60.0933 815.112 61.4373 815.795 62.632C816.477 63.8267 817.373 64.7653 818.483 65.448C819.635 66.1307 820.872 66.472 822.195 66.472ZM847.171 45.032H856.131V73H847.171V45.032ZM846.979 35.112C846.979 33.7893 847.491 32.7013 848.515 31.848C849.582 30.9947 850.712 30.568 851.907 30.568C853.102 30.568 854.19 30.9947 855.171 31.848C856.195 32.7013 856.707 33.7893 856.707 35.112C856.707 36.4347 856.195 37.5227 855.171 38.376C854.19 39.1867 853.102 39.592 851.907 39.592C850.712 39.592 849.582 39.1867 848.515 38.376C847.491 37.5227 846.979 36.4347 846.979 35.112ZM865.359 22.504H874.319V73H865.359V22.504ZM895.322 73.768C892.719 73.768 890.351 73.256 888.218 72.232C886.127 71.1653 884.463 69.544 883.226 67.368C881.989 65.192 881.37 62.4187 881.37 59.048C881.37 55.8907 882.01 53.16 883.29 50.856C884.57 48.552 886.255 46.7813 888.346 45.544C890.437 44.264 892.655 43.624 895.002 43.624C897.775 43.624 899.866 44.0933 901.274 45.032C902.725 45.928 903.919 46.9307 904.858 48.04L904.474 49.128L905.306 45.032H913.626V73H904.666V66.92L905.37 68.84C905.285 68.84 905.029 69.096 904.602 69.608C904.175 70.0773 903.535 70.6533 902.682 71.336C901.871 71.976 900.847 72.5307 899.61 73C898.415 73.512 896.986 73.768 895.322 73.768ZM897.882 66.472C899.503 66.472 900.869 66.1307 901.978 65.448C903.087 64.7227 903.983 63.656 904.666 62.248V55.4C904.154 54.0347 903.258 52.9467 901.978 52.136C900.741 51.3253 899.269 50.92 897.562 50.92C896.282 50.92 895.087 51.2613 893.978 51.944C892.911 52.584 892.058 53.48 891.418 54.632C890.778 55.784 890.458 57.1067 890.458 58.6C890.458 60.0933 890.799 61.4373 891.482 62.632C892.165 63.8267 893.061 64.7653 894.17 65.448C895.322 66.1307 896.559 66.472 897.882 66.472ZM941.227 73.768C938.88 73.768 936.896 73.384 935.275 72.616C933.696 71.8053 932.309 70.76 931.115 69.48L931.819 67.56V73H922.859V22.504H931.755V49.832V46.952C932.864 46.0133 934.336 45.224 936.171 44.584C938.005 43.944 940.096 43.624 942.443 43.624C944.875 43.624 947.093 44.2 949.099 45.352C951.104 46.504 952.704 48.1893 953.899 50.408C955.136 52.584 955.755 55.2507 955.755 58.408C955.755 61.5653 955.072 64.296 953.707 66.6C952.384 68.904 950.613 70.6747 948.395 71.912C946.176 73.1493 943.787 73.768 941.227 73.768ZM939.243 66.216C940.565 66.216 941.781 65.8747 942.891 65.192C944.043 64.5093 944.96 63.5707 945.643 62.376C946.325 61.1813 946.667 59.8373 946.667 58.344C946.667 56.8507 946.325 55.528 945.643 54.376C944.96 53.224 944.043 52.328 942.891 51.688C941.781 51.0053 940.565 50.664 939.243 50.664C937.493 50.664 935.957 51.0693 934.635 51.88C933.312 52.6907 932.373 53.7787 931.819 55.144V61.992C932.587 63.4 933.568 64.4667 934.763 65.192C936 65.8747 937.493 66.216 939.243 66.216ZM962.796 22.504H971.756V73H962.796V22.504ZM994.744 73.768C991.33 73.768 988.429 73.128 986.04 71.848C983.693 70.568 981.901 68.7973 980.664 66.536C979.426 64.2747 978.808 61.672 978.808 58.728C978.808 55.912 979.533 53.3733 980.984 51.112C982.434 48.8507 984.376 47.0587 986.808 45.736C989.24 44.3707 991.949 43.688 994.936 43.688C998.946 43.688 1002.23 44.8613 1004.79 47.208C1007.39 49.512 1009.08 52.8613 1009.85 57.256L988.088 64.168L986.104 59.304L1001.85 53.992L999.992 54.824C999.65 53.7147 999.032 52.7547 998.136 51.944C997.282 51.0907 995.981 50.664 994.232 50.664C992.226 50.664 990.626 51.3467 989.432 52.712C988.237 54.0773 987.64 55.912 987.64 58.216C987.64 60.8187 988.344 62.8027 989.752 64.168C991.16 65.4907 992.888 66.152 994.936 66.152C995.917 66.152 996.856 65.9813 997.752 65.64C998.69 65.2987 999.608 64.8507 1000.5 64.296L1004.47 70.952C1002.98 71.8053 1001.36 72.488 999.608 73C997.901 73.512 996.28 73.768 994.744 73.768Z" fill="url(#paint0_linear_3408_20221)"/>
<path d="M276.564 145.056H284.084V148H272.916V125.76H276.564V145.056ZM295.103 148.288C293.439 148.288 291.935 147.915 290.591 147.168C289.247 146.4 288.191 145.333 287.423 143.968C286.655 142.581 286.271 140.981 286.271 139.168C286.271 137.376 286.666 135.787 287.455 134.4C288.244 133.013 289.322 131.947 290.687 131.2C292.052 130.453 293.578 130.08 295.263 130.08C296.948 130.08 298.474 130.453 299.839 131.2C301.204 131.947 302.282 133.013 303.071 134.4C303.86 135.787 304.255 137.376 304.255 139.168C304.255 140.96 303.85 142.549 303.039 143.936C302.228 145.323 301.119 146.4 299.711 147.168C298.324 147.915 296.788 148.288 295.103 148.288ZM295.103 145.12C296.042 145.12 296.916 144.896 297.727 144.448C298.559 144 299.231 143.328 299.743 142.432C300.255 141.536 300.511 140.448 300.511 139.168C300.511 137.888 300.266 136.811 299.775 135.936C299.284 135.04 298.634 134.368 297.823 133.92C297.012 133.472 296.138 133.248 295.199 133.248C294.26 133.248 293.386 133.472 292.575 133.92C291.786 134.368 291.156 135.04 290.687 135.936C290.218 136.811 289.983 137.888 289.983 139.168C289.983 141.067 290.463 142.539 291.423 143.584C292.404 144.608 293.631 145.12 295.103 145.12ZM315.829 148.288C314.165 148.288 312.661 147.915 311.317 147.168C309.973 146.4 308.917 145.333 308.149 143.968C307.381 142.581 306.997 140.981 306.997 139.168C306.997 137.376 307.392 135.787 308.181 134.4C308.971 133.013 310.048 131.947 311.413 131.2C312.779 130.453 314.304 130.08 315.989 130.08C317.675 130.08 319.2 130.453 320.565 131.2C321.931 131.947 323.008 133.013 323.797 134.4C324.587 135.787 324.981 137.376 324.981 139.168C324.981 140.96 324.576 142.549 323.765 143.936C322.955 145.323 321.845 146.4 320.437 147.168C319.051 147.915 317.515 148.288 315.829 148.288ZM315.829 145.12C316.768 145.12 317.643 144.896 318.453 144.448C319.285 144 319.957 143.328 320.469 142.432C320.981 141.536 321.237 140.448 321.237 139.168C321.237 137.888 320.992 136.811 320.501 135.936C320.011 135.04 319.36 134.368 318.549 133.92C317.739 133.472 316.864 133.248 315.925 133.248C314.987 133.248 314.112 133.472 313.301 133.92C312.512 134.368 311.883 135.04 311.413 135.936C310.944 136.811 310.709 137.888 310.709 139.168C310.709 141.067 311.189 142.539 312.149 143.584C313.131 144.608 314.357 145.12 315.829 145.12ZM335.883 139.2L344.011 148H339.083L332.555 140.416V148H328.907V124.32H332.555V138.08L338.955 130.368H344.011L335.883 139.2ZM353.346 148.288C351.96 148.288 350.712 148.043 349.602 147.552C348.514 147.04 347.65 146.357 347.01 145.504C346.37 144.629 346.029 143.659 345.986 142.592H349.762C349.826 143.339 350.178 143.968 350.818 144.48C351.48 144.971 352.301 145.216 353.282 145.216C354.306 145.216 355.096 145.024 355.65 144.64C356.226 144.235 356.514 143.723 356.514 143.104C356.514 142.443 356.194 141.952 355.554 141.632C354.936 141.312 353.944 140.96 352.578 140.576C351.256 140.213 350.178 139.861 349.346 139.52C348.514 139.179 347.789 138.656 347.17 137.952C346.573 137.248 346.274 136.32 346.274 135.168C346.274 134.229 346.552 133.376 347.106 132.608C347.661 131.819 348.45 131.2 349.474 130.752C350.52 130.304 351.714 130.08 353.058 130.08C355.064 130.08 356.674 130.592 357.89 131.616C359.128 132.619 359.789 133.995 359.874 135.744H356.226C356.162 134.955 355.842 134.325 355.266 133.856C354.69 133.387 353.912 133.152 352.93 133.152C351.97 133.152 351.234 133.333 350.722 133.696C350.21 134.059 349.954 134.539 349.954 135.136C349.954 135.605 350.125 136 350.466 136.32C350.808 136.64 351.224 136.896 351.714 137.088C352.205 137.259 352.93 137.483 353.89 137.76C355.17 138.101 356.216 138.453 357.026 138.816C357.858 139.157 358.573 139.669 359.17 140.352C359.768 141.035 360.077 141.941 360.098 143.072C360.098 144.075 359.821 144.971 359.266 145.76C358.712 146.549 357.922 147.168 356.898 147.616C355.896 148.064 354.712 148.288 353.346 148.288ZM376.64 124.32V148H372.992V124.32H376.64ZM383.606 128.032C382.945 128.032 382.39 127.808 381.942 127.36C381.494 126.912 381.27 126.357 381.27 125.696C381.27 125.035 381.494 124.48 381.942 124.032C382.39 123.584 382.945 123.36 383.606 123.36C384.246 123.36 384.79 123.584 385.238 124.032C385.686 124.48 385.91 125.035 385.91 125.696C385.91 126.357 385.686 126.912 385.238 127.36C384.79 127.808 384.246 128.032 383.606 128.032ZM385.398 130.368V148H381.75V130.368H385.398ZM397.483 139.2L405.611 148H400.683L394.155 140.416V148H390.507V124.32H394.155V138.08L400.555 130.368H405.611L397.483 139.2ZM424.706 138.752C424.706 139.413 424.664 140.011 424.578 140.544H411.106C411.213 141.952 411.736 143.083 412.674 143.936C413.613 144.789 414.765 145.216 416.13 145.216C418.093 145.216 419.48 144.395 420.29 142.752H424.226C423.693 144.373 422.722 145.707 421.314 146.752C419.928 147.776 418.2 148.288 416.13 148.288C414.445 148.288 412.93 147.915 411.586 147.168C410.264 146.4 409.218 145.333 408.45 143.968C407.704 142.581 407.33 140.981 407.33 139.168C407.33 137.355 407.693 135.765 408.418 134.4C409.165 133.013 410.2 131.947 411.522 131.2C412.866 130.453 414.402 130.08 416.13 130.08C417.794 130.08 419.277 130.443 420.578 131.168C421.88 131.893 422.893 132.917 423.618 134.24C424.344 135.541 424.706 137.045 424.706 138.752ZM420.898 137.6C420.877 136.256 420.397 135.179 419.458 134.368C418.52 133.557 417.357 133.152 415.97 133.152C414.712 133.152 413.634 133.557 412.738 134.368C411.842 135.157 411.309 136.235 411.138 137.6H420.898ZM460.929 130.368L455.457 148H451.617L448.065 134.976L444.513 148H440.673L435.169 130.368H438.881L442.561 144.544L446.305 130.368H450.113L453.697 144.48L457.345 130.368H460.929ZM480.135 138.752C480.135 139.413 480.092 140.011 480.007 140.544H466.535C466.642 141.952 467.164 143.083 468.103 143.936C469.042 144.789 470.194 145.216 471.559 145.216C473.522 145.216 474.908 144.395 475.719 142.752H479.655C479.122 144.373 478.151 145.707 476.743 146.752C475.356 147.776 473.628 148.288 471.559 148.288C469.874 148.288 468.359 147.915 467.015 147.168C465.692 146.4 464.647 145.333 463.879 143.968C463.132 142.581 462.759 140.981 462.759 139.168C462.759 137.355 463.122 135.765 463.847 134.4C464.594 133.013 465.628 131.947 466.951 131.2C468.295 130.453 469.831 130.08 471.559 130.08C473.223 130.08 474.706 130.443 476.007 131.168C477.308 131.893 478.322 132.917 479.047 134.24C479.772 135.541 480.135 137.045 480.135 138.752ZM476.327 137.6C476.306 136.256 475.826 135.179 474.887 134.368C473.948 133.557 472.786 133.152 471.399 133.152C470.14 133.152 469.063 133.557 468.167 134.368C467.271 135.157 466.738 136.235 466.567 137.6H476.327ZM491.461 139.104C491.461 137.333 491.824 135.765 492.549 134.4C493.296 133.035 494.299 131.979 495.557 131.232C496.837 130.464 498.256 130.08 499.813 130.08C500.965 130.08 502.096 130.336 503.205 130.848C504.336 131.339 505.232 132 505.893 132.832V124.32H509.573V148H505.893V145.344C505.296 146.197 504.464 146.901 503.397 147.456C502.352 148.011 501.147 148.288 499.781 148.288C498.245 148.288 496.837 147.904 495.557 147.136C494.299 146.347 493.296 145.259 492.549 143.872C491.824 142.464 491.461 140.875 491.461 139.104ZM505.893 139.168C505.893 137.952 505.637 136.896 505.125 136C504.635 135.104 503.984 134.421 503.173 133.952C502.363 133.483 501.488 133.248 500.549 133.248C499.611 133.248 498.736 133.483 497.925 133.952C497.115 134.4 496.453 135.072 495.941 135.968C495.451 136.843 495.205 137.888 495.205 139.104C495.205 140.32 495.451 141.387 495.941 142.304C496.453 143.221 497.115 143.925 497.925 144.416C498.757 144.885 499.632 145.12 500.549 145.12C501.488 145.12 502.363 144.885 503.173 144.416C503.984 143.947 504.635 143.264 505.125 142.368C505.637 141.451 505.893 140.384 505.893 139.168ZM522.333 148.288C520.669 148.288 519.165 147.915 517.821 147.168C516.477 146.4 515.421 145.333 514.653 143.968C513.885 142.581 513.501 140.981 513.501 139.168C513.501 137.376 513.896 135.787 514.685 134.4C515.474 133.013 516.552 131.947 517.917 131.2C519.282 130.453 520.808 130.08 522.493 130.08C524.178 130.08 525.704 130.453 527.069 131.2C528.434 131.947 529.512 133.013 530.301 134.4C531.09 135.787 531.485 137.376 531.485 139.168C531.485 140.96 531.08 142.549 530.269 143.936C529.458 145.323 528.349 146.4 526.941 147.168C525.554 147.915 524.018 148.288 522.333 148.288ZM522.333 145.12C523.272 145.12 524.146 144.896 524.957 144.448C525.789 144 526.461 143.328 526.973 142.432C527.485 141.536 527.741 140.448 527.741 139.168C527.741 137.888 527.496 136.811 527.005 135.936C526.514 135.04 525.864 134.368 525.053 133.92C524.242 133.472 523.368 133.248 522.429 133.248C521.49 133.248 520.616 133.472 519.805 133.92C519.016 134.368 518.386 135.04 517.917 135.936C517.448 136.811 517.213 137.888 517.213 139.168C517.213 141.067 517.693 142.539 518.653 143.584C519.634 144.608 520.861 145.12 522.333 145.12ZM544.307 130.08C545.694 130.08 546.931 130.368 548.019 130.944C549.129 131.52 549.993 132.373 550.611 133.504C551.23 134.635 551.539 136 551.539 137.6V148H547.923V138.144C547.923 136.565 547.529 135.36 546.739 134.528C545.95 133.675 544.873 133.248 543.507 133.248C542.142 133.248 541.054 133.675 540.243 134.528C539.454 135.36 539.059 136.565 539.059 138.144V148H535.411V130.368H539.059V132.384C539.657 131.659 540.414 131.093 541.331 130.688C542.27 130.283 543.262 130.08 544.307 130.08ZM557.088 125.76H561.056L557.696 133.376H555.136L557.088 125.76ZM568.838 133.344V143.104C568.838 143.765 568.988 144.245 569.286 144.544C569.606 144.821 570.14 144.96 570.886 144.96H573.126V148H570.246C568.604 148 567.345 147.616 566.47 146.848C565.596 146.08 565.158 144.832 565.158 143.104V133.344H563.078V130.368H565.158V125.984H568.838V130.368H573.126V133.344H568.838ZM594.561 130.08C595.905 130.08 597.1 130.368 598.145 130.944C599.212 131.52 600.044 132.373 600.641 133.504C601.26 134.635 601.569 136 601.569 137.6V148H597.953V138.144C597.953 136.565 597.559 135.36 596.769 134.528C595.98 133.675 594.903 133.248 593.537 133.248C592.172 133.248 591.084 133.675 590.273 134.528C589.484 135.36 589.089 136.565 589.089 138.144V148H585.441V124.32H589.089V132.416C589.708 131.669 590.487 131.093 591.425 130.688C592.385 130.283 593.431 130.08 594.561 130.08ZM605.326 139.104C605.326 137.333 605.689 135.765 606.414 134.4C607.161 133.035 608.164 131.979 609.422 131.232C610.702 130.464 612.11 130.08 613.646 130.08C615.033 130.08 616.238 130.357 617.262 130.912C618.308 131.445 619.14 132.117 619.758 132.928V130.368H623.438V148H619.758V145.376C619.14 146.208 618.297 146.901 617.23 147.456C616.164 148.011 614.948 148.288 613.582 148.288C612.068 148.288 610.681 147.904 609.422 147.136C608.164 146.347 607.161 145.259 606.414 143.872C605.689 142.464 605.326 140.875 605.326 139.104ZM619.758 139.168C619.758 137.952 619.502 136.896 618.99 136C618.5 135.104 617.849 134.421 617.038 133.952C616.228 133.483 615.353 133.248 614.414 133.248C613.476 133.248 612.601 133.483 611.79 133.952C610.98 134.4 610.318 135.072 609.806 135.968C609.316 136.843 609.07 137.888 609.07 139.104C609.07 140.32 609.316 141.387 609.806 142.304C610.318 143.221 610.98 143.925 611.79 144.416C612.622 144.885 613.497 145.12 614.414 145.12C615.353 145.12 616.228 144.885 617.038 144.416C617.849 143.947 618.5 143.264 618.99 142.368C619.502 141.451 619.758 140.384 619.758 139.168ZM635.366 144.736L640.358 130.368H644.23L637.51 148H633.158L626.47 130.368H630.374L635.366 144.736ZM663.467 138.752C663.467 139.413 663.425 140.011 663.339 140.544H649.867C649.974 141.952 650.497 143.083 651.435 143.936C652.374 144.789 653.526 145.216 654.891 145.216C656.854 145.216 658.241 144.395 659.051 142.752H662.987C662.454 144.373 661.483 145.707 660.075 146.752C658.689 147.776 656.961 148.288 654.891 148.288C653.206 148.288 651.691 147.915 650.347 147.168C649.025 146.4 647.979 145.333 647.211 143.968C646.465 142.581 646.091 140.981 646.091 139.168C646.091 137.355 646.454 135.765 647.179 134.4C647.926 133.013 648.961 131.947 650.283 131.2C651.627 130.453 653.163 130.08 654.891 130.08C656.555 130.08 658.038 130.443 659.339 131.168C660.641 131.893 661.654 132.917 662.379 134.24C663.105 135.541 663.467 137.045 663.467 138.752ZM659.659 137.6C659.638 136.256 659.158 135.179 658.219 134.368C657.281 133.557 656.118 133.152 654.731 133.152C653.473 133.152 652.395 133.557 651.499 134.368C650.603 135.157 650.07 136.235 649.899 137.6H659.659ZM674.794 139.104C674.794 137.333 675.157 135.765 675.882 134.4C676.629 133.035 677.631 131.979 678.89 131.232C680.17 130.464 681.578 130.08 683.114 130.08C684.501 130.08 685.706 130.357 686.73 130.912C687.775 131.445 688.607 132.117 689.226 132.928V130.368H692.906V148H689.226V145.376C688.607 146.208 687.765 146.901 686.698 147.456C685.631 148.011 684.415 148.288 683.05 148.288C681.535 148.288 680.149 147.904 678.89 147.136C677.631 146.347 676.629 145.259 675.882 143.872C675.157 142.464 674.794 140.875 674.794 139.104ZM689.226 139.168C689.226 137.952 688.97 136.896 688.458 136C687.967 135.104 687.317 134.421 686.506 133.952C685.695 133.483 684.821 133.248 683.882 133.248C682.943 133.248 682.069 133.483 681.258 133.952C680.447 134.4 679.786 135.072 679.274 135.968C678.783 136.843 678.538 137.888 678.538 139.104C678.538 140.32 678.783 141.387 679.274 142.304C679.786 143.221 680.447 143.925 681.258 144.416C682.09 144.885 682.965 145.12 683.882 145.12C684.821 145.12 685.695 144.885 686.506 144.416C687.317 143.947 687.967 143.264 688.458 142.368C688.97 141.451 689.226 140.384 689.226 139.168ZM727.994 130.08C729.381 130.08 730.618 130.368 731.706 130.944C732.815 131.52 733.679 132.373 734.298 133.504C734.938 134.635 735.258 136 735.258 137.6V148H731.642V138.144C731.642 136.565 731.247 135.36 730.458 134.528C729.669 133.675 728.591 133.248 727.226 133.248C725.861 133.248 724.773 133.675 723.962 134.528C723.173 135.36 722.778 136.565 722.778 138.144V148H719.162V138.144C719.162 136.565 718.767 135.36 717.978 134.528C717.189 133.675 716.111 133.248 714.746 133.248C713.381 133.248 712.293 133.675 711.482 134.528C710.693 135.36 710.298 136.565 710.298 138.144V148H706.65V130.368H710.298V132.384C710.895 131.659 711.653 131.093 712.57 130.688C713.487 130.283 714.469 130.08 715.514 130.08C716.922 130.08 718.181 130.379 719.29 130.976C720.399 131.573 721.253 132.437 721.85 133.568C722.383 132.501 723.215 131.659 724.346 131.04C725.477 130.4 726.693 130.08 727.994 130.08ZM756.38 138.752C756.38 139.413 756.337 140.011 756.252 140.544H742.78C742.887 141.952 743.409 143.083 744.348 143.936C745.287 144.789 746.439 145.216 747.804 145.216C749.767 145.216 751.153 144.395 751.964 142.752H755.9C755.367 144.373 754.396 145.707 752.988 146.752C751.601 147.776 749.873 148.288 747.804 148.288C746.119 148.288 744.604 147.915 743.26 147.168C741.937 146.4 740.892 145.333 740.124 143.968C739.377 142.581 739.004 140.981 739.004 139.168C739.004 137.355 739.367 135.765 740.092 134.4C740.839 133.013 741.873 131.947 743.196 131.2C744.54 130.453 746.076 130.08 747.804 130.08C749.468 130.08 750.951 130.443 752.252 131.168C753.553 131.893 754.567 132.917 755.292 134.24C756.017 135.541 756.38 137.045 756.38 138.752ZM752.572 137.6C752.551 136.256 752.071 135.179 751.132 134.368C750.193 133.557 749.031 133.152 747.644 133.152C746.385 133.152 745.308 133.557 744.412 134.368C743.516 135.157 742.983 136.235 742.812 137.6H752.572ZM769.186 130.08C770.573 130.08 771.81 130.368 772.898 130.944C774.007 131.52 774.871 132.373 775.49 133.504C776.109 134.635 776.418 136 776.418 137.6V148H772.802V138.144C772.802 136.565 772.407 135.36 771.618 134.528C770.829 133.675 769.751 133.248 768.386 133.248C767.021 133.248 765.933 133.675 765.122 134.528C764.333 135.36 763.938 136.565 763.938 138.144V148H760.29V130.368H763.938V132.384C764.535 131.659 765.293 131.093 766.21 130.688C767.149 130.283 768.141 130.08 769.186 130.08ZM785.647 133.344V143.104C785.647 143.765 785.797 144.245 786.095 144.544C786.415 144.821 786.949 144.96 787.695 144.96H789.935V148H787.055C785.413 148 784.154 147.616 783.279 146.848C782.405 146.08 781.967 144.832 781.967 143.104V133.344H779.887V130.368H781.967V125.984H785.647V130.368H789.935V133.344H785.647ZM801.265 148.288C799.601 148.288 798.097 147.915 796.753 147.168C795.409 146.4 794.353 145.333 793.585 143.968C792.817 142.581 792.433 140.981 792.433 139.168C792.433 137.376 792.828 135.787 793.617 134.4C794.407 133.013 795.484 131.947 796.849 131.2C798.215 130.453 799.74 130.08 801.425 130.08C803.111 130.08 804.636 130.453 806.001 131.2C807.367 131.947 808.444 133.013 809.233 134.4C810.023 135.787 810.417 137.376 810.417 139.168C810.417 140.96 810.012 142.549 809.201 143.936C808.391 145.323 807.281 146.4 805.873 147.168C804.487 147.915 802.951 148.288 801.265 148.288ZM801.265 145.12C802.204 145.12 803.079 144.896 803.889 144.448C804.721 144 805.393 143.328 805.905 142.432C806.417 141.536 806.673 140.448 806.673 139.168C806.673 137.888 806.428 136.811 805.937 135.936C805.447 135.04 804.796 134.368 803.985 133.92C803.175 133.472 802.3 133.248 801.361 133.248C800.423 133.248 799.548 133.472 798.737 133.92C797.948 134.368 797.319 135.04 796.849 135.936C796.38 136.811 796.145 137.888 796.145 139.168C796.145 141.067 796.625 142.539 797.585 143.584C798.567 144.608 799.793 145.12 801.265 145.12ZM817.992 132.928C818.525 132.032 819.229 131.339 820.104 130.848C821 130.336 822.056 130.08 823.272 130.08V133.856H822.344C820.914 133.856 819.826 134.219 819.08 134.944C818.354 135.669 817.992 136.928 817.992 138.72V148H814.344V130.368H817.992V132.928ZM837.433 128.032C836.772 128.032 836.217 127.808 835.769 127.36C835.321 126.912 835.097 126.357 835.097 125.696C835.097 125.035 835.321 124.48 835.769 124.032C836.217 123.584 836.772 123.36 837.433 123.36C838.073 123.36 838.617 123.584 839.065 124.032C839.513 124.48 839.737 125.035 839.737 125.696C839.737 126.357 839.513 126.912 839.065 127.36C838.617 127.808 838.073 128.032 837.433 128.032ZM839.225 130.368V148H835.577V130.368H839.225ZM853.231 130.08C854.618 130.08 855.855 130.368 856.943 130.944C858.052 131.52 858.916 132.373 859.535 133.504C860.154 134.635 860.463 136 860.463 137.6V148H856.847V138.144C856.847 136.565 856.452 135.36 855.663 134.528C854.874 133.675 853.796 133.248 852.431 133.248C851.066 133.248 849.978 133.675 849.167 134.528C848.378 135.36 847.983 136.565 847.983 138.144V148H844.335V130.368H847.983V132.384C848.58 131.659 849.338 131.093 850.255 130.688C851.194 130.283 852.186 130.08 853.231 130.08ZM878.325 133.344V143.104C878.325 143.765 878.474 144.245 878.773 144.544C879.093 144.821 879.626 144.96 880.373 144.96H882.613V148H879.733C878.09 148 876.831 147.616 875.957 146.848C875.082 146.08 874.645 144.832 874.645 143.104V133.344H872.565V130.368H874.645V125.984H878.325V130.368H882.613V133.344H878.325ZM895.415 130.08C896.759 130.08 897.954 130.368 898.999 130.944C900.066 131.52 900.898 132.373 901.495 133.504C902.114 134.635 902.423 136 902.423 137.6V148H898.807V138.144C898.807 136.565 898.412 135.36 897.623 134.528C896.834 133.675 895.756 133.248 894.391 133.248C893.026 133.248 891.938 133.675 891.127 134.528C890.338 135.36 889.943 136.565 889.943 138.144V148H886.295V124.32H889.943V132.416C890.562 131.669 891.34 131.093 892.279 130.688C893.239 130.283 894.284 130.08 895.415 130.08ZM909.252 128.032C908.591 128.032 908.036 127.808 907.588 127.36C907.14 126.912 906.916 126.357 906.916 125.696C906.916 125.035 907.14 124.48 907.588 124.032C908.036 123.584 908.591 123.36 909.252 123.36C909.892 123.36 910.436 123.584 910.884 124.032C911.332 124.48 911.556 125.035 911.556 125.696C911.556 126.357 911.332 126.912 910.884 127.36C910.436 127.808 909.892 128.032 909.252 128.032ZM911.044 130.368V148H907.396V130.368H911.044ZM922.554 148.288C921.167 148.288 919.919 148.043 918.81 147.552C917.722 147.04 916.858 146.357 916.218 145.504C915.578 144.629 915.236 143.659 915.194 142.592H918.97C919.034 143.339 919.386 143.968 920.026 144.48C920.687 144.971 921.508 145.216 922.49 145.216C923.514 145.216 924.303 145.024 924.858 144.64C925.434 144.235 925.722 143.723 925.722 143.104C925.722 142.443 925.402 141.952 924.762 141.632C924.143 141.312 923.151 140.96 921.786 140.576C920.463 140.213 919.386 139.861 918.554 139.52C917.722 139.179 916.996 138.656 916.378 137.952C915.78 137.248 915.482 136.32 915.482 135.168C915.482 134.229 915.759 133.376 916.314 132.608C916.868 131.819 917.658 131.2 918.682 130.752C919.727 130.304 920.922 130.08 922.266 130.08C924.271 130.08 925.882 130.592 927.098 131.616C928.335 132.619 928.996 133.995 929.082 135.744H925.434C925.37 134.955 925.05 134.325 924.474 133.856C923.898 133.387 923.119 133.152 922.138 133.152C921.178 133.152 920.442 133.333 919.93 133.696C919.418 134.059 919.162 134.539 919.162 135.136C919.162 135.605 919.332 136 919.674 136.32C920.015 136.64 920.431 136.896 920.922 137.088C921.412 137.259 922.138 137.483 923.098 137.76C924.378 138.101 925.423 138.453 926.234 138.816C927.066 139.157 927.78 139.669 928.378 140.352C928.975 141.035 929.284 141.941 929.306 143.072C929.306 144.075 929.028 144.971 928.474 145.76C927.919 146.549 927.13 147.168 926.106 147.616C925.103 148.064 923.919 148.288 922.554 148.288ZM940.984 139.168C940.984 137.355 941.347 135.765 942.072 134.4C942.819 133.013 943.843 131.947 945.144 131.2C946.445 130.453 947.939 130.08 949.624 130.08C951.757 130.08 953.517 130.592 954.904 131.616C956.312 132.619 957.261 134.059 957.752 135.936H953.816C953.496 135.061 952.984 134.379 952.28 133.888C951.576 133.397 950.691 133.152 949.624 133.152C948.131 133.152 946.936 133.685 946.04 134.752C945.165 135.797 944.728 137.269 944.728 139.168C944.728 141.067 945.165 142.549 946.04 143.616C946.936 144.683 948.131 145.216 949.624 145.216C951.736 145.216 953.133 144.288 953.816 142.432H957.752C957.24 144.224 956.28 145.653 954.872 146.72C953.464 147.765 951.715 148.288 949.624 148.288C947.939 148.288 946.445 147.915 945.144 147.168C943.843 146.4 942.819 145.333 942.072 143.968C941.347 142.581 940.984 140.981 940.984 139.168ZM960.491 139.104C960.491 137.333 960.854 135.765 961.579 134.4C962.326 133.035 963.329 131.979 964.587 131.232C965.867 130.464 967.275 130.08 968.811 130.08C970.198 130.08 971.403 130.357 972.427 130.912C973.473 131.445 974.305 132.117 974.923 132.928V130.368H978.603V148H974.923V145.376C974.305 146.208 973.462 146.901 972.395 147.456C971.329 148.011 970.113 148.288 968.747 148.288C967.233 148.288 965.846 147.904 964.587 147.136C963.329 146.347 962.326 145.259 961.579 143.872C960.854 142.464 960.491 140.875 960.491 139.104ZM974.923 139.168C974.923 137.952 974.667 136.896 974.155 136C973.665 135.104 973.014 134.421 972.203 133.952C971.393 133.483 970.518 133.248 969.579 133.248C968.641 133.248 967.766 133.483 966.955 133.952C966.145 134.4 965.483 135.072 964.971 135.968C964.481 136.843 964.235 137.888 964.235 139.104C964.235 140.32 964.481 141.387 964.971 142.304C965.483 143.221 966.145 143.925 966.955 144.416C967.787 144.885 968.662 145.12 969.579 145.12C970.518 145.12 971.393 144.885 972.203 144.416C973.014 143.947 973.665 143.264 974.155 142.368C974.667 141.451 974.923 140.384 974.923 139.168ZM987.971 133.344V143.104C987.971 143.765 988.12 144.245 988.419 144.544C988.739 144.821 989.272 144.96 990.019 144.96H992.259V148H989.379C987.736 148 986.478 147.616 985.603 146.848C984.728 146.08 984.291 144.832 984.291 143.104V133.344H982.211V130.368H984.291V125.984H987.971V130.368H992.259V133.344H987.971ZM1012.1 138.752C1012.1 139.413 1012.06 140.011 1011.97 140.544H998.501C998.608 141.952 999.131 143.083 1000.07 143.936C1001.01 144.789 1002.16 145.216 1003.53 145.216C1005.49 145.216 1006.87 144.395 1007.69 142.752H1011.62C1011.09 144.373 1010.12 145.707 1008.71 146.752C1007.32 147.776 1005.59 148.288 1003.53 148.288C1001.84 148.288 1000.33 147.915 998.981 147.168C997.659 146.4 996.613 145.333 995.845 143.968C995.099 142.581 994.725 140.981 994.725 139.168C994.725 137.355 995.088 135.765 995.813 134.4C996.56 133.013 997.595 131.947 998.917 131.2C1000.26 130.453 1001.8 130.08 1003.53 130.08C1005.19 130.08 1006.67 130.443 1007.97 131.168C1009.27 131.893 1010.29 132.917 1011.01 134.24C1011.74 135.541 1012.1 137.045 1012.1 138.752ZM1008.29 137.6C1008.27 136.256 1007.79 135.179 1006.85 134.368C1005.91 133.557 1004.75 133.152 1003.37 133.152C1002.11 133.152 1001.03 133.557 1000.13 134.368C999.237 135.157 998.704 136.235 998.533 137.6H1008.29ZM1023.12 130.08C1024.48 130.08 1025.69 130.357 1026.73 130.912C1027.8 131.445 1028.63 132.117 1029.23 132.928V130.368H1032.91V148.288C1032.91 149.909 1032.57 151.349 1031.88 152.608C1031.2 153.888 1030.21 154.891 1028.91 155.616C1027.63 156.341 1026.09 156.704 1024.3 156.704C1021.91 156.704 1019.93 156.139 1018.35 155.008C1016.77 153.899 1015.87 152.384 1015.66 150.464H1019.28C1019.55 151.381 1020.14 152.117 1021.04 152.672C1021.95 153.248 1023.04 153.536 1024.3 153.536C1025.77 153.536 1026.96 153.088 1027.85 152.192C1028.77 151.296 1029.23 149.995 1029.23 148.288V145.344C1028.61 146.176 1027.77 146.88 1026.7 147.456C1025.65 148.011 1024.46 148.288 1023.12 148.288C1021.58 148.288 1020.17 147.904 1018.89 147.136C1017.63 146.347 1016.63 145.259 1015.88 143.872C1015.16 142.464 1014.8 140.875 1014.8 139.104C1014.8 137.333 1015.16 135.765 1015.88 134.4C1016.63 133.035 1017.63 131.979 1018.89 131.232C1020.17 130.464 1021.58 130.08 1023.12 130.08ZM1029.23 139.168C1029.23 137.952 1028.97 136.896 1028.46 136C1027.97 135.104 1027.32 134.421 1026.51 133.952C1025.7 133.483 1024.82 133.248 1023.88 133.248C1022.94 133.248 1022.07 133.483 1021.26 133.952C1020.45 134.4 1019.79 135.072 1019.28 135.968C1018.78 136.843 1018.54 137.888 1018.54 139.104C1018.54 140.32 1018.78 141.387 1019.28 142.304C1019.79 143.221 1020.45 143.925 1021.26 144.416C1022.09 144.885 1022.97 145.12 1023.88 145.12C1024.82 145.12 1025.7 144.885 1026.51 144.416C1027.32 143.947 1027.97 143.264 1028.46 142.368C1028.97 141.451 1029.23 140.384 1029.23 139.168ZM1045.67 148.288C1044 148.288 1042.5 147.915 1041.15 147.168C1039.81 146.4 1038.75 145.333 1037.99 143.968C1037.22 142.581 1036.83 140.981 1036.83 139.168C1036.83 137.376 1037.23 135.787 1038.02 134.4C1038.81 133.013 1039.89 131.947 1041.25 131.2C1042.62 130.453 1044.14 130.08 1045.83 130.08C1047.51 130.08 1049.04 130.453 1050.4 131.2C1051.77 131.947 1052.85 133.013 1053.63 134.4C1054.42 135.787 1054.82 137.376 1054.82 139.168C1054.82 140.96 1054.41 142.549 1053.6 143.936C1052.79 145.323 1051.68 146.4 1050.27 147.168C1048.89 147.915 1047.35 148.288 1045.67 148.288ZM1045.67 145.12C1046.61 145.12 1047.48 144.896 1048.29 144.448C1049.12 144 1049.79 143.328 1050.31 142.432C1050.82 141.536 1051.07 140.448 1051.07 139.168C1051.07 137.888 1050.83 136.811 1050.34 135.936C1049.85 135.04 1049.2 134.368 1048.39 133.92C1047.58 133.472 1046.7 133.248 1045.76 133.248C1044.82 133.248 1043.95 133.472 1043.14 133.92C1042.35 134.368 1041.72 135.04 1041.25 135.936C1040.78 136.811 1040.55 137.888 1040.55 139.168C1040.55 141.067 1041.03 142.539 1041.99 143.584C1042.97 144.608 1044.19 145.12 1045.67 145.12ZM1062.39 132.928C1062.93 132.032 1063.63 131.339 1064.5 130.848C1065.4 130.336 1066.46 130.08 1067.67 130.08V133.856H1066.74C1065.32 133.856 1064.23 134.219 1063.48 134.944C1062.76 135.669 1062.39 136.928 1062.39 138.72V148H1058.74V130.368H1062.39V132.928ZM1087.22 130.368L1076.4 156.288H1072.63L1076.21 147.712L1069.27 130.368H1073.33L1078.29 143.808L1083.44 130.368H1087.22ZM1114.8 130.368L1103.98 156.288H1100.2L1103.79 147.712L1096.84 130.368H1100.91L1105.87 143.808L1111.02 130.368H1114.8ZM1134.03 138.752C1134.03 139.413 1133.99 140.011 1133.9 140.544H1120.43C1120.54 141.952 1121.06 143.083 1122 143.936C1122.94 144.789 1124.09 145.216 1125.45 145.216C1127.42 145.216 1128.8 144.395 1129.61 142.752H1133.55C1133.02 144.373 1132.04 145.707 1130.64 146.752C1129.25 147.776 1127.52 148.288 1125.45 148.288C1123.77 148.288 1122.25 147.915 1120.91 147.168C1119.59 146.4 1118.54 145.333 1117.77 143.968C1117.03 142.581 1116.65 140.981 1116.65 139.168C1116.65 137.355 1117.02 135.765 1117.74 134.4C1118.49 133.013 1119.52 131.947 1120.84 131.2C1122.19 130.453 1123.72 130.08 1125.45 130.08C1127.12 130.08 1128.6 130.443 1129.9 131.168C1131.2 131.893 1132.22 132.917 1132.94 134.24C1133.67 135.541 1134.03 137.045 1134.03 138.752ZM1130.22 137.6C1130.2 136.256 1129.72 135.179 1128.78 134.368C1127.84 133.557 1126.68 133.152 1125.29 133.152C1124.03 133.152 1122.96 133.557 1122.06 134.368C1121.16 135.157 1120.63 136.235 1120.46 137.6H1130.22ZM1142.19 133.344V143.104C1142.19 143.765 1142.34 144.245 1142.64 144.544C1142.96 144.821 1143.5 144.96 1144.24 144.96H1146.48V148H1143.6C1141.96 148 1140.7 147.616 1139.83 146.848C1138.95 146.08 1138.51 144.832 1138.51 143.104V133.344H1136.43V130.368H1138.51V125.984H1142.19V130.368H1146.48V133.344H1142.19ZM1151.64 148.224C1150.98 148.224 1150.42 148 1149.97 147.552C1149.53 147.104 1149.3 146.549 1149.3 145.888C1149.3 145.227 1149.53 144.672 1149.97 144.224C1150.42 143.776 1150.98 143.552 1151.64 143.552C1152.28 143.552 1152.82 143.776 1153.27 144.224C1153.72 144.672 1153.94 145.227 1153.94 145.888C1153.94 146.549 1153.72 147.104 1153.27 147.552C1152.82 148 1152.28 148.224 1151.64 148.224Z" fill="white"/>
<defs>
<linearGradient id="paint0_linear_3408_20221" x1="165.586" y1="57.2582" x2="971.178" y2="146.721" gradientUnits="userSpaceOnUse">
<stop offset="0.570915" stop-color="#00B3FF"/>
<stop offset="1" stop-color="#4CC9FF"/>
</linearGradient>
</defs>
</svg>
