<svg width="32" height="32" viewBox="0 0 32 32" fill="none" xmlns="http://www.w3.org/2000/svg">
<g id="radix-icons:dashboard">
<path id="Vector" fill-rule="evenodd" clip-rule="evenodd" d="M5.97281 2.13336H5.86615C5.37761 2.13336 4.95735 2.13336 4.58615 2.22083C4.0115 2.35814 3.48609 2.65186 3.06813 3.06945C2.65017 3.48703 2.35598 4.01218 2.21815 4.5867C2.13281 4.9579 2.13281 5.37603 2.13281 5.8667V11.2C2.13281 11.6886 2.13281 12.1088 2.22028 12.48C2.35759 13.0547 2.65131 13.5801 3.0689 13.998C3.48648 14.416 4.01163 14.7102 4.58615 14.848C4.95735 14.9334 5.37548 14.9334 5.86615 14.9334H11.1995C11.688 14.9334 12.1083 14.9334 12.4795 14.8459C13.0541 14.7086 13.5795 14.4149 13.9975 13.9973C14.4155 13.5797 14.7097 13.0545 14.8475 12.48C14.9328 12.1088 14.9328 11.6907 14.9328 11.2V5.8667C14.9328 5.37816 14.9328 4.9579 14.8453 4.5867C14.708 4.01205 14.4143 3.48664 13.9967 3.06868C13.5791 2.65072 13.054 2.35652 12.4795 2.2187C12.1083 2.13336 11.6901 2.13336 11.1995 2.13336H5.97281ZM5.08321 4.29656C5.17495 4.27523 5.31788 4.2667 5.97281 4.2667H11.0928C11.7499 4.2667 11.8907 4.2731 11.9824 4.29656C12.1741 4.34239 12.3492 4.4404 12.4886 4.57973C12.6279 4.71906 12.7259 4.89426 12.7717 5.0859C12.7931 5.1755 12.7995 5.3163 12.7995 5.97336V11.0934C12.7995 11.7504 12.7931 11.8912 12.7696 11.983C12.7238 12.1746 12.6258 12.3498 12.4864 12.4891C12.3471 12.6285 12.1719 12.7265 11.9803 12.7723C11.8928 12.7915 11.752 12.8 11.0928 12.8H5.97281C5.31575 12.8 5.17495 12.7936 5.08321 12.7702C4.89158 12.7243 4.71638 12.6263 4.57705 12.487C4.43772 12.3477 4.33971 12.1725 4.29388 11.9808C4.27468 11.8934 4.26615 11.7526 4.26615 11.0934V5.97336C4.26615 5.3163 4.27255 5.1755 4.29601 5.08376C4.34184 4.89212 4.43985 4.71693 4.57918 4.5776C4.71851 4.43827 4.89371 4.34026 5.08535 4.29443L5.08321 4.29656ZM20.9061 2.13336H20.7995C20.3109 2.13336 19.8907 2.13336 19.5195 2.22083C18.9448 2.35814 18.4194 2.65186 18.0015 3.06945C17.5835 3.48703 17.2893 4.01218 17.1515 4.5867C17.0661 4.9579 17.0661 5.37603 17.0661 5.8667V11.2C17.0661 11.6886 17.0661 12.1088 17.1536 12.48C17.2909 13.0547 17.5846 13.5801 18.0022 13.998C18.4198 14.416 18.945 14.7102 19.5195 14.848C19.8907 14.9334 20.3088 14.9334 20.7995 14.9334H26.1328C26.6213 14.9334 27.0416 14.9334 27.4128 14.8459C27.9875 14.7086 28.5129 14.4149 28.9308 13.9973C29.3488 13.5797 29.643 13.0545 29.7808 12.48C29.8661 12.1088 29.8661 11.6907 29.8661 11.2V5.8667C29.8661 5.37816 29.8661 4.9579 29.7787 4.5867C29.6414 4.01205 29.3476 3.48664 28.9301 3.06868C28.5125 2.65072 27.9873 2.35652 27.4128 2.2187C27.0416 2.13336 26.6235 2.13336 26.1328 2.13336H20.9061ZM20.0165 4.29656C20.1083 4.27523 20.2512 4.2667 20.9061 4.2667H26.0261C26.6832 4.2667 26.824 4.2731 26.9157 4.29656C27.1074 4.34239 27.2826 4.4404 27.4219 4.57973C27.5612 4.71906 27.6593 4.89426 27.7051 5.0859C27.7264 5.1755 27.7328 5.3163 27.7328 5.97336V11.0934C27.7328 11.7504 27.7243 11.8912 27.7029 11.983C27.6571 12.1746 27.5591 12.3498 27.4198 12.4891C27.2805 12.6285 27.1053 12.7265 26.9136 12.7723C26.824 12.7936 26.6832 12.8 26.0261 12.8H20.9061C20.2491 12.8 20.1083 12.7936 20.0165 12.7702C19.8249 12.7243 19.6497 12.6263 19.5104 12.487C19.3711 12.3477 19.273 12.1725 19.2272 11.9808C19.208 11.8934 19.1995 11.7526 19.1995 11.0934V5.97336C19.1995 5.3163 19.2059 5.1755 19.2293 5.08376C19.2752 4.89212 19.3732 4.71693 19.5125 4.5776C19.6518 4.43827 19.827 4.34026 20.0187 4.29443L20.0165 4.29656ZM5.86615 17.0667H11.1995C11.688 17.0667 12.1083 17.0667 12.4795 17.1542C13.0541 17.2915 13.5795 17.5852 13.9975 18.0028C14.4155 18.4204 14.7097 18.9455 14.8475 19.52C14.9328 19.8912 14.9328 20.3094 14.9328 20.8V26.1334C14.9328 26.6219 14.9328 27.0422 14.8453 27.4134C14.708 27.988 14.4143 28.5134 13.9967 28.9314C13.5791 29.3493 13.054 29.6435 12.4795 29.7814C12.1083 29.8667 11.6901 29.8667 11.1995 29.8667H5.86615C5.37761 29.8667 4.95735 29.8667 4.58615 29.7792C4.0115 29.6419 3.48609 29.3482 3.06813 28.9306C2.65017 28.513 2.35598 27.9879 2.21815 27.4134C2.13281 27.0422 2.13281 26.624 2.13281 26.1334V20.8C2.13281 20.3115 2.13281 19.8912 2.22028 19.52C2.35759 18.9454 2.65131 18.42 3.0689 18.002C3.48648 17.5841 4.01163 17.2899 4.58615 17.152C4.95735 17.0667 5.37548 17.0667 5.86615 17.0667ZM5.97281 19.2C5.31575 19.2 5.17495 19.2064 5.08321 19.2299C4.89158 19.2757 4.71638 19.3737 4.57705 19.5131C4.43772 19.6524 4.33971 19.8276 4.29388 20.0192C4.27468 20.1067 4.26615 20.2475 4.26615 20.9067V26.0267C4.26615 26.6838 4.27255 26.8246 4.29601 26.9163C4.34184 27.1079 4.43985 27.2831 4.57918 27.4225C4.71851 27.5618 4.89371 27.6598 5.08535 27.7056C5.17495 27.727 5.31575 27.7334 5.97281 27.7334H11.0928C11.7499 27.7334 11.8907 27.7248 11.9824 27.7035C12.1741 27.6577 12.3492 27.5597 12.4886 27.4203C12.6279 27.281 12.7259 27.1058 12.7717 26.9142C12.7931 26.8246 12.7995 26.6838 12.7995 26.0267V20.9067C12.7995 20.2496 12.7931 20.1088 12.7696 20.0171C12.7238 19.8255 12.6258 19.6503 12.4864 19.5109C12.3471 19.3716 12.1719 19.2736 11.9803 19.2278C11.8928 19.2086 11.752 19.2 11.0928 19.2H5.97281ZM20.9061 17.0667H20.7995C20.3109 17.0667 19.8907 17.0667 19.5195 17.1542C18.9448 17.2915 18.4194 17.5852 18.0015 18.0028C17.5835 18.4204 17.2893 18.9455 17.1515 19.52C17.0661 19.8912 17.0661 20.3094 17.0661 20.8V26.1334C17.0661 26.6219 17.0661 27.0422 17.1536 27.4134C17.2909 27.988 17.5846 28.5134 18.0022 28.9314C18.4198 29.3493 18.945 29.6435 19.5195 29.7814C19.8907 29.8688 20.3109 29.8688 20.7995 29.8688H26.1328C26.6213 29.8688 27.0416 29.8688 27.4128 29.7814C27.9871 29.6437 28.512 29.3498 28.9296 28.9323C29.3471 28.5147 29.641 27.9897 29.7787 27.4155C29.8661 27.0443 29.8661 26.624 29.8661 26.1355V20.8C29.8661 20.3115 29.8661 19.8912 29.7787 19.52C29.6414 18.9454 29.3476 18.42 28.9301 18.002C28.5125 17.5841 27.9873 17.2899 27.4128 17.152C27.0416 17.0667 26.6235 17.0667 26.1328 17.0667H20.9061ZM20.0165 19.2299C20.1083 19.2086 20.2512 19.2 20.9061 19.2H26.0261C26.6832 19.2 26.824 19.2064 26.9157 19.2299C27.1074 19.2757 27.2826 19.3737 27.4219 19.5131C27.5612 19.6524 27.6593 19.8276 27.7051 20.0192C27.7264 20.1088 27.7328 20.2496 27.7328 20.9067V26.0267C27.7328 26.6838 27.7243 26.8246 27.7029 26.9163C27.6571 27.1079 27.5591 27.2831 27.4198 27.4225C27.2805 27.5618 27.1053 27.6598 26.9136 27.7056C26.824 27.727 26.6832 27.7334 26.0261 27.7334H20.9061C20.2491 27.7334 20.1083 27.7248 20.0165 27.7035C19.8249 27.6577 19.6497 27.5597 19.5104 27.4203C19.3711 27.281 19.273 27.1058 19.2272 26.9142C19.208 26.8267 19.1995 26.6859 19.1995 26.0267V20.9067C19.1995 20.2496 19.2059 20.1088 19.2293 20.0171C19.2752 19.8255 19.3732 19.6503 19.5125 19.5109C19.6518 19.3716 19.827 19.2736 20.0187 19.2278L20.0165 19.2299Z" fill="white"/>
</g>
</svg>
